<svg xmlns="http://www.w3.org/2000/svg" width="349" height="356" fill="none" viewBox="0 0 349 356"><path fill="#F2F2F2" d="M274.951 85.104c0 24.751-9.905 84.073-9.905 117.342s0 106.521-27.816 134.378c-27.815 27.858-61.934 16.134-61.934 16.134s-46.726 13.026-76.343-14.831c-29.616-27.858-60.133-83.673-69.138-115.539C19.91 187.515 3.3 173.186 2 165.971s3.602-12.125 12.106-12.626c8.505-.401 22.913 4.008 34.52 22.045 11.606 18.038 17.51 26.054 23.813 35.975 6.303 9.92 20.611 23.348 20.611 23.348s.4-44.993 1.3-64.233c.901-19.34-1.8-111.931 1.802-132.574s26.515-20.242 28.716-4.008c2.201 16.133 8.805 66.938 9.805 79.965s3.702 44.492 3.702 44.492l7.605-2.706s-.901-106.019-.901-133.175c0-29.26 28.716-29.26 32.318-4.008s6.704 143.096 6.704 143.096l6.703 2.705s2.202-111.931 5.804-129.868 26.514-17.536 30.116 4.91 1.301 72.35.901 94.395-.901 43.59-.901 43.59l5.403 4.009s11.006-73.452 14.408-99.306c3.702-27.857 28.416-21.544 28.416 3.107"/><path fill="#FF003D" d="m279.154 266.98-217.02 12.024c-7.305.401-13.308-5.21-13.308-12.525V98.732c0-7.315 6.003-12.927 13.307-12.526L279.154 98.23c5.603.3 10.105 5.711 10.105 12.024v144.7c0 6.313-4.502 11.724-10.105 12.025"/><path fill="#FFF" d="m191.205 139.514-32.318-1.403a7.15 7.15 0 0 0-5.203 1.904l-24.314 22.847c-1.4 1.303-2.201 3.207-2.201 5.211v33.77c0 2.004.801 3.808 2.201 5.211l24.314 22.847a7.15 7.15 0 0 0 5.203 1.904l32.318-1.403a7.64 7.64 0 0 0 4.902-2.205l21.512-22.847c1.201-1.303 1.901-3.106 1.901-4.91v-31.064c0-1.804-.7-3.608-1.901-4.91l-21.512-22.848c-1.3-1.302-3.101-2.104-4.902-2.104"/><path fill="#FF003D" d="m203.311 195.931-58.132.601c-1.601 0-3.002-1.302-3.002-3.006V176.29c0-1.603 1.301-3.006 3.002-3.006l58.132.601c1.601 0 2.902 1.303 2.902 3.007v16.033c0 1.703-1.301 3.006-2.902 3.006"/><path fill="#FFF" fill-rule="evenodd" d="M74.54 103.943c0 3.407-2.701 6.012-6.103 5.812-3.402-.101-6.103-3.007-6.103-6.414s2.801-6.012 6.103-5.812c3.402.2 6.103 3.007 6.103 6.414m19.712.902a5.796 5.796 0 0 1-6.004 5.812c-3.302-.101-6.003-3.007-6.003-6.313a5.795 5.795 0 0 1 6.003-5.812c3.302.1 6.004 2.906 6.004 6.313m13.406 6.511c3.202.201 5.803-2.405 5.803-5.711s-2.601-6.113-5.803-6.213c-3.302-.2-5.903 2.405-5.903 5.712s2.701 6.112 5.903 6.212" clip-rule="evenodd"/><path fill="#FFBE5C" fill-rule="evenodd" d="M248.636 247.842h84.647v-62.129c0-22.547-18.31-40.784-40.722-40.784h-3.202c-22.513 0-40.723 18.338-40.723 40.784zm70.239-14.33h-56.031v-47.799c0-14.63 11.907-26.455 26.415-26.455h3.201c14.609 0 26.415 11.925 26.415 26.455z" clip-rule="evenodd"/><path fill="#FFBE5C" d="M340.487 205.955s-16.309-2.706-17.31-2.706l-78.643 1.102c-7.004.101-13.708 6.514-13.708 13.127V276.2c0 4.71 2.902 8.518 7.004 10.121q2.251.902 4.803.902l12.507 2.304 7.604-3.707 60.433-4.309c6.204-.401 11.207-5.812 11.207-11.925v-43.39z"/><path fill="#FFD89D" d="m337.586 284.016-79.644 5.712c-7.004.501-12.707-4.409-12.707-11.023v-59.723c0-6.614 5.703-12.025 12.707-12.125l79.644-1.103c6.203-.1 11.206 4.81 11.206 10.923v55.515c-.1 6.012-5.003 11.323-11.206 11.824"/><path fill="#D39E50" d="M312.971 236.518c0-6.313-5.203-11.423-11.706-11.423-6.704 0-12.307 5.411-12.307 12.025 0 5.01 3.202 9.118 7.604 10.722v15.532c0 2.505 2.101 4.409 4.703 4.209 2.601-.201 4.602-2.506 4.602-4.911v-15.131c4.303-2.104 7.104-6.313 7.104-11.023" opacity=".7"/><path fill="#FFF" d="M308.269 236.518c0-5.511-4.002-10.121-9.305-11.223-5.604 1.102-10.006 6.012-10.006 11.824 0 5.011 3.202 9.119 7.604 10.723v15.532c0 1.503.801 2.805 2.001 3.507 1.601-.902 2.602-2.505 2.602-4.309v-15.131c4.202-2.004 7.104-6.213 7.104-10.923"/><path fill="#8C8C8C" fill-rule="evenodd" d="M19.51 38.81a2 2 0 0 1 2 2v8.218a2 2 0 1 1-4 0V40.81a2 2 0 0 1 2-2M.3 57.948a2 2 0 0 1 2-2h8.305a2 2 0 0 1 0 4H2.3a2 2 0 0 1-2-2m26.115 0a2 2 0 0 1 2-2h8.305a2 2 0 1 1 0 4h-8.305a2 2 0 0 1-2-2m-6.905 6.314a2 2 0 0 1 2 2v8.918a2 2 0 1 1-4 0v-8.918a2 2 0 0 1 2-2m273.45 249.317a2 2 0 0 1 2 2v6.212a2 2 0 1 1-4 0v-6.212a2 2 0 0 1 2-2m-15.106 15.027a2 2 0 0 1 2-2h6.303a2 2 0 1 1 0 4h-6.303a2 2 0 0 1-2-2m19.911 0a2 2 0 0 1 2-2h6.203a2 2 0 1 1 0 4h-6.203a2 2 0 0 1-2-2m-4.805 4.313a2 2 0 0 1 2 2v6.814a2 2 0 0 1-4 0v-6.814a2 2 0 0 1 2-2M0 313.073c0-8.296 6.716-15.027 15.007-15.027s15.007 6.731 15.007 15.027c0 8.297-6.716 15.027-15.007 15.027C6.717 328.1 0 321.37 0 313.073m15.007-11.027C8.931 302.046 4 306.98 4 313.073S8.93 324.1 15.007 324.1s11.007-4.934 11.007-11.027-4.93-11.027-11.007-11.027" clip-rule="evenodd"/><path fill="#8C8C8C" fill-rule="evenodd" d="M26.015 313.073a2 2 0 0 1 2-2h35.22a2 2 0 0 1 2 2v12.226a2 2 0 0 1-4 0v-10.226H48.123v10.226a2 2 0 0 1-4 0v-10.226h-16.11a2 2 0 0 1-2-2" clip-rule="evenodd"/></svg>