<svg xmlns="http://www.w3.org/2000/svg" width="400" height="400" fill="none" viewBox="0 0 400 400"><path fill="#433F43" d="M299.159 107.104c0 24.751-9.905 84.073-9.905 117.342s0 106.521-27.816 134.378c-27.815 27.858-61.934 16.134-61.934 16.134s-46.726 13.026-76.343-14.831c-29.616-27.858-60.133-83.673-69.138-115.539-9.905-35.073-26.515-49.402-27.815-56.617s3.602-12.125 12.106-12.626c8.505-.401 22.913 4.008 34.52 22.045 11.606 18.038 17.51 26.054 23.813 35.975 6.303 9.92 20.611 23.348 20.611 23.348s.4-44.993 1.301-64.233c.9-19.34-1.801-111.931 1.801-132.574s26.515-20.242 28.716-4.008c2.201 16.133 8.805 66.938 9.805 79.965s3.702 44.492 3.702 44.492l7.605-2.706s-.901-106.019-.901-133.175c0-29.26 28.716-29.26 32.318-4.008s6.704 143.096 6.704 143.096l6.703 2.705s2.202-111.931 5.804-129.868 26.514-17.537 30.116 4.91 1.301 72.35.901 94.395-.901 43.59-.901 43.59l5.403 4.009s11.006-73.452 14.408-99.306c3.702-27.857 28.416-21.544 28.416 3.107"/><path fill="#E9033A" d="m303.362 288.98-217.02 12.025c-7.305.401-13.308-5.211-13.308-12.526V120.732c0-7.315 6.003-12.927 13.307-12.526l217.021 12.025c5.603.3 10.105 5.712 10.105 12.025v144.699c0 6.313-4.502 11.724-10.105 12.025"/><path fill="#fff" d="m215.413 161.514-32.318-1.403a7.15 7.15 0 0 0-5.203 1.904l-24.314 22.848c-1.4 1.302-2.201 3.206-2.201 5.21v33.77c0 2.004.801 3.808 2.201 5.211l24.314 22.847a7.15 7.15 0 0 0 5.203 1.904l32.318-1.403a7.64 7.64 0 0 0 4.902-2.204l21.512-22.847c1.201-1.303 1.901-3.107 1.901-4.911v-31.064c0-1.804-.7-3.607-1.901-4.91l-21.512-22.847c-1.3-1.303-3.101-2.105-4.902-2.105"/><path fill="#E9033A" d="m227.519 217.931-58.132.601c-1.601 0-3.002-1.302-3.002-3.006V198.29c0-1.603 1.301-3.006 3.002-3.006l58.132.601c1.601 0 2.902 1.303 2.902 3.007v16.033c0 1.703-1.301 3.006-2.902 3.006"/><path fill="#fff" fill-rule="evenodd" d="M98.748 125.943c0 3.407-2.701 6.012-6.103 5.812-3.402-.101-6.103-3.007-6.103-6.414s2.801-6.012 6.103-5.812c3.402.201 6.103 3.007 6.103 6.414m19.712.902a5.796 5.796 0 0 1-6.004 5.812c-3.302-.101-6.003-3.007-6.003-6.313a5.794 5.794 0 0 1 6.003-5.812c3.302.1 6.004 2.906 6.004 6.313m13.406 6.511c3.202.201 5.803-2.405 5.803-5.711s-2.601-6.113-5.803-6.213c-3.302-.201-5.903 2.405-5.903 5.712s2.701 6.112 5.903 6.212" clip-rule="evenodd"/><path fill="#FFBE5C" fill-rule="evenodd" d="M272.844 269.842h84.647v-62.129c0-22.547-18.31-40.784-40.722-40.784h-3.202c-22.513 0-40.723 18.338-40.723 40.784zm70.239-14.33h-56.031v-47.799c0-14.63 11.907-26.455 26.415-26.455h3.201c14.609 0 26.415 11.925 26.415 26.455z" clip-rule="evenodd"/><path fill="#FFBE5C" d="M364.695 227.955s-16.309-2.706-17.31-2.706l-78.643 1.103c-7.004.1-13.708 6.513-13.708 13.127V298.2c0 4.71 2.902 8.518 7.004 10.121q2.251.902 4.803.902l12.507 2.305 7.604-3.708 60.433-4.309c6.204-.401 11.207-5.812 11.207-11.925v-43.389z"/><path fill="#FFD493" d="m361.794 306.016-79.644 5.712c-7.004.501-12.707-4.409-12.707-11.023v-59.723c0-6.614 5.703-12.025 12.707-12.125l79.644-1.103c6.203-.1 11.206 4.81 11.206 10.923v55.515c-.1 6.012-5.003 11.323-11.206 11.824"/><path fill="#DCA553" d="M337.179 258.518c0-6.313-5.203-11.424-11.706-11.424-6.704 0-12.307 5.412-12.307 12.025 0 5.011 3.202 9.119 7.604 10.723v15.532c0 2.505 2.101 4.409 4.703 4.208 2.601-.2 4.602-2.505 4.602-4.91v-15.131c4.303-2.104 7.104-6.313 7.104-11.023" opacity=".7"/><path fill="#fff" d="M332.477 258.518c0-5.511-4.002-10.121-9.305-11.223-5.604 1.102-10.006 6.012-10.006 11.824 0 5.011 3.202 9.119 7.604 10.723v15.532c0 1.503.801 2.805 2.001 3.507 1.601-.902 2.602-2.505 2.602-4.309v-15.131c4.202-2.004 7.104-6.213 7.104-10.923"/><path fill="#999" d="M45.717 62.811a2 2 0 0 0-4 0zm-4 8.217a2 2 0 1 0 4 0zm4 17.234a2 2 0 1 0-4 0zm-4 8.919a2 2 0 0 0 4 0zm19.21-15.233a2 2 0 0 0 0-4zm-8.304-4a2 2 0 0 0 0 4zm-17.81 4a2 2 0 0 0 0-4zm-8.305-4a2 2 0 1 0 0 4zm15.21-15.137v8.217h4v-8.217zm0 25.451v8.919h4v-8.919zm19.21-10.314h-8.305v4h8.305zm-26.115 0h-8.305v4h8.305zm284.355 259.63a2 2 0 0 0-4 0zm-4 6.213a2 2 0 1 0 4 0zm4 13.127a2 2 0 0 0-4 0zm-4 6.815a2 2 0 0 0 4 0zm15.008-11.128a2 2 0 1 0 0-4zm-6.203-4a2 2 0 0 0 0 4zm-13.608 4a2 2 0 1 0 0-4zm-6.303-4a2 2 0 0 0 0 4zm11.106-11.027v6.213h4v-6.213zm0 19.34v6.815h4v-6.815zm15.008-8.313h-6.203v4h6.203zm-19.811 0h-6.303v4h6.303z"/><path stroke="#999" stroke-linecap="round" stroke-linejoin="round" stroke-width="4" d="M39.215 348.1c7.184 0 13.007-5.832 13.007-13.027s-5.823-13.027-13.007-13.027-13.007 5.833-13.007 13.027c0 7.195 5.824 13.027 13.007 13.027" clip-rule="evenodd"/><path fill="#999" d="M52.223 333.073a2 2 0 0 0 0 4zm35.22 2h2a2 2 0 0 0-2-2zm-2 12.226a2 2 0 0 0 4 0zm-17.111 0a2 2 0 0 0 4 0zm4-12.226a2 2 0 0 0-4 0zm-20.11 2h35.22v-4h-35.22zm33.22-2v12.226h4v-12.226zm-13.11 12.226v-12.226h-4v12.226z"/></svg>