<svg xmlns="http://www.w3.org/2000/svg" width="342" height="354" fill="none" viewBox="0 0 342 354"><path fill="#F2F2F2" d="M26.587 354h222.359c14.197 0 25.795-11.507 25.795-25.816V166.688c0-14.208-11.498-25.815-25.795-25.815H26.587C12.39 140.873.792 152.38.792 166.688v161.496C.892 342.493 12.39 354 26.587 354"/><path fill="#F2F2F2" fill-rule="evenodd" d="M131.968 34c-40.39 0-73.184 32.8-73.184 73.254v110.375H216.75V107.254C216.749 66.8 183.955 34 143.565 34zM24.784 107.254C24.784 48.048 72.775 0 131.968 0h11.597c59.192 0 107.184 48.048 107.184 107.254v144.375H24.784z" clip-rule="evenodd"/><path fill="#D09B4D" d="M126.568 302.169c-11.098 1.801-50.89 17.01-50.89 17.01L65.68 123.463c-.4-7.705 4.899-13.808 11.798-13.408l173.067 12.807 33.694 133.279z"/><path fill="#FFBE5C" d="m129.868 183.4-67.687-1.301c-6.6-.1-11.898 5.103-11.898 11.707v64.138c0 6.904 5.799 12.407 12.597 12.107l72.087-3.102c6.599-.3 11.598-5.903 11.098-12.607l-4.399-59.736c-.5-6.203-5.599-11.106-11.798-11.206"/><path fill="#FFF" fill-rule="evenodd" d="M63.68 202.969a2 2 0 0 1 2.04-1.96l54.59 1.1a2 2 0 0 1-.08 3.999l-54.59-1.1a2 2 0 0 1-1.96-2.039m58.59 22.915a2 2 0 0 1-1.963 2.036l-54.59 1a2 2 0 1 1-.073-3.999l54.589-1a2 2 0 0 1 2.037 1.963m-.001 21.778a2 2 0 0 1-1.926 2.072l-54.59 2.001a2 2 0 1 1-.146-3.997l54.59-2.001a2 2 0 0 1 2.072 1.925" clip-rule="evenodd"/><path fill="#8C8C8C" fill-rule="evenodd" d="M159.362 46.018c0-7.274 5.613-12.732 12.607-11.995l.014.001 115.878 13.008a2 2 0 0 1 1.346.748l22.296 28.216a2 2 0 0 1 .431 1.24v121.072a1.997 1.997 0 0 1-2.018 2l-148.572-1.301a2 2 0 0 1-1.982-2zM171.544 38c-4.402-.46-8.182 2.886-8.182 8.018v149.007l144.572 1.265V77.931l-21.348-27.017L171.55 38zm7.524 19.427a2 2 0 0 1 2.189-1.791l40.993 4.102a2 2 0 1 1-.399 3.98l-40.992-4.102a2 2 0 0 1-1.791-2.19m3.895 36.268a2 2 0 0 1 2.145-1.843l108.18 8.205a2 2 0 1 1-.303 3.988L184.806 95.84a2 2 0 0 1-1.843-2.145" clip-rule="evenodd"/><path fill="#8C8C8C" fill-rule="evenodd" d="M286.983 47.13a2 2 0 0 1 2.226.652L311.505 76.1a1.999 1.999 0 0 1-1.763 3.228l-13.498-1.3-.015-.002c-6.022-.628-10.591-6.587-10.591-13.096V49.02a2 2 0 0 1 1.345-1.89m2.655 7.663v10.136c0 4.895 3.425 8.74 6.999 9.117l8.83.85z" clip-rule="evenodd"/><path fill="#FFBE5C" d="m269.042 293.562-152.472 1.301c-6.198.1-11.298-5.103-11.298-11.507V80.336c0-6.404 5.1-11.207 11.298-10.707l152.472 13.208c5.099.4 9.198 5.504 9.198 11.207v188.812c-.1 5.904-4.199 10.606-9.198 10.706"/><path fill="#D06304" fill-rule="evenodd" d="M123.969 84.037c0-2.502-1.999-4.703-4.399-4.903-2.499-.2-4.399 1.7-4.399 4.202s2 4.703 4.399 4.903c2.5.2 4.399-1.701 4.399-4.203m14.997 1.2c0-2.501-1.899-4.703-4.299-4.903s-4.399 1.701-4.399 4.203c0 2.501 1.999 4.703 4.399 4.903 2.4.1 4.299-1.701 4.299-4.203m10.399-3.703c2.399.2 4.299 2.3 4.299 4.802s-1.9 4.403-4.299 4.203-4.299-2.302-4.299-4.803 1.899-4.403 4.299-4.203" clip-rule="evenodd"/><path fill="#FFD89D" d="M213.752 123.465c.6-6.504 6.099-11.407 12.098-11.007l107.58 7.305c5.199.4 8.898 5.403 8.298 11.407l-17.097 172.702c-.599 5.904-5.299 11.007-10.598 11.407L86.876 330.988c-7.099.5-12.398-4.803-11.698-11.707l17.597-177.705c.7-7.004 6.998-12.308 13.997-11.907l94.483 5.003c6.398.2 11.897-4.803 12.497-11.207"/><path fill="#8C8C8C" fill-rule="evenodd" d="M68.48 51.222a2 2 0 0 1 2 2v7.304a2 2 0 0 1-4 0v-7.304a2 2 0 0 1 2-2M51.281 68.43a2 2 0 0 1 2-2h7.299a2 2 0 0 1 0 4h-7.299a2 2 0 0 1-2-2m23.095 0a2 2 0 0 1 2-2h7.3a2 2 0 0 1 0 4h-7.3a2 2 0 0 1-2-2m-5.897 5.305a2 2 0 0 1 2 2v7.905a2 2 0 1 1-4 0v-7.905a2 2 0 0 1 2-2" clip-rule="evenodd"/></svg>