<svg xmlns="http://www.w3.org/2000/svg" width="400" height="400" fill="none" viewBox="0 0 400 400"><path fill="#433F43" d="M54.795 368h222.359c14.197 0 25.795-11.507 25.795-25.815V180.689c0-14.209-11.498-25.815-25.795-25.815H54.795C40.598 154.874 29 166.38 29 180.689v161.496C29.1 356.493 40.598 368 54.795 368"/><path stroke="#433F43" stroke-width="34" d="M261.956 248.629H69.992V121.254c0-49.83 40.393-90.254 90.183-90.254h11.598c49.791 0 90.183 40.424 90.183 90.254z" clip-rule="evenodd"/><path fill="#D8B37D" d="M154.776 316.169c-11.098 1.801-50.89 17.01-50.89 17.01l-9.998-195.716c-.4-7.704 4.899-13.808 11.797-13.408l173.068 12.808 33.694 133.279z"/><path fill="#FFBE5C" d="m158.076 197.4-67.687-1.301c-6.6-.1-11.898 5.103-11.898 11.707v64.138c0 6.904 5.799 12.408 12.597 12.108l72.087-3.102c6.599-.3 11.598-5.904 11.098-12.608l-4.399-59.735c-.5-6.204-5.599-11.107-11.798-11.207"/><path fill="#fff" d="M93.929 215.009a2 2 0 0 0-.081 3.999zm54.509 5.099a2 2 0 1 0 .08-3.999zm-54.586 18.813a2 2 0 1 0 .073 3.999zm54.663 2.999a2 2 0 1 0-.074-3.999zm-54.7 19.818a2 2 0 1 0 .147 3.997zm54.736 1.996a2 2 0 0 0-.146-3.997zm-54.703-44.726 54.59 1.1.08-3.999-54.59-1.1zm.077 23.912 54.59-1-.074-3.999-54.59 1zm.037 22.815 54.589-2.001-.146-3.997-54.59 2.001z"/><path fill="#999" d="m315.846 63.019 1.569-1.24a2 2 0 0 0-1.346-.748zM199.968 50.011l.223-1.987-.014-.002zM189.57 211.007h-2a2 2 0 0 0 1.982 2zm148.572 1.301-.018 2a2 2 0 0 0 2.018-2zm0-121.072h2a2 2 0 0 0-.431-1.24zm-128.677-21.6a2 2 0 1 0-.398 3.98zm40.594 8.082a2 2 0 0 0 .399-3.98zm-36.743 28.133a2 2 0 0 0-.302 3.989zm107.877 12.194a2.001 2.001 0 0 0 .303-3.989zm-5.124-57.013L200.191 48.024l-.446 3.975 115.878 13.008zm-115.892-13.01c-6.994-.736-12.607 4.722-12.607 11.995h4c0-5.134 3.784-8.48 8.188-8.017zM187.57 60.017v150.99h4V60.017zm1.982 152.99 148.572 1.301.035-4-148.572-1.301zm150.59-.699V91.236h-4v121.072zm-.431-122.312-22.296-28.217-3.138 2.48 22.296 28.217zm-130.644-16.38 40.992 4.102.399-3.98-40.993-4.102zm41.391.122-40.993-4.102-.398 3.98 40.992 4.102zm-37.444 36.102 108.179 8.205.303-3.989-108.18-8.205zm108.482 4.216-108.18-8.205-.302 3.989 108.179 8.205z"/><path stroke="#999" stroke-linecap="round" stroke-linejoin="round" stroke-width="4" d="M315.846 63.019v15.91c0 5.703 3.999 10.606 8.798 11.106l13.498 1.3z" clip-rule="evenodd"/><path fill="#FFBE5C" d="m297.25 307.562-152.472 1.301c-6.198.1-11.298-5.103-11.298-11.507V94.336c0-6.404 5.1-11.207 11.298-10.707L297.25 96.837c5.099.4 9.198 5.504 9.198 11.207v188.812c-.1 5.904-4.199 10.606-9.198 10.706"/><path fill="#DD7E10" fill-rule="evenodd" d="M152.177 98.036c0-2.501-1.999-4.703-4.399-4.903-2.499-.2-4.399 1.701-4.399 4.203 0 2.501 2 4.703 4.399 4.903 2.5.2 4.399-1.701 4.399-4.203m14.997 1.201c0-2.501-1.899-4.703-4.299-4.903s-4.399 1.701-4.399 4.203c0 2.501 1.999 4.702 4.399 4.902 2.4.101 4.299-1.701 4.299-4.202m10.399-3.704c2.399.2 4.299 2.302 4.299 4.803s-1.9 4.403-4.299 4.203c-2.4-.201-4.299-2.302-4.299-4.803s1.899-4.403 4.299-4.203" clip-rule="evenodd"/><path fill="#FFD493" d="M241.96 137.465c.6-6.504 6.099-11.407 12.098-11.007l107.58 7.305c5.199.4 8.898 5.403 8.298 11.407l-17.097 172.702c-.599 5.904-5.299 11.007-10.598 11.407l-227.157 15.709c-7.099.5-12.398-4.803-11.698-11.707l17.597-177.705c.7-7.004 6.998-12.308 13.997-11.907l94.482 5.003c6.399.2 11.898-4.803 12.498-11.207"/><path fill="#999" d="M98.687 67.221a2 2 0 0 0-4 0zm-4 7.305a2 2 0 0 0 4 0zm4 15.209a2 2 0 1 0-4 0zm-4 7.904a2 2 0 1 0 4 0zm17.197-13.209a2 2 0 1 0 0-4zm-7.299-4a2 2 0 0 0 0 4zm-15.796 4a2 2 0 0 0 0-4zm-7.299-4a2 2 0 0 0 0 4zm13.197-13.209v7.305h4V67.22zm0 22.514v7.904h4v-7.904zm17.197-9.305h-7.299v4h7.299zm-23.095 0H81.49v4h7.299z"/></svg>