<svg xmlns="http://www.w3.org/2000/svg" width="400" height="400" fill="none" viewBox="0 0 400 400"><path fill="#433F43" d="M174.299 148.269h-86.44c-5.603 0-10.205-4.594-10.205-10.188v-16.679c0-5.593 4.602-10.188 10.204-10.188H174.3c5.603 0 10.205 4.595 10.205 10.188v16.679c0 5.594-4.602 10.188-10.205 10.188"/><path fill="#433F43" d="M110.469 312.267H31.531c-16.908 0-25.612-22.773-17.408-36.356 9.305-15.281 28.714-11.786 28.714-11.786s-7.304-29.164 16.107-29.164h20.31v-56.93c0-12.585.9-21.074 20.01-21.074h111.052V60.175h77.837c11.005 0 19.909 9.688 19.909 21.574v67.417h19.109a13.652 13.652 0 0 1 13.707 13.683v93.086s22.911-3.395 30.314 6.293c7.404 9.688 2.501 22.972 2.501 22.972S388 287.796 388 302.179c0 13.583-8.604 18.178-32.115 18.178H112.47z"/><path fill="#999" d="M189.206 243.252a2 2 0 1 0 0 4zM44.538 253.343a2 2 0 1 0 4 0zm4-8.09a2 2 0 0 0-4 0zm138.667 8.09a2 2 0 0 0 4 0zm4-8.09a2 2 0 0 0-4 0zM46.538 174.738v-2a2 2 0 0 0-2 2zm142.668 0h2a2 2 0 0 0-2-2zm0 8.19v2a2 2 0 0 0 2-2zm-142.668 0h-2a2 2 0 0 0 2 2zm0 132.837v-2a2 2 0 0 0-2 2zm142.668 0h2a2 2 0 0 0-2-2zm0 8.19v2a2 2 0 0 0 2-2zm-142.668 0h-2a2 2 0 0 0 2 2zm142.668-10.19H46.639v4h142.567zm-142.567 0c-4.79 0-8.606-3.889-8.606-8.587h-4c0 6.889 5.589 12.587 12.606 12.587zm-8.606-8.587v-41.149h-4v41.149zm0-41.149c0-4.773 3.892-8.587 8.606-8.587v-4c-6.892 0-12.606 5.574-12.606 12.587zm8.606-8.587h142.567v-4H46.639zm142.567 0c4.789 0 8.605 3.889 8.605 8.587h4c0-6.889-5.589-12.587-12.605-12.587zm8.605 8.587v41.149h4v-41.149zm0 41.149c0 4.698-3.816 8.587-8.605 8.587v4c7.016 0 12.605-5.698 12.605-12.587zm-8.605-61.926H46.639v4h142.567zm-142.567 0c-4.79 0-8.606-3.89-8.606-8.587h-4c0 6.888 5.589 12.587 12.606 12.587zm-8.606-8.587v-41.15h-4v41.15zm0-41.15c0-4.773 3.892-8.587 8.606-8.587v-4c-6.892 0-12.606 5.574-12.606 12.587zm8.606-8.587h142.567v-4H46.639zm142.567 0c4.789 0 8.605 3.89 8.605 8.587h4c0-6.888-5.589-12.587-12.605-12.587zm8.605 8.587v41.15h4v-41.15zm0 41.15c0 4.697-3.816 8.587-8.605 8.587v4c7.016 0 12.605-5.699 12.605-12.587zM48.538 253.343v-8.09h-4v8.09zm-4-8.09v8.09h4v-8.09zm146.667 8.09v-8.09h-4v8.09zm-4-8.09v8.09h4v-8.09zM46.538 176.738h142.668v-4H46.538zm140.668-2v8.19h4v-8.19zm2 6.19H46.538v4h142.668zm-140.668 2v-8.19h-4v8.19zm-2 134.837h142.668v-4H46.538zm140.668-2v8.19h4v-8.19zm2 6.19H46.538v4h142.668zm-140.668 2v-8.19h-4v8.19z"/><path stroke="#999" stroke-linecap="round" stroke-linejoin="round" stroke-width="4" d="M55.242 202.103a4.398 4.398 0 0 0 4.402-4.394 4.399 4.399 0 0 0-4.402-4.395 4.399 4.399 0 0 0-4.402 4.395 4.398 4.398 0 0 0 4.402 4.394m0 16.179a4.399 4.399 0 0 0 4.402-4.395 4.399 4.399 0 0 0-4.402-4.395 4.399 4.399 0 0 0-4.402 4.395 4.399 4.399 0 0 0 4.402 4.395m0 15.684a4.399 4.399 0 0 0 4.402-4.395 4.399 4.399 0 0 0-4.402-4.395 4.399 4.399 0 0 0-4.402 4.395 4.399 4.399 0 0 0 4.402 4.395m0 39.05a4.398 4.398 0 0 0 4.402-4.394 4.399 4.399 0 0 0-4.402-4.395 4.399 4.399 0 0 0-4.402 4.395 4.398 4.398 0 0 0 4.402 4.394m0 16.18a4.398 4.398 0 0 0 4.402-4.394 4.399 4.399 0 0 0-4.402-4.395 4.399 4.399 0 0 0-4.402 4.395 4.398 4.398 0 0 0 4.402 4.394m0 15.68a4.399 4.399 0 0 0 4.402-4.395 4.398 4.398 0 0 0-4.402-4.394 4.398 4.398 0 0 0-4.402 4.394 4.399 4.399 0 0 0 4.402 4.395" clip-rule="evenodd"/><path fill="#FFD493" d="M344.479 188.919s-41.82-2.996-97.046-2.996c-55.826 0-97.046 2.996-97.046 2.996-5.603 0-10.205-4.294-10.205-9.688v-36.555c0-5.294 2.702-8.29 10.205-9.688 7.404-1.299 45.021-7.491 97.046-7.491 52.025 0 89.742 6.492 97.046 7.491 7.303 1.098 10.205 4.295 10.205 9.688v36.555c0 5.394-4.502 9.688-10.205 9.688M150.488 304.578s41.819 2.996 97.045 2.996c55.827 0 97.046-2.996 97.046-2.996 5.603 0 10.205 4.294 10.205 9.688v36.555c0 5.294-2.701 8.29-10.205 9.688-7.403 1.299-45.021 7.491-97.046 7.491-52.024 0-89.742-6.492-97.045-7.491-7.304-.999-10.205-4.294-10.205-9.688v-36.555c.1-5.394 4.602-9.688 10.205-9.688"/><path fill="#FFD493" d="M150.488 304.578s41.819 2.996 97.045 2.996c55.827 0 97.046-2.996 97.046-2.996 5.603 0 10.205 4.294 10.205 9.688v36.555c0 5.294-2.701 8.29-10.205 9.688-7.403 1.299-45.021 5.494-97.046 5.494-52.024 0-89.742-4.495-97.045-5.494-7.304-.999-10.205-4.294-10.205-9.688v-36.555c.1-5.394 4.602-9.688 10.205-9.688"/><path fill="#FFD493" d="M140.383 179.231h214.301v140.628H140.383z"/><path fill="#FFBE5C" fill-rule="evenodd" d="M353.183 205.299s-45.521-3.296-105.75-3.296c-60.828 0-105.75 3.296-105.75 3.296-6.103 0-11.105-4.694-11.105-10.487v-39.851c0-5.793 2.901-9.089 11.105-10.487 8.204-1.399 49.024-7.291 105.75-7.291 53.767 0 93.422 5.563 104.23 7.079l1.52.212c7.904 1.098 11.106 4.694 11.106 10.487v39.851c0 5.793-4.903 10.487-11.106 10.487m-211.4 81.302s59.728 3.296 105.75 3.296 105.75-3.296 105.75-3.296c6.103 0 11.105 4.694 11.105 10.487v39.852c0 5.792-2.901 9.088-11.105 10.487-8.104 1.398-49.023 5.293-105.75 5.293s-97.746-4.195-105.75-5.293c-7.904-1.099-11.105-4.695-11.105-10.487v-39.852c0-5.793 5.002-10.487 11.105-10.487m105.65-73.811c33.416 0 97.947 1.398 105.75 2.397 7.804.999 11.106 4.694 11.106 10.487v40.251c0 5.793-5.203 9.788-11.106 10.487-6.002.699-72.334 2.397-105.75 2.397-33.415 0-98.546-1.198-105.75-2.397-7.203-1.198-11.105-4.694-11.105-10.487v-40.251c0-5.793 4.602-9.788 11.105-10.487 6.503-.699 72.335-2.397 105.75-2.397" clip-rule="evenodd"/><path fill="#fff" d="M316.566 261.93c2.708 0 4.902-2.773 4.902-6.193 0-3.42-2.194-6.192-4.902-6.192-2.707 0-4.902 2.772-4.902 6.192 0 3.42 2.195 6.193 4.902 6.193"/><path fill="#DD7E10" d="M335.375 261.629c2.1 0 3.802-2.773 3.802-6.193 0-3.42-1.702-6.192-3.802-6.192-2.099 0-3.801 2.772-3.801 6.192 0 3.42 1.702 6.193 3.801 6.193"/><path fill="#fff" d="M316.566 242.254c2.708 0 4.902-2.772 4.902-6.192 0-3.42-2.194-6.193-4.902-6.193-2.707 0-4.902 2.773-4.902 6.193 0 3.42 2.195 6.192 4.902 6.192"/><path fill="#DD7E10" d="M335.375 242.753c2.1 0 3.802-2.772 3.802-6.192 0-3.42-1.702-6.192-3.802-6.192-2.099 0-3.801 2.772-3.801 6.192 0 3.42 1.702 6.192 3.801 6.192m-18.809 95.883c2.708 0 4.902-2.772 4.902-6.192 0-3.42-2.194-6.193-4.902-6.193-2.707 0-4.902 2.773-4.902 6.193 0 3.42 2.195 6.192 4.902 6.192"/><path fill="#fff" d="M335.375 336.74c2.1 0 3.802-2.773 3.802-6.193 0-3.42-1.702-6.192-3.802-6.192-2.099 0-3.801 2.772-3.801 6.192 0 3.42 1.702 6.193 3.801 6.193"/><path fill="#DD7E10" d="M316.566 318.96c2.708 0 4.902-2.772 4.902-6.192 0-3.42-2.194-6.193-4.902-6.193-2.707 0-4.902 2.773-4.902 6.193 0 3.42 2.195 6.192 4.902 6.192"/><path fill="#fff" d="M335.375 317.763c2.1 0 3.802-2.772 3.802-6.192 0-3.42-1.702-6.193-3.802-6.193-2.099 0-3.801 2.773-3.801 6.193 0 3.42 1.702 6.192 3.801 6.192"/><path fill="#DD7E10" d="M316.566 186.622c2.708 0 4.902-2.772 4.902-6.192 0-3.42-2.194-6.193-4.902-6.193-2.707 0-4.902 2.773-4.902 6.193 0 3.42 2.195 6.192 4.902 6.192"/><path fill="#fff" d="M335.375 188.02c2.1 0 3.802-2.772 3.802-6.192 0-3.42-1.702-6.192-3.802-6.192-2.099 0-3.801 2.772-3.801 6.192 0 3.42 1.702 6.192 3.801 6.192m-18.809-20.974c2.708 0 4.902-2.772 4.902-6.192 0-3.42-2.194-6.193-4.902-6.193-2.707 0-4.902 2.773-4.902 6.193 0 3.42 2.195 6.192 4.902 6.192"/><path fill="#DD7E10" d="M335.375 169.044c2.1 0 3.802-2.773 3.802-6.193 0-3.42-1.702-6.192-3.802-6.192-2.099 0-3.801 2.772-3.801 6.192 0 3.42 1.702 6.193 3.801 6.193"/><path fill="#fff" d="M290.672 181.629a2 2 0 0 0 .163-3.997zm-42.138-5.097a2 2 0 1 0 0 4zm.5-21.274a2 2 0 0 0 0 4zm41.602 5.195a2 2 0 1 0 .235-3.993zm.119 77.607a2 2 0 0 0 0-4zm-41.72-4a2 2 0 0 0 0 4zm41.72 23.679a2 2 0 0 0 0-4zm-42.22-4a2 2 0 0 0 0 4zm-2.102 58.628a2 2 0 0 0 0 4zm44.409 2.8a2 2 0 1 0-.177-3.996zm.039 21.07a2 2 0 1 0-.255-3.992zm-44.948-2.597a2 2 0 1 0 0 4zm44.902-156.008c-12.202-.499-26.747-1.1-42.301-1.1v4c15.46 0 29.928.597 42.138 1.097zm-41.801-18.374c15.665 0 29.733.498 41.602 1.195l.235-3.993a717.695 717.695 0 0 0-41.837-1.202zm41.721 74.802h-41.72v4h41.72zm0 19.679h-42.22v4h42.22zm-44.322 62.628c16.956 0 30.901-.601 44.409-1.2l-.177-3.996c-13.505.599-27.372 1.196-44.232 1.196zm44.193 15.878c-12.467.797-27.631 1.395-44.693 1.395v4c17.154 0 32.404-.601 44.948-1.403z"/><path fill="#999" d="M123.674 49.79a2 2 0 1 0-4 0zm-4 8.19a2 2 0 1 0 4 0zm4 17.177a2 2 0 1 0-4 0zm-4 8.89a2 2 0 0 0 4 0zm19.208-15.078a2 2 0 1 0 0-4zm-8.204-4a2 2 0 0 0 0 4zm-17.908 4a2 2 0 1 0 0-4zm-8.304-4a2 2 0 1 0 0 4zm15.208-15.18v8.19h4v-8.19zm0 25.368v8.89h4v-8.89zm19.208-10.188h-8.204v4h8.204zm-26.112 0h-8.304v4h8.304z"/><path fill="#FFBE5C" d="m359.186 39.602-64.13-8.59c-2.801-.2-5.202 1.998-5.202 4.895V97.93c0 2.896 2.301 5.393 5.202 5.493l20.41 1.598c8.004.799 8.804 7.591 10.405 12.185.4.999 1.801 1.099 2.101.1 1.2-4.195 2.801-11.086 9.104-10.587l22.01 1.698c2.802.2 5.203-1.998 5.203-4.894V45.195c0-2.896-2.301-5.393-5.103-5.593"/><path fill="#fff" d="M329.972 53.984a2 2 0 0 0-4 0zm-4 32.161a2 2 0 1 0 4 0zm-13.704-20.269a2 2 0 1 0-.408 3.98zm29.807 7.076a2 2 0 0 0 .407-3.98zm-16.103-18.968v32.161h4v-32.16zM311.86 69.856l30.215 3.096.407-3.98-30.214-3.096z"/></svg>