<svg xmlns="http://www.w3.org/2000/svg" width="377" height="337" fill="none" viewBox="0 0 377 337"><path fill="#F2F2F2" d="M163.299 117.269h-86.44c-5.603 0-10.206-4.594-10.206-10.187v-16.68c0-5.593 4.602-10.187 10.205-10.187H163.3c5.603 0 10.205 4.594 10.205 10.187v16.68c0 5.593-4.602 10.187-10.205 10.187"/><path fill="#F2F2F2" d="M99.469 281.266H20.53c-16.908 0-25.612-22.772-17.408-36.355 9.305-15.282 28.714-11.786 28.714-11.786s-7.304-29.164 16.107-29.164h20.31v-56.93c0-12.585.9-21.075 20.01-21.075h111.052V29.175h77.837c11.005 0 19.909 9.688 19.909 21.573v67.418h19.109a13.65 13.65 0 0 1 13.707 13.683v93.086s22.911-3.396 30.314 6.292c7.404 9.689 2.501 22.972 2.501 22.972S377 256.796 377 271.178c0 13.584-8.604 18.178-32.115 18.178H101.47z"/><path fill="#8C8C8C" fill-rule="evenodd" d="M33.538 143.738a2 2 0 0 1 2-2h142.668a2 2 0 0 1 2 2v6.347c6.049.961 10.605 6.211 10.605 12.43v41.15c0 6.22-4.557 11.469-10.606 12.43v4.504c6.049.961 10.606 6.21 10.606 12.43v41.15c0 6.219-4.556 11.469-10.605 12.43v6.347a2 2 0 0 1-2 2H35.538a2 2 0 0 1-2-2v-6.364c-6-1.002-10.505-6.228-10.505-12.413v-41.15c0-6.286 4.59-11.416 10.505-12.412v-4.539c-6-1.002-10.505-6.228-10.505-12.413v-41.15c0-6.286 4.59-11.416 10.505-12.412zm4 6.19h138.668v-4.19H37.538m-1.918 8.19c-4.705.01-8.587 3.821-8.587 8.587v41.15c0 4.697 3.816 8.587 8.605 8.587h142.568c4.789 0 8.605-3.89 8.605-8.587v-41.15c0-4.697-3.816-8.587-8.605-8.587zm1.918 62.324v4.19h138.667v-4.19zm-1.943 66.514h142.611c4.789 0 8.605-3.89 8.605-8.587v-41.15c0-4.697-3.816-8.587-8.605-8.587H35.638c-4.713 0-8.605 3.814-8.605 8.587v41.15c0 4.683 3.793 8.563 8.562 8.587m140.611 4H37.538v4.19h138.668z" clip-rule="evenodd"/><path fill="#8C8C8C" fill-rule="evenodd" d="M37.84 166.708a6.4 6.4 0 0 1 6.402-6.395 6.4 6.4 0 0 1 6.402 6.395 6.4 6.4 0 0 1-6.402 6.395 6.4 6.4 0 0 1-6.402-6.395m6.402-2.395a2.4 2.4 0 0 0-2.402 2.395 2.4 2.4 0 0 0 2.402 2.395 2.4 2.4 0 0 0 2.402-2.395 2.4 2.4 0 0 0-2.402-2.395m-6.402 18.574a6.4 6.4 0 0 1 6.402-6.395 6.4 6.4 0 0 1 6.402 6.395 6.4 6.4 0 0 1-6.402 6.394 6.4 6.4 0 0 1-6.402-6.394m6.402-2.395a2.4 2.4 0 0 0-2.402 2.395 2.4 2.4 0 0 0 2.402 2.394 2.4 2.4 0 0 0 2.402-2.394 2.4 2.4 0 0 0-2.402-2.395m-6.402 18.079a6.4 6.4 0 0 1 6.402-6.394 6.4 6.4 0 0 1 6.402 6.394 6.4 6.4 0 0 1-6.402 6.395 6.4 6.4 0 0 1-6.402-6.395m6.402-2.394a2.4 2.4 0 0 0-2.402 2.394 2.4 2.4 0 0 0 2.402 2.395 2.4 2.4 0 0 0 2.402-2.395 2.4 2.4 0 0 0-2.402-2.394m-6.402 41.445a6.4 6.4 0 0 1 6.402-6.395 6.4 6.4 0 0 1 6.402 6.395 6.4 6.4 0 0 1-6.402 6.394 6.4 6.4 0 0 1-6.402-6.394m6.402-2.395a2.4 2.4 0 0 0-2.402 2.395 2.4 2.4 0 0 0 2.402 2.394 2.4 2.4 0 0 0 2.402-2.394 2.4 2.4 0 0 0-2.402-2.395m-6.402 18.575a6.4 6.4 0 0 1 6.402-6.395 6.4 6.4 0 0 1 6.402 6.395 6.4 6.4 0 0 1-6.402 6.394 6.4 6.4 0 0 1-6.402-6.394m6.402-2.395a2.4 2.4 0 0 0-2.402 2.395 2.4 2.4 0 0 0 2.402 2.394 2.4 2.4 0 0 0 2.402-2.394 2.4 2.4 0 0 0-2.402-2.395m-6.402 18.074a6.4 6.4 0 0 1 6.402-6.395 6.4 6.4 0 0 1 6.402 6.395 6.4 6.4 0 0 1-6.402 6.395 6.4 6.4 0 0 1-6.402-6.395m6.402-2.395a2.4 2.4 0 0 0-2.402 2.395 2.4 2.4 0 0 0 2.402 2.395 2.4 2.4 0 0 0 2.402-2.395 2.4 2.4 0 0 0-2.402-2.395" clip-rule="evenodd"/><path fill="#FFD89D" d="M333.479 157.919s-41.82-2.996-97.046-2.996c-55.827 0-97.046 2.996-97.046 2.996-5.603 0-10.205-4.294-10.205-9.688v-36.555c0-5.293 2.701-8.29 10.205-9.688 7.403-1.299 45.021-7.49 97.046-7.49 52.024 0 89.742 6.491 97.046 7.49 7.303 1.099 10.205 4.295 10.205 9.688v36.555c0 5.394-4.503 9.688-10.205 9.688M139.488 273.578s41.819 2.996 97.045 2.996c55.827 0 97.046-2.996 97.046-2.996 5.603 0 10.205 4.294 10.205 9.688v36.555c0 5.294-2.701 8.29-10.205 9.688-7.403 1.299-45.021 7.491-97.046 7.491-52.024 0-89.742-6.492-97.045-7.491-7.304-.999-10.205-4.295-10.205-9.688v-36.555c.1-5.394 4.602-9.688 10.205-9.688"/><path fill="#FFD89D" d="M139.488 273.578s41.819 2.996 97.045 2.996c55.827 0 97.046-2.996 97.046-2.996 5.603 0 10.205 4.294 10.205 9.688v36.555c0 5.294-2.701 8.29-10.205 9.688-7.403 1.299-45.021 5.493-97.046 5.493-52.024 0-89.742-4.494-97.045-5.493-7.304-.999-10.205-4.295-10.205-9.688v-36.555c.1-5.394 4.602-9.688 10.205-9.688"/><path fill="#FFD89D" d="M129.383 148.231h214.301v140.628H129.383z"/><path fill="#FFBE5C" fill-rule="evenodd" d="M342.183 174.299s-45.521-3.296-105.75-3.296c-60.828 0-105.75 3.296-105.75 3.296-6.103 0-11.105-4.694-11.105-10.487v-39.851c0-5.793 2.901-9.089 11.105-10.487 8.204-1.399 49.024-7.291 105.75-7.291 53.767 0 93.422 5.563 104.23 7.079l1.52.212c7.904 1.098 11.106 4.694 11.106 10.487v39.851c0 5.793-4.903 10.487-11.106 10.487m-211.4 81.302s59.728 3.296 105.75 3.296 105.75-3.296 105.75-3.296c6.103 0 11.105 4.694 11.105 10.487v39.852c0 5.792-2.901 9.088-11.105 10.487-8.104 1.398-49.023 5.293-105.75 5.293s-97.746-4.195-105.75-5.293c-7.904-1.099-11.105-4.695-11.105-10.487v-39.852c0-5.793 5.002-10.487 11.105-10.487m105.65-73.811c33.416 0 97.947 1.398 105.75 2.397 7.804.999 11.106 4.694 11.106 10.487v40.251c0 5.793-5.203 9.788-11.106 10.487-6.002.699-72.334 2.397-105.75 2.397s-98.546-1.198-105.75-2.397-11.105-4.694-11.105-10.487v-40.251c0-5.793 4.602-9.788 11.105-10.487s72.335-2.397 105.75-2.397" clip-rule="evenodd"/><path fill="#FFF" d="M305.566 230.93c2.708 0 4.902-2.773 4.902-6.193s-2.194-6.192-4.902-6.192c-2.707 0-4.902 2.772-4.902 6.192s2.195 6.193 4.902 6.193"/><path fill="#D36507" d="M324.376 230.629c2.099 0 3.801-2.772 3.801-6.192s-1.702-6.193-3.801-6.193-3.802 2.773-3.802 6.193 1.702 6.192 3.802 6.192"/><path fill="#FFF" d="M305.566 211.254c2.708 0 4.902-2.772 4.902-6.192s-2.194-6.193-4.902-6.193c-2.707 0-4.902 2.773-4.902 6.193s2.195 6.192 4.902 6.192"/><path fill="#D36507" d="M324.376 211.754c2.099 0 3.801-2.772 3.801-6.192s-1.702-6.193-3.801-6.193-3.802 2.773-3.802 6.193 1.702 6.192 3.802 6.192m-18.81 95.882c2.708 0 4.902-2.772 4.902-6.192s-2.194-6.193-4.902-6.193c-2.707 0-4.902 2.773-4.902 6.193s2.195 6.192 4.902 6.192"/><path fill="#FFF" d="M324.376 305.74c2.099 0 3.801-2.773 3.801-6.193s-1.702-6.192-3.801-6.192-3.802 2.772-3.802 6.192 1.702 6.193 3.802 6.193"/><path fill="#D36507" d="M305.566 287.96c2.708 0 4.902-2.772 4.902-6.192s-2.194-6.193-4.902-6.193c-2.707 0-4.902 2.773-4.902 6.193s2.195 6.192 4.902 6.192"/><path fill="#FFF" d="M324.376 286.763c2.099 0 3.801-2.772 3.801-6.192s-1.702-6.193-3.801-6.193-3.802 2.773-3.802 6.193 1.702 6.192 3.802 6.192"/><path fill="#D36507" d="M305.566 155.622c2.708 0 4.902-2.772 4.902-6.192s-2.194-6.193-4.902-6.193c-2.707 0-4.902 2.773-4.902 6.193s2.195 6.192 4.902 6.192"/><path fill="#FFF" d="M324.376 157.021c2.099 0 3.801-2.773 3.801-6.193s-1.702-6.192-3.801-6.192-3.802 2.772-3.802 6.192 1.702 6.193 3.802 6.193m-18.81-20.975c2.708 0 4.902-2.772 4.902-6.192s-2.194-6.193-4.902-6.193c-2.707 0-4.902 2.773-4.902 6.193s2.195 6.192 4.902 6.192"/><path fill="#D36507" d="M324.376 138.044c2.099 0 3.801-2.772 3.801-6.192s-1.702-6.193-3.801-6.193-3.802 2.773-3.802 6.193 1.702 6.192 3.802 6.192"/><path fill="#FFF" fill-rule="evenodd" d="M236.034 126.258a2 2 0 0 1 2-2c15.749 0 29.895.501 41.837 1.202a2 2 0 0 1-.235 3.993 714 714 0 0 0-41.602-1.195 2 2 0 0 1-2-2m-.501 21.274a2 2 0 0 1 2-2c15.412 0 29.833.59 41.965 1.086l.337.014a2 2 0 1 1-.163 3.997l-.313-.013c-12.144-.497-26.497-1.084-41.826-1.084a2 2 0 0 1-2-2m.502 57.528a2 2 0 0 1 2-2h41.719a2 2 0 1 1 0 4h-41.719a2 2 0 0 1-2-2m-.501 19.679a2 2 0 0 1 2-2h42.22a2 2 0 1 1 0 4h-42.22a2 2 0 0 1-2-2m46.218 57.341a2 2 0 0 1-1.91 2.086c-13.508.6-27.453 1.201-44.409 1.201a2 2 0 1 1 0-4c16.859 0 30.727-.597 44.232-1.197a2 2 0 0 1 2.087 1.91m-.002 21.033a2 2 0 0 1-1.869 2.124c-12.544.801-27.794 1.402-44.948 1.402a2 2 0 1 1 0-4c17.062 0 32.226-.597 44.693-1.394a2 2 0 0 1 2.124 1.868" clip-rule="evenodd"/><path fill="#8C8C8C" fill-rule="evenodd" d="M110.674 16.79a2 2 0 0 1 2 2v8.19a2 2 0 0 1-4 0v-8.19a2 2 0 0 1 2-2M91.466 35.969a2 2 0 0 1 2-2h8.304a2 2 0 0 1 0 4h-8.304a2 2 0 0 1-2-2m26.212 0a2 2 0 0 1 2-2h8.204a2 2 0 1 1 0 4h-8.204a2 2 0 0 1-2-2m-7.004 6.188a2 2 0 0 1 2 2v8.89a2 2 0 1 1-4 0v-8.89a2 2 0 0 1 2-2" clip-rule="evenodd"/><path fill="#FFBE5C" d="m348.186 8.602-64.13-8.59c-2.801-.2-5.202 1.998-5.202 4.895V66.93c0 2.896 2.301 5.393 5.202 5.493l20.41 1.598c8.003.799 8.804 7.59 10.405 12.185.4.999 1.8 1.099 2.101.1 1.2-4.195 2.801-11.086 9.104-10.587l22.01 1.698c2.802.2 5.203-1.998 5.203-4.894V14.195c0-2.896-2.301-5.393-5.103-5.593"/><path fill="#FFF" d="M318.972 22.984a2 2 0 0 0-4 0zm-4 32.161a2 2 0 1 0 4 0zm-13.704-20.268a2 2 0 0 0-.408 3.979zm29.806 7.075a2 2 0 0 0 .408-3.98zm-16.102-18.968v32.161h4v-32.16zM300.86 38.856l30.214 3.096.408-3.98-30.214-3.095z"/></svg>