<svg width="400" height="400" viewBox="0 0 400 400" fill="none" xmlns="http://www.w3.org/2000/svg">
<g id="database">
<g id="database_2">
<path id="Path" d="M174.299 148.269H87.8584C82.2557 148.269 77.6536 143.675 77.6536 138.081V121.402C77.6536 115.809 82.2557 111.214 87.8584 111.214H174.299C179.902 111.214 184.504 115.809 184.504 121.402V138.081C184.504 143.675 179.902 148.269 174.299 148.269Z" fill="#F0F3F5"/>
<path id="Path_2" d="M110.469 312.267H31.5313C14.6233 312.267 5.91919 289.494 14.1231 275.911C23.4275 260.63 42.8367 264.125 42.8367 264.125C42.8367 264.125 35.5332 234.961 58.9443 234.961H79.2539V178.031C79.2539 165.446 80.1543 156.957 99.2634 156.957H210.316V60.1752H288.153C299.158 60.1752 308.062 69.8633 308.062 81.7488V149.166H327.171C334.775 149.166 340.878 155.259 340.878 162.849V255.935C340.878 255.935 363.789 252.54 371.192 262.228C378.596 271.916 373.693 285.2 373.693 285.2C373.693 285.2 388 287.796 388 302.179C388 315.762 379.396 320.357 355.885 320.357H112.47L110.469 312.267Z" fill="#F0F3F5"/>
<path id="Shape" d="M189.206 243.252C188.101 243.252 187.206 244.147 187.206 245.252C187.206 246.356 188.101 247.252 189.206 247.252V243.252ZM44.5381 253.343C44.5381 254.448 45.4335 255.343 46.5381 255.343C47.6427 255.343 48.5381 254.448 48.5381 253.343H44.5381ZM48.5381 245.253C48.5381 244.149 47.6427 243.253 46.5381 243.253C45.4335 243.253 44.5381 244.149 44.5381 245.253H48.5381ZM187.205 253.343C187.205 254.448 188.101 255.343 189.205 255.343C190.31 255.343 191.205 254.448 191.205 253.343H187.205ZM191.205 245.253C191.205 244.149 190.31 243.253 189.205 243.253C188.101 243.253 187.205 244.149 187.205 245.253H191.205ZM46.5383 174.738V172.738C45.4337 172.738 44.5383 173.633 44.5383 174.738H46.5383ZM189.206 174.738H191.206C191.206 173.633 190.31 172.738 189.206 172.738V174.738ZM189.206 182.928V184.928C190.31 184.928 191.206 184.033 191.206 182.928H189.206ZM46.5383 182.928H44.5383C44.5383 184.033 45.4337 184.928 46.5383 184.928V182.928ZM46.5383 315.765V313.765C45.4338 313.765 44.5383 314.661 44.5383 315.765H46.5383ZM189.206 315.765H191.206C191.206 314.661 190.31 313.765 189.206 313.765V315.765ZM189.206 323.955V325.955C190.31 325.955 191.206 325.06 191.206 323.955H189.206ZM46.5383 323.955H44.5383C44.5383 325.06 45.4338 325.955 46.5383 325.955V323.955ZM189.206 313.765H46.6385V317.765H189.206V313.765ZM46.6385 313.765C41.8493 313.765 38.0334 309.876 38.0334 305.178H34.0334C34.0334 312.067 39.622 317.765 46.6385 317.765V313.765ZM38.0334 305.178V264.029H34.0334V305.178H38.0334ZM38.0334 264.029C38.0334 259.256 41.9248 255.442 46.6385 255.442V251.442C39.7467 251.442 34.0334 257.016 34.0334 264.029H38.0334ZM46.6385 255.442H189.206V251.442H46.6385V255.442ZM189.206 255.442C193.995 255.442 197.811 259.331 197.811 264.029H201.811C201.811 257.14 196.222 251.442 189.206 251.442V255.442ZM197.811 264.029V305.178H201.811V264.029H197.811ZM197.811 305.178C197.811 309.876 193.995 313.765 189.206 313.765V317.765C196.222 317.765 201.811 312.067 201.811 305.178H197.811ZM189.206 243.252H46.6385V247.252H189.206V243.252ZM46.6385 243.252C41.8493 243.252 38.0334 239.362 38.0334 234.665H34.0334C34.0334 241.553 39.622 247.252 46.6385 247.252V243.252ZM38.0334 234.665V193.515H34.0334V234.665H38.0334ZM38.0334 193.515C38.0334 188.742 41.9248 184.928 46.6385 184.928V180.928C39.7467 180.928 34.0334 186.502 34.0334 193.515H38.0334ZM46.6385 184.928H189.206V180.928H46.6385V184.928ZM189.206 184.928C193.995 184.928 197.811 188.818 197.811 193.515H201.811C201.811 186.627 196.222 180.928 189.206 180.928V184.928ZM197.811 193.515V234.665H201.811V193.515H197.811ZM197.811 234.665C197.811 239.362 193.995 243.252 189.206 243.252V247.252C196.222 247.252 201.811 241.553 201.811 234.665H197.811ZM48.5381 253.343V245.253H44.5381V253.343H48.5381ZM44.5381 245.253V253.343H48.5381V245.253H44.5381ZM191.205 253.343V245.253H187.205V253.343H191.205ZM187.205 245.253V253.343H191.205V245.253H187.205ZM46.5383 176.738H189.206V172.738H46.5383V176.738ZM187.206 174.738V182.928H191.206V174.738H187.206ZM189.206 180.928H46.5383V184.928H189.206V180.928ZM48.5383 182.928V174.738H44.5383V182.928H48.5383ZM46.5383 317.765H189.206V313.765H46.5383V317.765ZM187.206 315.765V323.955H191.206V315.765H187.206ZM189.206 321.955H46.5383V325.955H189.206V321.955ZM48.5383 323.955V315.765H44.5383V323.955H48.5383Z" fill="#999999"/>
<path id="Oval" fill-rule="evenodd" clip-rule="evenodd" d="M55.2422 202.103C57.6734 202.103 59.6443 200.136 59.6443 197.709C59.6443 195.282 57.6734 193.314 55.2422 193.314C52.811 193.314 50.8401 195.282 50.8401 197.709C50.8401 200.136 52.811 202.103 55.2422 202.103Z" stroke="#999999" stroke-width="4" stroke-linecap="round" stroke-linejoin="round"/>
<path id="Oval_2" fill-rule="evenodd" clip-rule="evenodd" d="M55.2422 218.282C57.6734 218.282 59.6443 216.314 59.6443 213.887C59.6443 211.46 57.6734 209.492 55.2422 209.492C52.811 209.492 50.8401 211.46 50.8401 213.887C50.8401 216.314 52.811 218.282 55.2422 218.282Z" stroke="#999999" stroke-width="4" stroke-linecap="round" stroke-linejoin="round"/>
<path id="Oval_3" fill-rule="evenodd" clip-rule="evenodd" d="M55.2422 233.966C57.6734 233.966 59.6443 231.998 59.6443 229.571C59.6443 227.144 57.6734 225.176 55.2422 225.176C52.811 225.176 50.8401 227.144 50.8401 229.571C50.8401 231.998 52.811 233.966 55.2422 233.966Z" stroke="#999999" stroke-width="4" stroke-linecap="round" stroke-linejoin="round"/>
<g id="Group">
<path id="Oval_4" fill-rule="evenodd" clip-rule="evenodd" d="M55.2422 273.016C57.6734 273.016 59.6443 271.049 59.6443 268.622C59.6443 266.195 57.6734 264.227 55.2422 264.227C52.811 264.227 50.8401 266.195 50.8401 268.622C50.8401 271.049 52.811 273.016 55.2422 273.016Z" stroke="#999999" stroke-width="4" stroke-linecap="round" stroke-linejoin="round"/>
<path id="Oval_5" fill-rule="evenodd" clip-rule="evenodd" d="M55.2422 289.196C57.6734 289.196 59.6443 287.229 59.6443 284.802C59.6443 282.375 57.6734 280.407 55.2422 280.407C52.811 280.407 50.8401 282.375 50.8401 284.802C50.8401 287.229 52.811 289.196 55.2422 289.196Z" stroke="#999999" stroke-width="4" stroke-linecap="round" stroke-linejoin="round"/>
<path id="Oval_6" fill-rule="evenodd" clip-rule="evenodd" d="M55.2422 304.876C57.6734 304.876 59.6443 302.908 59.6443 300.481C59.6443 298.054 57.6734 296.087 55.2422 296.087C52.811 296.087 50.8401 298.054 50.8401 300.481C50.8401 302.908 52.811 304.876 55.2422 304.876Z" stroke="#999999" stroke-width="4" stroke-linecap="round" stroke-linejoin="round"/>
</g>
<g id="Group_2">
<path id="Path_3" d="M344.479 188.919C344.479 188.919 302.659 185.923 247.433 185.923C191.607 185.923 150.387 188.919 150.387 188.919C144.784 188.919 140.182 184.625 140.182 179.231V142.676C140.182 137.382 142.884 134.386 150.387 132.988C157.791 131.689 195.408 125.497 247.433 125.497C299.458 125.497 337.175 131.989 344.479 132.988C351.782 134.086 354.684 137.283 354.684 142.676V179.231C354.684 184.625 350.182 188.919 344.479 188.919Z" fill="#FFD493"/>
<path id="Path_4" d="M150.488 304.578C150.488 304.578 192.307 307.574 247.533 307.574C303.36 307.574 344.579 304.578 344.579 304.578C350.182 304.578 354.784 308.872 354.784 314.266V350.821C354.784 356.115 352.083 359.111 344.579 360.509C337.176 361.808 299.558 368 247.533 368C195.509 368 157.791 361.508 150.488 360.509C143.184 359.51 140.283 356.215 140.283 350.821V314.266C140.383 308.872 144.885 304.578 150.488 304.578Z" fill="#FFD493"/>
<path id="Path_5" d="M150.488 304.578C150.488 304.578 192.307 307.574 247.533 307.574C303.36 307.574 344.579 304.578 344.579 304.578C350.182 304.578 354.784 308.872 354.784 314.266V350.821C354.784 356.115 352.083 359.111 344.579 360.509C337.176 361.808 299.558 366.003 247.533 366.003C195.509 366.003 157.791 361.508 150.488 360.509C143.184 359.51 140.283 356.215 140.283 350.821V314.266C140.383 308.872 144.885 304.578 150.488 304.578Z" fill="#FFD493"/>
<path id="Path_6" d="M140.383 179.231H354.684V319.859H140.383V179.231Z" fill="#FFD493"/>
<path id="Shape_2" fill-rule="evenodd" clip-rule="evenodd" d="M353.183 205.299C353.183 205.299 307.662 202.003 247.433 202.003C186.605 202.003 141.683 205.299 141.683 205.299C135.58 205.299 130.578 200.605 130.578 194.812V154.961C130.578 149.168 133.479 145.872 141.683 144.474C149.887 143.075 190.707 137.183 247.433 137.183C301.2 137.183 340.855 142.746 351.663 144.262C352.258 144.345 352.766 144.416 353.183 144.474C361.087 145.572 364.289 149.168 364.289 154.961V194.812C364.289 200.605 359.386 205.299 353.183 205.299ZM141.783 286.601C141.783 286.601 201.511 289.897 247.533 289.897C293.555 289.897 353.283 286.601 353.283 286.601C359.386 286.601 364.388 291.295 364.388 297.088V336.94C364.388 342.732 361.487 346.028 353.283 347.427C345.179 348.825 304.26 352.72 247.533 352.72C190.806 352.72 149.787 348.525 141.783 347.427C133.879 346.328 130.678 342.732 130.678 336.94V297.088C130.678 291.295 135.68 286.601 141.783 286.601ZM247.433 212.79C280.849 212.79 345.38 214.188 353.183 215.187C360.987 216.186 364.289 219.881 364.289 225.674V265.925C364.289 271.718 359.086 275.713 353.183 276.412C347.181 277.111 280.849 278.809 247.433 278.809C214.018 278.809 148.887 277.611 141.683 276.412C134.48 275.214 130.578 271.718 130.578 265.925V225.674C130.578 219.881 135.18 215.886 141.683 215.187C148.186 214.488 214.018 212.79 247.433 212.79Z" fill="#FFBE5C"/>
<path id="Oval_7" d="M316.566 261.93C319.274 261.93 321.468 259.157 321.468 255.737C321.468 252.317 319.274 249.545 316.566 249.545C313.859 249.545 311.664 252.317 311.664 255.737C311.664 259.157 313.859 261.93 316.566 261.93Z" fill="white"/>
<path id="Oval_8" d="M335.375 261.629C337.475 261.629 339.177 258.856 339.177 255.436C339.177 252.016 337.475 249.244 335.375 249.244C333.276 249.244 331.574 252.016 331.574 255.436C331.574 258.856 333.276 261.629 335.375 261.629Z" fill="#DD7E10"/>
<path id="Oval_9" d="M316.566 242.254C319.274 242.254 321.468 239.482 321.468 236.062C321.468 232.642 319.274 229.869 316.566 229.869C313.859 229.869 311.664 232.642 311.664 236.062C311.664 239.482 313.859 242.254 316.566 242.254Z" fill="white"/>
<path id="Oval_10" d="M335.375 242.753C337.475 242.753 339.177 239.981 339.177 236.561C339.177 233.141 337.475 230.369 335.375 230.369C333.276 230.369 331.574 233.141 331.574 236.561C331.574 239.981 333.276 242.753 335.375 242.753Z" fill="#DD7E10"/>
<path id="Oval_11" d="M316.566 338.636C319.274 338.636 321.468 335.864 321.468 332.444C321.468 329.024 319.274 326.251 316.566 326.251C313.859 326.251 311.664 329.024 311.664 332.444C311.664 335.864 313.859 338.636 316.566 338.636Z" fill="#DD7E10"/>
<path id="Oval_12" d="M335.375 336.74C337.475 336.74 339.177 333.967 339.177 330.547C339.177 327.127 337.475 324.355 335.375 324.355C333.276 324.355 331.574 327.127 331.574 330.547C331.574 333.967 333.276 336.74 335.375 336.74Z" fill="white"/>
<path id="Oval_13" d="M316.566 318.96C319.274 318.96 321.468 316.188 321.468 312.768C321.468 309.348 319.274 306.575 316.566 306.575C313.859 306.575 311.664 309.348 311.664 312.768C311.664 316.188 313.859 318.96 316.566 318.96Z" fill="#DD7E10"/>
<path id="Oval_14" d="M335.375 317.763C337.475 317.763 339.177 314.991 339.177 311.571C339.177 308.151 337.475 305.378 335.375 305.378C333.276 305.378 331.574 308.151 331.574 311.571C331.574 314.991 333.276 317.763 335.375 317.763Z" fill="white"/>
<path id="Oval_15" d="M316.566 186.622C319.274 186.622 321.468 183.85 321.468 180.43C321.468 177.01 319.274 174.237 316.566 174.237C313.859 174.237 311.664 177.01 311.664 180.43C311.664 183.85 313.859 186.622 316.566 186.622Z" fill="#DD7E10"/>
<path id="Oval_16" d="M335.375 188.02C337.475 188.02 339.177 185.248 339.177 181.828C339.177 178.408 337.475 175.636 335.375 175.636C333.276 175.636 331.574 178.408 331.574 181.828C331.574 185.248 333.276 188.02 335.375 188.02Z" fill="white"/>
<path id="Oval_17" d="M316.566 167.046C319.274 167.046 321.468 164.274 321.468 160.854C321.468 157.434 319.274 154.661 316.566 154.661C313.859 154.661 311.664 157.434 311.664 160.854C311.664 164.274 313.859 167.046 316.566 167.046Z" fill="white"/>
<path id="Oval_18" d="M335.375 169.044C337.475 169.044 339.177 166.271 339.177 162.851C339.177 159.431 337.475 156.659 335.375 156.659C333.276 156.659 331.574 159.431 331.574 162.851C331.574 166.271 333.276 169.044 335.375 169.044Z" fill="#DD7E10"/>
<path id="Shape_3" d="M290.672 181.629C291.775 181.674 292.707 180.816 292.752 179.712C292.797 178.609 291.939 177.677 290.835 177.632L290.672 181.629ZM248.534 176.532C247.429 176.532 246.534 177.427 246.534 178.532C246.534 179.637 247.429 180.532 248.534 180.532V176.532ZM249.034 155.258C247.929 155.258 247.034 156.154 247.034 157.258C247.034 158.363 247.929 159.258 249.034 159.258V155.258ZM290.636 160.453C291.739 160.518 292.685 159.677 292.75 158.574C292.815 157.471 291.973 156.525 290.871 156.46L290.636 160.453ZM290.755 238.06C291.859 238.06 292.755 237.165 292.755 236.06C292.755 234.956 291.859 234.06 290.755 234.06V238.06ZM249.035 234.06C247.93 234.06 247.035 234.956 247.035 236.06C247.035 237.165 247.93 238.06 249.035 238.06V234.06ZM290.755 257.739C291.859 257.739 292.755 256.844 292.755 255.739C292.755 254.635 291.859 253.739 290.755 253.739V257.739ZM248.535 253.739C247.43 253.739 246.535 254.635 246.535 255.739C246.535 256.844 247.43 257.739 248.535 257.739V253.739ZM246.433 312.367C245.328 312.367 244.433 313.263 244.433 314.367C244.433 315.472 245.328 316.367 246.433 316.367V312.367ZM290.842 315.167C291.946 315.118 292.801 314.184 292.752 313.08C292.703 311.977 291.769 311.122 290.665 311.171L290.842 315.167ZM290.881 336.237C291.984 336.167 292.82 335.216 292.75 334.114C292.679 333.012 291.729 332.175 290.626 332.245L290.881 336.237ZM245.933 333.64C244.828 333.64 243.933 334.535 243.933 335.64C243.933 336.744 244.828 337.64 245.933 337.64V333.64ZM290.835 177.632C278.633 177.133 264.088 176.532 248.534 176.532V180.532C263.994 180.532 278.462 181.129 290.672 181.629L290.835 177.632ZM249.034 159.258C264.699 159.258 278.767 159.756 290.636 160.453L290.871 156.46C278.929 155.759 264.783 155.258 249.034 155.258V159.258ZM290.755 234.06H249.035V238.06H290.755V234.06ZM290.755 253.739H248.535V257.739H290.755V253.739ZM246.433 316.367C263.389 316.367 277.334 315.766 290.842 315.167L290.665 311.171C277.16 311.77 263.293 312.367 246.433 312.367V316.367ZM290.626 332.245C278.159 333.042 262.995 333.64 245.933 333.64V337.64C263.087 337.64 278.337 337.039 290.881 336.237L290.626 332.245Z" fill="white"/>
</g>
<path id="Shape_4" d="M123.674 49.7897C123.674 48.6851 122.779 47.7897 121.674 47.7897C120.569 47.7897 119.674 48.6851 119.674 49.7897H123.674ZM119.674 57.9796C119.674 59.0842 120.569 59.9796 121.674 59.9796C122.779 59.9796 123.674 59.0842 123.674 57.9796H119.674ZM123.674 75.157C123.674 74.0524 122.779 73.157 121.674 73.157C120.57 73.157 119.674 74.0524 119.674 75.157H123.674ZM119.674 84.0461C119.674 85.1507 120.57 86.0461 121.674 86.0461C122.779 86.0461 123.674 85.1507 123.674 84.0461H119.674ZM138.882 68.9685C139.987 68.9685 140.882 68.0731 140.882 66.9685C140.882 65.864 139.987 64.9685 138.882 64.9685V68.9685ZM130.678 64.9685C129.574 64.9685 128.678 65.864 128.678 66.9685C128.678 68.0731 129.574 68.9685 130.678 68.9685V64.9685ZM112.77 68.9685C113.875 68.9685 114.77 68.0731 114.77 66.9685C114.77 65.864 113.875 64.9685 112.77 64.9685V68.9685ZM104.466 64.9685C103.361 64.9685 102.466 65.864 102.466 66.9685C102.466 68.0731 103.361 68.9685 104.466 68.9685V64.9685ZM119.674 49.7897V57.9796H123.674V49.7897H119.674ZM119.674 75.157V84.0461H123.674V75.157H119.674ZM138.882 64.9685H130.678V68.9685H138.882V64.9685ZM112.77 64.9685H104.466V68.9685H112.77V64.9685Z" fill="#999999"/>
<g id="Group_3">
<path id="Path_7" d="M359.186 39.6021L295.056 31.0126C292.255 30.8129 289.854 33.0102 289.854 35.9066V97.9307C289.854 100.827 292.155 103.324 295.056 103.424L315.466 105.022C323.47 105.821 324.27 112.613 325.871 117.207C326.271 118.206 327.672 118.306 327.972 117.307C329.172 113.112 330.773 106.221 337.076 106.72L359.086 108.418C361.888 108.618 364.289 106.42 364.289 103.524V45.1952C364.289 42.2988 361.988 39.8018 359.186 39.6021Z" fill="#FFBE5C"/>
<path id="Shape_5" d="M329.972 53.9844C329.972 52.8798 329.076 51.9844 327.972 51.9844C326.867 51.9844 325.972 52.8798 325.972 53.9844H329.972ZM325.972 86.145C325.972 87.2496 326.867 88.145 327.972 88.145C329.076 88.145 329.972 87.2496 329.972 86.145H325.972ZM312.268 65.8763C311.169 65.7637 310.187 66.5632 310.075 67.662C309.962 68.7608 310.761 69.7429 311.86 69.8555L312.268 65.8763ZM342.075 72.9517C343.173 73.0643 344.155 72.2648 344.268 71.166C344.381 70.0671 343.581 69.0851 342.482 68.9725L342.075 72.9517ZM325.972 53.9844V86.145H329.972V53.9844H325.972ZM311.86 69.8555L342.075 72.9517L342.482 68.9725L312.268 65.8763L311.86 69.8555Z" fill="white"/>
</g>
</g>
</g>
</svg>
