<svg xmlns="http://www.w3.org/2000/svg" width="349" height="332" fill="none" viewBox="0 0 349 332"><path fill="#F2F2F2" d="M169.692 13.408c0-7.404-6-13.408-13.4-13.408h-142.1c-7.4 0-13.4 6.004-13.4 13.308V228.64c0 7.404 6 13.408 13.4 13.408h274.9c7.4 0 13.4-6.004 13.4-13.408V40.124c0-7.404-6-13.408-13.4-13.408h-106c-7.4 0-13.4-5.903-13.4-13.308"/><path fill="#8C8C8C" fill-rule="evenodd" d="M52.992 149.489a9.184 9.184 0 0 0-9.2 9.205v160.098a9.184 9.184 0 0 0 9.2 9.205h120.5c5.095 0 9.2-4.107 9.2-9.205V158.694a9.185 9.185 0 0 0-9.2-9.205zm-13.2 9.205c0-7.309 5.895-13.208 13.2-13.208h120.5c7.305 0 13.2 5.899 13.2 13.208v160.098c0 7.309-5.895 13.208-13.2 13.208h-120.5c-7.305 0-13.2-5.899-13.2-13.208z" clip-rule="evenodd"/><path fill="#8C8C8C" fill-rule="evenodd" d="M68.992 213.531c0-24.481 19.834-44.327 44.3-44.327s44.3 19.846 44.3 44.327-19.834 44.327-44.3 44.327-44.3-19.846-44.3-44.327m44.3-40.324c-22.257 0-40.3 18.053-40.3 40.324s18.043 40.324 40.3 40.324 40.3-18.053 40.3-40.324-18.043-40.324-40.3-40.324" clip-rule="evenodd"/><path fill="#8C8C8C" fill-rule="evenodd" d="M68.992 213.529a2 2 0 0 1 2-2.002h42.3a2 2 0 0 1 2 2.002v42.325a2 2 0 0 1-2 2.001c-24.505 0-44.3-19.807-44.3-44.326m4.048 2.001c1.007 20.712 17.552 37.268 38.252 38.275V215.53zm-10.248 64.339a2 2 0 0 1 2-2.001h96.9a2 2 0 0 1 0 4.002h-96.9a2 2 0 0 1-2-2.001m0 22.914a2 2 0 0 1 2-2.001h96.9a2 2 0 0 1 0 4.002h-96.9a2 2 0 0 1-2-2.001" clip-rule="evenodd"/><path fill="#FFBE5C" d="m213.592 127.078-.2-29.818s-108.3-5.704-126.7-6.004c-11.8 0-15.1 18.811-18.3 32.52z"/><path fill="#FFD89D" d="M125.592 232.341c-15.8.5-20.8-12.507-21-30.318-.3-22.614-1.8-63.839-2-77.347s-3.2-33.12-15.9-33.12c16.4-.9 120.7 4.703 138.3 5.403 17.5.8 21 18.711 21 26.316 0 7.505 1 105.664 1 105.664s-104 2.902-121.4 3.402"/><path fill="#D06304" fill-rule="evenodd" d="M121.692 162.666a2 2 0 0 1 2.031-1.969l101.7 1.601a2 2 0 0 1 1.968 2.032 2 2 0 0 1-2.031 1.969l-101.7-1.601a2 2 0 0 1-1.968-2.032m.2 20.52a2 2 0 0 1 2.023-1.977l101.6 1.201a2 2 0 1 1-.047 4.002l-101.6-1.201a2 2 0 0 1-1.976-2.025m105.7 20.232a2 2 0 0 1-1.995 2.007l-101.5.3a2 2 0 0 1-.011-4.002l101.5-.3a2 2 0 0 1 2.006 1.995" clip-rule="evenodd"/><path fill="#FFBE5C" d="M156.992 137.683c-11.1 0-14 7.304-14 26.916.3 22.614.9 20.112 1 33.32.2 13.208-5.4 34.221-20.6 34.521 23.2-.6 122.9-.1 140.6-.5 17.6-.4 20.9-12.408 20.9-27.217s-.5-62.338-.5-62.338-109.6-4.602-127.4-4.702"/><path fill="#FFD89D" d="M190.391 305.284c-15.3.601-20-12.107-20.2-29.618-.2-22.113-1.2-102.962-1.4-116.17 0-7.005-1.9-21.914-11.8-21.914 15.9-1.1 113.4 3.503 130.4 4.103 16.9.6 20.3 18.211 20.3 25.615 0 7.405.4 132.381.4 132.381s-100.9 4.903-117.7 5.603"/><path fill="#FFBE5C" fill-rule="evenodd" d="m246.236 144.288-89.3-2.502.112-4.001 89.3 2.502z" clip-rule="evenodd" opacity=".2"/><path fill="#D06304" fill-rule="evenodd" d="m187.292 206.425 16 .1c1.3 0 2.3-1 2.2-2.101l-.3-44.427c0-1.101-1-2.101-2.2-2.101l-16-.3c-1.3 0-2.3 1-2.3 2.201l.4 44.527c0 1.101 1 2.101 2.2 2.101m29.7.199 15.7.1c1.2 0 2.3-1.001 2.3-2.101l-.1-8.205c0-1.201-1-2.202-2.2-2.202l-15.7-.2c-1.3 0-2.3 1.001-2.3 2.202l.1 8.205c0 1.2 1 2.201 2.2 2.201m44.7.402-15.5-.1a2.22 2.22 0 0 1-2.2-2.202l-.1-25.615c0-1.201 1-2.202 2.3-2.202l15.5.201c1.2 0 2.2 1 2.2 2.201l.1 25.515c0 1.201-1 2.202-2.3 2.202m13.4.1 15.3.1c1.2 0 2.3-1.001 2.3-2.101l-.1-19.612c0-1.201-1-2.202-2.2-2.202l-15.3-.2c-1.3 0-2.3 1.001-2.3 2.202l.1 19.611c0 1.201 1 2.202 2.2 2.202m-154.2-87.399a2 2 0 0 1 2.045-1.955l105.5 2.401a2.002 2.002 0 0 1-.091 4.002l-105.5-2.402a2 2 0 0 1-1.954-2.046m170.9 105.206a2 2 0 0 1-1.996 2.005l-101.7.2a2 2 0 0 1-.008-4.003l101.7-.2a2 2 0 0 1 2.004 1.998m.1 20.104a2 2 0 0 1-1.989 2.013l-101.6.6a2 2 0 0 1-2.011-1.989 2 2 0 0 1 1.988-2.013l101.6-.6a2 2 0 0 1 2.012 1.989m.099 18.984a2 2 0 0 1-1.96 2.04l-101.5 2.001a2 2 0 0 1-.079-4.001l101.5-2.002a2 2 0 0 1 2.039 1.962" clip-rule="evenodd"/><path fill="#FFBE5C" d="M190.392 305.284c19.9-2.001 17.3-26.316 17.3-26.316l141.1-3.702s.3 25.416-16.7 26.016c-17.2.5-119.3 3.202-141.7 4.002"/><path fill="#F2F2F2" d="M311.292 65.338c-11.5-2.902-23.2 4.002-26.1 15.51-2.9 11.506 4 23.213 15.5 26.115 3.6.901 7.3.901 10.6 0z"/><path fill="#8C8C8C" fill-rule="evenodd" d="M282.592 86.15c0-12.93 10.476-23.414 23.4-23.414s23.4 10.483 23.4 23.414-10.477 23.415-23.4 23.415c-12.924 0-23.4-10.483-23.4-23.415m23.4-19.411c-10.715 0-19.4 8.69-19.4 19.411s8.685 19.412 19.4 19.412 19.4-8.69 19.4-19.412c0-10.72-8.686-19.411-19.4-19.411" clip-rule="evenodd"/><path fill="#8C8C8C" fill-rule="evenodd" d="M319.878 100.745a2 2 0 0 1 2.828 0l17.3 17.311a2 2 0 1 1-2.828 2.83l-17.3-17.311a2 2 0 0 1 0-2.83" clip-rule="evenodd"/></svg>