<svg xmlns="http://www.w3.org/2000/svg" width="400" height="400" fill="none" viewBox="0 0 400 400"><path fill="#433F43" d="M194.9 47.408c0-7.404-6-13.408-13.4-13.408H39.4C32 34 26 40.004 26 47.308V262.64c0 7.404 6 13.408 13.4 13.408h274.9c7.4 0 13.4-6.004 13.4-13.408V74.124c0-7.404-6-13.408-13.4-13.408h-106c-7.4 0-13.4-5.903-13.4-13.308"/><path fill="#999" fill-rule="evenodd" d="M78.2 183.489a9.184 9.184 0 0 0-9.2 9.206v160.097a9.184 9.184 0 0 0 9.2 9.206h120.5c5.095 0 9.2-4.107 9.2-9.206V192.695a9.185 9.185 0 0 0-9.2-9.206zM65 192.695c0-7.309 5.895-13.208 13.2-13.208h120.5c7.305 0 13.2 5.899 13.2 13.208v160.097c0 7.309-5.895 13.208-13.2 13.208H78.2c-7.305 0-13.2-5.899-13.2-13.208z" clip-rule="evenodd"/><path fill="#999" fill-rule="evenodd" d="M94.2 247.531c0-24.481 19.834-44.327 44.3-44.327s44.3 19.846 44.3 44.327-19.834 44.327-44.3 44.327-44.3-19.846-44.3-44.327m44.3-40.324c-22.257 0-40.3 18.054-40.3 40.324 0 22.271 18.043 40.325 40.3 40.325s40.3-18.054 40.3-40.325c0-22.27-18.043-40.324-40.3-40.324" clip-rule="evenodd"/><path fill="#999" fill-rule="evenodd" d="M94.2 247.528a2 2 0 0 1 2-2.001h42.3a2 2 0 0 1 2 2.001v42.326a2 2 0 0 1-2 2.001c-24.505 0-44.3-19.807-44.3-44.327m4.049 2.001c1.006 20.713 17.551 37.268 38.251 38.275v-38.275zM88 313.868a2 2 0 0 1 2-2.001h96.9a2 2 0 0 1 0 4.003H90a2 2 0 0 1-2-2.002m0 22.914a2 2 0 0 1 2-2.001h96.9a2 2 0 0 1 0 4.002H90a2 2 0 0 1-2-2.001" clip-rule="evenodd"/><path fill="#FFBE5C" d="m238.8 161.077-.2-29.818s-108.3-5.703-126.7-6.004c-11.8 0-15.1 18.812-18.3 32.52z"/><path fill="#FFD493" d="M150.8 266.341c-15.8.5-20.8-12.508-21-30.318-.3-22.614-1.8-63.839-2-77.347-.2-13.509-3.2-33.121-15.9-33.121 16.4-.9 120.7 4.703 138.3 5.404 17.5.8 21 18.711 21 26.316 0 7.504 1 105.664 1 105.664s-104 2.902-121.4 3.402"/><path fill="#DD7E10" fill-rule="evenodd" d="M146.9 196.666a2 2 0 0 1 2.031-1.97l101.7 1.601a2 2 0 0 1-.063 4.002l-101.7-1.601a2 2 0 0 1-1.968-2.032m.2 20.52a2 2 0 0 1 2.023-1.977l101.6 1.2a2.001 2.001 0 0 1-.047 4.003l-101.6-1.201a2 2 0 0 1-1.976-2.025m105.7 20.232a2 2 0 0 1-1.995 2.007l-101.5.3a2 2 0 0 1-.011-4.002l101.5-.301a2 2 0 0 1 2.006 1.996" clip-rule="evenodd"/><path fill="#FFBE5C" d="M182.2 171.682c-11.1 0-14 7.304-14 26.916.3 22.614.9 20.112 1 33.32.2 13.208-5.4 34.221-20.6 34.521 23.2-.6 122.9-.1 140.6-.5 17.6-.4 20.9-12.407 20.9-27.216s-.5-62.338-.5-62.338-109.6-4.603-127.4-4.703"/><path fill="#FFD493" d="M215.599 339.283c-15.3.601-20-12.107-20.2-29.617-.2-22.114-1.2-102.963-1.4-116.171 0-7.004-1.9-21.913-11.8-21.913 15.9-1.101 113.4 3.502 130.4 4.102 16.9.601 20.3 18.211 20.3 25.616 0 7.404.4 132.38.4 132.38s-100.9 4.903-117.7 5.603"/><path fill="#FFBE5C" fill-rule="evenodd" d="m271.444 178.287-89.3-2.502.112-4.001 89.3 2.502z" clip-rule="evenodd" opacity=".2"/><path fill="#DD7E10" fill-rule="evenodd" d="m212.5 240.425 16 .1c1.3 0 2.3-1 2.2-2.101l-.3-44.427c0-1.101-1-2.101-2.2-2.101l-16-.3c-1.3 0-2.3 1-2.3 2.201l.4 44.527c0 1.101 1 2.101 2.2 2.101m29.7.199 15.7.1c1.2 0 2.3-1.001 2.3-2.101l-.1-8.205c0-1.201-1-2.202-2.2-2.202l-15.7-.2c-1.3 0-2.3 1.001-2.3 2.202l.1 8.205c0 1.2 1 2.201 2.2 2.201m44.7.402-15.5-.1a2.22 2.22 0 0 1-2.2-2.202l-.1-25.615c0-1.201 1-2.202 2.3-2.202l15.5.201c1.2 0 2.2 1 2.2 2.201l.1 25.515c0 1.201-1 2.202-2.3 2.202m13.4.1 15.3.1c1.2 0 2.3-1.001 2.3-2.101l-.1-19.612c0-1.201-1-2.202-2.2-2.202l-15.3-.2c-1.3 0-2.3 1.001-2.3 2.202l.1 19.611c0 1.201 1 2.202 2.2 2.202m-154.2-87.399a2 2 0 0 1 2.045-1.955l105.5 2.401a2.002 2.002 0 0 1-.091 4.002l-105.5-2.402a2 2 0 0 1-1.954-2.046M317 258.933a2 2 0 0 1-1.996 2.005l-101.7.2a2 2 0 0 1-.008-4.003l101.7-.2a2 2 0 0 1 2.004 1.998m.1 20.104a2 2 0 0 1-1.989 2.013l-101.6.6a2 2 0 0 1-2.011-1.989 2 2 0 0 1 1.988-2.013l101.6-.6a2 2 0 0 1 2.012 1.989m.099 18.984a2 2 0 0 1-1.96 2.04l-101.5 2.001a2 2 0 0 1-.079-4.001l101.5-2.002a2 2 0 0 1 2.039 1.962" clip-rule="evenodd"/><path fill="#FFBE5C" d="M215.6 339.284c19.9-2.001 17.3-26.316 17.3-26.316l141.1-3.702s.3 25.415-16.7 26.015c-17.2.501-119.3 3.202-141.7 4.003"/><path fill="#433F43" d="M336.5 99.338c-11.5-2.902-23.2 4.002-26.1 15.509s4 23.214 15.5 26.116c3.6.901 7.3.901 10.6 0z"/><path fill="#999" fill-rule="evenodd" d="M307.8 120.151c0-12.932 10.476-23.415 23.4-23.415s23.4 10.483 23.4 23.415-10.477 23.414-23.4 23.414c-12.924 0-23.4-10.483-23.4-23.414m23.4-19.412c-10.715 0-19.4 8.691-19.4 19.412s8.685 19.411 19.4 19.411 19.4-8.691 19.4-19.411-8.686-19.412-19.4-19.412" clip-rule="evenodd"/><path fill="#999" fill-rule="evenodd" d="M345.086 134.745a2 2 0 0 1 2.828 0l17.3 17.311a2 2 0 1 1-2.828 2.83l-17.3-17.311a2 2 0 0 1 0-2.83" clip-rule="evenodd"/></svg>