<svg xmlns="http://www.w3.org/2000/svg" width="400" height="400" fill="none" viewBox="0 0 400 400"><path fill="#F0F3F5" d="M367.289 339.492H32.611A7.603 7.603 0 0 1 25 331.889V301.98a7.603 7.603 0 0 1 7.61-7.602h334.78a7.603 7.603 0 0 1 7.61 7.602v29.909c-.1 4.202-3.505 7.603-7.711 7.603"/><path fill="#F0F3F5" d="M362.482 322.987V200.45a7.603 7.603 0 0 0-7.611-7.602h-62.088l.1-160.448c0-.2-.2-.4-.401-.4H193.04c-19.728 0-21.931 11.003-21.931 23.007v196.558H91.996c-9.113 0-16.624 7.503-16.624 16.605v54.717h287.11z"/><path fill="#F0F3F5" d="M139.063 151.236H44.929c-3.706 0-6.61 3-6.61 6.602v158.547c0 3.701 3.004 6.602 6.61 6.602h94.134a6.6 6.6 0 0 0 6.609-6.602V157.838c0-3.602-3.004-6.602-6.609-6.602"/><path stroke="#999" stroke-dasharray="4 10" stroke-linecap="round" stroke-linejoin="round" stroke-width="4" d="M255.73 368H114.829c-12.518 0-22.833-10.203-22.833-22.807v-202.86c0-12.504 10.215-22.807 22.833-22.807H255.73c12.518 0 22.833 10.203 22.833 22.807v202.86c0 12.604-10.315 22.807-22.833 22.807" clip-rule="evenodd"/><path fill="#FFBE5C" d="m307.504 84.916-126.581-9.403c-5.508-.4-16.624 2.6-26.338 5.301-9.714 2.601-16.924 9.103-16.924 22.407v185.255c0 12.804 3.204 18.006 12.718 20.606l23.133 3.601c2.604 1.001 5.508 1.501 8.312 1.301 4.607-.2 12.818-.5 23.634-1 46.666-1.901 110.858-5.602 112.961-7.403 4.807-4.001 7.01-11.603 7.01-18.905V107.422c.1-11.603-8.011-21.706-17.925-22.506"/><path fill="#FFD493" d="m309.907 308.482-126.581 5.602c-11.416.5-20.93-9.403-20.93-22.107V96.819c0-12.703 9.414-22.306 20.93-21.506l126.581 9.403c9.914.7 18.026 10.903 18.026 22.506v179.254c-.1 11.703-8.112 21.606-18.026 22.006"/><path fill="#DD7E10" d="m250.523 165.238.351-1.969-.034-.005zm44.363 84.427 1.357 1.469.014-.013zm-16.724-3.201 1.762-.948-.007-.013zm-19.928-36.411 1.754-.961-.002-.004zm12.518-11.104 1.55-1.263-.007-.009zm25.336 31.11 1.569-1.24-.018-.023zm-34.665-51.396c.798-7.173-3.738-14.179-10.549-15.394l-.702 3.938c4.405.786 7.88 5.584 7.276 11.014zm-10.583-15.399c-6.968-1.119-12.923 4.367-13.722 11.66l3.977.435c.603-5.511 4.863-8.828 9.111-8.146zm-13.722 11.66c-.796 7.275 3.849 14.299 10.684 15.396l.634-3.949c-4.38-.704-7.947-5.483-7.341-11.012zm10.684 15.396c7.004 1.124 12.826-4.508 13.621-11.657l-3.975-.442c-.607 5.455-4.799 8.826-9.012 8.15zm45.727 57.875c-4.285 3.958-10.579 2.948-13.605-2.679l-3.523 1.895c4.184 7.777 13.512 9.568 19.842 3.723zm-13.612-2.692-19.929-36.411-3.509 1.921 19.929 36.411zm-19.931-36.415c-1.784-3.239-1.083-7.415 1.392-9.656l-2.684-2.966c-3.933 3.561-4.835 9.788-2.212 14.551zm1.392-9.656c2.291-2.073 5.692-1.804 7.83.79l3.087-2.545c-3.47-4.208-9.482-4.939-13.601-1.211zm7.823.78 25.336 31.11 3.102-2.526-25.337-31.11zm25.318 31.087c3.894 4.927 3.412 12.753-1.004 16.909l2.742 2.913c5.999-5.647 6.518-15.827 1.4-22.302z"/><path stroke="#DD7E10" stroke-linecap="round" stroke-linejoin="round" stroke-width="4" d="M294.485 228.16c9.113-10.904 15.322-25.208 16.925-41.413 3.905-38.911-20.029-75.722-54.478-82.624-35.751-7.102-69.399 20.506-73.906 62.018-4.506 41.713 22.332 79.424 58.684 83.825 12.418 1.501 24.335-1.1 34.649-6.802"/><path fill="#DCA553" d="m309.907 84.716-26.338-2v24.706c0 2.401 2.003 4.502 4.407 4.602l17.525.8c6.91.5 7.51 6.302 8.912 10.103.301.9 1.603.9 1.803 0 1.001-3.601 2.403-9.503 7.811-9.203l3.806.2v-6.702c0-11.603-8.012-21.706-17.926-22.506"/><path fill="#FFBE5C" d="M349.464 46.603 294.485 40.9c-2.403-.1-4.406 1.8-4.406 4.301v52.816c0 2.401 2.003 4.501 4.406 4.601l17.525.801c6.91.5 7.511 6.301 8.913 10.103.3.9 1.602.9 1.802 0 1.002-3.601 2.404-9.503 7.812-9.203l18.927.9c2.403.1 4.406-1.8 4.406-4.301V51.204c0-2.4-2.003-4.501-4.406-4.601"/><path fill="#fff" d="M324.725 59.607a2 2 0 1 0-4 0zm-4 27.408a2 2 0 0 0 4 0zm-11.473-17.2a2 2 0 0 0-.292 3.99zm25.645 5.89a2 2 0 1 0 .292-3.99zm-14.172-16.098v27.408h4V59.607zM308.96 73.805l25.937 1.9.292-3.99-25.937-1.9z"/></svg>