<svg width="400" height="400" viewBox="0 0 400 400" fill="none" xmlns="http://www.w3.org/2000/svg">
<g id="empty-search">
<g id="empty-search_2">
<path id="Path" d="M201.749 67.0488C201.749 59.2605 195.451 52.8701 187.553 52.8701H37.196C29.3982 52.8701 23 59.1606 23 67.0488V294.506C23 302.294 29.2982 308.685 37.196 308.685H328.114C335.911 308.685 342.31 302.394 342.31 294.506V95.4061C342.31 87.6178 336.011 81.2274 328.114 81.2274H215.845C208.148 81.2274 201.749 74.9369 201.749 67.0488Z" fill="#F0F3F5"/>
<path id="Oval" fill-rule="evenodd" clip-rule="evenodd" d="M347.408 71.5435C357.788 71.5435 366.203 63.1391 366.203 52.7717C366.203 42.4044 357.788 34 347.408 34C337.028 34 328.613 42.4044 328.613 52.7717C328.613 63.1391 337.028 71.5435 347.408 71.5435Z" stroke="#999999" stroke-width="4" stroke-linecap="round" stroke-linejoin="round"/>
<path id="Shape" d="M362.318 65.4338C361.536 64.6532 360.27 64.654 359.489 65.4355C358.709 66.2171 358.709 67.4834 359.491 68.264L362.318 65.4338ZM374.587 83.3412C375.368 84.1218 376.634 84.121 377.415 83.3395C378.196 82.558 378.195 81.2917 377.413 80.5111L374.587 83.3412ZM98.6785 126.958C98.6785 125.854 97.783 124.958 96.6785 124.958C95.5739 124.958 94.6785 125.854 94.6785 126.958H98.6785ZM94.6785 135.645C94.6785 136.75 95.5739 137.645 96.6785 137.645C97.783 137.645 98.6785 136.75 98.6785 135.645H94.6785ZM98.6785 155.216C98.6785 154.111 97.783 153.216 96.6785 153.216C95.5739 153.216 94.6785 154.111 94.6785 155.216H98.6785ZM94.6785 166.099C94.6785 167.204 95.5739 168.099 96.6785 168.099C97.783 168.099 98.6785 167.204 98.6785 166.099H94.6785ZM116.274 148.529C117.378 148.529 118.274 147.633 118.274 146.529C118.274 145.424 117.378 144.529 116.274 144.529V148.529ZM107.476 144.529C106.372 144.529 105.476 145.424 105.476 146.529C105.476 147.633 106.372 148.529 107.476 148.529V144.529ZM85.7818 148.529C86.8863 148.529 87.7818 147.633 87.7818 146.529C87.7818 145.424 86.8863 144.529 85.7818 144.529V148.529ZM77.0842 144.529C75.9797 144.529 75.0842 145.424 75.0842 146.529C75.0842 147.633 75.9797 148.529 77.0842 148.529V144.529ZM359.491 68.264L374.587 83.3412L377.413 80.5111L362.318 65.4338L359.491 68.264ZM94.6785 126.958V135.645H98.6785V126.958H94.6785ZM94.6785 155.216V166.099H98.6785V155.216H94.6785ZM116.274 144.529H107.476V148.529H116.274V144.529ZM85.7818 144.529H77.0842V148.529H85.7818V144.529Z" fill="#999999"/>
<g id="Group">
<path id="Path_2" fill-rule="evenodd" clip-rule="evenodd" d="M269.83 366H76.4849C66.4877 366 58.29 357.812 58.29 347.827V222.616C58.29 212.631 66.4877 204.443 76.4849 204.443H269.83C279.827 204.443 288.025 212.631 288.025 222.616V347.827C288.025 357.812 279.827 366 269.83 366Z" stroke="#999999" stroke-width="4" stroke-linecap="round" stroke-linejoin="round"/>
<path id="Oval_2" d="M76.9848 227.91C79.8558 227.91 82.1833 225.585 82.1833 222.717C82.1833 219.85 79.8558 217.525 76.9848 217.525C74.1137 217.525 71.7863 219.85 71.7863 222.717C71.7863 225.585 74.1137 227.91 76.9848 227.91Z" fill="#999999"/>
<path id="Oval_3" d="M93.8794 227.91C96.7505 227.91 99.078 225.585 99.078 222.717C99.078 219.85 96.7505 217.525 93.8794 217.525C91.0084 217.525 88.6809 219.85 88.6809 222.717C88.6809 225.585 91.0084 227.91 93.8794 227.91Z" fill="#999999"/>
<path id="Oval_4" d="M110.775 227.91C113.646 227.91 115.973 225.585 115.973 222.717C115.973 219.85 113.646 217.525 110.775 217.525C107.904 217.525 105.576 219.85 105.576 222.717C105.576 225.585 107.904 227.91 110.775 227.91Z" fill="#999999"/>
<path id="Path_3" d="M58.49 241.188H287.325" stroke="#999999" stroke-width="4" stroke-linecap="round" stroke-linejoin="round"/>
</g>
<g id="Group_2">
<path id="Path_4" d="M158.262 130.055V288.517C158.262 328.457 176.457 331.552 184.654 331.552C192.852 331.552 345.709 327.358 345.709 327.358C345.709 327.358 322.015 311.682 322.015 275.037V103.795L187.653 99.4016L158.262 130.055Z" fill="#FFD493"/>
<path id="Shape_2" fill-rule="evenodd" clip-rule="evenodd" d="M185.154 130.656L158.262 130.057L187.953 99.5032V127.761C187.953 129.358 186.654 130.656 185.154 130.656ZM209.147 307.791C209.147 307.791 209.947 327.661 184.654 331.555C197.747 331.555 236.075 330.385 272.247 329.282C304.568 328.295 335.168 327.361 344.508 327.361C364.303 327.361 368.202 303.298 368.202 303.298L209.147 307.791Z" fill="#FFBE5C"/>
</g>
<path id="Shape_3" fill-rule="evenodd" clip-rule="evenodd" d="M278.328 197.753C280.228 193.959 281.127 189.266 281.127 183.575C281.127 179.081 280.427 174.888 278.928 170.794C277.428 166.9 275.329 163.405 272.43 160.509C269.531 157.614 265.832 155.317 261.233 153.62C256.634 151.922 251.236 151.124 244.938 151.124C238.639 151.124 233.641 151.723 229.842 153.021C226.043 154.319 222.844 155.717 220.344 157.015V169.296C222.244 168.098 225.043 166.8 228.742 165.402C232.441 164.104 237.34 163.405 243.538 163.405C248.536 163.405 252.535 163.904 255.634 165.102C258.734 166.201 261.133 167.798 262.832 169.596C264.532 171.393 265.632 173.49 266.231 175.886C266.831 178.283 267.131 180.779 267.131 183.275C267.131 187.668 266.231 191.263 264.532 194.059C262.832 196.855 260.633 199.251 257.934 201.248C255.235 203.245 252.335 205.042 249.336 206.64C246.237 208.337 243.438 210.135 240.739 212.331C238.039 214.528 235.84 217.124 234.141 220.319C232.441 223.515 231.541 227.608 231.541 232.601V235.297H243.338V232.501C243.338 229.505 244.238 226.909 246.137 224.813C248.037 222.716 250.336 220.719 253.135 219.021C255.934 217.224 258.934 215.527 262.233 213.729C265.532 212.032 268.531 209.835 271.33 207.239C274.129 204.743 276.429 201.548 278.328 197.753ZM230.942 263.554C232.741 265.451 235.14 266.35 237.94 266.35C240.739 266.35 243.138 265.451 244.938 263.554C246.837 261.657 247.737 259.361 247.737 256.665C247.737 253.969 246.737 251.672 244.938 249.775C243.138 247.878 240.739 246.979 237.94 246.979C235.14 246.979 232.741 247.878 230.942 249.775C229.042 251.672 228.142 253.969 228.142 256.665C228.142 259.46 229.142 261.757 230.942 263.554Z" fill="#DD7E10"/>
</g>
</g>
</svg>
