<svg xmlns="http://www.w3.org/2000/svg" width="400" height="400" fill="none" viewBox="0 0 400 400"><path fill="#433F43" d="M241.256 38h-75.421v127.894h-21.178v-56.285H66.54c-7.593 0-13.786 6.209-13.786 13.821v64.498H28.779c-5.994 0-10.888 4.907-10.888 10.916v92.341h-2.398A6.488 6.488 0 0 0 9 297.695v25.038a6.489 6.489 0 0 0 6.493 6.51h240.148l2.097-7.412 10.19-71.508v-196.6c0-11.617-7.692-15.723-26.672-15.723"/><path fill="#999" d="M390.997 305.103h-2l.001.057zm-6.393 4.41a2 2 0 0 0 0 4zm-60.936-10.918-1.892-.648a1.997 1.997 0 0 0 .265 1.81c.375.526.981.838 1.627.838zm54.842 0v2a2 2 0 0 0 1.892-2.651zm-23.175-67.403 1.891-.65-.012-.035zm-13.785 13.023a2 2 0 1 0 0 4zm18.68 4a2 2 0 0 0 0-4zm-25.074 14.228a2 2 0 1 0 0 4zm31.567 4a2 2 0 0 0 0-4zm-37.46 13.126a2 2 0 1 0 0 4zm43.254 4a2 2 0 0 0 0-4zM79.825 91.981v-2a2 2 0 0 0-2 2zm141.951 0h2a2 2 0 0 0-2-2zm0 116.577v2a2 2 0 0 0 2-2zm-141.951 0h-2a2 2 0 0 0 2 2zm15.184-100.949a2 2 0 1 0 0 4zm107.887 4a2 2 0 0 0 0-4zM95.009 124.733a2 2 0 0 0 0 4zm107.886 4a2 2 0 1 0 0-4zm181.709 180.78h-67.329v4h67.329zm-67.329 0c-2.467 0-4.393-1.984-4.393-4.41h-4c0 4.584 3.667 8.41 8.393 8.41zm-4.393-4.41a4.382 4.382 0 0 1 4.393-4.41v-4a8.382 8.382 0 0 0-8.393 8.41zm4.393-4.41h67.329v-4h-67.329zm67.329 0c2.467 0 4.393 1.984 4.393 4.41h4c0-4.585-3.667-8.41-8.393-8.41zm4.394 4.467c.067 2.329-1.875 4.353-4.394 4.353v4c4.673 0 8.526-3.786 8.393-8.467zm-44.146-74.616-23.076 67.403 3.784 1.295 23.076-67.402zm-21.184 70.051h54.842v-4h-54.842zm56.734-2.651-23.176-67.402-3.783 1.3 23.176 67.403zm-23.188-67.437c-2.116-5.798-10.329-5.934-12.363.04l3.786 1.29c.762-2.238 3.938-2.374 4.819.041zm-15.664 17.708h18.68v-4h-18.68zm18.68-4h-18.68v4h18.68zm-25.074 22.228h31.567v-4h-31.567zm31.567-4h-31.567v4h31.567zm-37.46 21.126h43.254v-4h-43.254zm43.254-4h-43.254v4h43.254zM79.825 93.981h141.951v-4H79.825zm139.951-2v116.577h4V91.981zm2 114.577H79.825v4h141.951zm-139.951 2V91.981h-4v116.577zm13.184-96.949h107.887v-4H95.009zm107.887-4H95.009v4h107.887zM95.009 128.733h107.886v-4H95.009zm107.886-4H95.009v4h107.886z"/><path fill="#FFD493" d="m34.674 338.758 87.707 9.715c2.298.2 4.096-3.005 4.096-7.011V149.671c0-4.006-1.798-7.211-4.096-7.011l-87.707 11.718c-1.998.2-3.597 3.305-3.597 7.111v170.259c0 3.705 1.599 6.91 3.597 7.01"/><path fill="#FFBE5C" d="m274.821 341.763-152.14 6.71c-3.896.2-7.093-3.005-7.093-7.011V149.671c0-4.006 3.197-7.211 7.093-7.011l152.14 6.71c3.396.201 6.193 3.305 6.193 7.111v178.271c0 3.706-2.797 6.911-6.193 7.011"/><path fill="#FFD493" d="M121.682 149.369v192.893l152.939-6.409V154.878z"/><path fill="#999" d="m196.603 339.156 78.017-3.305V154.876l-78.017-2.804z" opacity=".16"/><path fill="#FFBE5C" d="M152.449 277.466h-30.768v64.798l42.156-1.803c.499-1.302.699-2.704.699-4.106v-46.771c0-6.61-5.394-12.118-12.087-12.118"/><path fill="#DD7E10" d="M138.464 203.652c2.096 0 3.796-2.063 3.796-4.607 0-2.545-1.7-4.607-3.796-4.607-2.097 0-3.796 2.062-3.796 4.607 0 2.544 1.699 4.607 3.796 4.607m11.888 0c2.096 0 3.796-2.063 3.796-4.607 0-2.545-1.7-4.607-3.796-4.607-2.097 0-3.796 2.062-3.796 4.607 0 2.544 1.699 4.607 3.796 4.607m11.987 0c2.097 0 3.796-2.063 3.796-4.607 0-2.545-1.699-4.607-3.796-4.607-2.096 0-3.796 2.062-3.796 4.607 0 2.544 1.7 4.607 3.796 4.607m-34.165 11.465a1.756 1.756 0 1 0 0 3.513zm.128 45.874a1.756 1.756 0 0 0-.255 3.504zm12.359-45.874a1.756 1.756 0 1 0 0 3.513zm.128 45.874a1.758 1.758 0 0 0-.255 3.504zm12.359-45.874a1.756 1.756 0 1 0 0 3.513zm.127 45.874a1.757 1.757 0 0 0-.254 3.504zm12.261-45.874a1.756 1.756 0 1 0 0 3.513zm.127 45.874a1.756 1.756 0 0 0-.255 3.504zm-37.489-42.361c1.776 0 2.954.664 3.75 1.756.852 1.17 1.387 3.01 1.387 5.501h3.513c0-2.917-.615-5.584-2.06-7.569-1.502-2.062-3.77-3.201-6.59-3.201zm5.137 7.257v28.243h3.513v-28.243zm0 28.243c0 4.038-1.478 5.561-2.581 6.21a4.841 4.841 0 0 1-2.298.651h-.13l-.018-.001h.004l.006.001h.006c.001 0 .002 0-.126 1.752-.127 1.752-.126 1.752-.125 1.752h.003l.005.001.013.001.034.001.098.004c.078.003.181.004.307.001a8.36 8.36 0 0 0 4.003-1.135c2.343-1.379 4.312-4.163 4.312-9.238zm7.35-35.5c1.776 0 2.954.664 3.75 1.756.852 1.17 1.387 3.01 1.387 5.501h3.513c0-2.917-.615-5.584-2.06-7.569-1.502-2.062-3.77-3.201-6.59-3.201zm5.137 7.257v28.243h3.513v-28.243zm0 28.243c0 4.038-1.478 5.561-2.581 6.21a4.841 4.841 0 0 1-2.298.651h-.13l-.018-.001h.004l.006.001h.005c.002 0 .003 0-.125 1.752-.127 1.752-.126 1.752-.125 1.752h.003l.005.001.013.001.034.001.098.004c.077.003.181.004.307.001a8.36 8.36 0 0 0 4.003-1.135c2.343-1.379 4.312-4.163 4.312-9.238zm7.35-35.5c1.776 0 2.954.664 3.75 1.756.852 1.17 1.386 3.01 1.386 5.501h3.513c0-2.917-.614-5.584-2.059-7.569-1.502-2.062-3.77-3.201-6.59-3.201zm5.136 7.257v28.243h3.513v-28.243zm0 28.243c0 4.038-1.477 5.561-2.58 6.21a4.841 4.841 0 0 1-2.298.651h-.13l-.018-.001h.004l.006.001h.005c.001 0 .002 0-.125 1.752s-.126 1.752-.125 1.752h.003l.005.001.013.001.034.001.097.004c.078.003.182.004.308.001a8.349 8.349 0 0 0 4.002-1.135c2.344-1.379 4.312-4.163 4.312-9.238zm7.252-35.5c1.775 0 2.954.664 3.749 1.756.853 1.17 1.387 3.01 1.387 5.501h3.513c0-2.917-.615-5.584-2.06-7.569-1.502-2.062-3.77-3.201-6.589-3.201zm5.136 7.257v28.243h3.513v-28.243zm0 28.243c0 4.038-1.478 5.561-2.581 6.21a4.835 4.835 0 0 1-1.735.601 4.566 4.566 0 0 1-.563.05h-.13l-.018-.001h.005l.005.001h.006c.001 0 .002 0-.125 1.752-.128 1.752-.127 1.752-.125 1.752h.002l.006.001.013.001.033.001.098.004c.078.003.181.004.307.001a8.36 8.36 0 0 0 4.003-1.135c2.343-1.379 4.312-4.163 4.312-9.238z"/><path fill="#FFBE5C" d="m337.854 353.278-150.842 8.713c-3.896.2-7.392-2.905-7.692-6.911l-17.181-191.791c-.4-4.006 2.497-7.211 6.493-7.111l152.04 4.707c3.396.1 6.493 3.205 6.793 7.011l15.883 178.271c.3 3.705-2.098 6.91-5.494 7.111"/><path fill="#fff" d="M171.029 170.6c2.483 0 4.495-2.197 4.495-4.908 0-2.71-2.012-4.907-4.495-4.907s-4.495 2.197-4.495 4.907c0 2.711 2.012 4.908 4.495 4.908"/><path fill="#FFD493" d="M319.973 174.304c2.482 0 4.495-2.197 4.495-4.907 0-2.711-2.013-4.908-4.495-4.908-2.483 0-4.495 2.197-4.495 4.908 0 2.71 2.012 4.907 4.495 4.907"/><path fill="#fff" d="M188.51 359.187c2.483 0 4.496-2.198 4.496-4.908 0-2.71-2.013-4.907-4.496-4.907-2.482 0-4.495 2.197-4.495 4.907s2.013 4.908 4.495 4.908m146.946-8.814c2.483 0 4.496-2.197 4.496-4.907 0-2.711-2.013-4.908-4.496-4.908-2.482 0-4.495 2.197-4.495 4.908 0 2.71 2.013 4.907 4.495 4.907"/><path fill="#DCA553" fill-opacity=".7" d="M327.465 167.896c-.3-3.706-3.397-6.911-6.793-7.011l-96.499-3.004 4.995 55.284c.4 4.707 4.895 8.412 10.089 8.312l37.061-.4c15.484.2 17.282 12.519 21.278 19.73.699 1.302 2.697 1.101 2.997-.201 1.598-6.81 2.997-19.83 15.284-19.93l16.183-.2z"/><path stroke="#FFD493" stroke-linejoin="round" stroke-width="4" d="M121.682 287.179h29.768c2.597 0 4.396 1.803 4.396 3.906 0 2.203-1.799 3.906-4.396 3.906h-29.768"/><path fill="#FFD493" d="m372.617 84.773-117.676-3.606c-5.095.2-9.29 4.607-9.29 9.715v83.827c0 5.208 4.195 9.315 9.29 9.114l37.061-.4c15.483.2 16.083 13.821 19.479 21.733.6 1.402 2.598 1.202 2.997-.201 2.198-7.511 4.795-21.733 17.082-21.933l40.857-.401c5.295-.1 9.69-4.506 9.69-9.814v-78.92c.1-5.208-4.196-9.315-9.49-9.114"/><path fill="#DD7E10" fill-rule="evenodd" d="m288.206 117.02-22.976 10.716v8.113l30.668-14.322v-8.914L265.23 97.591v8.212zm41.856 27.542-30.768-.401v7.712l30.768.501z" clip-rule="evenodd"/></svg>