<svg xmlns="http://www.w3.org/2000/svg" width="400" height="400" fill="none" viewBox="0 0 400 400"><path fill="#4E4A4E" d="M240.256 38h-75.421v127.894h-21.178v-56.285H65.54c-7.593 0-13.786 6.209-13.786 13.821v64.498H27.779c-5.994 0-10.888 4.907-10.888 10.916v92.341h-2.398A6.49 6.49 0 0 0 8 297.695v25.038a6.49 6.49 0 0 0 6.493 6.51h240.148l2.097-7.412 10.19-71.508v-196.6c0-11.617-7.692-15.723-26.672-15.723"/><path fill="#9C999C" fill-rule="evenodd" d="M76.825 91.98a2 2 0 0 1 2-2h141.951a2 2 0 0 1 2 2v116.578a2 2 0 0 1-2 2H78.825a2 2 0 0 1-2-2zm4 2v112.578h137.951V93.981zm11.184 15.629a2 2 0 0 1 2-2h107.887a2 2 0 0 1 0 4H94.009a2 2 0 0 1-2-2m0 17.124a2 2 0 0 1 2-2h107.886a2 2 0 0 1 0 4H94.009a2 2 0 0 1-2-2M343.85 230.547c2.034-5.974 10.247-5.838 12.363-.04l.012.035 22.746 66.151h4.632c4.717 0 8.379 3.81 8.393 8.382.117 4.668-3.729 8.438-8.393 8.438h-67.329c-4.726 0-8.393-3.826-8.393-8.41a8.38 8.38 0 0 1 8.393-8.41h4.93l5.079-14.834a1.99 1.99 0 0 1 .593-1.732l5.292-15.458a2 2 0 0 1 .556-1.623l5.836-17.049c.033-.302.133-.583.284-.829zm1.896.646 1.889.647-4.237 12.375h13.299l-4.242-12.337-.005-.015c-.889-2.4-4.053-2.259-4.814-.026zm12.326 17.022H342.03l-4.871 14.228h25.806zm6.267 18.228h-28.55l-4.494 13.126h37.558zm5.889 17.126h-40.303l-4.459 13.026h49.241zm13.375 25.944c2.519 0 4.461-2.024 4.394-4.353l-.001-.057c0-2.426-1.926-4.41-4.393-4.41h-67.329a4.38 4.38 0 0 0-4.393 4.41c0 2.426 1.926 4.41 4.393 4.41z" clip-rule="evenodd"/><path fill="#FFD28D" d="m33.674 338.758 87.707 9.715c2.298.2 4.096-3.004 4.096-7.011V149.671c0-4.006-1.798-7.211-4.096-7.011l-87.707 11.718c-1.998.2-3.597 3.305-3.597 7.111v170.259c0 3.705 1.599 6.91 3.597 7.01"/><path fill="#FFBE5C" d="m273.821 341.763-152.14 6.71c-3.896.2-7.093-3.004-7.093-7.011V149.671c0-4.006 3.197-7.211 7.093-7.011l152.14 6.71c3.396.201 6.193 3.305 6.193 7.111v178.271c0 3.706-2.797 6.911-6.193 7.011"/><path fill="#FFD28D" d="M120.682 149.369v192.893l152.939-6.409V154.878z"/><path fill="#9C999C" d="m195.603 339.157 78.017-3.305V154.877l-78.017-2.805z" opacity=".16"/><path fill="#FFBE5C" d="M151.449 277.465h-30.768v64.799l42.156-1.803c.499-1.302.699-2.704.699-4.106v-46.771c0-6.61-5.394-12.119-12.087-12.119"/><path fill="#D3823D" d="M137.464 203.652c2.096 0 3.796-2.063 3.796-4.607s-1.7-4.607-3.796-4.607-3.796 2.062-3.796 4.607c0 2.544 1.699 4.607 3.796 4.607m11.888 0c2.096 0 3.796-2.063 3.796-4.607s-1.7-4.607-3.796-4.607-3.796 2.062-3.796 4.607c0 2.544 1.699 4.607 3.796 4.607m11.987 0c2.097 0 3.796-2.063 3.796-4.607s-1.699-4.607-3.796-4.607-3.796 2.062-3.796 4.607c0 2.544 1.7 4.607 3.796 4.607"/><path fill="#D3823D" fill-rule="evenodd" d="M125.418 216.874c0-.97.786-1.757 1.757-1.757 2.819 0 5.087 1.139 6.589 3.201 1.445 1.985 2.06 4.652 2.06 7.569v28.243c0 5.076-1.969 7.859-4.312 9.238a8.36 8.36 0 0 1-4.31 1.135l-.098-.004-.033-.002-.013-.001h-.006l-.002-.001c-.002 0-.003 0 .125-1.752l-.128 1.752a1.757 1.757 0 0 1 .239-3.505l.016.001h.13a4.84 4.84 0 0 0 2.298-.65c1.103-.649 2.581-2.172 2.581-6.211v-28.243c0-2.491-.535-4.33-1.387-5.5-.795-1.093-1.974-1.757-3.749-1.757a1.756 1.756 0 0 1-1.757-1.756m12.487 0c0-.97.786-1.757 1.756-1.757 2.82 0 5.088 1.139 6.59 3.201 1.445 1.985 2.06 4.652 2.06 7.569v28.243c0 5.076-1.969 7.859-4.312 9.238a8.36 8.36 0 0 1-4.31 1.135l-.098-.004-.034-.002-.012-.001h-.006l-.002-.001c-.002 0-.003 0 .124-1.752l-.127 1.752a1.756 1.756 0 0 1 .239-3.505l.016.001h.13a4.84 4.84 0 0 0 2.298-.65c1.103-.649 2.581-2.172 2.581-6.211v-28.243c0-2.491-.535-4.33-1.387-5.5-.796-1.093-1.974-1.757-3.75-1.757-.97 0-1.756-.786-1.756-1.756m12.487 0c0-.97.786-1.757 1.756-1.757 2.82 0 5.088 1.139 6.59 3.201 1.445 1.985 2.06 4.652 2.06 7.569v28.243c0 5.076-1.969 7.859-4.312 9.238a8.36 8.36 0 0 1-4.31 1.135l-.098-.004-.034-.002-.013-.001h-.005l-.003-.001c-.001 0-.002 0 .125-1.752l-.127 1.752a1.757 1.757 0 0 1 .238-3.505l.017.001h.13a4.84 4.84 0 0 0 2.298-.65c1.103-.649 2.581-2.172 2.581-6.211v-28.243c0-2.491-.535-4.33-1.387-5.5-.796-1.093-1.974-1.757-3.75-1.757-.97 0-1.756-.786-1.756-1.756m12.387 0c0-.97.787-1.757 1.757-1.757 2.82 0 5.087 1.139 6.589 3.201 1.445 1.985 2.06 4.652 2.06 7.569v28.243c0 5.076-1.969 7.859-4.312 9.238a8.35 8.35 0 0 1-4.31 1.135l-.098-.004-.033-.002-.013-.001h-.006l-.002-.001c-.001 0-.003 0 .125-1.752l-.128 1.752a1.756 1.756 0 0 1 .239-3.505l.016.001h.131a4.84 4.84 0 0 0 2.297-.65c1.103-.649 2.581-2.172 2.581-6.211v-28.243c0-2.491-.534-4.33-1.387-5.5-.795-1.093-1.974-1.757-3.749-1.757-.97 0-1.757-.786-1.757-1.756" clip-rule="evenodd"/><path fill="#FFBE5C" d="m336.854 353.278-150.842 8.713c-3.896.2-7.392-2.905-7.692-6.911l-17.182-191.791c-.399-4.006 2.498-7.211 6.494-7.111l152.04 4.707c3.396.1 6.493 3.205 6.793 7.011l15.883 178.271c.3 3.705-2.098 6.91-5.494 7.111"/><path fill="#FFF" d="M170.029 170.6c2.482 0 4.495-2.197 4.495-4.907s-2.013-4.908-4.495-4.908-4.496 2.197-4.496 4.908c0 2.71 2.013 4.907 4.496 4.907"/><path fill="#FFD28D" d="M318.973 174.304c2.482 0 4.495-2.197 4.495-4.907s-2.013-4.908-4.495-4.908-4.495 2.197-4.495 4.908c0 2.71 2.012 4.907 4.495 4.907"/><path fill="#FFF" d="M187.51 359.187c2.483 0 4.496-2.197 4.496-4.907s-2.013-4.908-4.496-4.908c-2.482 0-4.495 2.197-4.495 4.908 0 2.71 2.013 4.907 4.495 4.907m146.946-8.813c2.483 0 4.495-2.198 4.495-4.908s-2.012-4.907-4.495-4.907-4.495 2.197-4.495 4.907 2.013 4.908 4.495 4.908"/><path fill="#E9AE56" d="M326.464 167.896c-.299-3.706-3.396-6.91-6.792-7.011l-96.499-3.004 4.995 55.284c.399 4.707 4.895 8.413 10.089 8.313l37.061-.401c15.484.2 17.282 12.519 21.278 19.73.699 1.302 2.697 1.102 2.997-.2 1.598-6.811 2.997-19.831 15.284-19.931l16.183-.2z" opacity=".7"/><path fill="#FFD28D" fill-rule="evenodd" d="M150.45 289.179h-29.768v-4h29.768c3.546 0 6.396 2.548 6.396 5.906 0 3.49-2.885 5.906-6.396 5.906h-29.768v-4h29.768c1.684 0 2.396-.99 2.396-1.906 0-.849-.746-1.906-2.396-1.906" clip-rule="evenodd"/><path fill="#FFD28D" d="m371.617 84.773-117.676-3.606c-5.095.2-9.29 4.607-9.29 9.715v83.827c0 5.208 4.195 9.314 9.29 9.114l37.061-.401c15.484.201 16.083 13.821 19.479 21.733.6 1.403 2.598 1.202 2.997-.2 2.198-7.511 4.795-21.733 17.082-21.933l40.857-.401c5.295-.1 9.69-4.507 9.69-9.815v-78.92c.1-5.208-4.195-9.314-9.49-9.114"/><path fill="#D3823D" fill-rule="evenodd" d="m287.206 117.02-22.976 10.717v8.112l30.668-14.322v-8.913L264.23 97.591v8.212zm41.856 27.542-30.768-.4v7.711l30.768.501z" clip-rule="evenodd"/></svg>