<svg xmlns="http://www.w3.org/2000/svg" width="371" height="327" fill="none" viewBox="0 0 371 327"><path fill="#F2F2F2" d="M363.102 219.698h-4.793v-55.9c0-4.2-3.396-7.6-7.59-7.6h-61.916l.1-148.4c0-.2-.2-.4-.399-.4h-99.166c-19.673 0-21.87 11-21.87 23v146.5h-25.365v-53.8c0-3.7-2.996-6.6-6.591-6.6H41.639c-3.695 0-6.59 3-6.59 6.6v96.5h-5.693c-4.195 0-7.59 3.4-7.59 7.6v29.9c0 4.2 3.396 7.6 7.59 7.6h333.846c4.195 0 7.59-3.4 7.59-7.6v-29.9c-.1-4.1-3.495-7.5-7.69-7.5"/><path fill="#8C8C8C" fill-rule="evenodd" d="M13.977 185.898a9.3 9.3 0 0 0-2.05.228 2 2 0 1 1-.885-3.901 13.3 13.3 0 0 1 2.935-.327h2.156a2 2 0 0 1 0 4zm10.94-2a2 2 0 0 1 2-2h4.313a2 2 0 0 1 0 4h-4.314a2 2 0 0 1-2-2m15.096 0a2 2 0 0 1 2-2h4.313a2 2 0 0 1 0 4h-4.313a2 2 0 0 1-2-2m15.096 0a2 2 0 0 1 2-2h4.313a2 2 0 0 1 0 4h-4.313a2 2 0 0 1-2-2m15.096 0a2 2 0 0 1 2-2h4.313a2 2 0 0 1 0 4h-4.313a2 2 0 0 1-2-2m15.096 0a2 2 0 0 1 2-2h4.313a2 2 0 0 1 0 4H87.3a2 2 0 0 1-2-2m15.096 0a2 2 0 0 1 2-2h2.157c1.006 0 1.989.113 2.935.327a2 2 0 0 1-.885 3.901 9.3 9.3 0 0 0-2.05-.228h-2.157a2 2 0 0 1-2-2m-96.888 6.757a2 2 0 0 1 1.51 2.391 9.3 9.3 0 0 0-.227 2.052v1.909a2 2 0 1 1-4 0v-1.909c0-1.006.112-1.988.325-2.933a2 2 0 0 1 2.392-1.51m111.513 0a2 2 0 0 1 2.391 1.51c.213.945.326 1.927.326 2.933v1.909a2 2 0 0 1-4 0v-1.909a9.3 9.3 0 0 0-.228-2.052 2 2 0 0 1 1.511-2.391M2.792 204.552a2 2 0 0 1 2 2v3.818a2 2 0 0 1-4 0v-3.818a2 2 0 0 1 2-2m112.947 0a2 2 0 0 1 2 2v3.818a2 2 0 0 1-4 0v-3.818a2 2 0 0 1 2-2m0 13.363a2 2 0 0 1 2 2v3.817a2 2 0 0 1-4 0v-3.817a2 2 0 0 1 2-2m-112.947 0a2 2 0 0 1 2 2v3.817a2 2 0 1 1-4 0v-3.817a2 2 0 0 1 2-2m0 13.362a2 2 0 0 1 2 2v3.818a2 2 0 0 1-4 0v-3.818a2 2 0 0 1 2-2m112.947 0a2 2 0 0 1 2 2v3.818a2 2 0 0 1-4 0v-3.818a2 2 0 0 1 2-2M2.792 244.64a2 2 0 0 1 2 2v3.817a2 2 0 1 1-4 0v-3.817a2 2 0 0 1 2-2m112.947 0a2 2 0 0 1 2 2v3.817a2 2 0 0 1-4 0v-3.817a2 2 0 0 1 2-2M2.792 258.002a2 2 0 0 1 2 2v3.818a2 2 0 0 1-4 0v-3.818a2 2 0 0 1 2-2m112.947 0a2 2 0 0 1 2 2v3.818a2 2 0 0 1-4 0v-3.818a2 2 0 0 1 2-2M2.792 271.365a2 2 0 0 1 2 2v3.817a2 2 0 1 1-4 0v-3.817a2 2 0 0 1 2-2m112.947 0a2 2 0 0 1 2 2v3.817a2 2 0 0 1-4 0v-3.817a2 2 0 0 1 2-2M2.792 284.727a2 2 0 0 1 2 2v3.818a2 2 0 0 1-4 0v-3.818a2 2 0 0 1 2-2m112.947 0a2 2 0 0 1 2 2v3.818a2 2 0 0 1-4 0v-3.818a2 2 0 0 1 2-2M2.792 298.09a2 2 0 0 1 2 2v1.908c0 .709.079 1.395.227 2.053a2 2 0 0 1-3.902.881 13.3 13.3 0 0 1-.325-2.934v-1.908a2 2 0 0 1 2-2m112.947 0a2 2 0 0 1 2 2v1.908c0 1.007-.113 1.989-.326 2.934a2 2 0 0 1-3.902-.881 9.3 9.3 0 0 0 .228-2.053v-1.908a2 2 0 0 1 2-2M9.534 312.479a2 2 0 0 1 2.392-1.509 9.3 9.3 0 0 0 2.05.228h2.157a2 2 0 0 1 0 4h-2.156a13.3 13.3 0 0 1-2.935-.326 2 2 0 0 1-1.508-2.393m99.463 0a2 2 0 0 1-1.508 2.393c-.946.214-1.929.326-2.935.326h-2.157a2 2 0 0 1 0-4h2.157a9.3 9.3 0 0 0 2.05-.228 2 2 0 0 1 2.393 1.509m-84.08.719a2 2 0 0 1 2-2h4.313a2 2 0 0 1 0 4h-4.314a2 2 0 0 1-2-2m15.096 0a2 2 0 0 1 2-2h4.313a2 2 0 0 1 0 4h-4.313a2 2 0 0 1-2-2m15.096 0a2 2 0 0 1 2-2h4.313a2 2 0 0 1 0 4h-4.313a2 2 0 0 1-2-2m15.096 0a2 2 0 0 1 2-2h4.313a2 2 0 0 1 0 4h-4.313a2 2 0 0 1-2-2m15.096 0a2 2 0 0 1 2-2h4.313a2 2 0 0 1 0 4H87.3a2 2 0 0 1-2-2M19.289 205.515a2 2 0 0 1 2.765-.592l19.774 12.8a2 2 0 0 1 .013 3.349l-19.573 12.9a2 2 0 1 1-2.201-3.34l17.017-11.215-17.203-11.136a2 2 0 0 1-.592-2.766m27.74 42.787a2 2 0 0 1 2-2h20.772a2 2 0 1 1 0 4H49.029a2 2 0 0 1-2-2m277.623-223.7a2 2 0 0 1 2-2h1.997c.531 0 1.04.21 1.415.586l1.398 1.4a2 2 0 1 1-2.83 2.827l-.812-.813h-1.168a2 2 0 0 1-2-2m-128.597-1.698a12 12 0 0 1 2.671-.302h2.104a2 2 0 1 1 0 4h-2.104c-.611 0-1.205.07-1.775.2a2 2 0 1 1-.896-3.898m13.297 1.698a2 2 0 0 1 2-2h4.208a2 2 0 1 1 0 4h-4.208a2 2 0 0 1-2-2m14.73 0a2 2 0 0 1 2-2h4.208a2 2 0 1 1 0 4h-4.208a2 2 0 0 1-2-2m14.73 0a2 2 0 0 1 2-2h4.208a2 2 0 1 1 0 4h-4.208a2 2 0 0 1-2-2m14.73 0a2 2 0 0 1 2-2h4.208a2 2 0 1 1 0 4h-4.208a2 2 0 0 1-2-2m14.73 0a2 2 0 0 1 2-2h4.208a2 2 0 1 1 0 4h-4.208a2 2 0 0 1-2-2m14.73 0a2 2 0 0 1 2-2h4.208a2 2 0 1 1 0 4h-4.208a2 2 0 0 1-2-2m14.73 0a2 2 0 0 1 2-2h4.208a2 2 0 1 1 0 4h-4.208a2 2 0 0 1-2-2m14.73 0a2 2 0 0 1 2-2h2.104a2 2 0 0 1 0 4h-2.104a2 2 0 0 1-2-2m19.665 3.587a2 2 0 0 1 2.828-.003l1.26 1.257a2 2 0 1 1-2.825 2.832l-1.26-1.258a2 2 0 0 1-.003-2.828m-142.691 2.24a2 2 0 0 1 1.503 2.396 8 8 0 0 0-.199 1.777v2.072a2 2 0 0 1-4 0v-2.072c0-.915.103-1.81.3-2.67a2 2 0 0 1 2.396-1.503m150.252 5.303a2 2 0 0 1 2.828-.004l2.521 2.515a2 2 0 0 1-2.825 2.832l-2.521-2.515a2 2 0 0 1-.003-2.828m8.821 8.8a2 2 0 0 1 2.829-.003l2.52 2.514a2 2 0 1 1-2.825 2.832l-2.52-2.515a2 2 0 0 1-.004-2.828m-159.769.504a2 2 0 0 1 2 2v4.145a2 2 0 0 1-4 0v-4.145a2 2 0 0 1 2-2m168.591 8.296a2 2 0 0 1 2.828-.004l1.26 1.258a2 2 0 0 1 .588 1.416v1.996a2 2 0 0 1-4 0v-1.167l-.673-.67a2 2 0 0 1-.003-2.83M188.74 59.543a2 2 0 0 1 2 2v4.145a2 2 0 0 1-4 0v-4.145a2 2 0 0 1 2-2m171.267 6.439a2 2 0 0 1 2 2v3.993a2 2 0 0 1-4 0v-3.993a2 2 0 0 1 2-2M188.74 74.05a2 2 0 0 1 2 2v4.144a2 2 0 0 1-4 0V76.05a2 2 0 0 1 2-2m171.267 5.908a2 2 0 0 1 2 2v3.993a2 2 0 0 1-4 0V81.96a2 2 0 0 1 2-2M188.74 88.558a2 2 0 0 1 2 2v4.145a2 2 0 0 1-4 0v-4.145a2 2 0 0 1 2-2m171.267 5.378a2 2 0 0 1 2 2v3.993a2 2 0 0 1-4 0v-3.993a2 2 0 0 1 2-2m-171.267 9.129a2 2 0 0 1 2 2v4.145a2 2 0 0 1-4 0v-4.145a2 2 0 0 1 2-2m171.267 4.848a2 2 0 0 1 2 2v3.993a2 2 0 0 1-4 0v-3.993a2 2 0 0 1 2-2m-171.267 9.659a2 2 0 0 1 2 2v4.145a2 2 0 0 1-4 0v-4.145a2 2 0 0 1 2-2m171.267 4.317a2 2 0 0 1 2 2v3.994a2 2 0 0 1-4 0v-3.994a2 2 0 0 1 2-2m-171.267 10.19a2 2 0 0 1 2 2v4.145a2 2 0 0 1-4 0v-4.145a2 2 0 0 1 2-2m171.267 3.787a2 2 0 0 1 2 2v3.994a2 2 0 0 1-4 0v-3.994a2 2 0 0 1 2-2m-171.267 10.72a2 2 0 0 1 2 2v4.145a2 2 0 0 1-4 0v-4.145a2 2 0 0 1 2-2m171.267 3.257a2 2 0 0 1 2 2v3.994a2 2 0 0 1-4 0v-3.994a2 2 0 0 1 2-2m-171.267 11.25a2 2 0 0 1 2 2v4.145a2 2 0 0 1-4 0v-4.145a2 2 0 0 1 2-2m171.267 2.727a2 2 0 0 1 2 2v3.994a2 2 0 0 1-4 0v-3.994a2 2 0 0 1 2-2M188.74 175.601a2 2 0 0 1 2 2v4.144a2 2 0 0 1-4 0v-4.144a2 2 0 0 1 2-2m171.267 2.196a2 2 0 0 1 2 2v3.994a2 2 0 0 1-4 0v-3.994a2 2 0 0 1 2-2M188.74 190.108a2 2 0 0 1 2 2v4.145a2 2 0 0 1-4 0v-4.145a2 2 0 0 1 2-2m171.267 1.666a2 2 0 0 1 2 2v3.994a2 2 0 0 1-4 0v-3.994a2 2 0 0 1 2-2M188.74 204.615a2 2 0 0 1 2 2v4.145a2 2 0 0 1-4 0v-4.145a2 2 0 0 1 2-2m171.267 1.136a2 2 0 0 1 2 2v3.993a2 2 0 0 1-4 0v-3.993a2 2 0 0 1 2-2M188.74 219.122a2 2 0 0 1 2 2v4.145a2 2 0 0 1-4 0v-4.145a2 2 0 0 1 2-2m171.267.606a2 2 0 0 1 2 2v3.993a2 2 0 0 1-4 0v-3.993a2 2 0 0 1 2-2M188.74 233.629a2 2 0 0 1 2 2v2.073c0 .611.069 1.206.199 1.776a1.999 1.999 0 1 1-3.899.893c-.197-.861-.3-1.754-.3-2.669v-2.073a2 2 0 0 1 2-2m171.267.076a2 2 0 0 1 2 2v1.997c0 .915-.104 1.808-.301 2.669a2 2 0 1 1-3.899-.893c.13-.57.2-1.165.2-1.776v-1.997a2 2 0 0 1 2-2m-165.453 13.297a2 2 0 0 1 2.397-1.501c.57.131 1.164.201 1.775.201h1.965a2 2 0 0 1 0 4h-1.965c-.916 0-1.81-.105-2.671-.303a2 2 0 0 1-1.501-2.397m159.638 0a2 2 0 0 1-1.501 2.397c-.861.198-1.755.303-2.671.303h-1.965a2 2 0 0 1 0-4h1.965c.611 0 1.205-.07 1.775-.201a2 2 0 0 1 2.397 1.501m-145.677.7a2 2 0 0 1 2-2h3.93a2 2 0 0 1 0 4h-3.93a2 2 0 0 1-2-2m13.754 0a2 2 0 0 1 2-2h3.93a2 2 0 0 1 0 4h-3.93a2 2 0 0 1-2-2m13.754 0a2 2 0 0 1 2-2h3.93a2 2 0 0 1 0 4h-3.93a2 2 0 0 1-2-2m13.754 0a2 2 0 0 1 2-2h3.93a2 2 0 1 1 0 4h-3.93a2 2 0 0 1-2-2m13.754 0a2 2 0 0 1 2-2h3.93a2 2 0 1 1 0 4h-3.93a2 2 0 0 1-2-2m13.754 0a2 2 0 0 1 2-2h3.93a2 2 0 1 1 0 4h-3.93a2 2 0 0 1-2-2m13.754 0a2 2 0 0 1 2-2h3.93a2 2 0 1 1 0 4h-3.93a2 2 0 0 1-2-2m13.754 0a2 2 0 0 1 2-2h3.93a2 2 0 1 1 0 4h-3.93a2 2 0 0 1-2-2m13.754 0a2 2 0 0 1 2-2h3.93a2 2 0 1 1 0 4h-3.93a2 2 0 0 1-2-2m13.754 0a2 2 0 0 1 2-2h3.93a2 2 0 1 1 0 4h-3.93a2 2 0 0 1-2-2" clip-rule="evenodd"/><path fill="#8C8C8C" fill-rule="evenodd" d="M328.649 22.602a2 2 0 0 1 2 2v2a2 2 0 1 1-4 0v-2a2 2 0 0 1 2-2m0 12.7a2 2 0 0 1 2 2v1.614a2 2 0 1 1-4 0v-1.614a2 2 0 0 1 2-2m0 9.685a2 2 0 0 1 2 2v1.615q.001.628.133 1.208a2 2 0 1 1-3.902.879 9.5 9.5 0 0 1-.231-2.087v-1.614a2 2 0 0 1 2-2m3.792 10.39a2 2 0 0 1 2.392-1.509q.579.132 1.206.134h2.368a2 2 0 1 1 0 4h-2.368c-.716 0-1.415-.08-2.089-.233a2 2 0 0 1-1.509-2.392m15.807.625a2 2 0 0 1 2-2h2.368a2 2 0 1 1 0 4h-2.368a2 2 0 0 1-2-2m7.661-.003a2 2 0 0 1 2-2h1.997a2 2 0 1 1 0 4h-1.997a2 2 0 0 1-2-2" clip-rule="evenodd"/><path fill="#FFBE5C" d="m65.407 286.601 2.297-195.6c.1-7.7 5.493-13.9 11.884-13.6l220.201 11.5c4.594.2 8.189 4.1 8.189 8.8v179.5z"/><path fill="#FFD89D" d="M212.308 106.801c1.098-6 6.89-10.7 12.882-10.4l110.65 4.9c5.492.2 9.087 5 7.989 10.7l-29.56 164.2c-.999 5.6-6.291 10.3-11.784 10.6l-226.692 9.4c-6.79.3-11.385-4.6-10.286-10.8l27.363-160.1c1.098-6.3 7.39-11.3 14.081-11l92.174 3.2c6.392 0 13.183-10.7 13.183-10.7"/><path fill="#8C8C8C" fill-rule="evenodd" d="M82.184 0a2 2 0 0 1 2 2v10.8a2 2 0 1 1-4 0V2a2 2 0 0 1 2-2M57.615 24.602a2 2 0 0 1 2-2h10.786a2 2 0 0 1 0 4H59.615a2 2 0 0 1-2-2m34.253 0a2 2 0 0 1 2-2h10.886a2 2 0 0 1 0 4H93.868a2 2 0 0 1-2-2M82.185 33.5a2 2 0 0 1 2 2v11.7a2 2 0 1 1-4 0V35.5a2 2 0 0 1 2-2m258.448 266a2 2 0 0 1 2 2v5.6a2 2 0 1 1-4 0v-5.6a2 2 0 0 1 2-2m-13.784 13.7a2 2 0 0 1 2-2h5.692a2 2 0 1 1 0 4h-5.692a2 2 0 0 1-2-2m17.876 0a2 2 0 0 1 2-2h5.692a2 2 0 1 1 0 4h-5.692a2 2 0 0 1-2-2m-4.092 3.698a2 2 0 0 1 2 2v6.1a2 2 0 0 1-4 0v-6.1a2 2 0 0 1 2-2" clip-rule="evenodd"/></svg>