<svg xmlns="http://www.w3.org/2000/svg" width="400" height="400" fill="none" viewBox="0 0 400 400"><path fill="#F0F3F5" d="M376.31 256.698h-4.793v-55.9c0-4.2-3.395-7.6-7.59-7.6h-61.916l.1-148.4c0-.2-.199-.4-.399-.4h-99.165c-19.674 0-21.871 11-21.871 23v146.5h-25.365v-53.8c0-3.7-2.996-6.6-6.591-6.6H54.847c-3.695 0-6.59 3-6.59 6.6v96.5h-5.693c-4.194 0-7.59 3.4-7.59 7.6v29.9c0 4.2 3.396 7.6 7.59 7.6H376.41c4.195 0 7.59-3.4 7.59-7.6v-29.9c-.1-4.1-3.495-7.5-7.69-7.5"/><path stroke="#999" stroke-dasharray="4 10" stroke-linecap="round" stroke-linejoin="round" stroke-width="4" d="M117.762 350.198H27.185c-6.192 0-11.185-5-11.185-11.2v-106.9c0-6.2 4.993-11.2 11.185-11.2h90.577c6.191 0 11.185 5 11.185 11.2v106.9c0 6.2-4.994 11.2-11.185 11.2" clip-rule="evenodd"/><path fill="#999" d="M35.262 241.923a1.999 1.999 0 1 0-2.173 3.357zm18.687 14.479 1.1 1.67a2 2 0 0 0-.014-3.349zm-20.674 11.23a2 2 0 1 0 2.2 3.34zm28.962 15.67a2 2 0 1 0 0 4zm20.772 4a2 2 0 0 0 0-4zm-49.92-42.022 19.773 12.8 2.173-3.357-19.773-12.8zm19.759 9.452-19.573 12.9 2.2 3.34 19.574-12.9zm9.389 32.57h20.772v-4H62.237z"/><path stroke="#999" stroke-linecap="round" stroke-linejoin="round" stroke-width="4" d="m343.255 63.002-1.398-1.4h-1.997"/><path stroke="#999" stroke-dasharray="4.01 10.02" stroke-linecap="round" stroke-linejoin="round" stroke-width="4" d="M329.774 61.602h-117.84c-5.493 0-9.986 4.5-9.986 10v203.1c0 5.5 4.493 10 9.986 10h151.294c5.493 0 9.987-4.5 9.987-10v-181.7l-26.464-26.4"/><g stroke="#999" stroke-linecap="round" stroke-linejoin="round" stroke-width="4"><path d="M341.857 61.602v2"/><path stroke-dasharray="4.27 10.68" d="M341.857 74.302v11.3c0 4.1 3.296 7.4 7.39 7.4h16.577"/><path d="M371.117 93h1.997"/></g><path fill="#FFBE5C" d="m78.615 323.601 2.297-195.6c.1-7.7 5.493-13.9 11.884-13.6l220.201 11.5c4.594.2 8.189 4.1 8.189 8.8v179.5z"/><path fill="#FFD493" d="M225.516 143.801c1.098-6 6.89-10.7 12.882-10.4l110.65 4.9c5.492.2 9.087 5 7.989 10.7l-29.56 164.2c-.999 5.6-6.291 10.3-11.784 10.6l-226.692 9.4c-6.79.3-11.385-4.6-10.286-10.8l27.363-160.1c1.098-6.3 7.39-11.3 14.081-11l92.174 3.2c6.392 0 13.183-10.7 13.183-10.7"/><path fill="#999" d="M97.392 39a2 2 0 1 0-4 0zm-4 10.8a2 2 0 0 0 4 0zm4 22.7a2 2 0 1 0-4 0zm-4 11.7a2 2 0 0 0 4 0zm24.57-20.598a2 2 0 0 0 0-4zm-10.886-4a2 2 0 0 0 0 4zm-23.467 4a2 2 0 0 0 0-4zm-10.786-4a2 2 0 1 0 0 4zM93.393 39v10.8h4V39zm0 33.5v11.7h4V72.5zm24.569-12.898h-10.886v4h10.886zm-34.353 0H72.823v4H83.61zM355.841 338.5a2 2 0 1 0-4 0zm-4 5.6a2 2 0 1 0 4 0zm4 11.798a2 2 0 0 0-4 0zm-4 6.1a2 2 0 1 0 4 0zm13.784-9.798a2 2 0 1 0 0-4zm-5.692-4a2 2 0 1 0 0 4zm-12.184 4a2 2 0 1 0 0-4zm-5.692-4a2 2 0 1 0 0 4zm9.784-9.7v5.6h4v-5.6zm0 17.398v6.1h4v-6.1zm13.784-7.698h-5.692v4h5.692zm-17.876 0h-5.692v4h5.692z"/></svg>