<svg xmlns="http://www.w3.org/2000/svg" width="400" height="400" fill="none" viewBox="0 0 400 400"><path fill="#4E4A4E" d="M324.363 91.646V73.721c0-3.405-2.597-6.109-5.894-6.31-13.685-.5-48.346-1.802-77.114-1.802-36.56 0-59.634 24.635-59.634 24.635S158.546 65.71 121.987 65.71c-28.668 0-63.43 1.201-77.115 1.802-3.296.1-5.893 2.904-5.893 6.309v17.925H26.193c-3.396 0-6.193 2.804-6.193 6.31v191.47c0 3.505 2.797 6.309 6.193 6.309H337.25c3.396 0 6.193-2.804 6.193-6.309V97.956c0-3.506-2.797-6.31-6.193-6.31z"/><path fill="#9C999C" fill-rule="evenodd" d="M105.272 129.199h.005l9.481.301a2 2 0 0 1 1.934 2.065 2 2 0 0 1-2.06 1.938l-9.498-.3c-2.137-.077-3.868.821-5.018 2.339-1.168 1.542-1.808 3.838-1.424 6.59l.001.006 19.778 135.086c.785 5.514 5.391 9.697 9.809 9.697a2 2 0 0 1 1.998 2.003 2 2 0 0 1-1.998 2.003c-6.768 0-12.75-6.029-13.764-13.132l-.001-.004-19.779-135.095c-.512-3.655.295-7.064 2.198-9.577 1.922-2.537 4.883-4.042 8.338-3.92" clip-rule="evenodd"/><path fill="#9C999C" fill-rule="evenodd" d="M88.491 132.606h.005l9.48.3a2 2 0 0 1 1.935 2.065 2 2 0 0 1-2.06 1.939l-9.498-.301c-2.137-.077-3.868.821-5.018 2.339-1.168 1.542-1.808 3.838-1.424 6.59l.001.006 19.778 135.087c.785 5.513 5.391 9.696 9.809 9.696a2 2 0 0 1 1.998 2.003 2 2 0 0 1-1.998 2.003c-6.768 0-12.75-6.029-13.764-13.131v-.005l-19.78-135.095c-.512-3.654.295-7.064 2.198-9.576 1.922-2.538 4.883-4.043 8.338-3.92" clip-rule="evenodd"/><path fill="#9C999C" fill-rule="evenodd" d="m71.61 136.11.004.001 9.48.3a2 2 0 0 1 1.935 2.065 2 2 0 0 1-2.06 1.938l-9.498-.3c-2.137-.077-3.868.821-5.018 2.339-1.168 1.542-1.809 3.838-1.424 6.59l.001.006 19.778 135.087c.785 5.513 5.39 9.696 9.809 9.696a2 2 0 0 1 1.998 2.003 2 2 0 0 1-1.998 2.003c-6.768 0-12.75-6.029-13.764-13.132v-.004l-19.78-135.095c-.512-3.654.295-7.064 2.198-9.577 1.922-2.537 4.883-4.042 8.338-3.92" clip-rule="evenodd"/><path fill="#9C999C" fill-rule="evenodd" d="m121.154 126.695.005.001 194.674 5.908h.016c6.396.247 11.787 6.223 12.788 13.025l.002.014 18.077 129.064.002.012c1.014 6.818-2.989 13.203-9.669 13.203H144.063c-6.671 0-12.65-6.031-13.664-13.029m-.001-.002-19.674-134.669-.002-.01c-.568-3.656.211-7.072 2.103-9.59 1.911-2.544 4.876-4.049 8.329-3.927m-5.138 6.336c-1.153 1.535-1.773 3.824-1.345 6.573l.003.019 19.678 134.69.001.003c.784 5.419 5.393 9.6 9.71 9.6h192.986c3.504 0 6.493-3.421 5.716-8.615l-.003-.019-18.078-129.068-.001-.006c-.799-5.409-4.991-9.442-8.98-9.601h-.007l-194.668-5.908h-.011c-2.139-.077-3.866.822-5.001 2.332M46.39 145.336c1.923-2.538 4.886-4.043 8.343-3.92l.022.001 8.59.401a2 2 0 0 1 1.897 1.816l21.476 157.323a2.006 2.006 0 0 1-1.99 2.187c-6.768 0-19.742-6.03-20.756-13.132v-.004l-19.78-135.095c-.512-3.655.296-7.064 2.198-9.577m1.759 9.013v.006l19.778 135.086c.654 4.588 10.944 8.255 14.58 9.357l-21.084-153.06-6.843-.319c-2.132-.073-3.86.824-5.007 2.339-1.168 1.543-1.81 3.839-1.424 6.591" clip-rule="evenodd"/><path fill="#9C999C" fill-rule="evenodd" d="M239.146 198.22a2 2 0 0 1 2.285 1.666l.046.296.378.019a2 2 0 0 1 1.895 2.1 2 2 0 0 1-2.095 1.901l-1.998-.101a2 2 0 0 1-1.873-1.688l-.3-1.902a2.003 2.003 0 0 1 1.662-2.291m-7.412-43.859a2 2 0 0 1 2.301 1.643l.276 1.645a1.997 1.997 0 1 1-3.94.664l-.276-1.645a2 2 0 0 1 1.639-2.307m1.655 9.871a2 2 0 0 1 2.302 1.643l.551 3.291a2 2 0 0 1-1.638 2.307 2 2 0 0 1-2.302-1.643l-.552-3.291a2 2 0 0 1 1.639-2.307m1.932 11.516a2 2 0 0 1 2.301 1.643l.552 3.291a2 2 0 1 1-3.941.664l-.551-3.29a2.003 2.003 0 0 1 1.639-2.308m1.931 11.517a1.997 1.997 0 0 1 2.301 1.643l.276 1.645a1.998 1.998 0 1 1-3.94.664l-.276-1.645a2 2 0 0 1 1.639-2.307m-7.799-38.844a2 2 0 0 1 1.514-.695h1.997a2 2 0 0 1 1.998 2.002 2 2 0 0 1-1.698 1.981 1.998 1.998 0 0 1-3.973.319l-.3-2.002a2 2 0 0 1 .462-1.605m10.903 1.552a2 2 0 0 1 2.049-1.95l1.747.046a2 2 0 0 1 1.945 2.054 2 2 0 0 1-2.049 1.95l-1.747-.046a2 2 0 0 1-1.945-2.054m10.48.275a2 2 0 0 1 2.049-1.95l3.494.091a2 2 0 0 1 1.944 2.055 2 2 0 0 1-2.049 1.95l-3.493-.092a2 2 0 0 1-1.945-2.054m12.226.32a2 2 0 0 1 2.05-1.95l3.493.092a2 2 0 0 1 1.945 2.054 2 2 0 0 1-2.049 1.95l-3.494-.091a2 2 0 0 1-1.945-2.055m12.227.321a2 2 0 0 1 2.049-1.95l3.493.091a2 2 0 0 1 1.945 2.055 2 2 0 0 1-2.049 1.95l-3.493-.092a2 2 0 0 1-1.945-2.054m12.226.32a2 2 0 0 1 2.05-1.95l3.493.092a2 2 0 0 1 1.945 2.054 2 2 0 0 1-2.049 1.95l-3.494-.092a2 2 0 0 1-1.945-2.054m12.227.32a2 2 0 0 1 2.049-1.949l1.747.045a2 2 0 0 1 1.945 2.055 2 2 0 0 1-2.05 1.95l-1.746-.046a2 2 0 0 1-1.945-2.055m6.443.102a2 2 0 0 1 2.095-1.9l1.998.1a2 2 0 0 1 1.876 1.703l.3 2.003a1.999 1.999 0 1 1-3.952.594l-.057-.381-.364-.018a2 2 0 0 1-1.896-2.101m5.461 9.339a2 2 0 0 1 2.301 1.644l.271 1.622a2 2 0 0 1-1.64 2.306 2 2 0 0 1-2.301-1.644l-.271-1.621a2.003 2.003 0 0 1 1.64-2.307m1.627 9.728a2 2 0 0 1 2.301 1.644l.542 3.243a2.003 2.003 0 0 1-1.64 2.307 2 2 0 0 1-2.301-1.645l-.542-3.242a2.003 2.003 0 0 1 1.64-2.307m1.898 11.35a2 2 0 0 1 2.301 1.644l.542 3.242a2.003 2.003 0 0 1-1.64 2.307 2 2 0 0 1-2.301-1.644l-.542-3.243a2 2 0 0 1 1.64-2.306m1.898 11.349a1.997 1.997 0 0 1 2.3 1.644l.272 1.621a1.998 1.998 0 1 1-3.941.663l-.271-1.622a2 2 0 0 1 1.64-2.306m1.088 6.224a2 2 0 0 1 2.285 1.665l.3 1.903a2 2 0 0 1-.455 1.614 2 2 0 0 1-1.518.701h-1.998a2 2 0 0 1-1.998-2.002 2 2 0 0 1 1.699-1.981 2 2 0 0 1 1.685-1.9m-73.705 2.649a2 2 0 0 1 2.03-1.97l1.741.029a2 2 0 0 1 1.965 2.035 2 2 0 0 1-2.031 1.97l-1.741-.029a2 2 0 0 1-1.964-2.035m10.445.171a2 2 0 0 1 2.031-1.969l3.481.057a2 2 0 0 1 1.965 2.035 2 2 0 0 1-2.03 1.97l-3.482-.057a2 2 0 0 1-1.965-2.036m12.187.201a2 2 0 0 1 2.03-1.97l3.482.057a2 2 0 0 1 1.965 2.036 2 2 0 0 1-2.031 1.969l-3.481-.057a2 2 0 0 1-1.965-2.035m12.186.2a2 2 0 0 1 2.031-1.97l3.481.058a2 2 0 0 1 1.965 2.035 2 2 0 0 1-2.03 1.97l-3.482-.058a2 2 0 0 1-1.965-2.035m12.187.2a2 2 0 0 1 2.03-1.969l3.482.057a2 2 0 0 1 1.965 2.035 2 2 0 0 1-2.031 1.97l-3.481-.057a2 2 0 0 1-1.965-2.036m12.186.201a2 2 0 0 1 2.031-1.97l1.74.028a2 2 0 0 1 1.965 2.036 2 2 0 0 1-2.03 1.97l-1.741-.029a2 2 0 0 1-1.965-2.035m-163.173-6.83a2 2 0 0 1 2.272 1.684l.057.381.364.018a2 2 0 0 1 1.896 2.101 2 2 0 0 1-2.095 1.9l-1.998-.1a2 2 0 0 1-1.876-1.703l-.3-2.003a2.003 2.003 0 0 1 1.68-2.278m-7.633-44.556a2 2 0 0 1 2.306 1.637l.285 1.674a1.998 1.998 0 1 1-3.938.675l-.286-1.674a2.003 2.003 0 0 1 1.633-2.312m1.712 10.043a2 2 0 0 1 2.306 1.637l.571 3.347a2.003 2.003 0 0 1-1.633 2.312 2 2 0 0 1-2.305-1.637l-.571-3.348a2 2 0 0 1 1.632-2.311m1.998 11.716a2 2 0 0 1 2.306 1.637l.571 3.348a1.998 1.998 0 1 1-3.939.675l-.57-3.348a2.003 2.003 0 0 1 1.632-2.312m1.998 11.717a2 2 0 0 1 2.306 1.637l.285 1.673a1.998 1.998 0 1 1-3.938.675l-.286-1.673a2 2 0 0 1 1.633-2.312m-8.082-39.62a2 2 0 0 1 1.612-.692l1.998.1a2 2 0 0 1 1.896 2.101 2 2 0 0 1-1.597 1.862 1.998 1.998 0 0 1-3.956.333l-.399-2.003a2 2 0 0 1 .446-1.701m11.302 1.654a2 2 0 0 1 2.051-1.948l1.817.048c1.103.03 1.974.95 1.944 2.056a2 2 0 0 1-2.05 1.949l-1.818-.049a2 2 0 0 1-1.944-2.056m10.908.292a2 2 0 0 1 2.05-1.948l3.636.097a2 2 0 0 1 1.944 2.055 2 2 0 0 1-2.05 1.949l-3.636-.097a2 2 0 0 1-1.944-2.056m12.726.341a2 2 0 0 1 2.05-1.949l3.636.097c1.103.03 1.973.95 1.944 2.056a2 2 0 0 1-2.05 1.949l-3.636-.098a2 2 0 0 1-1.944-2.055m12.726.34a2 2 0 0 1 2.05-1.949l3.636.098a2 2 0 0 1 1.944 2.055 2 2 0 0 1-2.05 1.949l-3.636-.097a2 2 0 0 1-1.944-2.056m12.726.341a2 2 0 0 1 2.05-1.949l3.636.097c1.103.03 1.973.95 1.944 2.056a2 2 0 0 1-2.051 1.948l-3.635-.097a2 2 0 0 1-1.944-2.055m12.726.34a2 2 0 0 1 2.05-1.949l1.818.049c1.103.03 1.973.95 1.944 2.056a2 2 0 0 1-2.051 1.948l-1.818-.048a2 2 0 0 1-1.943-2.056m6.712.204a2 2 0 0 1 1.998-2.003h1.998c.989 0 1.829.725 1.975 1.705l.3 2.003a2 2 0 0 1-1.679 2.278 2 2 0 0 1-2.272-1.684l-.045-.297h-.277a2 2 0 0 1-1.998-2.002m5.557 9.443a2 2 0 0 1 2.306 1.636l.28 1.645a1.998 1.998 0 1 1-3.938.676l-.281-1.646a2 2 0 0 1 1.633-2.311m1.684 9.871a1.997 1.997 0 0 1 2.305 1.636l.562 3.291a1.998 1.998 0 1 1-3.939.675l-.561-3.29a2 2 0 0 1 1.633-2.312m1.964 11.516a2 2 0 0 1 2.306 1.637l.561 3.29a2.003 2.003 0 0 1-1.632 2.312 2 2 0 0 1-2.306-1.637l-.561-3.29a2 2 0 0 1 1.632-2.312m1.965 11.516a2 2 0 0 1 2.305 1.637l.281 1.645a2.003 2.003 0 0 1-1.632 2.312 2 2 0 0 1-2.306-1.637l-.281-1.645a2.003 2.003 0 0 1 1.633-2.312m.924 6.361a2 2 0 0 1 2.351 1.571l.4 2.003a2 2 0 0 1-.447 1.701 2 2 0 0 1-1.612.692l-1.998-.1a2 2 0 0 1-1.896-2.101 2 2 0 0 1 1.597-1.862 2 2 0 0 1 1.605-1.904m-76.423 2.525a2 2 0 0 1 2.036-1.964l1.812.034a2 2 0 0 1 1.959 2.04 2 2 0 0 1-2.035 1.965l-1.812-.035a2 2 0 0 1-1.96-2.04m10.874.206a2 2 0 0 1 2.035-1.964l3.625.068a2 2 0 0 1 1.959 2.041 2 2 0 0 1-2.035 1.964l-3.624-.068a2 2 0 0 1-1.96-2.041m12.686.241a2 2 0 0 1 2.035-1.965l3.625.069a2 2 0 0 1 1.959 2.04 2 2 0 0 1-2.035 1.965l-3.624-.069a2 2 0 0 1-1.96-2.04m12.686.24a2 2 0 0 1 2.035-1.965l3.625.069a2 2 0 0 1 1.959 2.04 2 2 0 0 1-2.035 1.965l-3.624-.069a2 2 0 0 1-1.96-2.04m12.686.24a2 2 0 0 1 2.035-1.964l3.625.068a2 2 0 0 1 1.959 2.041 2 2 0 0 1-2.035 1.964l-3.625-.068a2 2 0 0 1-1.959-2.041m12.686.241a2 2 0 0 1 2.035-1.965l1.812.034a2 2 0 0 1 1.96 2.041 2 2 0 0 1-2.035 1.964l-1.813-.034a2 2 0 0 1-1.959-2.04" clip-rule="evenodd"/><path fill="#FFBE5C" d="m42.875 334.489 114.373 4.506c3.097.101 10.589-1.402 10.589-3.204v-88.826c0-1.902-2.498-3.304-5.594-3.204l-119.468 5.408c-2.697.1-4.894 2.703-4.894 6.809v73.704c.1 3.605 2.297 4.707 4.994 4.807"/><path fill="#FFD28D" d="m369.712 334.988-207.07 4.006c-5.394.1-9.69-4.707-9.69-11.917V227.036c0-7.611 4.396-12.017 9.69-11.917l207.07 4.006c4.695.1 8.391 4.606 8.391 11.215v95.235c0 7.21-3.796 9.313-8.391 9.413"/><path fill="#D3823D" fill-rule="evenodd" d="M229.968 250.368a2 2 0 0 1 1.997 2.003v48.068a2 2 0 0 1-1.997 2.003 2 2 0 0 1-1.998-2.003v-48.068a2 2 0 0 1 1.998-2.003" clip-rule="evenodd"/><path fill="#FFD28D" fill-rule="evenodd" d="M229.968 258.88c3.795.1 6.892-2.804 6.892-6.409s-3.097-6.61-6.892-6.71c-3.896-.1-6.993 2.804-6.993 6.409s3.197 6.61 6.993 6.71m0 24.234c3.795 0 6.892-2.904 6.892-6.509s-3.097-6.509-6.892-6.609c-3.896 0-6.993 2.904-6.993 6.509s3.197 6.609 6.993 6.609m6.892 17.727c0 3.605-3.097 6.609-6.892 6.609s-6.993-2.904-6.993-6.509 3.097-6.61 6.993-6.61c3.795 0 6.892 2.904 6.892 6.51m19.378-40.659 55.539 1.001c3.396 0 6.193-2.704 6.293-6.309v-.701c0-3.405-2.797-6.309-6.293-6.409l-55.539-1.402a7.12 7.12 0 0 0-4.894 1.903l-4.895 4.807 4.895 5.007c1.298 1.302 3.096 2.103 4.894 2.103m55.539 23.631-55.539-.2c-1.798 0-3.596-.701-4.894-2.003l-4.895-4.907 4.895-4.806c1.298-1.302 2.997-2.003 4.894-1.903l55.539.601c3.496 0 6.293 2.904 6.293 6.309v.701c-.1 3.404-2.897 6.208-6.293 6.208m-55.539 23.235 55.539-.601c3.396 0 6.193-2.804 6.293-6.309v-.701c0-3.405-2.797-6.209-6.293-6.209l-55.539.201c-1.897 0-3.596.701-4.894 2.002l-4.895 4.907 4.895 4.807c1.298 1.202 3.096 1.903 4.894 1.903" clip-rule="evenodd"/><path fill="#D3823D" fill-rule="evenodd" d="M229.916 247.763c-2.882-.073-4.943 2.036-4.943 4.407 0 2.38 2.189 4.632 5.047 4.708 2.762.072 4.842-2.016 4.842-4.407 0-2.415-2.126-4.633-4.946-4.708m-8.938 4.407c0-4.838 4.132-8.537 9.041-8.411h.001c4.771.126 8.838 3.917 8.838 8.712 0 4.819-4.113 8.538-8.943 8.411-4.733-.125-8.937-3.881-8.937-8.712m31.741-2.452-3.444 3.382 3.488 3.569c.956.955 2.255 1.51 3.475 1.51h.036l55.519 1.001c2.269-.008 4.196-1.803 4.279-4.336v-.671c0-2.307-1.922-4.336-4.349-4.407h-.003l-55.505-1.401a5.12 5.12 0 0 0-3.496 1.353m-2.73-2.925a9.12 9.12 0 0 1 6.3-2.433l55.545 1.402c4.564.131 8.234 3.91 8.234 8.411v.701l-.001.056c-.129 4.658-3.781 8.256-8.29 8.256l-.036-.001-55.522-1.001c-2.365-.005-4.652-1.049-6.288-2.689l-.014-.015-4.895-5.007a2.005 2.005 0 0 1 .029-2.832l4.895-4.807zm6.31 21.198 55.478.601h.011c4.615.006 8.28 3.825 8.28 8.311v.701l-.001.036v.023c-.131 4.454-3.779 8.153-8.29 8.153h-.007l-55.532-.2h-.004c-2.298-.001-4.611-.894-6.303-2.59l-4.894-4.907a2.004 2.004 0 0 1 .014-2.847l4.888-4.799c1.67-1.67 3.893-2.599 6.36-2.482m-.166 4.003c-1.306-.069-2.46.4-3.376 1.319l-.015.014-3.453 3.391 3.468 3.476c.904.907 2.185 1.416 3.481 1.416h.008l55.531.2h.004c2.271-.002 4.208-1.895 4.291-4.238v-.669c0-2.319-1.923-4.306-4.295-4.306h-.022l-55.538-.601zm-26.192.004c-2.916.013-4.968 2.148-4.968 4.507 0 2.386 2.186 4.606 4.995 4.606s4.894-2.122 4.894-4.506c0-2.371-2.074-4.519-4.921-4.607m-8.963 4.507c0-4.845 4.128-8.512 8.99-8.512h.052c4.731.125 8.838 3.779 8.838 8.612 0 4.826-4.11 8.512-8.89 8.512-4.784 0-8.99-3.789-8.99-8.612m90.799 14.72c4.579 0 8.291 3.68 8.291 8.212v.701l-.001.057c-.129 4.531-3.754 8.249-8.279 8.255h-.011l-55.517.6-.022.001c-2.292 0-4.576-.886-6.249-2.434l-.043-.041-4.895-4.807a2 2 0 0 1-.599-1.42 2 2 0 0 1 .585-1.427l4.894-4.907c1.681-1.685 3.89-2.588 6.303-2.589h.004zm.004 4.006h-.004l-55.531.2h-.008c-1.38 0-2.566.499-3.481 1.417l-3.468 3.476 3.43 3.368c.921.842 2.219 1.35 3.51 1.353h.009l55.517-.601h.022c2.254 0 4.212-1.875 4.295-4.337v-.67c0-2.277-1.88-4.204-4.291-4.206m-90.803 5.71c0-4.806 4.087-8.613 8.99-8.613 4.78 0 8.89 3.686 8.89 8.512 0 4.788-4.069 8.613-8.89 8.613-4.743 0-8.99-3.65-8.99-8.512m8.99-4.607c-2.89 0-4.995 2.202-4.995 4.607 0 2.348 2.145 4.506 4.995 4.506 2.77 0 4.894-2.184 4.894-4.607 0-2.384-2.084-4.506-4.894-4.506" clip-rule="evenodd"/><path fill="#9C999C" fill-rule="evenodd" d="M363.819 60a2 2 0 0 1 1.998 2.003v7.31a2 2 0 0 1-1.998 2.003 2 2 0 0 1-1.998-2.003v-7.31A2 2 0 0 1 363.819 60m-17.181 17.224a2 2 0 0 1 1.998-2.002h7.292a2 2 0 0 1 1.998 2.002 2 2 0 0 1-1.998 2.003h-7.292a2 2 0 0 1-1.998-2.003m23.074 0a2 2 0 0 1 1.998-2.002h7.292A2 2 0 0 1 381 77.224a2 2 0 0 1-1.998 2.003h-7.292a2 2 0 0 1-1.998-2.003m-5.893 5.308a2 2 0 0 1 1.998 2.003v7.91a2 2 0 0 1-1.998 2.004 2 2 0 0 1-1.998-2.003v-7.911a2 2 0 0 1 1.998-2.003" clip-rule="evenodd"/></svg>