<svg xmlns="http://www.w3.org/2000/svg" width="374" height="375" fill="none" viewBox="0 0 374 375"><path fill="#414141" d="M13.373 118.824h78.584c4.487 0 8.676 2.498 10.97 6.496l56.743 101.435c4.987 8.894 17.552 8.594 22.14-.5l94.839-186.98c2.194-4.297 6.482-6.996 11.169-6.996h73.398c9.474 0 15.557 10.394 11.07 18.988L217.113 350.076c-17.054 31.979-61.232 33.478-80.379 2.798L2.802 138.711c-5.385-8.594.698-19.887 10.57-19.887"/><path fill="#949494" fill-rule="evenodd" d="M41.296 207.266c-7.974 0-14.46 6.5-14.46 14.491v12.891c0 7.991 6.486 14.491 14.46 14.491h153.578c7.973 0 14.46-6.5 14.46-14.491v-12.891c0-7.991-6.487-14.491-14.46-14.491zm-18.45 14.491c0-10.198 8.273-18.488 18.45-18.488h153.578c10.176 0 18.449 8.29 18.449 18.488v12.891c0 10.199-8.273 18.489-18.449 18.489H41.296c-10.177 0-18.45-8.29-18.45-18.489zm21.741-4.03a1.99 1.99 0 0 1 2.725.732l3.308 5.745 3.309-5.745a1.99 1.99 0 0 1 2.724-.732 2 2 0 0 1 .73 2.73l-3.338 5.797h6.598c1.101 0 1.994.895 1.994 1.999a1.997 1.997 0 0 1-1.994 1.998h-6.54l3.28 5.697a2 2 0 0 1-.73 2.73 1.99 1.99 0 0 1-2.724-.732l-3.309-5.745-3.308 5.745a1.99 1.99 0 0 1-2.725.732 2 2 0 0 1-.73-2.73l3.28-5.697h-6.639a1.997 1.997 0 0 1-1.994-1.998c0-1.104.893-1.999 1.994-1.999h6.697l-3.338-5.797a2 2 0 0 1 .73-2.73m32.212 0a1.99 1.99 0 0 1 2.724.732l3.309 5.745 3.308-5.745a1.99 1.99 0 0 1 2.725-.732 2 2 0 0 1 .73 2.73l-3.338 5.797h6.597c1.102 0 1.995.895 1.995 1.999a1.997 1.997 0 0 1-1.995 1.998h-6.54l3.281 5.697a2 2 0 0 1-.73 2.73 1.99 1.99 0 0 1-2.725-.732l-3.308-5.745-3.309 5.745a1.99 1.99 0 0 1-2.724.732 2 2 0 0 1-.73-2.73l3.28-5.697h-6.54a1.997 1.997 0 0 1-1.994-1.998c0-1.104.893-1.999 1.994-1.999h6.597l-3.338-5.797a2 2 0 0 1 .73-2.73" clip-rule="evenodd"/><path fill="#949494" fill-rule="evenodd" d="M109.01 217.73a1.993 1.993 0 0 1 2.725.732l3.308 5.745 3.309-5.745a1.99 1.99 0 0 1 2.724-.732 2 2 0 0 1 .731 2.73l-3.338 5.797h6.696c1.102 0 1.995.894 1.995 1.998a1.997 1.997 0 0 1-1.995 1.999h-6.639l3.281 5.697a2 2 0 0 1-.731 2.73 1.99 1.99 0 0 1-2.724-.732l-3.309-5.745-3.308 5.745a1.993 1.993 0 0 1-2.725.732 2 2 0 0 1-.73-2.73l3.281-5.697h-6.54a1.997 1.997 0 0 1-1.995-1.999c0-1.104.893-1.998 1.995-1.998h6.597l-3.338-5.797a2 2 0 0 1 .73-2.73m32.311 0a1.993 1.993 0 0 1 2.725.732l3.308 5.745 3.309-5.745a1.993 1.993 0 0 1 2.725-.732 2 2 0 0 1 .73 2.73l-3.338 5.797h6.597c1.101 0 1.994.894 1.994 1.998a1.997 1.997 0 0 1-1.994 1.999h-6.54l3.281 5.697a2 2 0 0 1-.73 2.73 1.993 1.993 0 0 1-2.725-.732l-3.309-5.745-3.308 5.745a1.993 1.993 0 0 1-2.725.732 2 2 0 0 1-.73-2.73l3.281-5.697h-6.64a1.997 1.997 0 0 1-1.994-1.999c0-1.104.893-1.998 1.994-1.998h6.697l-3.338-5.797a2 2 0 0 1 .73-2.73m33.508 0a1.993 1.993 0 0 1 2.725.732l3.308 5.745 3.309-5.745a1.993 1.993 0 0 1 2.725-.732 2 2 0 0 1 .73 2.73l-3.338 5.797h6.697c1.101 0 1.994.894 1.994 1.998a1.997 1.997 0 0 1-1.994 1.999h-6.64l3.281 5.697a2 2 0 0 1-.73 2.73 1.993 1.993 0 0 1-2.725-.732l-3.309-5.745-3.308 5.745a1.993 1.993 0 0 1-2.725.732 2 2 0 0 1-.73-2.73l3.281-5.697h-6.54a1.997 1.997 0 0 1-1.995-1.999c0-1.104.893-1.998 1.995-1.998h6.597l-3.338-5.797a2 2 0 0 1 .73-2.73M39.002 71.353c-6.776 0-12.266 5.501-12.266 12.292v92.341c0 6.791 5.49 12.292 12.266 12.292h158.066c6.776 0 12.266-5.501 12.266-12.292V83.645c0-6.791-5.49-12.292-12.266-12.292h-63.127a1.996 1.996 0 0 1-1.994-1.999c0-1.104.893-1.998 1.994-1.998h63.127c8.98 0 16.255 7.29 16.255 16.289v92.341c0 8.999-7.275 16.289-16.255 16.289H39.002c-8.98 0-16.255-7.29-16.255-16.289V83.645c0-8.999 7.276-16.29 16.255-16.29h63.027c1.102 0 1.995.895 1.995 2a1.997 1.997 0 0 1-1.995 1.998z" clip-rule="evenodd"/><path fill="#949494" fill-rule="evenodd" d="M118.084 39.475c-7.766 0-13.961 6.292-13.961 13.991v27.283h27.923V53.466c0-7.782-6.279-13.991-13.962-13.991m-17.95 13.991c0-9.89 7.965-17.989 17.95-17.989 9.87 0 17.951 7.983 17.951 17.989v29.281a1.997 1.997 0 0 1-1.994 1.999h-31.913a1.997 1.997 0 0 1-1.994-1.999z" clip-rule="evenodd"/><path fill="#949494" fill-rule="evenodd" d="M109.908 53.268c0-4.526 3.661-8.195 8.177-8.195 4.517 0 8.178 3.67 8.178 8.195s-3.661 8.195-8.178 8.195c-4.516 0-8.177-3.67-8.177-8.195m8.177-4.197a4.193 4.193 0 0 0-4.188 4.197 4.193 4.193 0 0 0 4.188 4.197 4.193 4.193 0 0 0 4.189-4.197 4.193 4.193 0 0 0-4.189-4.197m-77.288 83.744c0-21.911 17.725-39.674 39.591-39.674s39.591 17.763 39.591 39.674c0 21.912-17.725 39.675-39.591 39.675s-39.591-17.763-39.591-39.675m39.591-35.677c-19.663 0-35.602 15.973-35.602 35.677s15.94 35.677 35.602 35.677 35.602-15.973 35.602-35.677-15.94-35.677-35.602-35.677" clip-rule="evenodd"/><path fill="#949494" fill-rule="evenodd" d="M64.632 126.22c0-8.721 7.054-15.79 15.756-15.79s15.757 7.069 15.757 15.79-7.054 15.789-15.757 15.789-15.756-7.069-15.756-15.789m15.756-11.793c-6.499 0-11.767 5.28-11.767 11.793s5.268 11.792 11.767 11.792c6.5 0 11.768-5.28 11.768-11.792 0-6.513-5.268-11.793-11.768-11.793m51.559-.2c0-1.104.893-1.998 1.994-1.998h54.55c1.102 0 1.995.894 1.995 1.998a1.997 1.997 0 0 1-1.995 1.999h-54.55a1.997 1.997 0 0 1-1.994-1.999m0 16.789c0-1.103.893-1.998 1.994-1.998h54.55c1.102 0 1.995.895 1.995 1.998a1.997 1.997 0 0 1-1.995 1.999h-54.55a1.997 1.997 0 0 1-1.994-1.999m-78.606 28.41a33.23 33.23 0 0 1 27.047-13.82 33.23 33.23 0 0 1 27.048 13.82 2.003 2.003 0 0 1-.275 2.648c-7.03 6.414-16.478 10.414-26.773 10.414s-19.742-4-26.772-10.414a2 2 0 0 1-.275-2.648m4.346.893c6.163 5.071 14.109 8.172 22.701 8.172s16.54-3.101 22.702-8.172c-5.376-6.561-13.547-10.716-22.702-10.716-9.154 0-17.325 4.155-22.7 10.716m74.26-12.512c0-1.104.893-1.998 1.994-1.998h54.55c1.102 0 1.995.894 1.995 1.998a1.997 1.997 0 0 1-1.995 1.999h-54.55a1.997 1.997 0 0 1-1.994-1.999M316.14 249.141c1.102 0 1.995.894 1.995 1.998v6.296a1.997 1.997 0 0 1-1.995 1.999 1.997 1.997 0 0 1-1.994-1.999v-6.296c0-1.104.893-1.998 1.994-1.998m-15.058 15.092c0-1.104.893-1.999 1.994-1.999h6.283c1.101 0 1.994.895 1.994 1.999a1.996 1.996 0 0 1-1.994 1.998h-6.283a1.996 1.996 0 0 1-1.994-1.998m19.845 0c0-1.104.893-1.999 1.994-1.999h6.183c1.102 0 1.995.895 1.995 1.999a1.997 1.997 0 0 1-1.995 1.998h-6.183a1.996 1.996 0 0 1-1.994-1.998m-4.787 4.294c1.102 0 1.995.895 1.995 1.998v6.796a1.997 1.997 0 0 1-1.995 1.999 1.997 1.997 0 0 1-1.994-1.999v-6.796c0-1.103.893-1.998 1.994-1.998" clip-rule="evenodd"/><path fill="#FFD28D" fill-rule="evenodd" d="m216.015 77.45 73.797 42.673c8.676 4.997 11.668 16.09 6.582 23.785l-41.187 71.454c-5.086 9.594-16.056 12.592-24.732 7.595l-8.975-5.196-4.787 8.194c-.598.9-1.695 1.2-2.493.7l-5.186-2.998-7.379 12.792c-.3.599-.898.999-1.496 1.199l-17.652 5.296c-1.296.4-2.094 1.899-1.795 3.198l3.889 15.59c.3 1.3-.498 2.699-1.795 3.098l-15.657 4.797c-1.296.5-2.094 1.899-1.795 3.198l3.989 15.49c.399 1.3-.498 2.699-1.795 3.098l-15.756 4.897c-1.297.5-2.095 1.899-1.795 3.198l4.188 16.09c.399 1.299-.499 2.698-1.795 3.098 0 0-11.269 3.498-20.045 6.396s-13.164-1.499-14.759-6.696c-1.596-5.296-6.084-21.986-6.084-21.986a3.2 3.2 0 0 1 .3-1.899l54.949-95.339-5.485-3.197c-.898-.5-1.197-1.699-.698-2.599l4.786-8.195-8.576-4.896c-8.576-5.097-11.568-16.09-6.582-24.785l41.087-71.454c5.086-8.594 16.056-11.592 24.732-6.596m8.576 41.675c-3.989 6.896-1.595 15.69 5.286 19.688s15.657 1.599 19.646-5.297 1.595-15.69-5.286-19.687-15.657-1.599-19.646 5.296" clip-rule="evenodd"/><path fill="#FFBE5C" fill-rule="evenodd" d="m202.452 89.642 81.377 6.496c9.075.5 16.454 8.595 16.355 18.288v75.452c0 9.494-7.38 17.089-16.555 17.089h-9.673v9.094c0 1-.698 1.799-1.596 1.799h-5.584v15.29c0 .7-.3 1.299-.699 1.799l-11.867 13.092a2.61 2.61 0 0 0 0 3.498l10.471 10.992c.898.9.898 2.499 0 3.498l-10.471 11.893c-.897.999-.897 2.598 0 3.497l10.471 10.694c.898.899.898 2.498 0 3.497l-10.471 12.192c-.897 1-.897 2.599 0 3.498l10.97 10.993c.897.9.897 2.499 0 3.498 0 0-7.479 8.894-13.363 15.79s-11.568 5.796-15.358 2.298c-3.79-3.497-15.657-14.89-15.657-14.89-.399-.5-.698-1.099-.698-1.799V218.759h-6.183c-.997 0-1.795-.899-1.795-1.898v-9.394h-9.674c-9.972 0-18.05-8.195-18.05-18.189v-82.547c0-9.993 8.178-17.688 18.05-17.089m27.525 32.679c0 7.795 6.282 14.291 13.862 14.591 7.579.3 13.662-5.796 13.662-13.491 0-7.696-6.083-14.191-13.662-14.591-7.679-.3-13.862 5.696-13.862 13.491" clip-rule="evenodd"/><path fill="#FFD28D" d="M233.666 0c-35.502 0-64.323 28.882-64.323 64.459 0 14.49 4.687 28.282 13.463 39.474l4.288-7.295c-6.482-9.394-9.972-20.487-9.972-32.18 0-31.28 25.33-56.663 56.544-56.663s56.545 25.384 56.545 56.664-25.43 56.563-56.545 56.563c-1.197 0-2.593-.099-3.59-.099-.1.899-.299 1.998-.1 4.197.2 1.999.898 3.598.898 3.598 1.396.1 1.296.1 2.692.1 35.503 0 64.323-28.882 64.323-64.46C297.889 28.783 269.069 0 233.666 0m18.25 341.48c5.884-6.896 13.363-15.79 13.363-15.79.898-1 .898-2.599 0-3.498l-10.969-10.993c-.898-.899-.898-2.498 0-3.498l10.471-12.192c.897-.999.897-2.598 0-3.498l-10.471-10.693c-.898-.899-.898-2.498 0-3.498l10.471-11.892c.897-.999.897-2.598 0-3.498l-10.471-10.993a2.61 2.61 0 0 1 0-3.498l11.867-13.091c.399-.5.698-1.099.698-1.799v-12.092c0-1.799-1.396-3.198-3.191-3.198l-10.372.999c-5.285 0-9.474 4.297-9.474 9.494v113.527c0 2.599 2.992 4.198 5.086 2.599.998-.7 1.995-1.699 2.992-2.898"/></svg>