<svg xmlns="http://www.w3.org/2000/svg" width="400" height="400" fill="none" viewBox="0 0 400 400"><path fill="#4E4A4E" fill-rule="evenodd" d="M315.141 81.442c4.093-8.992 22.26-32.072 22.26-32.072s-4.991 23.48-10.481 36.268c-3.793 8.593-15.572 3.997-11.779-4.196m-59.093 28.375c4.092-8.892 26.651-39.965 26.651-39.965s-9.383 31.373-14.873 44.162c-3.793 8.592-15.572 3.996-11.778-4.197M38.541 162.17s-15.372 17.785-19.165 25.978c-3.494 7.493 7.287 11.689 10.68 3.796 5.091-11.69 8.485-29.774 8.485-29.774m-9.084 171.153h334.495c27.95 0 26.952-40.665 8.485-54.353-15.173-11.29-33.04-7.494-33.04-7.494 3.893-7.493 16.57-38.666-16.371-68.34-25.054-22.58-89.039-10.591-89.039-10.591s-3.992-64.843-48.312-58.948c-5.89-23.58-29.746-34.37-45.218-26.078-27.251 14.588-4.592 43.363-4.592 43.363s-17.169-5.496-29.547 4.496c-21.46 17.285-10.78 45.56-10.78 45.56s-9.683-6.395-22.66.4c-32.34 16.885-26.152 42.263-23.956 49.257-5.59-1.099-28.448-3.997-36.833 14.087-9.683 20.882 9.982 32.772 9.982 32.772S6.798 304.348 6.798 312.74c0 .595-.01 1.209-.02 1.835-.142 8.224-.322 18.748 22.68 18.748" clip-rule="evenodd"/><path fill="#9C999C" fill-rule="evenodd" d="M353.492 190.948c8.01-.329 15.134 3.627 19.294 9.654l.042.063c1.459 2.295.048 5.571-2.986 5.571H354.87a2.795 2.795 0 0 0-2.792 2.796v8.992a2.795 2.795 0 0 0 2.792 2.796h14.873a3.47 3.47 0 0 1 3.121 1.938 3.2 3.2 0 0 1-.6 3.668c-4.06 5.614-10.693 9.285-18.093 9.285-8.446 0-15.78-4.755-19.589-11.692l-57.172-.098h-.003c-5.92-.001-10.956-4.117-11.081-10.353-.126-6.431 5.401-10.831 11.381-10.832h.002l56.973-.098c3.703-6.732 10.801-11.377 18.81-11.69m14.968 33.872c-3.375 4.203-8.562 6.891-14.289 6.891-7.272 0-13.581-4.313-16.562-10.552a2 2 0 0 0-1.802-1.138l-58.394-.1h-.003c-4.061 0-7.009-2.678-7.084-6.432m98.134 11.331h-13.59c-3.675 0-6.792-2.968-6.792-6.796v-8.992c0-3.673 2.963-6.796 6.792-6.796h14.163c-3.475-4.599-9.102-7.55-15.379-7.292l-.004.001c-6.919.269-13.056 4.506-15.941 10.552a2 2 0 0 1-1.802 1.139l-58.198.1c-4.2 0-7.456 2.995-7.383 6.753" clip-rule="evenodd"/><path fill="#9C999C" fill-rule="evenodd" d="M255.748 153.78a9.17 9.17 0 0 0-9.18 9.191v6.492H391v-6.492a9.167 9.167 0 0 0-9.18-9.191zM391 173.463H246.568V243.5a9.17 9.17 0 0 0 9.18 9.191H381.72c5.072 0 9.189-4.092 9.28-9.208zm-9.28 83.228H255.748c-7.295 0-13.18-5.893-13.18-13.191v-80.529c0-7.298 5.885-13.191 13.18-13.191H381.82c7.295 0 13.18 5.893 13.18 13.191v80.562c-.117 7.266-5.978 13.158-13.28 13.158" clip-rule="evenodd"/><path fill="#9C999C" fill-rule="evenodd" d="M280.5 133.497a10.055 10.055 0 0 1 10.085-10.093h59.792c5.614 0 10.085 4.61 10.085 10.093v18.384a2 2 0 0 1-2 2H282.5a2 2 0 0 1-2-2zm10.085-6.093a6.056 6.056 0 0 0-6.085 6.093v16.384h71.962v-16.384c0-3.309-2.715-6.093-6.085-6.093z" clip-rule="evenodd"/><path fill="#9C999C" fill-rule="evenodd" d="M291.979 136.396a2 2 0 0 1 2-2h53.104a2 2 0 0 1 2 2v15.486a2 2 0 0 1-2 2h-53.104a2 2 0 0 1-2-2zm4 2v11.486h49.104v-11.486z" clip-rule="evenodd"/><path fill="#4E4A4E" d="M116.899 84.14s-15.372 17.785-19.165 25.978c-3.494 7.493 7.287 11.69 10.681 3.797 4.991-11.59 8.484-29.774 8.484-29.774"/><path fill="#9C999C" fill-rule="evenodd" d="M54.125 213.88c.318-2.546 2.42-4.55 5.079-4.55h7.187c2.658 0 4.76 2.004 5.079 4.55l.004.037.741 7.006c2.076.417 4.094.966 6.024 1.616l4.21-5.703.01-.011a5.07 5.07 0 0 1 6.586-1.336l.012.007 6.176 3.59.007.003c2.313 1.328 3.117 4.128 2.137 6.417l-.01.022-2.89 6.53a49 49 0 0 1 4.41 4.414l6.521-2.891.022-.01c2.29-.982 5.089-.175 6.415 2.139l.004.006 3.575 6.164c1.293 2.131.846 5.099-1.35 6.643l-5.686 4.207a51 51 0 0 1 1.623 6.026l6.999.741-.21 1.989.248-1.984c2.503.313 4.581 2.4 4.447 5.137v7.138c0 .726-.139 1.528-.49 2.252a4.92 4.92 0 0 1-4.008 2.836l-6.985.74a49 49 0 0 1-1.615 6.033l5.71 4.224a5.08 5.08 0 0 1 1.335 6.588l-.007.012-3.586 6.183-.004.005c-1.325 2.315-4.125 3.122-6.415 2.14l-.022-.01-6.52-2.891a49 49 0 0 1-4.412 4.414l2.89 6.53.01.022c.98 2.289.177 5.089-2.136 6.416l-.007.004-6.157 3.579c-2.132 1.295-5.1.847-6.642-1.351l-4.202-5.69a51 51 0 0 1-6.017 1.623l-.74 7.008-.005.037c-.318 2.546-2.42 4.55-5.08 4.55h-7.186c-2.659 0-4.761-2.004-5.08-4.55q0-.019-.004-.037l-.74-7.007a49 49 0 0 1-6.024-1.615l-4.211 5.703-.009.011a5.07 5.07 0 0 1-6.586 1.336l-.012-.007-6.177-3.59-.007-.004c-2.313-1.327-3.116-4.127-2.136-6.416l.01-.022 2.89-6.53a49 49 0 0 1-4.41-4.414l-6.521 2.891-.023.01c-2.29.982-5.089.175-6.414-2.139l-.004-.006-3.575-6.164c-1.293-2.131-.847-5.099 1.35-6.643l5.686-4.207a51 51 0 0 1-1.623-6.026l-7-.741-.023-.003-.014-.002c-1.304-.163-2.398-.804-3.163-1.57a2 2 0 0 1-.122-.134C4.514 274.257 4 273.118 4 271.777v-7.193c0-2.658 2-4.763 4.547-5.082l.037-.005 6.998-.741c.416-2.079.965-4.1 1.615-6.033l-5.71-4.224a5.08 5.08 0 0 1-1.335-6.588l.007-.012 3.59-6.19c1.327-2.314 4.126-3.12 6.415-2.138l.023.01 6.52 2.891a49 49 0 0 1 4.411-4.414l-2.89-6.53-.01-.022c-.98-2.289-.177-5.089 2.137-6.416l6.164-3.583c2.131-1.295 5.099-.847 6.642 1.351l4.202 5.69a51 51 0 0 1 6.016-1.623l.742-7.008q0-.019.004-.037m62.441 49.593-8.462-.897a2 2 0 0 1-1.762-1.66c-.475-2.853-1.237-5.533-2.207-8.249a2 2 0 0 1 .695-2.28l6.887-5.096.05-.036c.367-.254.515-.849.234-1.305l-.026-.044-3.593-6.194-.007-.012a1.08 1.08 0 0 0-1.359-.456l-7.872 3.49a2 2 0 0 1-2.354-.555 45 45 0 0 0-6.02-6.026 2 2 0 0 1-.554-2.351l3.487-7.879a1.09 1.09 0 0 0-.456-1.365l-.012-.007-6.176-3.59-.005-.003a1.07 1.07 0 0 0-1.392.261q0 .002-.003.005l-5.082 6.882a2 2 0 0 1-2.304.688 45 45 0 0 0-8.219-2.201 2 2 0 0 1-1.66-1.762l-.895-8.47c-.087-.643-.577-1.031-1.108-1.031h-7.187c-.532 0-1.021.388-1.108 1.031l-.896 8.47a2 2 0 0 1-1.66 1.762c-2.85.475-5.526 1.238-8.24 2.209a2 2 0 0 1-2.282-.696l-5.091-6.894-.036-.05c-.254-.367-.846-.513-1.3-.234l-.043.026-6.2 3.604c-.475.271-.668.86-.456 1.365l3.487 7.879a2 2 0 0 1-.554 2.351 45 45 0 0 0-6.021 6.026 2 2 0 0 1-2.353.555l-7.872-3.49a1.08 1.08 0 0 0-1.36.456l-.006.012-3.587 6.182-.002.005a1.08 1.08 0 0 0 .26 1.398l.005.003 6.876 5.087a2 2 0 0 1 .686 2.302 45 45 0 0 0-2.199 8.227 2 2 0 0 1-1.762 1.66l-8.461.897c-.639.086-1.029.575-1.029 1.111v7.193c0 .237.072.475.277.745.22.197.49.33.752.366l8.461.897a2 2 0 0 1 1.762 1.66c.475 2.853 1.238 5.533 2.207 8.249a2 2 0 0 1-.694 2.28l-6.888 5.096-.05.036c-.366.254-.514.849-.234 1.305l.026.044 3.6 6.206c.272.476.859.667 1.36.456l7.872-3.49a2 2 0 0 1 2.353.555 45 45 0 0 0 6.02 6.026 2 2 0 0 1 .555 2.351l-3.487 7.879a1.09 1.09 0 0 0 .455 1.365l.012.007 6.177 3.59.004.002a1.07 1.07 0 0 0 1.392-.26l.003-.005 5.083-6.882a2 2 0 0 1 2.304-.688 45 45 0 0 0 8.218 2.201 2 2 0 0 1 1.66 1.762l.896 8.47c.087.643.576 1.031 1.108 1.031h7.187c.531 0 1.02-.388 1.108-1.031l.896-8.47a2 2 0 0 1 1.66-1.762c2.849-.475 5.526-1.238 8.24-2.209a2 2 0 0 1 2.282.696l5.09 6.894.037.05c.253.367.846.513 1.299.234l.044-.026 6.188-3.597.012-.007c.475-.271.667-.86.456-1.365l-3.487-7.879a2 2 0 0 1 .554-2.351 45 45 0 0 0 6.02-6.026 2 2 0 0 1 2.354-.555l7.872 3.49c.501.211 1.087.02 1.359-.456l.007-.012 3.586-6.182.003-.005a1.08 1.08 0 0 0-.265-1.401l-6.876-5.087a2 2 0 0 1-.687-2.302 45 45 0 0 0 2.199-8.227 2 2 0 0 1 1.762-1.66l8.485-.899.029-.003a.92.92 0 0 0 .749-.519l.039-.082c.033-.065.089-.245.089-.505v-7.193q0-.063.004-.125c.026-.424-.273-.897-.933-.986m-53.669-18.569c-12.868 0-23.254 10.393-23.254 23.278S50.03 291.46 62.897 291.46c12.882 0 23.347-10.403 23.255-23.264v-.014c0-12.885-10.386-23.278-23.255-23.278m-27.254 23.278c0-15.091 12.173-27.278 27.254-27.278 15.079 0 27.25 12.183 27.255 27.27.104 15.112-12.189 27.286-27.255 27.286-15.08 0-27.254-12.187-27.254-27.278" clip-rule="evenodd"/><path fill="#FFD28D" fill-rule="evenodd" d="m232.291 67.955 16.869-.5c.799 0 .998 1.2.499 2.098l-34.238 49.357c-.799 1.099-2.096 1.299-1.797-.1l8.984-35.968-16.869.5c-.799-.1-1.098-1.2-.5-2.099l34.039-50.356c.798-1.099 2.096-1.299 1.797.1zM61.799 112.414l10.68-.3c.5 0 .7.8.3 1.299L49.92 145.785c-.399.699-1.297.799-1.098-.1l4.093-23.879-10.68.3c-.5 0-.7-.8-.3-1.299l22.659-32.972c.4-.699 1.297-.799 1.098.1z" clip-rule="evenodd"/><path fill="#9C999C" fill-rule="evenodd" d="M137.562 40.278a2 2 0 0 1 2 2v7.294a2 2 0 0 1-4 0v-7.294a2 2 0 0 1 2-2m-17.072 17.09a2 2 0 0 1 2-2h7.187a2 2 0 0 1 0 4h-7.187a2 2 0 0 1-2-2m22.958 0a2 2 0 0 1 2-2h7.187a2 2 0 1 1 0 4h-7.187a2 2 0 0 1-2-2m-5.885 5.29a2 2 0 0 1 2 2v7.892a2 2 0 0 1-4 0v-7.893a2 2 0 0 1 2-2" clip-rule="evenodd"/><path fill="#FFBE5C" d="m66.79 359.9 90.736 10.091c2.296.2 4.292-3.097 4.292-7.193V164.67c0-4.196-1.896-7.393-4.292-7.193L66.79 169.566c-1.996.2-3.693 3.397-3.693 7.294v175.746c0 3.897 1.697 7.094 3.693 7.294"/><path fill="#FFD28D" d="m315.24 362.997-157.415 6.894c-4.092.2-7.387-3.097-7.387-7.193V164.67c0-4.196 3.295-7.393 7.387-7.193l157.415 6.894c3.494.199 6.389 3.397 6.389 7.293v184.04c0 3.896-2.895 7.194-6.389 7.293"/><path fill="#FFBE5C" fill-rule="evenodd" d="m321.589 233.713-171.19-3.397.079-4 171.191 3.397zm.067 67.241-174.184 2.398-.055-4 174.184-2.397z" clip-rule="evenodd"/><path fill="#D3823D" fill-rule="evenodd" d="M170.901 184.852c2.096.2 3.893-1.698 3.893-4.096s-1.697-4.496-3.893-4.596c-2.096-.2-3.893 1.698-3.893 4.096s1.697 4.496 3.893 4.596m17.867.901c2.097.1 3.794-1.699 3.794-4.097 0-2.298-1.697-4.396-3.794-4.496-2.196-.1-3.893 1.699-3.893 4.097s1.797 4.396 3.893 4.496m21.262-3.097c0 2.397-1.696 4.196-3.793 4.096-2.096-.1-3.793-2.098-3.793-4.496s1.697-4.196 3.793-4.097c2.097.1 3.793 2.199 3.793 4.497m13.376 4.993c2.096.1 3.693-1.699 3.693-3.997 0-2.398-1.697-4.396-3.693-4.396-1.996-.1-3.693 1.699-3.693 3.997s1.697 4.296 3.693 4.396m20.463-3.095c0 2.298-1.597 4.096-3.593 3.996-1.997-.1-3.594-2.098-3.594-4.396s1.597-4.096 3.594-3.996c1.896.1 3.593 2.098 3.593 4.396m12.877 4.896c1.896.1 3.493-1.699 3.493-3.997s-1.597-4.296-3.493-4.296c-1.997-.1-3.594 1.698-3.594 3.996s1.597 4.197 3.594 4.297" clip-rule="evenodd"/><path fill="#FFF" fill-rule="evenodd" d="M272.817 190.248c1.897.1 3.494-1.599 3.494-3.897s-1.597-4.196-3.494-4.296-3.494 1.599-3.494 3.897 1.597 4.196 3.494 4.296m15.871.799c1.897.1 3.394-1.698 3.394-3.896s-1.497-4.097-3.394-4.297c-1.896-.1-3.394 1.599-3.394 3.897s1.498 4.196 3.394 4.296" clip-rule="evenodd"/><path fill="#FFF" d="M307.554 188.05c0 2.198-1.497 3.897-3.294 3.797-1.896-.1-3.394-1.998-3.394-4.196s1.498-3.997 3.394-3.797c1.797.1 3.294 1.998 3.294 4.196"/><path fill="#D3823D" fill-rule="evenodd" d="M170.901 256.89c2.096 0 3.893-1.898 3.893-4.296s-1.697-4.396-3.893-4.396c-2.096 0-3.893 1.898-3.893 4.296s1.697 4.396 3.893 4.396m17.868.2c2.097 0 3.794-1.898 3.794-4.296 0-2.298-1.697-4.296-3.794-4.396-2.196 0-3.893 1.898-3.893 4.296s1.797 4.396 3.893 4.396m21.262-3.995c0 2.398-1.697 4.196-3.794 4.196s-3.793-1.998-3.793-4.296c0-2.398 1.697-4.296 3.793-4.196 2.097 0 3.794 1.898 3.794 4.296m13.375 4.395c2.097 0 3.694-1.899 3.694-4.197s-1.697-4.196-3.694-4.296c-1.996 0-3.693 1.799-3.693 4.196 0 2.398 1.697 4.297 3.693 4.297m20.463-3.897c0 2.298-1.597 4.196-3.593 4.096-1.996 0-3.594-1.898-3.594-4.196s1.598-4.196 3.594-4.096c1.896 0 3.593 1.898 3.593 4.196m12.877 4.295c1.896 0 3.494-1.799 3.494-4.097s-1.598-4.196-3.494-4.196c-1.997 0-3.594 1.798-3.594 4.096s1.597 4.197 3.594 4.197m19.565-3.894c0 2.298-1.597 4.097-3.494 4.097s-3.494-1.899-3.494-4.197 1.597-4.096 3.494-4.096c1.897.1 3.494 1.998 3.494 4.196m12.377 4.295c1.897 0 3.394-1.798 3.394-3.997 0-2.298-1.497-4.096-3.394-4.096-1.896-.1-3.394 1.699-3.394 3.997 0 2.198 1.498 4.096 3.394 4.096" clip-rule="evenodd"/><path fill="#FFF" d="M307.554 254.492c0 2.199-1.498 3.997-3.294 3.997-1.897 0-3.394-1.798-3.394-4.096 0-2.199 1.497-3.997 3.394-3.997 1.796 0 3.294 1.798 3.294 4.096"/><path fill="#D3823D" fill-rule="evenodd" d="M240.276 326.93c1.996-.1 3.593-1.998 3.593-4.296s-1.697-4.196-3.593-4.097c-1.997.1-3.594 1.999-3.594 4.297s1.597 4.196 3.594 4.096m-13.177-3.898c0 2.298-1.597 4.296-3.693 4.296-1.996.1-3.693-1.798-3.693-4.096s1.697-4.296 3.693-4.296c1.996-.1 3.693 1.798 3.693 4.096m-20.862 4.897c2.097-.1 3.793-1.998 3.793-4.396s-1.696-4.296-3.793-4.196c-2.096.1-3.793 1.998-3.793 4.396s1.697 4.296 3.793 4.196m-13.674-3.996c0 2.398-1.697 4.396-3.794 4.396-2.096.1-3.893-1.799-3.893-4.196 0-2.398 1.697-4.397 3.893-4.397 2.097 0 3.794 1.899 3.794 4.197m-17.769.501c0 2.398-1.797 4.396-3.893 4.496-2.196.1-3.893-1.798-3.893-4.296s1.797-4.396 3.893-4.496c2.196 0 3.893 1.898 3.893 4.296m98.023 1.496c1.897-.1 3.494-1.899 3.494-4.197s-1.597-4.096-3.494-3.996c-1.897 0-3.494 1.898-3.494 4.196s1.597 4.097 3.494 3.997m-16.071.4c1.897 0 3.494-1.899 3.494-4.197s-1.597-4.096-3.494-4.096c-1.996 0-3.593 1.898-3.593 4.196s1.597 4.197 3.593 4.097" clip-rule="evenodd"/><path fill="#FFF" fill-rule="evenodd" d="M304.26 324.931c1.796 0 3.294-1.899 3.294-4.097s-1.498-3.896-3.294-3.896c-1.897 0-3.394 1.898-3.394 4.096s1.497 3.996 3.394 3.897m-15.572.598c1.897-.1 3.394-1.999 3.394-4.197 0-2.298-1.497-4.096-3.394-3.996-1.896.1-3.394 1.898-3.394 4.196s1.498 4.096 3.394 3.997" clip-rule="evenodd"/></svg>