<svg xmlns="http://www.w3.org/2000/svg" width="400" height="400" fill="none" viewBox="0 0 400 400"><path fill="#F0F3F5" fill-rule="evenodd" d="M315.141 81.442c4.093-8.992 22.26-32.072 22.26-32.072s-4.991 23.48-10.481 36.268c-3.793 8.593-15.572 3.997-11.779-4.196m-59.093 28.375c4.092-8.892 26.651-39.965 26.651-39.965s-9.383 31.373-14.873 44.161c-3.793 8.593-15.572 3.997-11.778-4.196M38.541 162.17s-15.372 17.784-19.165 25.977c-3.494 7.494 7.287 11.69 10.68 3.797 5.091-11.69 8.485-29.774 8.485-29.774m-9.084 171.152h334.495c27.95 0 26.952-40.664 8.485-54.352-15.173-11.291-33.04-7.494-33.04-7.494 3.893-7.493 16.57-38.666-16.371-68.34-25.054-22.581-89.039-10.591-89.039-10.591s-3.992-64.844-48.312-58.949c-5.89-23.579-29.746-34.37-45.218-26.077-27.251 14.587-4.592 43.362-4.592 43.362s-17.169-5.495-29.547 4.496c-21.46 17.285-10.78 45.561-10.78 45.561s-9.683-6.395-22.66.399c-32.34 16.886-26.152 42.263-23.956 49.257-5.59-1.099-28.448-3.996-36.833 14.088-9.683 20.882 9.982 32.771 9.982 32.771S6.798 304.347 6.798 312.74c0 .595-.01 1.208-.02 1.835-.142 8.224-.322 18.747 22.68 18.747" clip-rule="evenodd"/><path stroke="#999" stroke-linecap="round" stroke-linejoin="round" stroke-width="4" d="M369.743 222.82h-14.874c-2.595 0-4.791-2.099-4.791-4.796v-8.992c0-2.598 2.096-4.796 4.791-4.796h14.973c1.298 0 1.997-1.399 1.298-2.498-3.793-5.495-10.281-9.092-17.568-8.792-7.686.299-14.474 4.995-17.668 11.689l-58.195.1c-5.091 0-9.483 3.697-9.383 8.793.1 4.995 4.093 8.392 9.084 8.392l58.394.1c3.294 6.894 10.281 11.69 18.367 11.69 6.787 0 12.876-3.397 16.57-8.592.998-.9.199-2.298-.998-2.298" clip-rule="evenodd"/><path fill="#999" d="m393 243.501 2 .032v-.032zm-11.28 9.19a2 2 0 0 0 0 4zm-136.952-83.227a2 2 0 1 0 0 4zm148.132 4a2 2 0 0 0 0-4zm-11.18 79.227H255.748v4H381.72zm-125.972 0a9.167 9.167 0 0 1-9.18-9.19h-4c0 7.297 5.885 13.19 13.18 13.19zm-9.18-9.19v-80.53h-4v80.53zm0-80.53a9.167 9.167 0 0 1 9.18-9.19v-4c-7.295 0-13.18 5.892-13.18 13.19zm9.18-9.19H381.82v-4H255.748zm126.072 0a9.166 9.166 0 0 1 9.18 9.19h4c0-7.298-5.885-13.19-13.18-13.19zm9.18 9.19v80.53h4v-80.53zm0 80.497c-.082 5.123-4.203 9.223-9.28 9.223v4c7.302 0 13.163-5.892 13.28-13.158zm-146.232-70.004H392.9v-4H244.768zm148.132-4H244.768v4H392.9z"/><path stroke="#999" stroke-linecap="round" stroke-linejoin="round" stroke-width="4" d="M350.377 125.405h-59.792a8.055 8.055 0 0 0-8.085 8.093v18.384h75.962v-18.384c0-4.396-3.593-8.093-8.085-8.093" clip-rule="evenodd"/><path stroke="#999" stroke-linecap="round" stroke-linejoin="round" stroke-width="4" d="M293.979 136.395h53.104v15.487h-53.104z" clip-rule="evenodd"/><path fill="#F0F3F5" d="M116.899 84.14s-15.372 17.785-19.165 25.978c-3.494 7.493 7.287 11.69 10.681 3.797 4.991-11.59 8.484-29.774 8.484-29.774"/><path fill="#999" d="m108.315 260.587-1.973.328a2 2 0 0 0 1.762 1.661zm-2.296-8.593-1.189-1.607a2 2 0 0 0-.695 2.279zm6.888-5.095-1.14-1.644-.05.036zm.798-3.997-1.73 1.004.026.044zm-3.593-6.194-1.737.991.007.012zm-3.893-1.299-.789-1.838-.022.01zm-7.886 3.497-1.543 1.273a2 2 0 0 0 2.354.555zm-6.289-6.295-1.828-.809a2 2 0 0 0 .554 2.351zm3.494-7.893 1.829.81.01-.023zm-1.298-3.896-1.005 1.729.012.007zm-6.188-3.597 1.005-1.73-.012-.006zm-3.993.799-1.6-1.199-.01.011zm-5.091 6.894-.695 1.875c.835.31 1.775.03 2.304-.687zm-8.585-2.298-1.988.21a2 2 0 0 0 1.66 1.763zm-.898-8.493 1.99-.21-.005-.037zm-13.376 0-1.984-.247-.005.037zm-.898 8.493.33 1.973a2 2 0 0 0 1.659-1.763zm-8.584 2.298-1.61 1.188a2 2 0 0 0 2.283.695zm-5.091-6.894-1.645 1.138.036.05zm-3.993-.799 1.005 1.729.044-.026zm-6.189 3.597.993 1.736.012-.007zm-1.297 3.896-1.84.787.01.023zm3.493 7.893 1.275 1.542a2 2 0 0 0 .554-2.351zm-6.288 6.295-.811 1.828a2 2 0 0 0 2.353-.555zm-7.886-3.497.81-1.828-.022-.01zm-3.893 1.299 1.73 1.003.007-.012zm-3.594 6.194-1.73-1.003-.007.012zm.799 3.997-1.2 1.599.01.009zm6.887 5.095 1.876.694a2 2 0 0 0-.686-2.301zm-2.295 8.593.21 1.989a2 2 0 0 0 1.762-1.661zm-8.485.899-.21-1.989-.038.005zm-1.996 12.389-1.537 1.28q.057.07.122.134zm1.996.999-.248 1.985.037.004zm8.485.9 1.972-.329a2 2 0 0 0-1.762-1.66zm2.295 8.592 1.19 1.608a2 2 0 0 0 .694-2.28zm-6.887 5.096 1.139 1.644.05-.036zm-.799 3.996 1.73-1.003-.026-.044zm3.594 6.195 1.737-.992-.007-.012zm3.893 1.299.788 1.838.023-.01zm7.886-3.497 1.542-1.273a2 2 0 0 0-2.353-.556zm6.288 6.294 1.829.81a2 2 0 0 0-.554-2.351zm-3.493 7.893-1.83-.809-.01.022zm1.297 3.897 1.005-1.729-.012-.007zm6.189 3.597-1.005 1.729.012.007zm3.993-.799 1.6 1.199.009-.011zm5.09-6.894.696-1.876a2 2 0 0 0-2.304.687zm8.585 2.298 1.989-.211a2 2 0 0 0-1.66-1.762zm.898 8.492-1.989.211.005.037zm13.376 0 1.985.248.004-.037zm.898-8.492-.329-1.973a2 2 0 0 0-1.66 1.762zm8.585-2.298 1.609-1.189a2 2 0 0 0-2.282-.695zm5.09 6.894 1.646-1.138-.036-.051zm3.994.799-1.005-1.729-.044.026zm6.188-3.597-.993-1.736-.012.007zm1.298-3.897 1.839-.787-.01-.022zm-3.494-7.893-1.274-1.541a2 2 0 0 0-.554 2.351zm6.289-6.294.81-1.829a2 2 0 0 0-2.353.556zm7.886 3.497-.811 1.828.022.01zm3.893-1.299-1.73-1.004-.007.012zm3.593-6.195 1.73 1.004.007-.012zm-.798-3.996 1.2-1.6-.011-.008zm-6.888-5.096-1.876-.694a2 2 0 0 0 .687 2.302zm2.296-8.592-.211-1.989a2 2 0 0 0-1.762 1.66zm8.485-.9-.182-1.991-.029.003zm2.395-1.698-1.789-.894-.039.082zm.3-8.593-1.996-.124-.004.124zm-31.343 3.599h-2v.014zm28.858-8.685-8.484-.899-.422 3.978 8.485.899zm-6.722.761c-.523-3.142-1.358-6.057-2.385-8.936l-3.768 1.344c.97 2.717 1.732 5.397 2.207 8.249zm-3.079-6.656 6.887-5.095-2.379-3.216-6.887 5.096zm6.837-5.059c2.229-1.545 2.68-4.546 1.363-6.688l-3.408 2.095c.281.456.133 1.051-.234 1.305zm1.389-6.644-3.593-6.195-3.46 2.007 3.593 6.195zm-3.586-6.183c-1.325-2.319-4.127-3.128-6.419-2.145l1.577 3.676a1.083 1.083 0 0 1 1.368.452zm-6.441-2.135-7.886 3.496 1.622 3.657 7.885-3.497zm-5.532 4.052a49 49 0 0 0-6.557-6.563l-2.55 3.083a45 45 0 0 1 6.021 6.026zm-6.003-4.212 3.494-7.893-3.658-1.619-3.493 7.893zm3.504-7.916c.98-2.29.174-5.094-2.144-6.42l-1.986 3.473c.477.272.67.866.453 1.373zm-2.132-6.413-6.188-3.596-2.01 3.458 6.188 3.597zm-6.2-3.603a5.07 5.07 0 0 0-6.587 1.336l3.201 2.398c.301-.401.89-.554 1.4-.262zm-6.595 1.347-5.09 6.894 3.217 2.376 5.09-6.894zm-2.787 6.207a49 49 0 0 0-8.95-2.396l-.659 3.946a45 45 0 0 1 8.219 2.2zm-7.29-.633-.899-8.493-3.978.421.899 8.492zm-.903-8.53c-.318-2.547-2.42-4.55-5.08-4.55v4c.536 0 1.03.394 1.11 1.045zm-5.08-4.55h-7.186v4h7.187zm-7.186 0c-2.659 0-4.761 2.003-5.08 4.55l3.97.495c.081-.651.574-1.045 1.11-1.045zm-5.084 4.587-.898 8.493 3.978.42.898-8.492zm.762 6.73c-3.14.524-6.053 1.36-8.929 2.388l1.347 3.766c2.714-.97 5.39-1.733 8.24-2.208zm-6.647 3.083-5.09-6.894-3.218 2.376 5.09 6.894zm-5.054-6.844c-1.543-2.231-4.545-2.684-6.687-1.364l2.098 3.406c.453-.279 1.045-.133 1.299.234zm-6.643-1.39-6.189 3.596 2.01 3.459 6.189-3.597zm-6.177 3.589c-2.318 1.326-3.124 4.13-2.143 6.42l3.677-1.574a1.09 1.09 0 0 1 .452-1.373zm-2.133 6.443 3.493 7.893 3.658-1.619-3.494-7.893zm4.048 5.542a49 49 0 0 0-6.557 6.563l3.085 2.546a45 45 0 0 1 6.02-6.026zm-4.204 6.007-7.885-3.496-1.622 3.656 7.886 3.497zm-7.908-3.506c-2.292-.983-5.094-.174-6.418 2.145l3.474 1.983a1.083 1.083 0 0 1 1.367-.452zm-6.411 2.133-3.594 6.195 3.46 2.007 3.594-6.195zm-3.6 6.207a5.077 5.077 0 0 0 1.334 6.587l2.402-3.199a1.08 1.08 0 0 1-.263-1.405zm1.345 6.596 6.888 5.095 2.379-3.215-6.888-5.096zM17.7 251.3a49.3 49.3 0 0 0-2.393 8.958l3.945.657a45 45 0 0 1 2.2-8.227zm-.631 7.298-8.485.899.422 3.978 8.484-.899zm-8.522.904C5.999 259.82 4 261.926 4 264.583h4c0-.54.396-1.031 1.043-1.112zM4 264.583v7.194h4v-7.194zm0 7.194c0 1.34.514 2.48 1.262 3.378l3.074-2.559c-.25-.301-.336-.561-.336-.819zm1.384 3.512c.765.766 1.859 1.407 3.163 1.57l.496-3.969a1.48 1.48 0 0 1-.83-.428zm3.2 1.574 8.485.899.421-3.977-8.484-.899zm6.723-.761c.523 3.143 1.358 6.058 2.385 8.936l3.767-1.344c-.97-2.716-1.732-5.397-2.207-8.249zm3.079 6.656-6.888 5.096 2.38 3.216 6.887-5.096zm-6.837 5.06c-2.23 1.544-2.68 4.546-1.363 6.688l3.407-2.095c-.28-.456-.132-1.052.234-1.305zm-1.39 6.644 3.594 6.194 3.46-2.007-3.594-6.194zm3.587 6.182c1.324 2.32 4.126 3.129 6.418 2.146l-1.577-3.676a1.084 1.084 0 0 1-1.367-.453zm6.44 2.136 7.886-3.497-1.621-3.657-7.886 3.497zm5.533-4.052a49 49 0 0 0 6.557 6.563l2.549-3.083a45 45 0 0 1-6.021-6.026zm6.002 4.212-3.493 7.893 3.657 1.619 3.494-7.893zm-3.503 7.915c-.98 2.291-.175 5.094 2.143 6.42l1.986-3.472a1.09 1.09 0 0 1-.452-1.373zm2.131 6.413 6.189 3.597 2.01-3.458-6.189-3.597zm6.201 3.604a5.07 5.07 0 0 0 6.586-1.336l-3.2-2.399c-.302.402-.89.555-1.4.263zm6.595-1.347 5.09-6.894-3.217-2.377-5.091 6.894zm2.786-6.207a49 49 0 0 0 8.95 2.395l.66-3.945a45 45 0 0 1-8.22-2.201zm7.291.633.898 8.493 3.978-.421-.898-8.493zm.903 8.53c.318 2.546 2.42 4.55 5.079 4.55v-4c-.536 0-1.029-.395-1.11-1.046zm5.079 4.55h7.187v-4h-7.187zm7.187 0c2.658 0 4.76-2.004 5.079-4.55l-3.97-.496c-.08.651-.574 1.046-1.11 1.046zm5.083-4.587.898-8.493-3.977-.421-.899 8.493zm-.761-6.731c3.14-.524 6.052-1.359 8.928-2.387l-1.346-3.767c-2.714.97-5.391 1.733-8.24 2.209zm6.646-3.082 5.09 6.894 3.219-2.377-5.091-6.894zm5.055 6.843c1.543 2.231 4.544 2.684 6.686 1.365l-2.097-3.406c-.453.279-1.046.133-1.3-.234zm6.643 1.391 6.188-3.597-2.01-3.458-6.188 3.597zm6.176-3.59c2.318-1.326 3.124-4.129 2.144-6.42L93.7 312.43a1.09 1.09 0 0 1-.453 1.373zm2.134-6.442-3.494-7.893-3.657 1.619 3.493 7.893zm-4.048-5.542a49 49 0 0 0 6.557-6.563l-3.086-2.546a45 45 0 0 1-6.02 6.026zm4.203-6.008 7.886 3.497 1.621-3.657-7.885-3.497zm7.908 3.507c2.292.983 5.094.174 6.419-2.146l-3.474-1.983a1.085 1.085 0 0 1-1.368.453zm6.412-2.134 3.593-6.194-3.46-2.007-3.593 6.194zm3.6-6.206a5.08 5.08 0 0 0-1.335-6.588l-2.401 3.199c.401.301.555.892.262 1.406zm-1.346-6.596-6.887-5.096-2.379 3.216 6.887 5.096zm-6.201-2.794a49.3 49.3 0 0 0 2.393-8.958l-3.946-.657a45 45 0 0 1-2.199 8.227zm.631-7.298 8.484-.899-.421-3.977-8.485.899zm8.455-.896a4.92 4.92 0 0 0 4.042-2.878l-3.656-1.624a.92.92 0 0 1-.749.519zm4.003-2.796c.367-.734.511-1.553.511-2.293h-4c0 .26-.056.44-.089.505zm.511-2.293v-7.194h-4v7.194zm-.004-7.069c.173-2.771-1.919-4.891-4.443-5.206l-.497 3.969c.67.083.974.561.948.988zM62.897 291.46c-12.868 0-23.254-10.393-23.254-23.278h-4c0 15.09 12.173 27.278 27.254 27.278zm-23.254-23.278c0-12.885 10.386-23.278 23.254-23.278v-4c-15.08 0-27.254 12.187-27.254 27.278zm23.254-23.278c12.869 0 23.255 10.393 23.255 23.278h4c0-15.091-12.174-27.278-27.255-27.278zm23.255 23.292c.091 12.861-10.373 23.264-23.255 23.264v4c15.068 0 27.363-12.178 27.255-27.293z"/><path fill="#FFD493" fill-rule="evenodd" d="m232.291 67.955 16.869-.5c.799 0 .998 1.2.499 2.098l-34.238 49.357c-.798 1.099-2.096 1.299-1.796-.1l8.983-35.968-16.869.5c-.799-.1-1.098-1.2-.499-2.099l34.038-50.356c.799-1.099 2.096-1.299 1.797.1zM61.799 112.414l10.68-.3c.5 0 .7.8.3 1.299l-22.858 32.372c-.4.699-1.298.799-1.099-.1l4.093-23.879-10.68.3c-.5 0-.7-.8-.3-1.299l22.659-32.972c.4-.699 1.298-.799 1.098.1z" clip-rule="evenodd"/><path fill="#999" d="M139.562 42.278a2 2 0 0 0-4 0zm-4 7.294a2 2 0 1 0 4 0zm4.001 15.085a2 2 0 0 0-4 0zm-4 7.893a2 2 0 1 0 4 0zm17.072-13.183a2 2 0 1 0 0-4zm-7.187-4a2 2 0 1 0 0 4zm-15.771 4a2 2 0 0 0 0-4zm-7.187-4a2 2 0 1 0 0 4zm13.072-13.089v7.294h4v-7.294zm.001 22.38v7.892h4v-7.893zm17.072-9.29h-7.187v4h7.187zm-22.958 0h-7.187v4h7.187z"/><path fill="#FFBE5C" d="m66.79 359.9 90.736 10.091c2.296.2 4.292-3.097 4.292-7.193V164.67c0-4.196-1.896-7.393-4.292-7.193L66.79 169.566c-1.996.2-3.693 3.397-3.693 7.294v175.746c0 3.897 1.697 7.094 3.693 7.294"/><path fill="#FFD493" d="m315.241 362.997-157.416 6.894c-4.092.2-7.386-3.097-7.386-7.193V164.67c0-4.196 3.294-7.393 7.386-7.193l157.416 6.894c3.493.199 6.388 3.397 6.388 7.293v184.04c0 3.896-2.895 7.194-6.388 7.293"/><path fill="#FFBE5C" d="m150.399 230.316 171.19 3.397.08-3.999-171.191-3.397zm-2.927 73.036 174.185-2.398-.055-3.999-174.185 2.398z"/><path fill="#DD7E10" fill-rule="evenodd" d="M170.901 184.853c2.096.2 3.893-1.699 3.893-4.097 0-2.397-1.697-4.496-3.893-4.596-2.096-.199-3.893 1.699-3.893 4.097s1.697 4.496 3.893 4.596m17.867.9c2.097.1 3.794-1.698 3.794-4.096 0-2.298-1.697-4.396-3.794-4.496-2.196-.1-3.893 1.698-3.893 4.096s1.797 4.396 3.893 4.496m21.262-3.097c0 2.398-1.696 4.196-3.793 4.096-2.096-.099-3.793-2.098-3.793-4.496s1.697-4.196 3.793-4.096 3.793 2.198 3.793 4.496m13.376 4.993c2.096.1 3.693-1.698 3.693-3.996 0-2.398-1.697-4.396-3.693-4.396-1.996-.1-3.693 1.698-3.693 3.996s1.697 4.296 3.693 4.396m20.463-3.095c0 2.298-1.597 4.097-3.593 3.997-1.997-.1-3.594-2.098-3.594-4.396s1.597-4.097 3.594-3.997c1.896.1 3.593 2.098 3.593 4.396m12.877 4.896c1.896.1 3.494-1.698 3.494-3.996s-1.598-4.297-3.494-4.297c-1.997-.1-3.594 1.699-3.594 3.997s1.597 4.196 3.594 4.296" clip-rule="evenodd"/><path fill="#fff" fill-rule="evenodd" d="M272.817 190.248c1.896.1 3.494-1.599 3.494-3.897s-1.598-4.196-3.494-4.296-3.494 1.599-3.494 3.897 1.597 4.196 3.494 4.296m15.871.799c1.897.1 3.394-1.698 3.394-3.896s-1.497-4.097-3.394-4.296c-1.896-.1-3.394 1.598-3.394 3.896s1.498 4.196 3.394 4.296" clip-rule="evenodd"/><path fill="#fff" d="M307.554 188.05c0 2.198-1.497 3.897-3.294 3.797-1.896-.1-3.393-1.999-3.393-4.197s1.497-3.996 3.393-3.796c1.797.099 3.294 1.998 3.294 4.196"/><path fill="#DD7E10" fill-rule="evenodd" d="M170.901 256.89c2.096 0 3.893-1.898 3.893-4.296s-1.697-4.396-3.893-4.396c-2.096 0-3.893 1.898-3.893 4.296s1.697 4.396 3.893 4.396m17.868.2c2.097 0 3.793-1.898 3.793-4.296 0-2.298-1.696-4.296-3.793-4.396-2.196 0-3.893 1.898-3.893 4.296s1.797 4.396 3.893 4.396m21.261-3.995c0 2.398-1.696 4.196-3.793 4.196-2.096 0-3.793-1.998-3.793-4.296 0-2.398 1.697-4.296 3.793-4.196 2.097 0 3.793 1.898 3.793 4.296m13.376 4.395c2.097 0 3.694-1.899 3.694-4.197s-1.697-4.196-3.694-4.296c-1.996 0-3.693 1.799-3.693 4.196 0 2.398 1.697 4.297 3.693 4.297m20.463-3.897c0 2.298-1.597 4.196-3.593 4.096-1.997 0-3.594-1.898-3.594-4.196s1.597-4.196 3.594-4.096c1.896 0 3.593 1.898 3.593 4.196m12.877 4.295c1.896 0 3.494-1.799 3.494-4.097s-1.598-4.196-3.494-4.196c-1.997 0-3.594 1.798-3.594 4.096s1.597 4.197 3.594 4.197m19.565-3.894c0 2.298-1.598 4.097-3.494 4.097s-3.494-1.899-3.494-4.197 1.597-4.096 3.494-4.096c1.896.1 3.494 1.998 3.494 4.196m12.377 4.295c1.897 0 3.394-1.799 3.394-3.997 0-2.298-1.497-4.096-3.394-4.096-1.896-.1-3.394 1.698-3.394 3.996 0 2.199 1.498 4.097 3.394 4.097" clip-rule="evenodd"/><path fill="#fff" d="M307.554 254.492c0 2.198-1.498 3.997-3.294 3.997-1.897 0-3.394-1.799-3.394-4.097 0-2.198 1.497-3.996 3.394-3.996 1.796 0 3.294 1.798 3.294 4.096"/><g fill-rule="evenodd" clip-rule="evenodd"><path fill="#DD7E10" d="M240.276 326.93c1.996-.1 3.593-1.998 3.593-4.296s-1.697-4.196-3.593-4.096c-1.997.1-3.594 1.998-3.594 4.296s1.597 4.196 3.594 4.096m-13.177-3.898c0 2.298-1.597 4.296-3.693 4.296-1.996.1-3.693-1.798-3.693-4.096s1.697-4.296 3.693-4.296c1.996-.1 3.693 1.798 3.693 4.096m-20.862 4.898c2.097-.1 3.793-1.999 3.793-4.397s-1.696-4.296-3.793-4.196c-2.096.1-3.793 1.998-3.793 4.396s1.697 4.296 3.793 4.197m-13.674-3.997c0 2.398-1.697 4.396-3.794 4.396-2.096.1-3.893-1.798-3.893-4.196s1.697-4.396 3.893-4.396c2.097 0 3.794 1.898 3.794 4.196m-17.769.501c0 2.398-1.797 4.396-3.893 4.496-2.196.1-3.893-1.798-3.893-4.296s1.797-4.396 3.893-4.496c2.196 0 3.893 1.898 3.893 4.296m98.023 1.496c1.897-.1 3.494-1.898 3.494-4.196s-1.597-4.097-3.494-3.997c-1.897 0-3.494 1.898-3.494 4.196s1.597 4.097 3.494 3.997m-16.071.4c1.897 0 3.494-1.898 3.494-4.196s-1.597-4.097-3.494-4.097c-1.996 0-3.593 1.898-3.593 4.196s1.597 4.197 3.593 4.097"/><path fill="#fff" d="M304.26 324.931c1.796 0 3.294-1.899 3.294-4.097s-1.498-3.896-3.294-3.896c-1.897 0-3.394 1.898-3.394 4.096s1.497 3.997 3.394 3.897m-15.572.598c1.897-.1 3.394-1.998 3.394-4.197 0-2.298-1.497-4.096-3.394-3.996-1.896.1-3.394 1.898-3.394 4.196s1.498 4.097 3.394 3.997"/></g></svg>