<svg xmlns="http://www.w3.org/2000/svg" width="400" height="400" fill="none" viewBox="0 0 400 400"><path fill="#433F43" d="M131.268 311.988H369V197.367c0-9.126-7.48-16.547-16.678-16.547H131.268z"/><path fill="#433F43" fill-rule="evenodd" d="M322.707 265.46H231.94V30h71.664c10.512 0 19.103 4.412 19.103 14.842zM70.622 313.695h117.855V55.07H93.465c-12.634 0-22.843 5.215-22.843 17.75z" clip-rule="evenodd"/><path fill="#999" d="M285.814 165.785a2 2 0 0 0 0 4zm23.37 75.406a2 2 0 0 0 4 0zm-23.37-28.273a2 2 0 0 0 0 4zm10.837 75.406a2 2 0 0 0 4 0zm-10.837-118.539h12.837v-4h-12.837zm12.837 0c5.69 0 10.533 5.133 10.533 11.739h4c0-8.437-6.274-15.739-14.533-15.739zm10.533 11.739v59.667h4v-59.667zm-23.37 35.394h6.469v-4h-6.469zm6.469 0c1.321 0 2.25.386 2.927 1.264.758.985 1.441 2.893 1.441 6.463h4c0-3.95-.733-6.906-2.273-8.905-1.623-2.105-3.878-2.822-6.095-2.822zm4.368 7.727v63.679h4v-63.679z"/><path stroke="#999" stroke-linecap="round" stroke-linejoin="round" stroke-width="4" d="M285.814 134.492h20.62c9.501 0 17.183 7.622 17.183 17.048v90.353"/><path fill="#999" d="M176.449 84.05v-2a2 2 0 0 0-2 2zm109.062 0h2a2 2 0 0 0-2-2zm0 108.204v2a2 2 0 0 0 2-2zm-109.062 0h-2a2 2 0 0 0 2 2zm0 0v-2a2 2 0 0 0-2 2zm109.062 0h2a2 2 0 0 0-2-2zm0 108.203v2a2 2 0 0 0 2-2zm-109.062 0h-2a2 2 0 0 0 2 2zm0-214.406h109.062v-4H176.449zm107.062-2v108.203h4V84.051zm2 106.203H176.449v4h109.062zm-107.062 2V84.051h-4v108.203zm-2 2h109.062v-4H176.449zm107.062-2v108.203h4V192.254zm2 106.203H176.449v4h109.062zm-107.062 2V192.254h-4v108.203zm43.99-205.529a1.863 1.863 0 0 0 0 3.725zm49.932 3.725a1.863 1.863 0 1 0 0-3.725zm-49.932 4.798a1.863 1.863 0 0 0 0 3.726zm31.132 3.726a1.863 1.863 0 1 0 0-3.726zm-31.132 4.899a1.863 1.863 0 0 0 0 3.726zm49.932 3.726a1.863 1.863 0 1 0 0-3.726zm-49.932-17.149h49.932v-3.725h-49.932zm0 8.524h31.132v-3.726h-31.132zm0 8.625h49.932v-3.726h-49.932zm-32.243-16.91a2.114 2.114 0 0 0 2.122-2.106c0-1.163-.95-2.106-2.122-2.106a2.115 2.115 0 0 0-2.123 2.106c0 1.163.951 2.105 2.123 2.105m8.692.001a2.114 2.114 0 0 0 2.123-2.106c0-1.163-.95-2.106-2.123-2.106a2.114 2.114 0 0 0-2.122 2.106c0 1.163.95 2.105 2.122 2.105m8.693.001a2.114 2.114 0 0 0 2.122-2.106c0-1.163-.95-2.106-2.122-2.106a2.114 2.114 0 0 0-2.123 2.106c0 1.163.95 2.105 2.123 2.105m-17.385 8.524a2.114 2.114 0 0 0 2.122-2.106c0-1.163-.95-2.106-2.122-2.106a2.115 2.115 0 0 0-2.123 2.106c0 1.163.951 2.106 2.123 2.106m8.692 0a2.114 2.114 0 0 0 2.123-2.106c0-1.163-.95-2.106-2.123-2.106a2.114 2.114 0 0 0-2.122 2.106c0 1.163.95 2.106 2.122 2.106m8.693 0a2.114 2.114 0 0 0 2.122-2.106c0-1.163-.95-2.106-2.122-2.106a2.114 2.114 0 0 0-2.123 2.106c0 1.163.95 2.106 2.123 2.106m-17.385 8.629a2.114 2.114 0 0 0 2.122-2.106c0-1.163-.95-2.106-2.122-2.106a2.115 2.115 0 0 0-2.123 2.106c0 1.163.951 2.106 2.123 2.106m8.692 0a2.114 2.114 0 0 0 2.123-2.106c0-1.163-.95-2.106-2.123-2.106a2.114 2.114 0 0 0-2.122 2.106c0 1.163.95 2.106 2.122 2.106m8.693 0a2.114 2.114 0 0 0 2.122-2.106c0-1.163-.95-2.106-2.122-2.106a2.114 2.114 0 0 0-2.123 2.106c0 1.163.95 2.106 2.123 2.106m14.858 11.173a1.863 1.863 0 0 0 0 3.725zm49.932 3.725a1.863 1.863 0 1 0 0-3.725zm-49.932 4.9a1.863 1.863 0 0 0 0 3.725zm49.932 3.725a1.863 1.863 0 1 0 0-3.725zm-49.932 4.896a1.863 1.863 0 0 0 0 3.725zm41.846 3.725a1.863 1.863 0 1 0 0-3.725zm-41.846-17.246h49.932v-3.725h-49.932zm0 8.625h49.932v-3.725h-49.932zm0 8.621h41.846v-3.725h-41.846zm-32.243-17.004a2.113 2.113 0 0 0 2.122-2.105c0-1.164-.95-2.106-2.122-2.106a2.114 2.114 0 0 0-2.123 2.106c0 1.163.951 2.105 2.123 2.105m8.692 0a2.113 2.113 0 0 0 2.123-2.105c0-1.164-.95-2.106-2.123-2.106a2.113 2.113 0 0 0-2.122 2.106c0 1.163.95 2.105 2.122 2.105m8.693 0a2.113 2.113 0 0 0 2.122-2.105c0-1.164-.95-2.106-2.122-2.106a2.114 2.114 0 0 0-2.123 2.106c0 1.163.95 2.105 2.123 2.105m-17.385 8.625a2.113 2.113 0 0 0 2.122-2.105c0-1.164-.95-2.106-2.122-2.106a2.114 2.114 0 0 0-2.123 2.106c0 1.163.951 2.105 2.123 2.105m8.692 0a2.113 2.113 0 0 0 2.123-2.105c0-1.164-.95-2.106-2.123-2.106a2.113 2.113 0 0 0-2.122 2.106c0 1.163.95 2.105 2.122 2.105m8.693 0a2.113 2.113 0 0 0 2.122-2.105c0-1.164-.95-2.106-2.122-2.106a2.114 2.114 0 0 0-2.123 2.106c0 1.163.95 2.105 2.123 2.105m-17.385 8.622a2.114 2.114 0 0 0 2.122-2.106c0-1.163-.95-2.106-2.122-2.106a2.115 2.115 0 0 0-2.123 2.106c0 1.163.951 2.106 2.123 2.106m8.692 0a2.114 2.114 0 0 0 2.123-2.106c0-1.163-.95-2.106-2.123-2.106a2.114 2.114 0 0 0-2.122 2.106c0 1.163.95 2.106 2.122 2.106m8.693 0a2.114 2.114 0 0 0 2.122-2.106c0-1.163-.95-2.106-2.122-2.106a2.114 2.114 0 0 0-2.123 2.106c0 1.163.95 2.106 2.123 2.106m14.858 11.075a1.863 1.863 0 0 0 0 3.725zm49.932 3.725a1.863 1.863 0 1 0 0-3.725zm-49.932 4.9a1.863 1.863 0 0 0 0 3.725zm49.932 3.725a1.863 1.863 0 1 0 0-3.725zm-49.932 4.896a1.863 1.863 0 0 0 0 3.725zm49.932 3.725a1.863 1.863 0 1 0 0-3.725zm-49.932-17.246h49.932v-3.725h-49.932zm0 8.625h49.932v-3.725h-49.932zm0 8.621h49.932v-3.725h-49.932zm-32.243-17.003a2.114 2.114 0 0 0 2.122-2.106c0-1.163-.95-2.106-2.122-2.106a2.115 2.115 0 0 0-2.123 2.106c0 1.163.951 2.106 2.123 2.106m8.692 0a2.114 2.114 0 0 0 2.123-2.106c0-1.163-.95-2.106-2.123-2.106a2.114 2.114 0 0 0-2.122 2.106c0 1.163.95 2.106 2.122 2.106m8.693 0a2.114 2.114 0 0 0 2.122-2.106c0-1.163-.95-2.106-2.122-2.106a2.114 2.114 0 0 0-2.123 2.106c0 1.163.95 2.106 2.123 2.106m-17.385 8.625a2.114 2.114 0 0 0 2.122-2.106c0-1.163-.95-2.106-2.122-2.106a2.115 2.115 0 0 0-2.123 2.106c0 1.163.951 2.106 2.123 2.106m8.692 0a2.114 2.114 0 0 0 2.123-2.106c0-1.163-.95-2.106-2.123-2.106a2.114 2.114 0 0 0-2.122 2.106c0 1.163.95 2.106 2.122 2.106m8.693 0a2.114 2.114 0 0 0 2.122-2.106c0-1.163-.95-2.106-2.122-2.106a2.114 2.114 0 0 0-2.123 2.106c0 1.163.95 2.106 2.123 2.106m-17.385 8.625a2.114 2.114 0 0 0 2.122-2.106c0-1.163-.95-2.106-2.122-2.106a2.115 2.115 0 0 0-2.123 2.106c0 1.163.951 2.106 2.123 2.106m8.692 0a2.114 2.114 0 0 0 2.123-2.106c0-1.163-.95-2.106-2.123-2.106a2.114 2.114 0 0 0-2.122 2.106c0 1.163.95 2.106 2.122 2.106m8.693 0a2.114 2.114 0 0 0 2.122-2.106c0-1.163-.95-2.106-2.122-2.106a2.114 2.114 0 0 0-2.123 2.106c0 1.163.95 2.106 2.123 2.106m14.858 22.809a1.863 1.863 0 0 0 0 3.726zm49.932 3.726a1.863 1.863 0 1 0 0-3.726zm-49.932 4.798a1.862 1.862 0 0 0 0 3.725zm31.132 3.725a1.863 1.863 0 1 0 0-3.725zm-31.132 4.9a1.862 1.862 0 0 0 0 3.725zm49.932 3.725a1.863 1.863 0 1 0 0-3.725zm-49.932-17.148h49.932v-3.726h-49.932zm0 8.523h31.132v-3.725h-31.132zm0 8.625h49.932v-3.725h-49.932zm-32.243-16.906a2.114 2.114 0 0 0 2.122-2.106c0-1.163-.95-2.106-2.122-2.106a2.115 2.115 0 0 0-2.123 2.106c0 1.163.951 2.106 2.123 2.106m8.692 0a2.114 2.114 0 0 0 2.123-2.106c0-1.163-.95-2.106-2.123-2.106a2.114 2.114 0 0 0-2.122 2.106c0 1.163.95 2.106 2.122 2.106m8.693 0a2.114 2.114 0 0 0 2.122-2.106c0-1.163-.95-2.106-2.122-2.106a2.114 2.114 0 0 0-2.123 2.106c0 1.163.95 2.106 2.123 2.106m-17.385 8.523a2.114 2.114 0 0 0 2.122-2.106c0-1.163-.95-2.106-2.122-2.106a2.115 2.115 0 0 0-2.123 2.106c0 1.163.951 2.106 2.123 2.106m8.692 0a2.114 2.114 0 0 0 2.123-2.106c0-1.163-.95-2.106-2.123-2.106a2.114 2.114 0 0 0-2.122 2.106c0 1.163.95 2.106 2.122 2.106m8.693 0a2.114 2.114 0 0 0 2.122-2.106c0-1.163-.95-2.106-2.122-2.106a2.114 2.114 0 0 0-2.123 2.106c0 1.163.95 2.106 2.123 2.106m-17.385 8.625a2.114 2.114 0 0 0 2.122-2.106c0-1.163-.95-2.105-2.122-2.105a2.114 2.114 0 0 0-2.123 2.105c0 1.163.951 2.106 2.123 2.106m8.692 0a2.114 2.114 0 0 0 2.123-2.106c0-1.163-.95-2.105-2.123-2.105a2.113 2.113 0 0 0-2.122 2.105c0 1.163.95 2.106 2.122 2.106m8.693 0a2.114 2.114 0 0 0 2.122-2.106c0-1.163-.95-2.105-2.122-2.105a2.113 2.113 0 0 0-2.123 2.105c0 1.163.95 2.106 2.123 2.106m14.858 11.177a1.863 1.863 0 0 0 0 3.726zm49.932 3.726a1.863 1.863 0 1 0 0-3.726zm-49.932 4.899a1.863 1.863 0 0 0 0 3.726zm49.932 3.726a1.863 1.863 0 1 0 0-3.726zm-49.932 4.895a1.863 1.863 0 0 0 0 3.726zm41.846 3.726a1.863 1.863 0 1 0 0-3.726zm-41.846-17.246h49.932v-3.726h-49.932zm0 8.625h49.932v-3.726h-49.932zm0 8.621h41.846v-3.726h-41.846zm-32.243-17.008a2.114 2.114 0 0 0 2.122-2.106c0-1.163-.95-2.106-2.122-2.106a2.115 2.115 0 0 0-2.123 2.106c0 1.163.951 2.106 2.123 2.106m8.692 0a2.114 2.114 0 0 0 2.123-2.106c0-1.163-.95-2.106-2.123-2.106a2.114 2.114 0 0 0-2.122 2.106c0 1.163.95 2.106 2.122 2.106m8.693 0a2.114 2.114 0 0 0 2.122-2.106c0-1.163-.95-2.106-2.122-2.106a2.114 2.114 0 0 0-2.123 2.106c0 1.163.95 2.106 2.123 2.106m-17.385 8.625a2.114 2.114 0 0 0 2.122-2.106c0-1.163-.95-2.106-2.122-2.106a2.115 2.115 0 0 0-2.123 2.106c0 1.163.951 2.106 2.123 2.106m8.692 0a2.114 2.114 0 0 0 2.123-2.106c0-1.163-.95-2.106-2.123-2.106a2.114 2.114 0 0 0-2.122 2.106c0 1.163.95 2.106 2.122 2.106m8.693 0a2.114 2.114 0 0 0 2.122-2.106c0-1.163-.95-2.106-2.122-2.106a2.114 2.114 0 0 0-2.123 2.106c0 1.163.95 2.106 2.123 2.106m-17.385 8.625a2.114 2.114 0 0 0 2.122-2.106c0-1.163-.95-2.106-2.122-2.106a2.115 2.115 0 0 0-2.123 2.106c0 1.163.951 2.106 2.123 2.106m8.692 0a2.114 2.114 0 0 0 2.123-2.106c0-1.163-.95-2.106-2.123-2.106a2.114 2.114 0 0 0-2.122 2.106c0 1.163.95 2.106 2.122 2.106m8.693 0a2.114 2.114 0 0 0 2.122-2.106c0-1.163-.95-2.106-2.122-2.106a2.114 2.114 0 0 0-2.123 2.106c0 1.163.95 2.106 2.123 2.106m14.858 11.075a1.863 1.863 0 0 0 0 3.726zm49.932 3.726a1.863 1.863 0 1 0 0-3.726zm-49.932 4.899a1.863 1.863 0 0 0 0 3.726zm49.932 3.726a1.863 1.863 0 1 0 0-3.726zm-49.932 4.896a1.862 1.862 0 1 0 0 3.725zm14.151 3.725a1.863 1.863 0 1 0 0-3.725zm-14.151-17.246h49.932v-3.726h-49.932zm0 8.625h49.932v-3.726h-49.932zm0 8.621h14.151v-3.725h-14.151zm-32.243-17.008a2.114 2.114 0 0 0 2.122-2.106c0-1.163-.95-2.106-2.122-2.106a2.115 2.115 0 0 0-2.123 2.106c0 1.163.951 2.106 2.123 2.106m8.692 0a2.114 2.114 0 0 0 2.123-2.106c0-1.163-.95-2.106-2.123-2.106a2.114 2.114 0 0 0-2.122 2.106c0 1.163.95 2.106 2.122 2.106m8.693 0a2.114 2.114 0 0 0 2.122-2.106c0-1.163-.95-2.106-2.122-2.106a2.114 2.114 0 0 0-2.123 2.106c0 1.163.95 2.106 2.123 2.106m-17.385 8.625a2.114 2.114 0 0 0 2.122-2.106c0-1.163-.95-2.106-2.122-2.106a2.115 2.115 0 0 0-2.123 2.106c0 1.163.951 2.106 2.123 2.106m8.692 0a2.114 2.114 0 0 0 2.123-2.106c0-1.163-.95-2.106-2.123-2.106a2.114 2.114 0 0 0-2.122 2.106c0 1.163.95 2.106 2.122 2.106m8.693 0a2.114 2.114 0 0 0 2.122-2.106c0-1.163-.95-2.106-2.122-2.106a2.114 2.114 0 0 0-2.123 2.106c0 1.163.95 2.106 2.123 2.106m-17.385 8.629a2.114 2.114 0 0 0 2.122-2.106c0-1.163-.95-2.106-2.122-2.106a2.115 2.115 0 0 0-2.123 2.106c0 1.163.951 2.106 2.123 2.106m8.692 0a2.114 2.114 0 0 0 2.123-2.106c0-1.163-.95-2.106-2.123-2.106a2.114 2.114 0 0 0-2.122 2.106c0 1.163.95 2.106 2.122 2.106m8.693 0a2.114 2.114 0 0 0 2.122-2.106c0-1.163-.95-2.106-2.122-2.106a2.114 2.114 0 0 0-2.123 2.106c0 1.163.95 2.106 2.123 2.106"/><path fill="#FFD493" d="M71.734 191.051c-7.379 2.908-28.2 14.44-28.2 27.577 0 3.71 2.223 8.123 17.183 6.217 27.391-3.509 78.738-1.805 78.738-1.805l58.523-4.613z"/><path fill="#FFBE5C" d="m45.858 222.541 55.693-7.721c1.415-.201 2.628-2.507 2.628-5.014V91.976c0-2.507-2.729-3.51-4.245-3.11l-54.076 18.051c-1.213.402-2.224 2.608-2.224 5.015v106.799c-.1 2.306.91 4.011 2.224 3.81"/><path fill="#FFD493" d="m198.08 218.328-96.528-3.711c-2.527-.1-4.549-2.206-4.549-4.613V92.676c0-2.507 2.022-4.212 4.549-3.911l96.528 11.933c2.122.301 3.942 2.307 3.942 4.613v109.106c0 2.206-1.719 4.011-3.942 3.911"/><path stroke="#FFBE5C" stroke-linejoin="round" stroke-width="4" d="m97.104 130.383 104.917 10.529"/><path fill="#DD7E10" d="M112.906 101.319a2 2 0 1 0-.473 3.972zm76.244 13.097a2 2 0 1 0 .473-3.972zm-76.296 31.921a2 2 0 1 0-.37 3.983zm76.348 11.103a2 2 0 0 0 .369-3.983zm-76.423 31.215a2 2 0 1 0-.219 3.994zm76.498 8.206a2 2 0 0 0 .219-3.994zm-76.844-91.57 76.717 9.125.473-3.972-76.717-9.125zm.051 45.029 76.718 7.12.369-3.983-76.717-7.12zm.076 42.329 76.717 4.212.219-3.994-76.717-4.212z"/><path fill="#FFBE5C" d="m95.15 175.499 106.736 7.221.27-3.991-106.737-7.221zm.067 39.816 106.737 3.61.135-3.997-106.737-3.61zM45.858 342.976l55.997 6.117c1.415.1 2.628-1.906 2.628-4.413V223.541c0-2.507-1.213-4.513-2.628-4.412l-55.997 7.42c-1.213.101-2.325 2.106-2.325 4.413v107.501c0 2.407 1.011 4.412 2.325 4.513"/><path fill="#FFD493" d="m199.091 344.881-97.135 4.212c-2.527.1-4.549-1.906-4.549-4.413V223.541c0-2.507 2.022-4.513 4.549-4.412l97.135 4.211c2.223.101 3.942 2.106 3.942 4.413v112.615c.101 2.407-1.719 4.413-3.942 4.513"/><path fill="#FFBE5C" d="m97.368 264.449 105.726 2.106.079-3.999-105.726-2.106zm-1.752 44.727 107.546-1.504-.056-4-107.546 1.504z"/><path fill="#DD7E10" d="M112.747 230.771a2 2 0 0 0-.156 3.997zm76.763 7.005a2 2 0 1 0 .157-3.997zm-76.817 38.02a2 2 0 1 0-.047 4zm76.872 4.903a2 2 0 1 0 .047-4zm-76.948 37.315a2 2 0 0 0 .104 3.999zm77.024 1.993a2 2 0 1 0-.105-3.999zm-77.05-85.239 76.919 3.008.157-3.997-76.92-3.008zm.055 45.028 76.919.903.047-4-76.919-.903zm.075 42.217 76.92-2.006-.105-3.999-76.919 2.006z"/><path fill="#FFBE5C" d="m150.775 354.808 70.754 7.722c1.819.1 3.336-2.407 3.336-5.616V203.986c0-3.209-1.517-5.716-3.336-5.616l-70.754 9.326c-1.617.1-2.83 2.608-2.83 5.616v135.78c0 3.109 1.314 5.616 2.83 5.716"/><path fill="#FFD493" d="m344.337 357.215-122.606 5.315c-3.133.1-5.761-2.407-5.761-5.616V203.986c0-3.209 2.527-5.716 5.761-5.616l122.606 5.315c2.729.1 4.953 2.607 4.953 5.616v142.198c0 3.109-2.224 5.616-4.953 5.716"/><path fill="#FFBE5C" d="m215.931 255.222 133.32 2.608.078-4-133.32-2.607zm-2.26 56.356 135.645-1.805-.053-3.999-135.645 1.805z"/><path fill="#fff" d="M234.973 216.421c0 1.805-1.314 3.309-3.032 3.209-1.719-.1-3.033-1.705-3.033-3.51 0-1.805 1.415-3.309 3.033-3.209 1.617.1 3.032 1.705 3.032 3.51"/><path fill="#DD7E10" fill-opacity=".85" fill-rule="evenodd" d="M245.787 220.431c1.718 0 3.032-1.404 3.032-3.209 0-1.905-1.314-3.41-3.032-3.51-1.718-.1-3.032 1.304-3.032 3.209s1.415 3.41 3.032 3.51m13.645.604c1.617.1 2.931-1.304 2.931-3.109s-1.314-3.309-2.931-3.409c-1.617-.101-2.931 1.303-2.931 3.108 0 1.806 1.314 3.31 2.931 3.41m13.444.699c1.516.101 2.83-1.303 2.83-3.108 0-1.806-1.314-3.31-2.83-3.41-1.516-.1-2.83 1.304-2.83 3.109s1.213 3.309 2.83 3.409m13.039.703c1.617.101 2.83-1.303 2.83-3.108 0-1.705-1.314-3.209-2.83-3.41-1.516-.1-2.83 1.304-2.83 3.109s1.314 3.309 2.83 3.409m15.566-2.407c0 1.805-1.213 3.108-2.73 3.008-1.516-.1-2.729-1.605-2.729-3.309 0-1.805 1.213-3.109 2.729-3.009 1.517.101 2.73 1.605 2.73 3.31m9.804 3.711c1.516.1 2.729-1.304 2.729-3.008 0-1.705-1.213-3.209-2.729-3.31-1.516-.1-2.729 1.204-2.729 3.009 0 1.705 1.213 3.209 2.729 3.309m15.061-2.309c0 1.704-1.213 3.108-2.628 3.008-1.516-.1-2.628-1.504-2.628-3.309 0-1.705 1.213-3.109 2.628-3.009 1.415.101 2.628 1.605 2.628 3.31m9.399 3.711c1.415 0 2.628-1.303 2.628-3.008 0-1.805-1.112-3.209-2.628-3.209-1.415 0-2.628 1.303-2.628 3.008s1.213 3.109 2.628 3.209" clip-rule="evenodd"/><g fill-rule="evenodd" clip-rule="evenodd"><path fill="#fff" d="M231.94 275.285c1.719 0 3.033-1.504 3.033-3.309 0-1.905-1.415-3.41-3.033-3.41-1.617 0-3.032 1.404-3.032 3.31 0 1.905 1.314 3.409 3.032 3.409m13.848.102c1.718 0 3.032-1.504 3.032-3.309 0-1.806-1.314-3.31-3.032-3.41-1.718 0-3.032 1.404-3.032 3.309 0 1.906 1.415 3.41 3.032 3.41"/><path fill="#DD7E10" fill-opacity=".85" d="M262.364 272.279c0 1.805-1.314 3.309-2.931 3.209-1.617 0-2.931-1.504-2.931-3.309 0-1.805 1.314-3.31 2.931-3.209 1.617 0 2.931 1.504 2.931 3.309m13.342.198c0 1.805-1.314 3.209-2.83 3.209-1.617 0-2.83-1.504-2.83-3.309 0-1.805 1.314-3.209 2.83-3.209 1.516.1 2.83 1.504 2.83 3.309m10.209 3.412c1.617 0 2.83-1.404 2.83-3.209 0-1.805-1.314-3.209-2.83-3.309-1.516 0-2.83 1.404-2.83 3.209 0 1.805 1.314 3.309 2.83 3.309m12.837.201c1.516 0 2.729-1.404 2.729-3.209 0-1.805-1.213-3.209-2.729-3.209s-2.729 1.404-2.729 3.209c0 1.705 1.213 3.209 2.729 3.209m12.533.099c1.516 0 2.729-1.404 2.729-3.109 0-1.805-1.213-3.209-2.729-3.209s-2.729 1.304-2.729 3.109 1.213 3.209 2.729 3.209m15.061-3.007c0 1.704-1.213 3.108-2.628 3.108-1.516 0-2.628-1.404-2.628-3.209 0-1.704 1.213-3.108 2.628-3.108 1.415.1 2.628 1.504 2.628 3.209m9.399 3.309c1.415 0 2.628-1.404 2.628-3.109s-1.112-3.109-2.628-3.109c-1.415 0-2.628 1.404-2.628 3.109s1.213 3.109 2.628 3.109"/></g><path fill="#fff" d="M234.973 327.434c0 1.805-1.314 3.41-3.032 3.41-1.719 0-3.033-1.404-3.033-3.309 0-1.906 1.415-3.41 3.033-3.41 1.617 0 3.032 1.404 3.032 3.309"/><path fill="#DD7E10" fill-opacity=".85" fill-rule="evenodd" d="M272.877 329.639c1.516 0 2.83-1.504 2.83-3.309 0-1.805-1.314-3.209-2.83-3.209s-2.83 1.504-2.83 3.309c0 1.805 1.212 3.209 2.83 3.209m-10.513-2.91c0 1.805-1.314 3.31-2.931 3.41-1.617 0-2.931-1.404-2.931-3.209 0-1.805 1.314-3.309 2.931-3.41 1.617-.1 2.931 1.404 2.931 3.209m-13.544.301c0 1.805-1.314 3.41-3.032 3.41-1.617 0-3.032-1.404-3.032-3.209 0-1.805 1.314-3.41 3.032-3.41 1.718-.1 3.032 1.404 3.032 3.209m86.926.805c1.415-.101 2.628-1.505 2.628-3.209 0-1.705-1.112-3.009-2.628-3.009-1.415.1-2.628 1.504-2.628 3.209s1.213 3.009 2.628 3.009m-9.4-2.808c0 1.704-1.213 3.209-2.628 3.209-1.516 0-2.628-1.304-2.628-3.109s1.213-3.209 2.628-3.209 2.628 1.304 2.628 3.109m-15.061 3.509c1.516 0 2.729-1.504 2.729-3.209 0-1.704-1.213-3.108-2.729-3.108s-2.729 1.404-2.729 3.209c0 1.805 1.213 3.108 2.729 3.108m-9.804-2.908c0 1.805-1.213 3.209-2.729 3.309-1.516 0-2.729-1.403-2.729-3.108 0-1.805 1.213-3.209 2.729-3.309 1.516 0 2.729 1.403 2.729 3.108m-12.736.404c0 1.805-1.213 3.309-2.83 3.309-1.516 0-2.83-1.404-2.83-3.109 0-1.805 1.314-3.309 2.83-3.309 1.516-.1 2.83 1.304 2.83 3.109" clip-rule="evenodd"/><path fill="#FFD493" fill-rule="evenodd" d="M58.19 120.756c0 1.805 1.415 3.209 3.133 2.908 1.718-.2 3.133-1.905 3.133-3.81 0-1.906-1.415-3.209-3.133-2.908-1.718.2-3.133 1.905-3.133 3.81m0 37.606c0 1.805 1.415 3.209 3.133 2.908 1.718-.201 3.133-1.906 3.133-3.811s-1.415-3.209-3.133-2.908c-1.718.301-3.133 2.006-3.133 3.811m3.133 40.615c-1.718.301-3.133-1.103-3.133-2.908s1.415-3.51 3.133-3.811c1.718-.301 3.133 1.003 3.133 2.908s-1.415 3.61-3.133 3.811m-3.133 47.826c0 1.805 1.415 3.209 3.133 2.908 1.718-.2 3.133-1.905 3.133-3.81 0-1.906-1.415-3.209-3.133-2.909-1.718.301-3.133 2.006-3.133 3.811m0 37.707c0 1.805 1.415 3.209 3.133 2.908 1.718-.2 3.133-1.905 3.133-3.81 0-1.906-1.415-3.209-3.133-2.909-1.718.301-3.133 2.006-3.133 3.811m3.133 40.611c-1.718.301-3.133-1.103-3.133-2.908 0-1.905 1.415-3.51 3.133-3.81 1.718-.301 3.133 1.002 3.133 2.908 0 1.905-1.415 3.61-3.133 3.81m100.874-93.255c0 2.407 1.82 4.112 4.043 3.811 2.224-.301 4.144-2.507 4.144-4.914 0-2.407-1.819-4.111-4.144-3.811-2.223.301-4.043 2.507-4.043 4.914m0 49.438c0 2.406 1.82 4.111 4.043 3.81 2.224-.301 4.144-2.507 4.144-4.913 0-2.407-1.819-4.112-4.144-3.811-2.223.301-4.043 2.507-4.043 4.914m4.043 53.252c-2.223.301-4.043-1.404-4.043-3.811s1.82-4.613 4.043-4.914c2.325-.301 4.144 1.404 4.144 3.811s-1.92 4.613-4.144 4.914" clip-rule="evenodd"/><path stroke="#999" stroke-linecap="round" stroke-linejoin="round" stroke-width="4" d="m60.514 120.35-22.236-1.705c-3.942-.301-7.278 2.808-7.278 6.719v207.08"/><path stroke="#999" stroke-linecap="round" stroke-linejoin="round" stroke-width="4" d="m60.514 157.955-22.236-1.704c-3.942-.301-7.278 2.807-7.278 6.718v92.058"/><path stroke="#999" stroke-linecap="round" stroke-linejoin="round" stroke-width="4" d="m60.514 195.861-22.236-.802c-3.942-.301-7.278 2.808-7.278 6.719v76.314"/><path stroke="#999" stroke-linecap="round" stroke-linejoin="round" stroke-width="4" d="m60.514 246-22.236.1c-3.942-.301-7.278 2.808-7.278 6.719v76.314"/><path stroke="#999" stroke-linecap="round" stroke-linejoin="round" stroke-width="4" d="m60.514 284.012-22.236.1c-3.942-.301-7.278 2.808-7.278 6.719v49.037"/><path stroke="#999" stroke-linecap="round" stroke-linejoin="round" stroke-width="4" d="m60.514 322.016-22.236.1c-3.942-.301-7.278 2.808-7.278 6.719v16.045"/><path stroke="#999" stroke-linecap="round" stroke-linejoin="round" stroke-width="4" d="M31 342.472v5.716c0 3.309.202 6.518 3.133 7.22 2.83.702 84.703 13.538 91.475 14.441 6.772.902 8.692-2.407 8.692-5.917V241.99c0-5.816 4.751-10.529 10.613-10.629l20.519-.201"/><path fill="#999" d="M132.199 320.909a2 2 0 0 0 4 0zm12.614-39.912-.02-1.999h-.015zm20.538 1.8a2 2 0 0 0-.039-4zm-33.152 73.815a2 2 0 0 0 4 0zm12.613-25.872-.019-2h-.015zm20.539 1.799a2 2 0 1 0-.04-4zm-29.152-11.63v-29.282h-4v29.282zm0-29.282c0-4.691 3.842-8.548 8.648-8.63l-.069-3.999c-6.919.118-12.579 5.687-12.579 12.629zm8.633-8.63 20.519-.2-.039-4-20.519.201zm-8.633 73.615v-15.243h-4v15.243zm0-15.243c0-4.69 3.842-8.547 8.648-8.63l-.069-3.999c-6.919.118-12.579 5.688-12.579 12.629zm8.633-8.629 20.519-.201-.04-4-20.518.201z"/></svg>