<svg xmlns="http://www.w3.org/2000/svg" width="341" height="342" fill="none" viewBox="0 0 341 342"><path fill="#414141" d="M103.06 281.988h237.732V167.367c0-9.126-7.48-16.547-16.678-16.547H103.06z"/><path fill="#414141" fill-rule="evenodd" d="M294.499 235.46h-90.767V0h71.664c10.512 0 19.103 4.412 19.103 14.842zM42.414 283.695H160.27V25.07H65.257c-12.634 0-22.843 5.215-22.843 17.75z" clip-rule="evenodd"/><path fill="#949494" fill-rule="evenodd" d="M255.606 137.785a2 2 0 0 1 2-2h12.837c8.259 0 14.533 7.302 14.533 15.739v59.667a2 2 0 0 1-4 0v-59.667c0-6.606-4.843-11.739-10.533-11.739h-12.837a2 2 0 0 1-2-2m0 47.133a2 2 0 0 1 2-2h6.469c2.217 0 4.472.717 6.095 2.822 1.54 1.999 2.273 4.955 2.273 8.905v63.679a2 2 0 0 1-4 0v-63.679c0-3.57-.683-5.478-1.441-6.463-.677-.878-1.606-1.264-2.927-1.264h-6.469a2 2 0 0 1-2-2" clip-rule="evenodd"/><path fill="#949494" fill-rule="evenodd" d="M255.606 104.492a2 2 0 0 1 2-2h20.62c10.591 0 19.183 8.502 19.183 19.048v90.353a2 2 0 0 1-4 0V121.54c0-8.307-6.772-15.048-15.183-15.048h-20.62a2 2 0 0 1-2-2" clip-rule="evenodd"/><path fill="#949494" fill-rule="evenodd" d="M146.241 54.05a2 2 0 0 1 2-2h109.062a2 2 0 0 1 2 2v216.407a2 2 0 0 1-2 2H148.241a2 2 0 0 1-2-2zm4 106.204h105.062V56.051H150.241zm0 4h105.062zm105.062 0v104.203z" clip-rule="evenodd"/><path fill="#949494" fill-rule="evenodd" d="M192.369 66.79c0-1.028.834-1.862 1.862-1.862h49.932a1.863 1.863 0 1 1 0 3.725h-49.932a1.863 1.863 0 0 1-1.862-1.863m0 8.524c0-1.029.834-1.863 1.862-1.863h31.132a1.863 1.863 0 1 1 0 3.725h-31.132a1.863 1.863 0 0 1-1.862-1.862m0 8.625c0-1.029.834-1.863 1.862-1.863h49.932a1.863 1.863 0 1 1 0 3.725h-49.932a1.863 1.863 0 0 1-1.862-1.862" clip-rule="evenodd"/><path fill="#949494" d="M161.988 68.892a2.114 2.114 0 0 0 2.122-2.106c0-1.163-.95-2.106-2.122-2.106a2.115 2.115 0 0 0-2.123 2.106c0 1.163.951 2.105 2.123 2.105m8.692.001a2.114 2.114 0 0 0 2.123-2.106c0-1.163-.95-2.106-2.123-2.106a2.114 2.114 0 0 0-2.122 2.106c0 1.163.95 2.105 2.122 2.105m8.693.001a2.114 2.114 0 0 0 2.122-2.106c0-1.163-.95-2.106-2.122-2.106a2.114 2.114 0 0 0-2.123 2.106c0 1.163.95 2.105 2.123 2.105m-17.385 8.524a2.114 2.114 0 0 0 2.122-2.106c0-1.163-.95-2.106-2.122-2.106a2.115 2.115 0 0 0-2.123 2.106c0 1.163.951 2.106 2.123 2.106m8.692 0a2.114 2.114 0 0 0 2.123-2.106c0-1.163-.95-2.106-2.123-2.106a2.114 2.114 0 0 0-2.122 2.106c0 1.163.95 2.106 2.122 2.106m8.693 0a2.114 2.114 0 0 0 2.122-2.106c0-1.163-.95-2.106-2.122-2.106a2.114 2.114 0 0 0-2.123 2.106c0 1.163.95 2.106 2.123 2.106m-17.385 8.629a2.114 2.114 0 0 0 2.122-2.106c0-1.163-.95-2.106-2.122-2.106a2.115 2.115 0 0 0-2.123 2.106c0 1.163.951 2.106 2.123 2.106m8.692 0a2.114 2.114 0 0 0 2.123-2.106c0-1.163-.95-2.106-2.123-2.106a2.114 2.114 0 0 0-2.122 2.106c0 1.163.95 2.106 2.122 2.106m8.693 0a2.114 2.114 0 0 0 2.122-2.106c0-1.163-.95-2.106-2.122-2.106a2.114 2.114 0 0 0-2.123 2.106c0 1.163.95 2.106 2.123 2.106"/><path fill="#949494" fill-rule="evenodd" d="M192.369 99.08c0-1.03.834-1.863 1.863-1.863h49.931a1.863 1.863 0 1 1 0 3.725h-49.931a1.863 1.863 0 0 1-1.863-1.863m0 8.624c0-1.028.834-1.862 1.863-1.862h49.931a1.863 1.863 0 1 1 0 3.725h-49.931a1.863 1.863 0 0 1-1.863-1.863m0 8.622c0-1.029.834-1.863 1.862-1.863h41.846a1.863 1.863 0 1 1 0 3.725h-41.846a1.86 1.86 0 0 1-1.862-1.862" clip-rule="evenodd"/><path fill="#949494" d="M161.988 101.184a2.113 2.113 0 0 0 2.122-2.105c0-1.163-.95-2.106-2.122-2.106a2.115 2.115 0 0 0-2.123 2.106c0 1.163.951 2.105 2.123 2.105m8.692 0a2.114 2.114 0 0 0 2.123-2.105c0-1.163-.95-2.106-2.123-2.106a2.114 2.114 0 0 0-2.122 2.106c0 1.163.95 2.105 2.122 2.105m8.693 0a2.113 2.113 0 0 0 2.122-2.105c0-1.163-.95-2.106-2.122-2.106a2.114 2.114 0 0 0-2.123 2.106c0 1.163.95 2.105 2.123 2.105m-17.385 8.625a2.113 2.113 0 0 0 2.122-2.105c0-1.164-.95-2.106-2.122-2.106a2.114 2.114 0 0 0-2.123 2.106c0 1.163.951 2.105 2.123 2.105m8.692 0a2.113 2.113 0 0 0 2.123-2.105c0-1.164-.95-2.106-2.123-2.106a2.113 2.113 0 0 0-2.122 2.106c0 1.163.95 2.105 2.122 2.105m8.693 0a2.113 2.113 0 0 0 2.122-2.105c0-1.164-.95-2.106-2.122-2.106a2.114 2.114 0 0 0-2.123 2.106c0 1.163.95 2.105 2.123 2.105m-17.385 8.622a2.114 2.114 0 0 0 2.122-2.106c0-1.163-.95-2.106-2.122-2.106a2.115 2.115 0 0 0-2.123 2.106c0 1.163.951 2.106 2.123 2.106m8.692 0a2.114 2.114 0 0 0 2.123-2.106c0-1.163-.95-2.106-2.123-2.106a2.114 2.114 0 0 0-2.122 2.106c0 1.163.95 2.106 2.122 2.106m8.693 0a2.114 2.114 0 0 0 2.122-2.106c0-1.163-.95-2.106-2.122-2.106a2.114 2.114 0 0 0-2.123 2.106c0 1.163.95 2.106 2.123 2.106"/><path fill="#949494" fill-rule="evenodd" d="M192.369 131.368c0-1.028.834-1.862 1.863-1.862h49.931a1.863 1.863 0 1 1 0 3.725h-49.931a1.863 1.863 0 0 1-1.863-1.863m0 8.625c0-1.028.834-1.862 1.863-1.862h49.931a1.863 1.863 0 1 1 0 3.725h-49.931a1.863 1.863 0 0 1-1.863-1.863m0 8.622c0-1.029.834-1.863 1.862-1.863h49.932a1.863 1.863 0 1 1 0 3.725h-49.932a1.86 1.86 0 0 1-1.862-1.862" clip-rule="evenodd"/><path fill="#949494" d="M161.988 133.474a2.114 2.114 0 0 0 2.122-2.106c0-1.163-.95-2.106-2.122-2.106a2.115 2.115 0 0 0-2.123 2.106c0 1.163.951 2.106 2.123 2.106m8.692 0a2.114 2.114 0 0 0 2.123-2.106c0-1.163-.95-2.106-2.123-2.106a2.114 2.114 0 0 0-2.122 2.106c0 1.163.95 2.106 2.122 2.106m8.693 0a2.114 2.114 0 0 0 2.122-2.106c0-1.163-.95-2.106-2.122-2.106a2.114 2.114 0 0 0-2.123 2.106c0 1.163.95 2.106 2.123 2.106m-17.385 8.625a2.114 2.114 0 0 0 2.122-2.106c0-1.163-.95-2.106-2.122-2.106a2.115 2.115 0 0 0-2.123 2.106c0 1.163.951 2.106 2.123 2.106m8.692 0a2.114 2.114 0 0 0 2.123-2.106c0-1.163-.95-2.106-2.123-2.106a2.114 2.114 0 0 0-2.122 2.106c0 1.163.95 2.106 2.122 2.106m8.693 0a2.114 2.114 0 0 0 2.122-2.106c0-1.163-.95-2.106-2.122-2.106a2.114 2.114 0 0 0-2.123 2.106c0 1.163.95 2.106 2.123 2.106m-17.385 8.625a2.114 2.114 0 0 0 2.122-2.106c0-1.163-.95-2.106-2.122-2.106a2.115 2.115 0 0 0-2.123 2.106c0 1.163.951 2.106 2.123 2.106m8.692 0a2.114 2.114 0 0 0 2.123-2.106c0-1.163-.95-2.106-2.123-2.106a2.114 2.114 0 0 0-2.122 2.106c0 1.163.95 2.106 2.122 2.106m8.693 0a2.114 2.114 0 0 0 2.122-2.106c0-1.163-.95-2.106-2.122-2.106a2.114 2.114 0 0 0-2.123 2.106c0 1.163.95 2.106 2.123 2.106"/><path fill="#949494" fill-rule="evenodd" d="M192.369 175.396c0-1.029.834-1.863 1.862-1.863h49.932a1.863 1.863 0 1 1 0 3.725h-49.932a1.86 1.86 0 0 1-1.862-1.862m0 8.523c0-1.028.834-1.862 1.862-1.862h31.132a1.862 1.862 0 1 1 0 3.725h-31.132a1.863 1.863 0 0 1-1.862-1.863m0 8.625c0-1.028.834-1.862 1.862-1.862h49.932a1.863 1.863 0 1 1 0 3.725h-49.932a1.863 1.863 0 0 1-1.862-1.863" clip-rule="evenodd"/><path fill="#949494" d="M161.988 177.501a2.114 2.114 0 0 0 2.122-2.106c0-1.163-.95-2.106-2.122-2.106a2.115 2.115 0 0 0-2.123 2.106c0 1.163.951 2.106 2.123 2.106m8.692 0a2.114 2.114 0 0 0 2.123-2.106c0-1.163-.95-2.106-2.123-2.106a2.114 2.114 0 0 0-2.122 2.106c0 1.163.95 2.106 2.122 2.106m8.693 0a2.114 2.114 0 0 0 2.122-2.106c0-1.163-.95-2.106-2.122-2.106a2.114 2.114 0 0 0-2.123 2.106c0 1.163.95 2.106 2.123 2.106m-17.385 8.523a2.114 2.114 0 0 0 2.122-2.106c0-1.163-.95-2.106-2.122-2.106a2.115 2.115 0 0 0-2.123 2.106c0 1.163.951 2.106 2.123 2.106m8.692 0a2.114 2.114 0 0 0 2.123-2.106c0-1.163-.95-2.106-2.123-2.106a2.114 2.114 0 0 0-2.122 2.106c0 1.163.95 2.106 2.122 2.106m8.693 0a2.114 2.114 0 0 0 2.122-2.106c0-1.163-.95-2.106-2.122-2.106a2.114 2.114 0 0 0-2.123 2.106c0 1.163.95 2.106 2.123 2.106m-17.385 8.625a2.114 2.114 0 0 0 2.122-2.106c0-1.163-.95-2.105-2.122-2.105a2.114 2.114 0 0 0-2.123 2.105c0 1.163.951 2.106 2.123 2.106m8.692 0a2.114 2.114 0 0 0 2.123-2.106c0-1.163-.95-2.105-2.123-2.105a2.113 2.113 0 0 0-2.122 2.105c0 1.163.95 2.106 2.122 2.106m8.693 0a2.114 2.114 0 0 0 2.122-2.106c0-1.163-.95-2.105-2.122-2.105a2.113 2.113 0 0 0-2.123 2.105c0 1.163.95 2.106 2.123 2.106"/><path fill="#949494" fill-rule="evenodd" d="M192.369 207.689c0-1.029.834-1.863 1.862-1.863h49.932a1.863 1.863 0 1 1 0 3.725h-49.932a1.86 1.86 0 0 1-1.862-1.862m0 8.625c0-1.029.834-1.863 1.862-1.863h49.932a1.863 1.863 0 1 1 0 3.725h-49.932a1.86 1.86 0 0 1-1.862-1.862m0 8.621c0-1.029.834-1.863 1.862-1.863h41.846a1.863 1.863 0 1 1 0 3.725h-41.846a1.86 1.86 0 0 1-1.862-1.862" clip-rule="evenodd"/><path fill="#949494" d="M161.988 209.79a2.114 2.114 0 0 0 2.122-2.106c0-1.163-.95-2.106-2.122-2.106a2.115 2.115 0 0 0-2.123 2.106c0 1.163.951 2.106 2.123 2.106m8.692 0a2.114 2.114 0 0 0 2.123-2.106c0-1.163-.95-2.106-2.123-2.106a2.114 2.114 0 0 0-2.122 2.106c0 1.163.95 2.106 2.122 2.106m8.693 0a2.114 2.114 0 0 0 2.122-2.106c0-1.163-.95-2.106-2.122-2.106a2.114 2.114 0 0 0-2.123 2.106c0 1.163.95 2.106 2.123 2.106m-17.385 8.625a2.114 2.114 0 0 0 2.122-2.106c0-1.163-.95-2.106-2.122-2.106a2.115 2.115 0 0 0-2.123 2.106c0 1.163.951 2.106 2.123 2.106m8.692 0a2.114 2.114 0 0 0 2.123-2.106c0-1.163-.95-2.106-2.123-2.106a2.114 2.114 0 0 0-2.122 2.106c0 1.163.95 2.106 2.122 2.106m8.693 0a2.114 2.114 0 0 0 2.122-2.106c0-1.163-.95-2.106-2.122-2.106a2.114 2.114 0 0 0-2.123 2.106c0 1.163.95 2.106 2.123 2.106m-17.385 8.625a2.114 2.114 0 0 0 2.122-2.106c0-1.163-.95-2.106-2.122-2.106a2.115 2.115 0 0 0-2.123 2.106c0 1.163.951 2.106 2.123 2.106m8.692 0a2.114 2.114 0 0 0 2.123-2.106c0-1.163-.95-2.106-2.123-2.106a2.114 2.114 0 0 0-2.122 2.106c0 1.163.95 2.106 2.122 2.106m8.693 0a2.114 2.114 0 0 0 2.122-2.106c0-1.163-.95-2.106-2.122-2.106a2.114 2.114 0 0 0-2.123 2.106c0 1.163.95 2.106 2.123 2.106"/><path fill="#949494" fill-rule="evenodd" d="M192.369 239.978c0-1.029.834-1.863 1.862-1.863h49.932a1.863 1.863 0 1 1 0 3.725h-49.932a1.86 1.86 0 0 1-1.862-1.862m0 8.625c0-1.029.834-1.863 1.862-1.863h49.932a1.863 1.863 0 1 1 0 3.725h-49.932a1.86 1.86 0 0 1-1.862-1.862m0 8.621c0-1.029.834-1.863 1.862-1.863h14.151a1.863 1.863 0 1 1 0 3.726h-14.151a1.863 1.863 0 0 1-1.862-1.863" clip-rule="evenodd"/><path fill="#949494" d="M161.988 242.079a2.114 2.114 0 0 0 2.122-2.106c0-1.163-.95-2.106-2.122-2.106a2.115 2.115 0 0 0-2.123 2.106c0 1.163.951 2.106 2.123 2.106m8.692 0a2.114 2.114 0 0 0 2.123-2.106c0-1.163-.95-2.106-2.123-2.106a2.114 2.114 0 0 0-2.122 2.106c0 1.163.95 2.106 2.122 2.106m8.693 0a2.114 2.114 0 0 0 2.122-2.106c0-1.163-.95-2.106-2.122-2.106a2.114 2.114 0 0 0-2.123 2.106c0 1.163.95 2.106 2.123 2.106m-17.385 8.625a2.114 2.114 0 0 0 2.122-2.106c0-1.163-.95-2.106-2.122-2.106a2.115 2.115 0 0 0-2.123 2.106c0 1.163.951 2.106 2.123 2.106m8.692 0a2.114 2.114 0 0 0 2.123-2.106c0-1.163-.95-2.106-2.123-2.106a2.114 2.114 0 0 0-2.122 2.106c0 1.163.95 2.106 2.122 2.106m8.693 0a2.114 2.114 0 0 0 2.122-2.106c0-1.163-.95-2.106-2.122-2.106a2.114 2.114 0 0 0-2.123 2.106c0 1.163.95 2.106 2.123 2.106m-17.385 8.629a2.114 2.114 0 0 0 2.122-2.106c0-1.163-.95-2.106-2.122-2.106a2.115 2.115 0 0 0-2.123 2.106c0 1.163.951 2.106 2.123 2.106m8.692 0a2.114 2.114 0 0 0 2.123-2.106c0-1.163-.95-2.106-2.123-2.106a2.114 2.114 0 0 0-2.122 2.106c0 1.163.95 2.106 2.122 2.106m8.693 0a2.114 2.114 0 0 0 2.122-2.106c0-1.163-.95-2.106-2.122-2.106a2.114 2.114 0 0 0-2.123 2.106c0 1.163.95 2.106 2.123 2.106"/><path fill="#FFD28D" d="M43.526 161.051c-7.379 2.908-28.2 14.44-28.2 27.577 0 3.71 2.223 8.123 17.182 6.217 27.392-3.509 78.739-1.805 78.739-1.805l58.523-4.613z"/><path fill="#FFBE5C" d="m17.65 192.541 55.693-7.721c1.415-.201 2.628-2.507 2.628-5.014V61.976c0-2.507-2.729-3.51-4.245-3.11L17.65 76.919c-1.213.4-2.224 2.607-2.224 5.013v106.8c-.1 2.306.91 4.011 2.224 3.81"/><path fill="#FFD28D" d="m169.872 188.328-96.528-3.711c-2.527-.1-4.549-2.206-4.549-4.613V62.676c0-2.507 2.022-4.212 4.549-3.911l96.528 11.933c2.122.301 3.942 2.307 3.942 4.613v109.106c0 2.206-1.719 4.011-3.942 3.911"/><path fill="#FFBE5C" fill-rule="evenodd" d="M173.614 112.902 68.696 102.373l.4-3.98 104.917 10.529z" clip-rule="evenodd"/><path fill="#D3823D" fill-rule="evenodd" d="M82.475 73.069a2 2 0 0 1 2.223-1.75l76.717 9.125a2 2 0 1 1-.473 3.972l-76.717-9.125a2 2 0 0 1-1.75-2.222m-.005 45.074a2 2 0 0 1 2.176-1.806l76.717 7.12a2 2 0 1 1-.369 3.983l-76.717-7.12a2 2 0 0 1-1.807-2.177m-.006 42.4a2 2 0 0 1 2.107-1.887l76.717 4.211a2 2 0 0 1-.219 3.994l-76.717-4.211a2 2 0 0 1-1.888-2.107" clip-rule="evenodd"/><path fill="#FFBE5C" fill-rule="evenodd" d="M173.678 152.72 66.941 145.5l.27-3.991 106.737 7.22zm.068 36.206-106.737-3.61.135-3.998 106.737 3.61z" clip-rule="evenodd"/><path fill="#FFBE5C" d="m17.65 312.976 55.997 6.117c1.415.1 2.628-1.906 2.628-4.413V193.541c0-2.507-1.213-4.513-2.628-4.412l-55.997 7.42c-1.213.101-2.325 2.106-2.325 4.413v107.501c0 2.407 1.011 4.412 2.325 4.513"/><path fill="#FFD28D" d="m170.883 314.881-97.135 4.212c-2.527.1-4.549-1.906-4.549-4.413V193.541c0-2.507 2.022-4.513 4.549-4.412l97.135 4.211c2.223.101 3.941 2.106 3.941 4.413v112.615c.102 2.407-1.718 4.413-3.941 4.513"/><path fill="#FFBE5C" fill-rule="evenodd" d="M174.886 236.555 69.16 234.449l.08-3.999 105.725 2.106zm.067 41.117-107.545 1.504-.056-4 107.546-1.504z" clip-rule="evenodd"/><path fill="#D3823D" fill-rule="evenodd" d="M82.463 202.691a2 2 0 0 1 2.076-1.92l76.92 3.009a2 2 0 1 1-.157 3.996l-76.919-3.008a2 2 0 0 1-1.92-2.077m-.002 45.082a2 2 0 0 1 2.024-1.977l76.919.903a2 2 0 0 1-.047 4l-76.92-.903a2 2 0 0 1-1.976-2.023m80.919 40.183a2 2 0 0 1-1.947 2.051l-76.92 2.006a2 2 0 1 1-.104-3.999l76.919-2.005a2 2 0 0 1 2.052 1.947" clip-rule="evenodd"/><path fill="#FFBE5C" d="m122.567 324.808 70.754 7.722c1.819.1 3.336-2.407 3.336-5.616V173.986c0-3.209-1.517-5.716-3.336-5.616l-70.754 9.326c-1.617.1-2.83 2.608-2.83 5.616v135.78c0 3.109 1.314 5.616 2.83 5.716"/><path fill="#FFD28D" d="m316.129 327.215-122.606 5.315c-3.133.1-5.761-2.407-5.761-5.616V173.986c0-3.209 2.527-5.716 5.761-5.616l122.606 5.315c2.729.1 4.953 2.607 4.953 5.616v142.198c0 3.109-2.224 5.616-4.953 5.716"/><path fill="#FFBE5C" fill-rule="evenodd" d="m321.043 227.83-133.32-2.608.078-3.999 133.32 2.607zm.065 51.943-135.645 1.805-.053-3.999 135.645-1.805z" clip-rule="evenodd"/><path fill="#FFF" d="M206.765 186.421c0 1.805-1.314 3.309-3.033 3.209s-3.032-1.705-3.032-3.51 1.415-3.309 3.032-3.209c1.618.1 3.033 1.705 3.033 3.51"/><path fill="#E7AD55" fill-rule="evenodd" d="M217.579 190.431c1.718 0 3.032-1.404 3.032-3.209 0-1.905-1.314-3.41-3.032-3.51s-3.032 1.304-3.032 3.209 1.415 3.41 3.032 3.51m13.645.604c1.617.1 2.931-1.304 2.931-3.109s-1.314-3.309-2.931-3.409c-1.617-.101-2.931 1.303-2.931 3.108s1.314 3.31 2.931 3.41m13.444.699c1.516.101 2.83-1.303 2.83-3.108s-1.314-3.31-2.83-3.41-2.83 1.304-2.83 3.109 1.213 3.309 2.83 3.409m13.039.703c1.617.101 2.83-1.303 2.83-3.108 0-1.705-1.314-3.209-2.83-3.41-1.516-.1-2.83 1.304-2.83 3.109s1.314 3.309 2.83 3.409m15.566-2.407c0 1.805-1.213 3.108-2.73 3.008s-2.729-1.605-2.729-3.309c0-1.805 1.213-3.109 2.729-3.009s2.73 1.605 2.73 3.31m9.804 3.711c1.516.1 2.729-1.304 2.729-3.008 0-1.705-1.213-3.209-2.729-3.31s-2.729 1.204-2.729 3.009c0 1.705 1.213 3.209 2.729 3.309m15.061-2.309c0 1.704-1.213 3.108-2.628 3.008-1.516-.1-2.628-1.504-2.628-3.309 0-1.705 1.213-3.109 2.628-3.009s2.628 1.605 2.628 3.31m9.399 3.711c1.415 0 2.628-1.303 2.628-3.008 0-1.805-1.112-3.209-2.628-3.209-1.415 0-2.628 1.303-2.628 3.008s1.213 3.109 2.628 3.209" clip-rule="evenodd"/><path fill="#FFF" fill-rule="evenodd" d="M203.732 245.285c1.719 0 3.033-1.504 3.033-3.309 0-1.905-1.415-3.41-3.033-3.41s-3.032 1.404-3.032 3.31c0 1.905 1.314 3.409 3.032 3.409m13.848.102c1.718 0 3.032-1.504 3.032-3.309s-1.314-3.31-3.032-3.41c-1.718 0-3.032 1.404-3.032 3.309s1.415 3.41 3.032 3.41" clip-rule="evenodd"/><path fill="#E7AD55" fill-rule="evenodd" d="M234.156 242.279c0 1.805-1.314 3.309-2.931 3.209-1.617 0-2.931-1.504-2.931-3.309s1.314-3.31 2.931-3.209c1.617 0 2.931 1.504 2.931 3.309m13.342.198c0 1.805-1.314 3.209-2.83 3.209-1.617 0-2.83-1.504-2.83-3.309s1.314-3.209 2.83-3.209c1.516.1 2.83 1.504 2.83 3.309m10.209 3.412c1.617 0 2.83-1.404 2.83-3.209s-1.314-3.209-2.83-3.309c-1.516 0-2.83 1.404-2.83 3.209s1.314 3.309 2.83 3.309m12.837.201c1.516 0 2.729-1.404 2.729-3.209s-1.213-3.209-2.729-3.209-2.729 1.404-2.729 3.209c0 1.705 1.213 3.209 2.729 3.209m12.533.099c1.516 0 2.729-1.404 2.729-3.109 0-1.805-1.213-3.209-2.729-3.209s-2.729 1.304-2.729 3.109 1.213 3.209 2.729 3.209m15.061-3.007c0 1.704-1.213 3.108-2.628 3.108-1.516 0-2.628-1.404-2.628-3.209 0-1.704 1.213-3.108 2.628-3.108 1.415.1 2.628 1.504 2.628 3.209m9.399 3.309c1.415 0 2.628-1.404 2.628-3.109s-1.111-3.109-2.628-3.109c-1.415 0-2.628 1.404-2.628 3.109s1.213 3.109 2.628 3.109" clip-rule="evenodd"/><path fill="#FFF" d="M206.765 297.434c0 1.805-1.314 3.41-3.033 3.41s-3.032-1.404-3.032-3.309 1.415-3.41 3.032-3.41c1.618 0 3.033 1.404 3.033 3.309"/><path fill="#E7AD55" fill-rule="evenodd" d="M244.669 299.639c1.516 0 2.83-1.504 2.83-3.309s-1.314-3.209-2.83-3.209-2.83 1.504-2.83 3.309 1.212 3.209 2.83 3.209m-10.513-2.91c0 1.805-1.314 3.31-2.931 3.41-1.617 0-2.931-1.404-2.931-3.209s1.314-3.309 2.931-3.41 2.931 1.404 2.931 3.209m-13.544.301c0 1.805-1.314 3.41-3.032 3.41-1.617 0-3.032-1.404-3.032-3.209s1.314-3.41 3.032-3.41c1.718-.1 3.032 1.404 3.032 3.209m86.926.805c1.415-.101 2.628-1.505 2.628-3.209s-1.112-3.009-2.628-3.009c-1.415.1-2.628 1.504-2.628 3.209s1.213 3.009 2.628 3.009m-9.4-2.808c0 1.704-1.213 3.209-2.628 3.209-1.516 0-2.628-1.304-2.628-3.109s1.213-3.209 2.628-3.209 2.628 1.304 2.628 3.109m-15.061 3.509c1.516 0 2.729-1.504 2.729-3.209 0-1.704-1.213-3.108-2.729-3.108s-2.729 1.404-2.729 3.209 1.213 3.108 2.729 3.108m-9.804-2.908c0 1.805-1.213 3.209-2.729 3.309-1.516 0-2.729-1.403-2.729-3.108 0-1.805 1.213-3.209 2.729-3.309 1.516 0 2.729 1.403 2.729 3.108m-12.736.404c0 1.805-1.213 3.309-2.83 3.309-1.516 0-2.83-1.404-2.83-3.109 0-1.805 1.314-3.309 2.83-3.309 1.516-.1 2.83 1.304 2.83 3.109" clip-rule="evenodd"/><path fill="#FFD28D" fill-rule="evenodd" d="M29.981 90.756c0 1.805 1.415 3.21 3.134 2.908 1.718-.2 3.133-1.905 3.133-3.81s-1.415-3.21-3.133-2.909c-1.719.201-3.134 1.906-3.134 3.811m0 37.606c0 1.805 1.415 3.209 3.134 2.908 1.718-.201 3.133-1.906 3.133-3.811s-1.415-3.209-3.133-2.908c-1.719.301-3.134 2.006-3.134 3.811m3.134 40.615c-1.719.301-3.134-1.103-3.134-2.908s1.415-3.51 3.134-3.811 3.133 1.003 3.133 2.908-1.415 3.61-3.133 3.811m-3.134 47.826c0 1.805 1.415 3.209 3.134 2.908 1.718-.2 3.133-1.905 3.133-3.81s-1.415-3.209-3.133-2.909c-1.719.301-3.134 2.006-3.134 3.811m0 37.707c0 1.805 1.415 3.209 3.134 2.908 1.718-.2 3.133-1.905 3.133-3.81s-1.415-3.209-3.133-2.909c-1.719.301-3.134 2.006-3.134 3.811m3.134 40.611c-1.719.301-3.134-1.103-3.134-2.908 0-1.905 1.415-3.51 3.134-3.81s3.133 1.002 3.133 2.908-1.415 3.61-3.133 3.81m100.874-93.255c0 2.407 1.82 4.112 4.043 3.811 2.224-.301 4.144-2.507 4.144-4.914s-1.819-4.111-4.144-3.811c-2.223.301-4.043 2.507-4.043 4.914m0 49.438c0 2.406 1.82 4.111 4.043 3.81 2.224-.301 4.144-2.507 4.144-4.913s-1.819-4.112-4.144-3.811c-2.223.301-4.043 2.507-4.043 4.914m4.043 53.252c-2.223.301-4.043-1.404-4.043-3.811s1.82-4.613 4.043-4.914c2.325-.301 4.144 1.404 4.144 3.811s-1.92 4.613-4.144 4.914" clip-rule="evenodd"/><path fill="#949494" fill-rule="evenodd" d="M.792 95.364c0-5.077 4.328-9.102 9.43-8.713l22.237 1.705a2 2 0 1 1-.306 3.988L9.918 90.64c-2.781-.213-5.125 1.98-5.125 4.724v207.08a2 2 0 1 1-4 0z" clip-rule="evenodd"/><path fill="#949494" fill-rule="evenodd" d="M.792 132.97c0-5.077 4.328-9.103 9.43-8.713l22.237 1.704a2 2 0 0 1-.306 3.989l-22.236-1.705c-2.781-.212-5.125 1.98-5.125 4.725v92.057a2 2 0 1 1-4 0z" clip-rule="evenodd"/><path fill="#949494" fill-rule="evenodd" d="M10.18 163.062c-5.084-.364-9.388 3.653-9.388 8.716v76.314a2 2 0 0 0 4 0v-76.314c0-2.745 2.343-4.937 5.125-4.724l.08.004 22.237.802a2 2 0 1 0 .145-3.997z" clip-rule="evenodd"/><path fill="#949494" fill-rule="evenodd" d="M34.306 215.991a2 2 0 0 1-1.99 2.009l-22.238.1a2 2 0 0 1-.16-.006c-2.783-.212-5.126 1.98-5.126 4.725v76.314a2 2 0 0 1-4 0v-76.314c0-5.048 4.28-9.057 9.344-8.719l22.161-.1a2 2 0 0 1 2.01 1.991" clip-rule="evenodd"/><path fill="#949494" fill-rule="evenodd" d="M34.306 254.003a2 2 0 0 1-1.99 2.009l-22.238.1q-.08 0-.16-.006c-2.783-.212-5.126 1.98-5.126 4.725v49.037a2 2 0 1 1-4 0v-49.037c0-5.049 4.28-9.057 9.344-8.719l22.161-.1a2 2 0 0 1 2.01 1.991" clip-rule="evenodd"/><path fill="#949494" fill-rule="evenodd" d="M34.306 292.007a2 2 0 0 1-1.99 2.009l-22.238.1q-.08 0-.16-.006c-2.783-.212-5.126 1.98-5.126 4.725v16.045a2 2 0 0 1-4 0v-16.045c0-5.049 4.28-9.058 9.344-8.719l22.161-.1a2 2 0 0 1 2.01 1.991" clip-rule="evenodd"/><path fill="#949494" fill-rule="evenodd" d="M139.224 201.141a2 2 0 0 1-1.981 2.019l-20.503.2-.007.001c-4.803.085-8.641 3.941-8.641 8.629v121.942c0 2.078-.569 4.449-2.494 6.122-1.929 1.677-4.774 2.269-8.463 1.777-3.416-.455-25.611-3.895-47.262-7.302a9162 9162 0 0 1-29.73-4.721c-8.057-1.296-13.826-2.247-14.686-2.456l-.013-.003.481-1.941-.465 1.945-.003-.001c-2.313-.555-3.532-2.182-4.102-3.967-.526-1.642-.563-3.573-.563-5.197v-5.716a2 2 0 1 1 4 0v5.716c0 1.685.064 3.014.372 3.979.263.821.61 1.149 1.227 1.296l.016.004.01.002.018.004.08.017.273.053q.34.064.902.163c.749.132 1.77.305 3.03.514 2.516.419 5.97.981 10.058 1.639a9242 9242 0 0 0 29.717 4.719c21.686 3.412 43.813 6.841 47.169 7.288 3.084.411 4.584-.2 5.309-.83.728-.633 1.119-1.672 1.119-3.104V211.99c0-6.941 5.66-12.511 12.579-12.629h.015l20.518-.201a2 2 0 0 1 2.02 1.981" clip-rule="evenodd"/><path fill="#949494" fill-rule="evenodd" d="M139.123 250.777a2 2 0 0 1-1.98 2.02l-20.511.2c-4.803.086-8.64 3.942-8.64 8.63v29.282a2 2 0 0 1-4 0v-29.282c0-6.942 5.66-12.511 12.578-12.629h.015l20.519-.201a2 2 0 0 1 2.019 1.98m0 49.743a2 2 0 0 1-1.98 2.019l-20.504.2h-.007c-4.803.086-8.641 3.942-8.641 8.63v15.243a2 2 0 1 1-4 0v-15.243c0-6.941 5.66-12.511 12.579-12.629h.015l20.518-.201a2 2 0 0 1 2.02 1.981" clip-rule="evenodd"/></svg>