<svg xmlns="http://www.w3.org/2000/svg" width="400" height="400" fill="none" viewBox="0 0 400 400"><path fill="#433F43" d="M201.749 67.049c0-7.789-6.298-14.179-14.196-14.179H37.196C29.398 52.87 23 59.16 23 67.05v227.457c0 7.788 6.298 14.179 14.196 14.179h290.918c7.797 0 14.196-6.291 14.196-14.179v-199.1c0-7.788-6.299-14.179-14.196-14.179H215.845c-7.697 0-14.096-6.29-14.096-14.178"/><path stroke="#999" stroke-linecap="round" stroke-linejoin="round" stroke-width="4" d="M347.408 71.544c10.38 0 18.795-8.405 18.795-18.772 0-10.368-8.415-18.772-18.795-18.772s-18.795 8.404-18.795 18.772 8.415 18.771 18.795 18.771" clip-rule="evenodd"/><path fill="#999" d="M362.318 65.434a2 2 0 0 0-2.827 2.83zm12.269 17.907a2 2 0 1 0 2.826-2.83zM98.679 126.958a2 2 0 0 0-4 0zm-4 8.687a2 2 0 1 0 4 0zm4 19.571a2 2 0 1 0-4 0zm-4 10.883a2 2 0 1 0 4 0zm21.595-17.57a2 2 0 0 0 0-4zm-8.798-4a2 2 0 0 0 0 4zm-21.694 4a2 2 0 0 0 0-4zm-8.698-4a2 2 0 1 0 0 4zm282.407-76.265 15.096 15.077 2.826-2.83-15.095-15.077zM94.679 126.958v8.687h4v-8.687zm0 28.258v10.883h4v-10.883zm21.595-10.687h-8.798v4h8.798zm-30.492 0h-8.698v4h8.698z"/><path stroke="#999" stroke-linecap="round" stroke-linejoin="round" stroke-width="4" d="M269.83 366H76.485c-9.997 0-18.195-8.188-18.195-18.173V222.616c0-9.985 8.198-18.173 18.195-18.173H269.83c9.997 0 18.195 8.188 18.195 18.173v125.211c0 9.985-8.198 18.173-18.195 18.173" clip-rule="evenodd"/><path fill="#999" d="M76.985 227.91a5.196 5.196 0 0 0 5.198-5.193 5.196 5.196 0 0 0-5.198-5.192 5.196 5.196 0 0 0-5.199 5.192 5.196 5.196 0 0 0 5.199 5.193m16.895 0a5.196 5.196 0 0 0 5.198-5.193 5.196 5.196 0 0 0-5.199-5.192 5.196 5.196 0 0 0-5.198 5.192 5.196 5.196 0 0 0 5.198 5.193m16.896 0a5.195 5.195 0 0 0 5.198-5.193 5.195 5.195 0 0 0-5.198-5.192 5.196 5.196 0 0 0-5.199 5.192 5.196 5.196 0 0 0 5.199 5.193"/><path stroke="#999" stroke-linecap="round" stroke-linejoin="round" stroke-width="4" d="M58.49 241.188h228.835"/><path fill="#FFD493" d="M158.262 130.055v158.462c0 39.94 18.195 43.035 26.392 43.035 8.198 0 161.055-4.194 161.055-4.194s-23.694-15.676-23.694-52.321V103.795l-134.362-4.393z"/><path fill="#FFBE5C" fill-rule="evenodd" d="m185.154 130.656-26.892-.599 29.691-30.554v28.258c0 1.597-1.299 2.895-2.799 2.895m23.993 177.135s.8 19.87-24.493 23.764c13.093 0 51.421-1.17 87.593-2.273 32.321-.987 62.921-1.921 72.261-1.921 19.795 0 23.694-24.063 23.694-24.063z" clip-rule="evenodd"/><path fill="#DD7E10" fill-rule="evenodd" d="M278.328 197.753c1.9-3.794 2.799-8.487 2.799-14.178 0-4.494-.7-8.687-2.199-12.781-1.5-3.894-3.599-7.389-6.498-10.285s-6.598-5.192-11.197-6.889-9.997-2.496-16.295-2.496-11.297.599-15.096 1.897-6.998 2.696-9.498 3.994v12.281q2.85-1.797 8.398-3.894c3.699-1.298 8.598-1.997 14.796-1.997 4.998 0 8.997.499 12.096 1.697 3.1 1.099 5.499 2.696 7.198 4.494s2.8 3.894 3.399 6.29.9 4.893.9 7.389c0 4.393-.9 7.988-2.599 10.784q-2.55 4.194-6.598 7.189c-2.699 1.997-5.599 3.794-8.598 5.392-3.099 1.697-5.898 3.495-8.597 5.691-2.7 2.197-4.899 4.793-6.598 7.988-1.7 3.196-2.6 7.289-2.6 12.282v2.696h11.797v-2.796c0-2.996.9-5.592 2.799-7.688a31.4 31.4 0 0 1 6.998-5.792c2.799-1.797 5.799-3.494 9.098-5.292 3.299-1.697 6.298-3.894 9.097-6.49 2.799-2.496 5.099-5.691 6.998-9.486m-47.386 65.801c1.799 1.897 4.198 2.796 6.998 2.796s5.198-.899 6.998-2.796c1.899-1.897 2.799-4.193 2.799-6.889s-1-4.993-2.799-6.89c-1.8-1.897-4.199-2.796-6.998-2.796s-5.199.899-6.998 2.796c-1.9 1.897-2.8 4.194-2.8 6.89 0 2.795 1 5.092 2.8 6.889" clip-rule="evenodd"/></svg>