<svg xmlns="http://www.w3.org/2000/svg" width="356" height="336" fill="none" viewBox="0 0 356 336"><path fill="#F2F2F2" d="M179.541 35.049c0-7.788-6.298-14.179-14.196-14.179H14.988C7.19 20.87.792 27.16.792 35.05v227.457c0 7.788 6.298 14.179 14.196 14.179h290.918c7.797 0 14.196-6.291 14.196-14.179v-199.1c0-7.788-6.299-14.179-14.196-14.179H193.637c-7.697 0-14.096-6.29-14.096-14.178"/><path fill="#8C8C8C" fill-rule="evenodd" d="M304.405 20.772C304.405 9.298 313.718 0 325.2 0s20.795 9.298 20.795 20.772-9.313 20.772-20.795 20.772-20.795-9.298-20.795-20.772M325.2 4c-9.278 0-16.795 7.511-16.795 16.772s7.517 16.772 16.795 16.772 16.795-7.512 16.795-16.772S334.478 4 325.2 4" clip-rule="evenodd"/><path fill="#8C8C8C" fill-rule="evenodd" d="M337.281 33.435a2 2 0 0 1 2.829-.001l15.095 15.077a2 2 0 1 1-2.826 2.83l-15.096-15.077a2 2 0 0 1-.002-2.829M74.471 92.958a2 2 0 0 1 2 2v8.687a2 2 0 1 1-4 0v-8.687a2 2 0 0 1 2-2M52.876 114.53a2 2 0 0 1 2-2h8.698a2 2 0 1 1 0 4h-8.698a2 2 0 0 1-2-2m30.392 0a2 2 0 0 1 2-2h8.798a2 2 0 1 1 0 4h-8.798a2 2 0 0 1-2-2m-8.797 6.687a2 2 0 0 1 2 2V134.1a2 2 0 1 1-4 0v-10.883a2 2 0 0 1 2-2m-20.194 53.226c-8.895 0-16.195 7.295-16.195 16.173v125.211c0 8.879 7.3 16.173 16.195 16.173h193.345c8.895 0 16.195-7.294 16.195-16.173V190.616c0-8.878-7.3-16.173-16.195-16.173zm-20.195 16.173c0-11.092 9.095-20.173 20.195-20.173h193.345c11.1 0 20.195 9.081 20.195 20.173v125.211c0 11.092-9.095 20.173-20.195 20.173H54.277c-11.1 0-20.195-9.081-20.195-20.173z" clip-rule="evenodd"/><path fill="#8C8C8C" d="M54.777 195.91a5.196 5.196 0 0 0 5.198-5.192 5.196 5.196 0 0 0-5.198-5.193 5.196 5.196 0 0 0-5.199 5.193 5.196 5.196 0 0 0 5.199 5.192m16.894 0a5.196 5.196 0 0 0 5.199-5.192 5.196 5.196 0 0 0-5.199-5.193 5.196 5.196 0 0 0-5.198 5.193 5.196 5.196 0 0 0 5.198 5.192m16.896 0a5.196 5.196 0 0 0 5.199-5.192 5.196 5.196 0 0 0-5.2-5.193 5.196 5.196 0 0 0-5.198 5.193 5.196 5.196 0 0 0 5.199 5.192"/><path fill="#8C8C8C" fill-rule="evenodd" d="M34.282 209.188a2 2 0 0 1 2-2h228.835a2 2 0 0 1 0 4H36.282a2 2 0 0 1-2-2" clip-rule="evenodd"/><path fill="#FFD89D" d="M136.054 98.055v158.462c0 39.939 18.195 43.035 26.392 43.035 8.198 0 161.055-4.194 161.055-4.194s-23.694-15.676-23.694-52.321V71.795L165.445 67.4z"/><path fill="#FFBE5C" fill-rule="evenodd" d="m162.946 98.656-26.892-.6 29.691-30.553V95.76c0 1.598-1.299 2.896-2.799 2.896m23.993 177.135s.8 19.87-24.493 23.764c13.093 0 51.421-1.17 87.593-2.273 32.321-.987 62.921-1.921 72.261-1.921 19.795 0 23.694-24.063 23.694-24.063z" clip-rule="evenodd"/><path fill="#D06304" fill-rule="evenodd" d="M256.12 165.754c1.9-3.794 2.799-8.487 2.799-14.179 0-4.493-.7-8.687-2.199-12.781-1.5-3.894-3.599-7.388-6.498-10.284s-6.598-5.192-11.197-6.89-9.997-2.496-16.295-2.496-11.297.599-15.096 1.897-6.998 2.696-9.498 3.994v12.282q2.85-1.798 8.398-3.894c3.699-1.299 8.598-1.997 14.796-1.997 4.998 0 8.997.499 12.096 1.697 3.1 1.098 5.499 2.696 7.198 4.493s2.8 3.894 3.399 6.291c.6 2.396.9 4.892.9 7.389 0 4.393-.9 7.988-2.599 10.783q-2.55 4.194-6.598 7.19c-2.699 1.997-5.599 3.794-8.598 5.391-3.099 1.698-5.898 3.495-8.597 5.692-2.7 2.197-4.899 4.793-6.598 7.988-1.7 3.195-2.6 7.289-2.6 12.281v2.696h11.797v-2.796c0-2.995.9-5.591 2.799-7.688a31.3 31.3 0 0 1 6.998-5.791c2.799-1.798 5.799-3.495 9.098-5.292 3.299-1.698 6.298-3.894 9.097-6.49 2.799-2.497 5.099-5.692 6.998-9.486m-47.386 65.801c1.799 1.897 4.198 2.796 6.998 2.796s5.198-.899 6.998-2.796c1.899-1.897 2.799-4.194 2.799-6.89s-1-4.992-2.799-6.89c-1.8-1.897-4.199-2.795-6.998-2.795s-5.199.898-6.998 2.795c-1.9 1.898-2.8 4.194-2.8 6.89 0 2.796 1 5.092 2.8 6.89" clip-rule="evenodd"/></svg>