<svg xmlns="http://www.w3.org/2000/svg" width="383" height="395" fill="none" viewBox="0 0 383 395"><path fill="#F2F2F2" fill-rule="evenodd" d="M307.51 168.157c9.389-14.196 14.083-32.591 14.083-55.286 0-34.39-11.686-61.884-35.256-82.179C262.966 10.197 223.415 0 179.769 0c-13.083 0-24.07.9-34.756 2.7q-16.031 2.698-28.165 6.298c-5.394 1.6-16.08 5.698-23.272 8.598-4.094 1.7-6.89 5.998-6.89 10.797v39.49c0 8.198 7.79 13.796 14.881 10.497l1.803-.818c2.364-1.074 4.446-2.02 5.887-2.581 5.693-2.3 12.385-4.199 20.075-5.798s16.28-2.4 25.668-2.4c22.173 0 43.047 4.999 52.235 14.896q13.783 14.997 13.783 37.491c0 12.997-2.697 24.094-8.19 33.191s-13.084 17.996-22.871 26.494a1003 1003 0 0 0-21.973 19.795 110.4 110.4 0 0 0-17.478 20.694c-4.894 7.499-8.69 15.996-11.286 25.294-1.598 5.599-2.697 20.295-3.296 30.992-.3 6.599 4.494 12.197 10.687 12.197h51.136c5.393 0 9.988-4.399 10.587-10.197.599-5.699 1.997-12.497 5.493-17.796 3.995-5.898 8.689-11.797 14.682-17.295 5.992-5.499 12.984-10.998 20.874-16.696 7.99-5.599 16.18-12.097 24.869-19.395 12.784-11.397 23.87-24.094 33.258-38.291M140.119 380.804c8.988 9.497 20.075 14.196 33.358 14.196 6.292 0 12.385-1.3 18.178-3.999 5.792-2.599 10.886-5.998 15.181-10.297 4.294-4.299 7.69-9.398 10.187-15.197s3.695-12.096 3.695-18.995c0-6.798-1.198-13.196-3.695-18.995a51.7 51.7 0 0 0-10.187-15.396c-4.295-4.499-9.389-7.898-15.181-10.297-5.793-2.4-11.886-3.599-18.178-3.599-13.283 0-24.37 4.598-33.358 13.896q-13.484 13.947-13.484 34.491 0 20.095 13.484 34.192" clip-rule="evenodd"/><path fill="#8C8C8C" fill-rule="evenodd" d="M20.967 192.951q-.918 0-1.81.102a2 2 0 0 1-.448-3.974 20 20 0 0 1 2.258-.127h1.972a1.999 1.999 0 0 1 0 3.999zm9.835-1.999c0-1.105.894-2 1.997-2h3.944c1.103 0 1.998.895 1.998 2a2 2 0 0 1-1.998 1.999H32.8a2 2 0 0 1-1.997-1.999m13.804 0c0-1.105.894-2 1.997-2h3.944c1.104 0 1.998.895 1.998 2a2 2 0 0 1-1.998 1.999h-3.944a2 2 0 0 1-1.997-1.999m13.804 0c0-1.105.895-2 1.998-2h3.944c1.103 0 1.997.895 1.997 2a2 2 0 0 1-1.997 1.999h-3.944a2 2 0 0 1-1.998-1.999m13.804 0c0-1.105.895-2 1.998-2h3.944c1.103 0 1.997.895 1.997 2a2 2 0 0 1-1.997 1.999h-3.944a2 2 0 0 1-1.998-1.999m13.805 0c0-1.105.894-2 1.997-2h3.944a1.999 1.999 0 0 1 0 3.999h-3.944a2 2 0 0 1-1.997-1.999m13.804 0c0-1.105.894-2 1.997-2h3.945c1.103 0 1.997.895 1.997 2a2 2 0 0 1-1.997 1.999h-3.945a2 2 0 0 1-1.997-1.999m13.804 0c0-1.105.895-2 1.998-2h3.944c1.103 0 1.997.895 1.997 2a2 2 0 0 1-1.997 1.999h-3.944a2 2 0 0 1-1.998-1.999m13.804 0c0-1.105.895-2 1.998-2h3.944a1.999 1.999 0 0 1 0 3.999h-3.944a2 2 0 0 1-1.998-1.999m13.805 0c0-1.105.894-2 1.997-2h3.944c1.104 0 1.998.895 1.998 2a2 2 0 0 1-1.998 1.999h-3.944a2 2 0 0 1-1.997-1.999m13.804 0c0-1.105.894-2 1.998-2h3.944c1.103 0 1.997.895 1.997 2a2 2 0 0 1-1.997 1.999h-3.944a2 2 0 0 1-1.998-1.999m13.804 0c0-1.105.895-2 1.998-2h3.944c1.103 0 1.997.895 1.997 2a2 2 0 0 1-1.997 1.999h-3.944a2 2 0 0 1-1.998-1.999m13.805 0c0-1.105.894-2 1.997-2h3.944a1.999 1.999 0 0 1 0 3.999h-3.944a2 2 0 0 1-1.997-1.999m13.804 0c0-1.105.894-2 1.997-2h3.944c1.104 0 1.998.895 1.998 2a2 2 0 0 1-1.998 1.999h-3.944a2 2 0 0 1-1.997-1.999m13.804 0c0-1.105.894-2 1.998-2h1.972q1.144 0 2.258.127a1.999 1.999 0 0 1-.448 3.974 16 16 0 0 0-1.81-.102h-1.972a2 2 0 0 1-1.998-1.999m13.726 2.739a1.997 1.997 0 0 1 2.808-.312 20.5 20.5 0 0 1 3.188 3.191c.689.862.55 2.121-.312 2.811-.861.69-2.118.55-2.807-.312a16.5 16.5 0 0 0-2.565-2.568 2 2 0 0 1-.312-2.81m-212.773 0a2 2 0 0 1-.311 2.81 16.5 16.5 0 0 0-2.565 2.568 1.996 1.996 0 0 1-2.808.312c-.861-.69-1-1.949-.311-2.811a20.5 20.5 0 0 1 3.188-3.191 1.996 1.996 0 0 1 2.807.312m220.855 11.433a2 2 0 0 1 2.21 1.762q.125 1.115.126 2.261v1.99c0 1.104-.894 2-1.997 2a2 2 0 0 1-1.998-2v-1.99q0-.92-.101-1.812a2 2 0 0 1 1.76-2.211m-228.937 0a2 2 0 0 1 1.76 2.211 16 16 0 0 0-.101 1.812v1.99a1.998 1.998 0 1 1-3.995 0v-1.99q0-1.146.127-2.261a2 2 0 0 1 2.21-1.762m-.338 13.963a2 2 0 0 1 1.997 2v3.98a1.998 1.998 0 1 1-3.995 0v-3.98a2 2 0 0 1 1.998-2m229.614 0c1.103 0 1.997.896 1.997 2v3.98a1.998 1.998 0 1 1-3.995 0v-3.98a2 2 0 0 1 1.998-2M2.79 233.017c1.103 0 1.997.895 1.997 2v3.98a1.998 1.998 0 1 1-3.995 0v-3.98c0-1.105.894-2 1.998-2m229.614 0c1.103 0 1.997.895 1.997 2v3.98a1.998 1.998 0 1 1-3.995 0v-3.98c0-1.105.895-2 1.998-2M2.79 246.947c1.103 0 1.997.895 1.997 1.999v3.98a1.998 1.998 0 1 1-3.995 0v-3.98c0-1.104.894-1.999 1.998-1.999m229.614 0c1.103 0 1.997.895 1.997 1.999v3.98a1.998 1.998 0 1 1-3.995 0v-3.98c0-1.104.895-1.999 1.998-1.999M2.79 260.877c1.103 0 1.997.895 1.997 1.999v3.98a1.998 1.998 0 1 1-3.995 0v-3.98c0-1.104.894-1.999 1.998-1.999m229.614 0c1.103 0 1.997.895 1.997 1.999v3.98a1.998 1.998 0 1 1-3.995 0v-3.98c0-1.104.895-1.999 1.998-1.999M2.79 274.807c1.103 0 1.997.895 1.997 1.999v3.98a2 2 0 0 1-1.997 2 2 2 0 0 1-1.998-2v-3.98c0-1.104.894-1.999 1.998-1.999m229.614 0c1.103 0 1.997.895 1.997 1.999v3.98c0 1.104-.894 2-1.997 2a2 2 0 0 1-1.998-2v-3.98c0-1.104.895-1.999 1.998-1.999M2.79 288.736a2 2 0 0 1 1.997 2v3.98a1.998 1.998 0 1 1-3.995 0v-3.98a2 2 0 0 1 1.998-2m229.614 0c1.103 0 1.997.896 1.997 2v3.98a1.998 1.998 0 1 1-3.995 0v-3.98a2 2 0 0 1 1.998-2M2.79 302.666c1.103 0 1.997.895 1.997 2v3.98a1.998 1.998 0 1 1-3.995 0v-3.98c0-1.105.894-2 1.998-2m229.614 0c1.103 0 1.997.895 1.997 2v3.98a1.998 1.998 0 1 1-3.995 0v-3.98c0-1.105.895-2 1.998-2M2.79 316.596c1.103 0 1.997.895 1.997 2v3.979a1.998 1.998 0 1 1-3.995 0v-3.979c0-1.105.894-2 1.998-2m229.614 0c1.103 0 1.997.895 1.997 2v3.979a1.998 1.998 0 1 1-3.995 0v-3.979c0-1.105.895-2 1.998-2M2.79 330.526c1.103 0 1.997.895 1.997 1.999v1.99q0 .92.102 1.812a1.998 1.998 0 1 1-3.97.449 20 20 0 0 1-.127-2.261v-1.99c0-1.104.894-1.999 1.998-1.999m229.614 0c1.103 0 1.997.895 1.997 1.999v1.99q0 1.147-.124 2.26a1.998 1.998 0 1 1-3.971-.442q.1-.894.1-1.818v-1.99c0-1.104.895-1.999 1.998-1.999M5.526 344.282a1.995 1.995 0 0 1 2.808.312 16.5 16.5 0 0 0 2.565 2.567 2 2 0 0 1 .311 2.81 1.995 1.995 0 0 1-2.807.312 20.4 20.4 0 0 1-3.188-3.191 2 2 0 0 1 .311-2.81m224.16.016a2 2 0 0 1 .314 2.81 20.3 20.3 0 0 1-3.194 3.195 1.997 1.997 0 0 1-2.808-.316 2 2 0 0 1 .316-2.81 16.3 16.3 0 0 0 2.565-2.566 1.996 1.996 0 0 1 2.807-.313m-212.739 8.074a2 2 0 0 1 2.21-1.763q.892.102 1.81.102h1.972c1.103 0 1.997.895 1.997 2a2 2 0 0 1-1.997 1.999h-1.972q-1.145 0-2.259-.127a2 2 0 0 1-1.76-2.211m201.301.003a2 2 0 0 1-1.763 2.21q-1.115.125-2.258.125h-1.972a2 2 0 0 1-1.998-1.999c0-1.105.894-2 1.998-2h1.972q.92 0 1.814-.101a2 2 0 0 1 2.207 1.765m-187.446.336c0-1.105.894-2 1.997-2h3.944c1.103 0 1.998.895 1.998 2a2 2 0 0 1-1.998 1.999H32.8a2 2 0 0 1-1.997-1.999m13.804 0c0-1.105.894-2 1.997-2h3.944a1.999 1.999 0 0 1 0 3.999h-3.944a2 2 0 0 1-1.997-1.999m13.804 0c0-1.105.894-2 1.998-2h3.944c1.103 0 1.997.895 1.997 2a2 2 0 0 1-1.997 1.999h-3.944a2 2 0 0 1-1.998-1.999m13.804 0c0-1.105.895-2 1.998-2h3.944c1.103 0 1.997.895 1.997 2a2 2 0 0 1-1.997 1.999h-3.944a2 2 0 0 1-1.998-1.999m13.805 0c0-1.105.894-2 1.997-2h3.944c1.103 0 1.998.895 1.998 2a2 2 0 0 1-1.998 1.999h-3.944a2 2 0 0 1-1.997-1.999m13.804 0c0-1.105.894-2 1.997-2h3.944c1.104 0 1.998.895 1.998 2a2 2 0 0 1-1.998 1.999h-3.944a2 2 0 0 1-1.997-1.999m13.804 0c0-1.105.894-2 1.998-2h3.944c1.103 0 1.997.895 1.997 2a2 2 0 0 1-1.997 1.999h-3.944a2 2 0 0 1-1.998-1.999m13.804 0c0-1.105.895-2 1.998-2h3.944a1.999 1.999 0 0 1 0 3.999h-3.944a2 2 0 0 1-1.998-1.999m13.805 0c0-1.105.894-2 1.997-2h3.944c1.104 0 1.998.895 1.998 2a2 2 0 0 1-1.998 1.999h-3.944a2 2 0 0 1-1.997-1.999m13.804 0c0-1.105.894-2 1.997-2h3.945c1.103 0 1.997.895 1.997 2a2 2 0 0 1-1.997 1.999h-3.945a2 2 0 0 1-1.997-1.999m13.804 0c0-1.105.895-2 1.998-2h3.944c1.103 0 1.997.895 1.997 2a2 2 0 0 1-1.997 1.999h-3.944a2 2 0 0 1-1.998-1.999m13.804 0c0-1.105.895-2 1.998-2h3.944a1.999 1.999 0 0 1 0 3.999h-3.944a2 2 0 0 1-1.998-1.999m13.805 0c0-1.105.894-2 1.997-2h3.944c1.104 0 1.998.895 1.998 2a2 2 0 0 1-1.998 1.999h-3.944a2 2 0 0 1-1.997-1.999" clip-rule="evenodd"/><path fill="#8C8C8C" d="M21.566 214.447a5.196 5.196 0 0 0 5.193-5.199 5.196 5.196 0 0 0-5.193-5.198 5.196 5.196 0 0 0-5.194 5.198 5.196 5.196 0 0 0 5.194 5.199m16.879 0a5.196 5.196 0 0 0 5.194-5.199 5.196 5.196 0 0 0-5.194-5.198 5.196 5.196 0 0 0-5.193 5.198 5.196 5.196 0 0 0 5.193 5.199m16.88 0a5.196 5.196 0 0 0 5.193-5.199 5.196 5.196 0 0 0-5.193-5.198 5.196 5.196 0 0 0-5.194 5.198 5.196 5.196 0 0 0 5.194 5.199"/><path fill="#8C8C8C" fill-rule="evenodd" d="M1.091 227.841a2 2 0 0 1 1.998-2H5.13a2 2 0 0 1 0 3.999H3.089a2 2 0 0 1-1.998-1.999m12.248 0a2 2 0 0 1 1.997-2h4.083a2 2 0 0 1 0 3.999h-4.083a2 2 0 0 1-1.997-1.999m14.288 0a2 2 0 0 1 1.998-2h4.082a2 2 0 0 1 0 3.999h-4.082a2 2 0 0 1-1.998-1.999m14.289 0a2 2 0 0 1 1.997-2h4.083a2 2 0 0 1 0 3.999h-4.083a2 2 0 0 1-1.997-1.999m14.288 0a2 2 0 0 1 1.998-2h4.082a2 2 0 0 1 0 3.999h-4.082a2 2 0 0 1-1.998-1.999m14.289 0a2 2 0 0 1 1.997-2h4.082a2 2 0 0 1 0 3.999H72.49a2 2 0 0 1-1.997-1.999m14.288 0a2 2 0 0 1 1.997-2h4.083a2 2 0 0 1 0 3.999h-4.083a2 2 0 0 1-1.997-1.999m14.289 0a2 2 0 0 1 1.997-2h4.082a1.999 1.999 0 0 1 0 3.999h-4.082a2 2 0 0 1-1.997-1.999m14.288 0c0-1.104.894-2 1.997-2h4.083a1.999 1.999 0 0 1 0 3.999h-4.083a2 2 0 0 1-1.997-1.999m14.288 0a2 2 0 0 1 1.998-2h4.082a1.999 1.999 0 0 1 0 3.999h-4.082a2 2 0 0 1-1.998-1.999m14.289 0c0-1.104.894-2 1.997-2h4.083a1.999 1.999 0 0 1 0 3.999h-4.083a2 2 0 0 1-1.997-1.999m14.288 0a2 2 0 0 1 1.998-2h4.082a1.999 1.999 0 0 1 0 3.999h-4.082a2 2 0 0 1-1.998-1.999m14.289 0c0-1.104.894-2 1.997-2h4.083a1.999 1.999 0 0 1 0 3.999h-4.083a2 2 0 0 1-1.997-1.999m14.288 0a2 2 0 0 1 1.998-2h4.082a2 2 0 0 1 0 3.999h-4.082a2 2 0 0 1-1.998-1.999m14.289 0c0-1.104.894-2 1.997-2h4.083a1.999 1.999 0 0 1 0 3.999h-4.083a2 2 0 0 1-1.997-1.999m14.288 0a2 2 0 0 1 1.998-2h4.082a2 2 0 0 1 0 3.999h-4.082a2 2 0 0 1-1.998-1.999m14.289 0c0-1.104.894-2 1.997-2h2.042a1.999 1.999 0 0 1 0 3.999h-2.042a2 2 0 0 1-1.997-1.999" clip-rule="evenodd"/><path fill="#FFD89D" d="M301.218 264.533 84.588 276.53c-7.292.4-13.284-5.199-13.284-12.497V96.675c0-7.298 5.992-12.897 13.283-12.497l216.631 11.997c5.593.3 10.087 5.699 10.087 11.997v144.364c0 6.298-4.494 11.697-10.087 11.997"/><path fill="#D36507" fill-rule="evenodd" d="M90.88 107.673c3.395.2 6.092-2.4 6.092-5.799s-2.697-6.298-6.093-6.398c-3.296-.2-6.092 2.399-6.092 5.798s2.697 6.299 6.092 6.399m19.775.798c3.296.1 5.992-2.5 5.992-5.799s-2.696-6.098-5.992-6.298a5.783 5.783 0 0 0-5.993 5.798c0 3.299 2.697 6.199 5.993 6.299m25.168-4.899c0 3.299-2.596 5.899-5.792 5.699-3.197-.1-5.893-2.9-5.893-6.199s2.597-5.898 5.893-5.698c3.196.1 5.792 2.899 5.792 6.198m65.919 61.688 19.076-20.895 17.378 19.095-18.876 20.895 18.876 20.495-17.378 19.495-19.076-20.495-19.376 21.494-18.078-19.095 19.576-21.494-19.576-20.995 18.078-19.495z" clip-rule="evenodd"/><path fill="#FFD89D" d="M327.586 112.572c0-28.393-21.673-37.09-33.458-37.89-.1 0-33.459 2.3-33.459 45.288 0 25.494 21.174 45.489 45.943 44.589 7.79-.3 14.882-2.599 20.974-6.398z"/><path fill="#FFBE5C" d="M380.62 195.652c-2.897 3.399-7.591 3.699-10.487.8l-38.552-38.99 11.286-12.197 37.753 38.99c2.896 2.999 2.896 7.998 0 11.397"/><path fill="#FFBE5C" fill-rule="evenodd" d="M267.86 153.861c-22.971-21.394-22.971-57.285 0-78.08 21.873-19.795 55.032-16.996 74.308 4.299 18.377 20.395 18.377 51.687 0 71.582-19.276 20.795-52.435 22.594-74.308 2.199m9.388-10.798c15.581 14.996 39.751 14.196 54.033-.9 13.783-14.597 13.783-37.791 0-52.787-14.282-15.496-38.452-16.996-54.033-2.5-16.179 15.097-16.179 40.69 0 56.187" clip-rule="evenodd"/><path fill="#8C8C8C" fill-rule="evenodd" d="M39.544 40.49c1.103 0 1.997.895 1.997 2v8.298a1.998 1.998 0 1 1-3.995 0V42.49c0-1.105.895-2 1.998-2M20.468 59.685c0-1.104.894-2 1.997-2h8.19c1.103 0 1.997.896 1.997 2s-.894 2-1.997 2h-8.19a2 2 0 0 1-1.997-2m26.067 0c0-1.104.894-2 1.998-2h8.19a1.999 1.999 0 0 1 0 4h-8.19a2 2 0 0 1-1.998-2m-6.991 6.299c1.103 0 1.997.895 1.997 2v8.897a1.998 1.998 0 1 1-3.995 0v-8.898a2 2 0 0 1 1.998-2" clip-rule="evenodd"/></svg>