<svg xmlns="http://www.w3.org/2000/svg" width="400" height="400" fill="none" viewBox="0 0 400 400"><path fill="#F0F3F5" d="M354.21 36.648H55.782c-7.396 0-13.393 6.013-13.393 13.43v181.591c0 7.416 5.997 13.429 13.392 13.429h134.823v111.24H128.14c-1.299 0-2.599.501-3.498 1.403l-19.389 18.54c-3.298 3.207-1.099 8.719 3.498 8.719h192.39c4.597 0 6.796-5.612 3.498-8.719l-19.389-18.54c-.9-.902-2.199-1.403-3.498-1.403h-62.464v-111.24H354.11c7.396 0 13.393-6.013 13.393-13.429V50.077c.099-7.416-5.897-13.429-13.293-13.429"/><path fill="#F0F3F5" fill-rule="evenodd" d="M40.89 50.478h328.212c3.797 0 6.996-3.107 6.896-7.015v-3.808c0-3.909-3.099-7.015-6.996-7.015H40.89c-3.898 0-6.996 3.106-6.996 7.015v3.808c0 3.908 3.098 7.015 6.996 7.015m0 196.025h328.212c3.797 0 6.996-3.107 6.896-7.015v-3.809c0-3.908-3.099-7.015-6.996-7.015H40.89c-3.898 0-6.996 3.107-6.996 7.015v3.809c0 3.908 3.098 7.015 6.996 7.015" clip-rule="evenodd"/><path fill="#F0F3F5" d="M204.996 38.651c6.513 0 11.793-5.294 11.793-11.826 0-6.53-5.28-11.825-11.793-11.825-6.514 0-11.794 5.294-11.794 11.826 0 6.53 5.28 11.825 11.794 11.825"/><path fill="#999" fill-rule="evenodd" d="M40.09 128.946q-.745 0-1.47.081a2 2 0 0 1-2.207-1.77 2 2 0 0 1 1.765-2.213 17 17 0 0 1 1.912-.107h1.987c1.104 0 1.999.898 1.999 2.005a2 2 0 0 1-1.999 2.004zm9.922-2.004c0-1.107.895-2.005 2-2.005h3.973c1.104 0 1.999.898 1.999 2.005a2 2 0 0 1-2 2.004h-3.973a2 2 0 0 1-1.999-2.004m13.908 0c0-1.107.895-2.005 1.999-2.005h3.974c1.104 0 1.998.898 1.998 2.005a2 2 0 0 1-1.998 2.004h-3.974a2 2 0 0 1-1.999-2.004m13.908 0c0-1.107.895-2.005 1.999-2.005H83.8c1.104 0 2 .898 2 2.005a2 2 0 0 1-2 2.004h-3.973a2 2 0 0 1-2-2.004m13.908 0c0-1.107.895-2.005 1.999-2.005h3.973c1.104 0 2 .898 2 2.005a2 2 0 0 1-2 2.004h-3.973a2 2 0 0 1-2-2.004m13.908 0c0-1.107.894-2.005 1.998-2.005h3.974c1.104 0 1.999.898 1.999 2.005a2 2 0 0 1-1.999 2.004h-3.974a2 2 0 0 1-1.998-2.004m13.907 0c0-1.107.895-2.005 1.999-2.005h3.974c1.104 0 1.999.898 1.999 2.005a2 2 0 0 1-1.999 2.004h-3.974a2 2 0 0 1-1.999-2.004m13.908 0c0-1.107.895-2.005 1.999-2.005h3.974c1.104 0 1.999.898 1.999 2.005a2 2 0 0 1-1.999 2.004h-3.974a2 2 0 0 1-1.999-2.004m13.908 0c0-1.107.895-2.005 1.999-2.005h3.973c1.104 0 1.999.898 1.999 2.005a2 2 0 0 1-1.999 2.004h-3.973a2 2 0 0 1-1.999-2.004m13.908 0c0-1.107.895-2.005 1.999-2.005h3.973c1.104 0 1.999.898 1.999 2.005a2 2 0 0 1-1.999 2.004h-3.973a2 2 0 0 1-1.999-2.004m13.908 0c0-1.107.894-2.005 1.998-2.005h3.974c1.104 0 1.999.898 1.999 2.005a2 2 0 0 1-1.999 2.004h-3.974a2 2 0 0 1-1.998-2.004m13.907 0c0-1.107.895-2.005 1.999-2.005h3.974c1.104 0 1.999.898 1.999 2.005a2 2 0 0 1-1.999 2.004h-3.974a2 2 0 0 1-1.999-2.004m13.908 0c0-1.107.895-2.005 1.999-2.005h3.974c1.104 0 1.999.898 1.999 2.005a2 2 0 0 1-1.999 2.004h-3.974a2 2 0 0 1-1.999-2.004m13.908 0c0-1.107.895-2.005 1.999-2.005h3.973c1.104 0 1.999.898 1.999 2.005a2 2 0 0 1-1.999 2.004h-3.973a2 2 0 0 1-1.999-2.004m13.908 0c0-1.107.895-2.005 1.999-2.005h3.973c1.104 0 1.999.898 1.999 2.005a2 2 0 0 1-1.999 2.004h-3.973a2 2 0 0 1-1.999-2.004m13.908 0c0-1.107.894-2.005 1.998-2.005h3.974c1.104 0 1.999.898 1.999 2.005a2 2 0 0 1-1.999 2.004h-3.974a2 2 0 0 1-1.998-2.004m13.907 0c0-1.107.895-2.005 1.999-2.005h3.974c1.104 0 1.999.898 1.999 2.005a2 2 0 0 1-1.999 2.004h-3.974a2 2 0 0 1-1.999-2.004m13.908 0c0-1.107.895-2.005 1.999-2.005h3.974c1.104 0 1.999.898 1.999 2.005a2 2 0 0 1-1.999 2.004h-3.974a2 2 0 0 1-1.999-2.004m13.908 0c0-1.107.895-2.005 1.999-2.005h3.974c1.103 0 1.998.898 1.998 2.005a2 2 0 0 1-1.998 2.004h-3.974a2 2 0 0 1-1.999-2.004m13.908 0c0-1.107.895-2.005 1.999-2.005h1.987q.968 0 1.911.106a2 2 0 0 1 1.766 2.212 2 2 0 0 1-2.207 1.772 13 13 0 0 0-1.47-.081h-1.987a2 2 0 0 1-1.999-2.004m11.837 2.044a1.996 1.996 0 0 1 2.809-.315 17 17 0 0 1 2.705 2.715 2.01 2.01 0 0 1-.317 2.816 1.995 1.995 0 0 1-2.809-.317 13 13 0 0 0-2.074-2.082 2.01 2.01 0 0 1-.314-2.817m-279.95.004a2.01 2.01 0 0 1-.317 2.817 13.2 13.2 0 0 0-2.076 2.079 1.995 1.995 0 0 1-2.809.315 2.01 2.01 0 0 1-.314-2.817 17.2 17.2 0 0 1 2.707-2.711 1.995 1.995 0 0 1 2.809.317m-6.928 9.397a2 2 0 0 1 1.767 2.212q-.081.725-.081 1.475v2.057a2 2 0 0 1-2 2.004A2 2 0 0 1 23 144.131v-2.057q0-.971.105-1.916a2 2 0 0 1 2.207-1.771m293.803 0a2 2 0 0 1 2.208 1.77q.106.946.106 1.917v2.057a2 2 0 0 1-1.999 2.004 2 2 0 0 1-1.999-2.004v-2.057q0-.748-.081-1.473a2 2 0 0 1 1.765-2.214m.315 14.024c1.104 0 1.999.897 1.999 2.004v4.114a2 2 0 0 1-1.999 2.004 2 2 0 0 1-1.999-2.004v-4.114c0-1.107.895-2.004 1.999-2.004m-294.431 0c1.104 0 1.999.897 1.999 2.004v4.114a2 2 0 0 1-2 2.004A2 2 0 0 1 23 158.529v-4.114c0-1.107.895-2.004 1.999-2.004m294.431 14.398c1.104 0 1.999.897 1.999 2.004v4.114a2 2 0 0 1-1.999 2.004 2 2 0 0 1-1.999-2.004v-4.114c0-1.107.895-2.004 1.999-2.004m-294.431 0c1.104 0 1.999.897 1.999 2.004v4.114a2 2 0 0 1-2 2.004A2 2 0 0 1 23 172.927v-4.114c0-1.107.895-2.004 1.999-2.004m294.431 14.397c1.104 0 1.999.898 1.999 2.005v4.113a2 2 0 0 1-1.999 2.005 2 2 0 0 1-1.999-2.005v-4.113c0-1.107.895-2.005 1.999-2.005m-294.431 0c1.104 0 1.999.898 1.999 2.005v4.113a2 2 0 0 1-2 2.005A2 2 0 0 1 23 187.324v-4.113c0-1.107.895-2.005 1.999-2.005m294.431 14.398c1.104 0 1.999.897 1.999 2.004v4.114a2 2 0 0 1-1.999 2.004 2 2 0 0 1-1.999-2.004v-4.114c0-1.107.895-2.004 1.999-2.004m-294.431 0c1.104 0 1.999.897 1.999 2.004v4.114a2 2 0 0 1-2 2.004A2 2 0 0 1 23 201.722v-4.114c0-1.107.895-2.004 1.999-2.004m294.431 14.398c1.104 0 1.999.897 1.999 2.004v4.114a2 2 0 0 1-1.999 2.004 2 2 0 0 1-1.999-2.004v-4.114c0-1.107.895-2.004 1.999-2.004m-294.431 0c1.104 0 1.999.897 1.999 2.004v4.114a2 2 0 0 1-2 2.004A2 2 0 0 1 23 216.12v-4.114c0-1.107.895-2.004 1.999-2.004M319.43 224.4c1.104 0 1.999.897 1.999 2.004v4.113a2 2 0 0 1-1.999 2.005 2 2 0 0 1-1.999-2.005v-4.113c0-1.107.895-2.004 1.999-2.004m-294.431 0c1.104 0 1.999.897 1.999 2.004v4.113a2 2 0 0 1-2 2.005A2 2 0 0 1 23 230.517v-4.113c0-1.107.895-2.004 1.999-2.004m294.431 14.397c1.104 0 1.999.898 1.999 2.005v4.113a2 2 0 0 1-1.999 2.005 2 2 0 0 1-1.999-2.005v-4.113c0-1.107.895-2.005 1.999-2.005m-294.431 0c1.104 0 1.999.898 1.999 2.005v4.113a2 2 0 0 1-2 2.005A2 2 0 0 1 23 244.915v-4.113c0-1.107.895-2.005 1.999-2.005m294.431 14.398c1.104 0 1.999.897 1.999 2.004v4.114a2 2 0 0 1-1.999 2.004 2 2 0 0 1-1.999-2.004v-4.114c0-1.107.895-2.004 1.999-2.004m-294.431 0c1.104 0 1.999.897 1.999 2.004v4.114a2 2 0 0 1-2 2.004A2 2 0 0 1 23 259.313v-4.114c0-1.107.895-2.004 1.999-2.004m294.431 14.398c1.104 0 1.999.897 1.999 2.004v4.114a2 2 0 0 1-1.999 2.004 2 2 0 0 1-1.999-2.004v-4.114c0-1.107.895-2.004 1.999-2.004m-294.431 0c1.104 0 1.999.897 1.999 2.004v4.114a2 2 0 0 1-2 2.004A2 2 0 0 1 23 273.711v-4.114c0-1.107.895-2.004 1.999-2.004M319.43 281.99c1.104 0 1.999.898 1.999 2.005v4.113a2 2 0 0 1-1.999 2.005 2 2 0 0 1-1.999-2.005v-4.113c0-1.107.895-2.005 1.999-2.005m-294.431 0c1.104 0 1.999.898 1.999 2.005v4.113a2 2 0 0 1-2 2.005A2 2 0 0 1 23 288.108v-4.113c0-1.107.895-2.005 1.999-2.005m294.431 14.398c1.104 0 1.999.898 1.999 2.004v4.114a2 2 0 0 1-1.999 2.004 2 2 0 0 1-1.999-2.004v-4.114c0-1.106.895-2.004 1.999-2.004m-294.431 0c1.104 0 1.999.898 1.999 2.005v4.113a2 2 0 0 1-2 2.004A2 2 0 0 1 23 302.506v-4.113c0-1.107.895-2.005 1.999-2.005m294.431 14.398c1.104 0 1.999.897 1.999 2.004v2.057q0 .971-.105 1.916a2 2 0 0 1-2.207 1.772 2.004 2.004 0 0 1-1.767-2.213q.081-.725.081-1.475v-2.057c0-1.107.895-2.004 1.999-2.004m-294.431 0c1.104 0 1.999.897 1.999 2.004v2.057q0 .748.081 1.474a2.003 2.003 0 0 1-1.765 2.214 2 2 0 0 1-2.208-1.77 17 17 0 0 1-.106-1.918v-2.057c0-1.107.895-2.004 1.999-2.004M317.39 322.72a2.01 2.01 0 0 1 .314 2.817 17.2 17.2 0 0 1-2.707 2.712 1.995 1.995 0 0 1-2.809-.318 2.007 2.007 0 0 1 .316-2.816 13 13 0 0 0 2.076-2.08 1.996 1.996 0 0 1 2.81-.315m-290.35-.001a1.996 1.996 0 0 1 2.81.317 13.2 13.2 0 0 0 2.074 2.082 2.01 2.01 0 0 1 .314 2.817 1.995 1.995 0 0 1-2.81.315 17.2 17.2 0 0 1-2.704-2.714 2.01 2.01 0 0 1 .317-2.817m280.975 6.945a2.004 2.004 0 0 1-1.765 2.214q-.944.106-1.912.106h-1.987a2 2 0 0 1-1.999-2.004c0-1.107.895-2.005 1.999-2.005h1.987q.746 0 1.469-.081a2 2 0 0 1 2.208 1.77m-271.603.002a2 2 0 0 1 2.206-1.772 13 13 0 0 0 1.471.081h1.987c1.104 0 1.999.898 1.999 2.005a2 2 0 0 1-1.999 2.004H40.09q-.97 0-1.91-.105a2.004 2.004 0 0 1-1.767-2.213m13.6.314c0-1.107.894-2.005 1.998-2.005h3.974c1.104 0 1.999.898 1.999 2.005a2 2 0 0 1-2 2.004h-3.973a2 2 0 0 1-1.999-2.004m13.907 0c0-1.107.895-2.005 1.999-2.005h3.974c1.104 0 1.998.898 1.998 2.005a2 2 0 0 1-1.998 2.004h-3.974a2 2 0 0 1-1.999-2.004m13.908 0c0-1.107.895-2.005 1.999-2.005H83.8c1.104 0 2 .898 2 2.005a2 2 0 0 1-2 2.004h-3.973a2 2 0 0 1-2-2.004m13.908 0c0-1.107.895-2.005 1.999-2.005h3.973c1.104 0 2 .898 2 2.005a2 2 0 0 1-2 2.004h-3.973a2 2 0 0 1-2-2.004m13.908 0c0-1.107.894-2.005 1.998-2.005h3.974c1.104 0 1.999.898 1.999 2.005a2 2 0 0 1-1.999 2.004h-3.974a2 2 0 0 1-1.998-2.004m13.907 0c0-1.107.895-2.005 1.999-2.005h3.974c1.104 0 1.999.898 1.999 2.005a2 2 0 0 1-1.999 2.004h-3.974a2 2 0 0 1-1.999-2.004m13.908 0c0-1.107.895-2.005 1.999-2.005h3.974c1.104 0 1.999.898 1.999 2.005a2 2 0 0 1-1.999 2.004h-3.974a2 2 0 0 1-1.999-2.004m13.908 0c0-1.107.895-2.005 1.999-2.005h3.973c1.104 0 1.999.898 1.999 2.005a2 2 0 0 1-1.999 2.004h-3.973a2 2 0 0 1-1.999-2.004m13.908 0c0-1.107.895-2.005 1.999-2.005h3.973c1.104 0 1.999.898 1.999 2.005a2 2 0 0 1-1.999 2.004h-3.973a2 2 0 0 1-1.999-2.004m13.908 0c0-1.107.894-2.005 1.998-2.005h3.974c1.104 0 1.999.898 1.999 2.005a2 2 0 0 1-1.999 2.004h-3.974a2 2 0 0 1-1.998-2.004m13.907 0c0-1.107.895-2.005 1.999-2.005h3.974c1.104 0 1.999.898 1.999 2.005a2 2 0 0 1-1.999 2.004h-3.974a2 2 0 0 1-1.999-2.004m13.908 0c0-1.107.895-2.005 1.999-2.005h3.974c1.104 0 1.999.898 1.999 2.005a2 2 0 0 1-1.999 2.004h-3.974a2 2 0 0 1-1.999-2.004m13.908 0c0-1.107.895-2.005 1.999-2.005h3.973c1.104 0 1.999.898 1.999 2.005a2 2 0 0 1-1.999 2.004h-3.973a2 2 0 0 1-1.999-2.004m13.908 0c0-1.107.895-2.005 1.999-2.005h3.973c1.104 0 1.999.898 1.999 2.005a2 2 0 0 1-1.999 2.004h-3.973a2 2 0 0 1-1.999-2.004m13.908 0c0-1.107.894-2.005 1.998-2.005h3.974c1.104 0 1.999.898 1.999 2.005a2 2 0 0 1-1.999 2.004h-3.974a2 2 0 0 1-1.998-2.004m13.907 0c0-1.107.895-2.005 1.999-2.005h3.974c1.104 0 1.999.898 1.999 2.005a2 2 0 0 1-1.999 2.004h-3.974a2 2 0 0 1-1.999-2.004m13.908 0c0-1.107.895-2.005 1.999-2.005h3.974c1.104 0 1.999.898 1.999 2.005a2 2 0 0 1-1.999 2.004h-3.974a2 2 0 0 1-1.999-2.004m13.908 0c0-1.107.895-2.005 1.999-2.005h3.974c1.103 0 1.998.898 1.998 2.005a2 2 0 0 1-1.998 2.004h-3.974a2 2 0 0 1-1.999-2.004" clip-rule="evenodd"/><path fill="#FFD493" d="m334.921 261.532-250.056 5.412c-6.397.1-11.594-5.813-11.594-13.229v-185.8c0-7.417 5.197-13.13 11.594-12.829l250.055 17.64c5.097.3 9.295 5.912 9.295 12.527v164.154c-.1 6.614-4.198 12.026-9.295 12.126"/><path fill="#fff" d="m318.23 179.657-73.657-2.605c-4.098 0-7.396-3.307-7.396-7.517V93.572c0-4.11 3.298-7.316 7.396-7.116l73.657 4.71c3.698.2 6.696 3.508 6.696 7.517v73.859c.1 3.908-2.998 7.115-6.696 7.115" opacity=".6"/><path fill="#FFBE5C" d="M103.454 135.059c-3.298-.2-6.096 2.405-6.096 5.813V269.85c0 15.834 6.796 25.355 16.59 25.355s102.641-3.207 109.237-3.207c-9.794-2.405-12.093-10.824-12.093-26.056V146.684c0-3.106-2.398-5.612-5.397-5.812z"/><path fill="#DCA553" fill-opacity=".7" d="M195.401 160.916c4.14 0 7.496-3.365 7.496-7.516s-3.356-7.516-7.496-7.516-7.496 3.365-7.496 7.516 3.356 7.516 7.496 7.516m-83.852-4.912c4.139 0 7.495-3.365 7.495-7.516s-3.356-7.516-7.495-7.516-7.496 3.365-7.496 7.516 3.356 7.516 7.496 7.516"/><path fill="#FFD493" d="M114.547 156.004c4.14 0 7.496-3.365 7.496-7.516s-3.356-7.516-7.496-7.516-7.496 3.365-7.496 7.516 3.356 7.516 7.496 7.516m83.652 4.912c4.14 0 7.496-3.365 7.496-7.516s-3.356-7.516-7.496-7.516c-4.139 0-7.495 3.365-7.495 7.516s3.356 7.516 7.495 7.516m-68.96 117.452s-4.298 16.536-15.291 16.736c18.989 0 99.742-2.104 109.237-3.207s10.994-17.137 10.994-17.137z"/><path fill="#fff" fill-rule="evenodd" d="M109.551 176.203a2 2 0 0 1 2.044-1.957l86.65 2.004a2.003 2.003 0 0 1 1.953 2.05 2 2 0 0 1-2.045 1.958l-86.65-2.005a2 2 0 0 1-1.952-2.05m-.001 23.172a2 2 0 0 1 2.022-1.981l86.65 1.002a2 2 0 0 1 1.976 2.027 2 2 0 0 1-2.022 1.981l-86.65-1.002a2 2 0 0 1-1.976-2.027m90.648 23.651a2 2 0 0 1-1.976 2.027l-86.65 1.002a2 2 0 0 1-2.022-1.981 2 2 0 0 1 1.976-2.027l86.65-1.002a2 2 0 0 1 2.022 1.981" clip-rule="evenodd"/><path fill="#DD7E10" d="M99.406 75.937a2 2 0 0 0-2.143 1.849 2.003 2.003 0 0 0 1.843 2.148l109.138 8.218a2 2 0 0 0 2.143-1.848 2.003 2.003 0 0 0-1.844-2.15zm-.035 25.451a2 2 0 0 0-2.11 1.886 2 2 0 0 0 1.88 2.116l109.137 6.314a2 2 0 0 0 2.111-1.886 2 2 0 0 0-1.881-2.116z"/><path fill="#FFBE5C" d="M316.631 136.564c0-19.141-14.991-35.176-33.581-35.978-18.689-.801-33.88 14.131-33.88 33.473s15.191 35.376 33.88 35.977c18.59.602 33.581-14.431 33.581-33.472"/><path fill="#FFD493" d="M309.735 115.216c-6.096-8.518-15.79-14.231-26.684-14.732v34.775z"/><path fill="#FFBE5C" d="m309.735 115.216-26.684 20.044 33.581 1.302c0-7.917-2.599-15.333-6.897-21.346m-26.684 20.043v-34.775c-18.69-.801-33.881 14.131-33.881 33.473z"/></svg>