<svg xmlns="http://www.w3.org/2000/svg" width="400" height="400" fill="none" viewBox="0 0 400 400"><path fill="#4E4A4E" d="M316.446 111.859C305.554 51.128 216.123 7.205 131.987 30.217c-76.142 20.81-120.808 70.436-104.72 136.871 4.296 17.709 6.494 25.914 16.787 43.223 8.893 14.907 13.29 34.918 7.094 51.627l-5.695 17.609c-1.1 2.401 1.399 4.902 3.297 3.202l21.983-15.208c17.887-11.707 37.372-14.408 47.664-11.006 26.28 8.604 78.84 6.903 109.217-2.702 75.342-24.112 102.122-68.836 88.832-141.974"/><path fill="#4E4A4E" d="M168.259 260.835c7.394-40.821 67.548-70.437 124.105-54.929 51.161 14.008 81.238 47.325 70.447 92.049-2.898 11.906-4.997 17.409-11.991 29.015-5.996 10.005-7.495 23.512-3.298 34.718l2.998 11.806c.699 1.601-.999 3.302-2.198 2.101l-15.489-9.405c-12.09-7.804-26.18-10.705-36.871-8.304-18.087 4.102-47.564 4.702-68.049-1.801-50.561-16.008-68.547-46.124-59.654-95.25"/><path fill="#FFD28D" d="m248.498 146.479-99.324-2.802c-38.671-.9-71.346 33.718-71.346 77.041v76.44c0 5.202 4.197 9.304 9.193 9.004l161.577-7.504c32.975-1.901 58.955-34.618 58.955-72.638v-8.904c-.1-38.12-26.08-69.837-59.055-70.637"/><path fill="#D3823D" fill-rule="evenodd" d="M124.993 192.38a2 2 0 0 1 2.019-1.979l138.995 1.5a2 2 0 0 1 1.976 2.023 2 2 0 0 1-2.02 1.979l-138.994-1.501a2 2 0 0 1-1.976-2.022m140.993 35.74-138.994.1a2 2 0 0 1-.003-4.002l138.995-.1a2 2 0 0 1 .002 4.002m1.997 28.276a2 2 0 0 1-1.959 2.04l-138.994 2.701a2 2 0 0 1-2.037-1.962 2 2 0 0 1 1.959-2.039l138.994-2.702a2 2 0 0 1 2.037 1.962" clip-rule="evenodd"/><path fill="#E9AE56" d="m248.498 146.477-39.869-1c-2.698 7.303-4.197 15.408-4.197 24.012v3.602c0 34.418 24.082 62.433 52.66 62.132l49.862-.5c.3-2.901.499-5.803.499-8.804v-8.905c0-38.02-25.98-69.736-58.955-70.537" opacity=".7"/><path fill="#FFBE5C" d="m330.735 96.753-59.354-3.402c-28.379-1.601-52.36 25.013-52.36 59.131v3.602c0 32.617 21.783 59.231 48.463 61.332l-.1.1c.1 0 85.435-.801 101.322-1.001 4.597 0 8.294-3.802 8.294-8.404v-52.027c0-31.117-20.484-57.93-46.265-59.331"/><path fill="#FFF" fill-rule="evenodd" d="M278.975 155.385c0-4.703-3.497-8.505-7.794-8.405-4.296 0-7.794 3.802-7.794 8.505 0 4.702 3.498 8.404 7.794 8.404 4.197 0 7.794-3.802 7.794-8.504m31.177.801c0-4.702-3.498-8.504-7.894-8.504-4.397 0-7.894 3.902-7.894 8.605 0 4.702 3.497 8.504 7.894 8.504 4.396-.1 7.894-3.902 7.894-8.605m23.482-7.805c4.396 0 7.994 3.802 7.994 8.505 0 4.802-3.498 8.604-7.994 8.604-4.397 0-7.994-3.802-7.994-8.504 0-4.703 3.597-8.605 7.994-8.605" clip-rule="evenodd"/><path fill="#9C999C" fill-rule="evenodd" d="M43.454 58.23c0-15.112 12.286-27.414 27.38-27.414h78.639c15.191 0 27.372 12.197 27.479 27.3v29.73c0 14.44-11.216 26.314-25.38 27.342v16.381a1.997 1.997 0 0 1-3.412 1.415l-17.701-17.723H70.833c-15.093 0-27.379-12.302-27.379-27.415zm27.38-23.411c-12.886 0-23.383 10.51-23.383 23.412v29.615c0 12.902 10.497 23.412 23.382 23.412h60.454c.53 0 1.039.211 1.413.587l14.875 14.893V113.26a2 2 0 0 1 1.998-2.002c12.886 0 23.382-10.51 23.382-23.412V58.138c-.096-12.908-10.496-23.32-23.482-23.32z" clip-rule="evenodd"/><path fill="#9C999C" fill-rule="evenodd" d="M72.932 73.74c0-4.862 3.936-8.804 8.793-8.804s8.793 3.941 8.793 8.804-3.937 8.805-8.793 8.805-8.793-3.942-8.793-8.805m8.793-4.802a4.8 4.8 0 0 0-4.796 4.802 4.8 4.8 0 0 0 4.796 4.803 4.8 4.8 0 0 0 4.796-4.803 4.8 4.8 0 0 0-4.796-4.802m19.685 4.802c0-4.862 3.937-8.804 8.793-8.804 4.857 0 8.794 3.941 8.794 8.804s-3.937 8.805-8.794 8.805c-4.856 0-8.793-3.942-8.793-8.805m8.793-4.802a4.8 4.8 0 0 0-4.796 4.802 4.8 4.8 0 0 0 4.796 4.803A4.8 4.8 0 0 0 115 73.74a4.8 4.8 0 0 0-4.797-4.802m19.585 4.802c0-4.862 3.937-8.804 8.793-8.804 4.857 0 8.793 3.941 8.793 8.804s-3.936 8.805-8.793 8.805-8.793-3.942-8.793-8.805m8.793-4.802a4.8 4.8 0 0 0-4.796 4.802 4.8 4.8 0 0 0 4.796 4.803 4.8 4.8 0 0 0 4.796-4.803 4.8 4.8 0 0 0-4.796-4.802m196.55 197.102a2 2 0 0 1 1.999 2.001v7.304a2 2 0 0 1-1.999 2.001 2 2 0 0 1-1.998-2.001v-7.304a2 2 0 0 1 1.998-2.001m-17.087 17.111a2 2 0 0 1 1.999-2.001h7.294a2 2 0 0 1 0 4.002h-7.294a2 2 0 0 1-1.999-2.001m22.983 0a2 2 0 0 1 1.998-2.001h7.295c1.104 0 1.998.895 1.998 2.001a2 2 0 0 1-1.998 2.001h-7.295a2 2 0 0 1-1.998-2.001m-5.895 5.299a2 2 0 0 1 1.998 2.001v7.904a2 2 0 1 1-3.997 0v-7.904a2 2 0 0 1 1.999-2.001" clip-rule="evenodd"/></svg>