<svg xmlns="http://www.w3.org/2000/svg" width="379" height="326" fill="none" viewBox="0 0 379 326"><path fill="#414141" fill-rule="evenodd" d="M362.382 40.25h6.607c5.506 0 9.911 4.395 10.011 9.888 0 5.493-4.405 9.888-9.91 9.888h-6.607v3.595l-.601 149.516c-2.503 11.685-13.014 20.574-25.527 20.574H42.745c-12.513 0-23.024-8.889-25.527-20.574l-.5-149.515v-3.796H9.91c-5.505 0-9.91-4.394-9.91-9.888s4.405-9.887 9.91-9.887h6.808v-4.695c0-14.282 11.712-25.968 26.027-25.968h10.21V0h46.65v9.388h15.216V8.59A8.6 8.6 0 0 1 123.43 0h213.325c14.215 0 25.728 11.486 25.728 25.668v11.886h-.101zM4.705 49.938a5.483 5.483 0 0 0 5.506 5.494c3.003 0 5.506-2.497 5.506-5.494s-2.503-5.493-5.506-5.493-5.506 2.397-5.506 5.493m340.76-15.78c0 4.394-3.504 7.89-7.909 7.89h-32.634c-4.405 0-7.908-3.496-7.908-7.89V23.072c0-4.395 3.503-7.89 7.908-7.89h32.634c4.405 0 7.909 3.495 7.909 7.89zm17.618 15.98a5.484 5.484 0 0 0 5.506 5.493c3.103 0 5.606-2.497 5.506-5.493a5.484 5.484 0 0 0-5.506-5.493c-3.003 0-5.506 2.397-5.506 5.493" clip-rule="evenodd"/><path fill="#949494" fill-rule="evenodd" d="M74.98 82.201c-5.318 0-9.713 4.314-9.713 9.686v220.428c0 5.294 4.317 9.685 9.713 9.685h190.3c5.425 0 9.795-4.413 9.713-9.654V91.887c0-5.295-4.317-9.686-9.713-9.686zm-13.713 9.686c0-7.612 6.217-13.686 13.712-13.686H265.28c7.619 0 13.713 6.196 13.713 13.686v220.412c.109 7.536-6.129 13.701-13.713 13.701H74.98c-7.619 0-13.713-6.196-13.713-13.685z" clip-rule="evenodd"/><path fill="#949494" fill-rule="evenodd" d="M75.282 95.281a2 2 0 0 1 2-2h185.596a2 2 0 0 1 2 2v185.172a2 2 0 0 1-2 2H77.282a2 2 0 0 1-2-2zm4 2v181.172h181.596V97.281z" clip-rule="evenodd"/><path fill="#949494" fill-rule="evenodd" d="M156.567 186.57c0-7.453 6.054-13.486 13.512-13.486s13.512 6.033 13.512 13.486c0 7.452-6.054 13.486-13.512 13.486s-13.512-6.034-13.512-13.486m13.512-9.486c-5.258 0-9.512 4.251-9.512 9.486 0 5.234 4.254 9.486 9.512 9.486s9.512-4.252 9.512-9.486-4.254-9.486-9.512-9.486m25.225 29.881c-2.819-2.423-6.941-2.252-9.497.298l-.022.022c-2.579 2.495-2.871 6.622-.635 9.391l.011.014 26.518 33.447.005.005c4.174 5.177 12.007 5.675 16.759 1.019 4.776-4.68 4.497-12.388-.58-16.61l-.014-.011zm2.601-3.039c-4.384-3.762-10.862-3.535-14.912.494-4.015 3.896-4.522 10.343-.961 14.761l26.522 33.452.01.012c5.638 7.003 16.219 7.702 22.678 1.373 6.433-6.304 6.114-16.769-.814-22.536l-32.517-27.551z" clip-rule="evenodd"/><path fill="#949494" fill-rule="evenodd" d="M95.603 185.749c.412-41.063 34.158-73.902 75.197-73.491 41.144.41 74.063 34.07 73.656 75.023-.104 17.048-6.076 32.655-15.845 45.069a2 2 0 1 1-3.143-2.473c9.25-11.756 14.89-26.511 14.988-42.622v-.008c.389-38.745-30.758-70.601-69.696-70.989l.02-2-.02 2c-38.846-.389-70.768 30.693-71.157 69.531l-2-.02 2 .02c-.39 38.744 30.754 70.599 69.69 70.99 13.643.097 26.491-3.597 37.283-10.193a2 2 0 1 1 2.086 3.413c-11.431 6.986-25.011 10.883-39.398 10.78h-.005c-41.147-.41-74.068-34.074-73.656-75.03" clip-rule="evenodd"/><path fill="#FFBE5C" d="m323.078 263.721-158.867 2.996c-5.606.1-10.211-5.094-10.211-11.386V37.999c0-6.292 4.605-11.286 10.211-10.986l158.867 7.69c5.206.3 9.41 5.394 9.41 11.486v206.545c0 5.893-4.204 10.887-9.41 10.987"/><path fill="#FFD28D" d="m320.276 223.271-153.061.3c-1.402 0-2.603-1.299-2.603-2.897V41.595c0-1.598 1.201-2.796 2.603-2.796l153.061 6.991c1.301.1 2.403 1.398 2.403 2.897v171.887c0 1.499-1.102 2.697-2.403 2.697"/><path fill="#D3823D" fill-rule="evenodd" d="M291.345 61.968c2.202.1 4.004 2.298 4.004 4.894s-1.802 4.695-4.004 4.495c-2.303-.1-4.105-2.297-4.105-4.894s1.902-4.594 4.105-4.495m13.614.7c2.203 0 4.004 2.197 4.004 4.794s-1.801 4.594-4.004 4.494c-2.202 0-4.004-2.197-4.004-4.794s1.802-4.594 4.004-4.495" clip-rule="evenodd"/><path fill="#FFF" fill-rule="evenodd" d="M263.916 60.97c2.303.1 4.105 2.296 4.105 4.893s-1.802 4.594-4.105 4.594c-2.302-.1-4.104-2.297-4.104-4.893 0-2.597 1.802-4.695 4.104-4.595m13.715.499c2.302.1 4.104 2.297 4.104 4.894s-1.802 4.694-4.104 4.594-4.104-2.297-4.104-4.894c0-2.697 1.802-4.694 4.104-4.594" clip-rule="evenodd"/><path fill="#D3823D" d="M308.964 110.31c0-2.597-1.802-4.694-4.005-4.794s-4.004 1.998-4.004 4.594 1.802 4.695 4.004 4.795c2.203 0 4.005-1.998 4.005-4.595"/><path fill="#FFF" fill-rule="evenodd" d="M263.916 104.217c2.303.1 4.104 2.297 4.104 4.894 0 2.697-1.801 4.694-4.104 4.595s-4.104-2.298-4.104-4.894 1.802-4.695 4.104-4.595m17.819 5.294c0-2.597-1.802-4.794-4.104-4.794-2.303-.1-4.105 1.997-4.105 4.594s1.802 4.794 4.105 4.794c2.302.1 4.104-1.997 4.104-4.594m13.615.398c0-2.597-1.802-4.794-4.005-4.794-2.202-.1-4.104 1.997-4.104 4.594s1.802 4.794 4.104 4.794c2.203.1 4.005-1.997 4.005-4.594" clip-rule="evenodd"/><path fill="#D3823D" fill-rule="evenodd" d="M277.631 147.964c2.302 0 4.104 2.197 4.104 4.794s-1.802 4.694-4.104 4.694-4.104-2.197-4.104-4.794c0-2.697 1.802-4.694 4.104-4.694m17.719 4.994c0-2.597-1.802-4.694-4.004-4.794-2.203 0-4.105 1.997-4.105 4.594s1.802 4.694 4.105 4.794c2.202.1 4.004-1.997 4.004-4.594m13.613.198c0-2.597-1.801-4.694-4.004-4.794-2.202 0-4.004 1.997-4.004 4.594s1.802 4.694 4.004 4.794c2.203.1 4.004-1.997 4.004-4.594" clip-rule="evenodd"/><path fill="#FFF" fill-rule="evenodd" d="M268.02 152.458c0-2.597-1.801-4.794-4.104-4.794s-4.104 1.998-4.104 4.694c0 2.697 1.802 4.794 4.104 4.794s4.104-2.097 4.104-4.694m40.943 43.546c0-2.596-1.802-4.694-4.004-4.694s-4.004 2.098-4.004 4.694 1.802 4.695 4.004 4.695 4.004-2.098 4.004-4.695m-17.618-4.694c2.203 0 4.004 2.098 4.004 4.694s-1.801 4.695-4.004 4.695c-2.302 0-4.104-2.098-4.104-4.695 0-2.596 1.902-4.694 4.104-4.694m-9.61 4.596c0-2.597-1.802-4.694-4.104-4.694s-4.105 2.097-4.105 4.694 1.802 4.694 4.105 4.694c2.302 0 4.104-2.097 4.104-4.694m-17.819-4.897c2.303.1 4.104 2.197 4.104 4.794s-1.801 4.694-4.104 4.694-4.104-2.197-4.104-4.794 1.802-4.694 4.104-4.694" clip-rule="evenodd"/><path fill="#D3823D" fill-rule="evenodd" d="M182.129 57.575c2.403.1 4.305 2.297 4.305 4.993s-2.002 4.795-4.305 4.695c-2.402-.1-4.304-2.297-4.304-4.994s1.902-4.794 4.304-4.694m0 44.245c2.403.1 4.305 2.297 4.305 4.994s-2.002 4.794-4.305 4.694c-2.402-.1-4.304-2.297-4.304-4.994s1.902-4.794 4.304-4.694" clip-rule="evenodd"/><path fill="#D3823D" d="M186.434 151.06c0-2.697-1.902-4.894-4.305-4.894s-4.304 2.097-4.304 4.794 1.902 4.894 4.304 4.894c2.303 0 4.305-2.097 4.305-4.794m0 44.343c0-2.697-1.902-4.894-4.305-4.894s-4.304 2.097-4.304 4.794 1.902 4.894 4.304 4.894c2.303 0 4.305-2.197 4.305-4.794"/></svg>