<svg xmlns="http://www.w3.org/2000/svg" width="400" height="400" fill="none" viewBox="0 0 400 400"><path fill="#433F43" fill-rule="evenodd" d="M372.382 78.25h6.607c5.506 0 9.911 4.395 10.011 9.888 0 5.493-4.405 9.888-9.91 9.888h-6.607v3.595l-.601 149.516c-2.503 11.685-13.014 20.574-25.527 20.574H52.745c-12.513 0-23.024-8.889-25.527-20.574l-.5-149.516v-3.795H19.91c-5.505 0-9.91-4.394-9.91-9.888s4.405-9.887 9.91-9.887h6.808v-4.695c0-14.282 11.712-25.968 26.027-25.968h10.21V38h46.65v9.388h15.216v-.799A8.6 8.6 0 0 1 133.43 38h213.325c14.215 0 25.728 11.486 25.728 25.668v11.886h-.101zM14.705 87.938a5.484 5.484 0 0 0 5.506 5.494c3.003 0 5.506-2.497 5.506-5.494s-2.503-5.493-5.506-5.493-5.506 2.397-5.506 5.493m340.76-15.78c0 4.394-3.504 7.89-7.909 7.89h-32.634c-4.405 0-7.908-3.496-7.908-7.89V61.072c0-4.395 3.503-7.89 7.908-7.89h32.634c4.405 0 7.909 3.495 7.909 7.89zm17.618 15.98a5.484 5.484 0 0 0 5.506 5.493c3.103 0 5.606-2.497 5.506-5.493a5.484 5.484 0 0 0-5.506-5.493c-3.003 0-5.506 2.397-5.506 5.493" clip-rule="evenodd"/><path stroke="#999" stroke-linecap="round" stroke-linejoin="round" stroke-width="4" d="M275.28 362H84.98c-6.508 0-11.713-5.293-11.713-11.686V129.887c0-6.492 5.306-11.686 11.712-11.686H275.28c6.507 0 11.713 5.294 11.713 11.686v220.427c.1 6.393-5.206 11.686-11.713 11.686" clip-rule="evenodd"/><path stroke="#999" stroke-linecap="round" stroke-linejoin="round" stroke-width="4" d="M87.282 133.281h185.596v185.171H87.282z" clip-rule="evenodd"/><path stroke="#999" stroke-linecap="round" stroke-linejoin="round" stroke-width="4" d="M180.079 236.056c6.358 0 11.512-5.143 11.512-11.486s-5.154-11.486-11.512-11.486-11.512 5.142-11.512 11.486c0 6.343 5.154 11.486 11.512 11.486m59.763 54.533c-5.605 5.494-14.815 4.894-19.72-1.198l-26.528-33.459c-2.903-3.595-2.503-8.889.8-12.085 3.304-3.296 8.61-3.496 12.213-.399l32.535 27.566c6.006 4.993 6.306 14.082.7 19.575" clip-rule="evenodd"/><path stroke="#999" stroke-linecap="round" stroke-linejoin="round" stroke-width="4" d="M237.039 269.113c9.51-12.085 15.317-27.266 15.417-43.846.4-39.851-31.634-72.61-71.676-73.01-39.942-.399-72.777 31.561-73.177 71.512-.401 39.851 31.633 72.61 71.675 73.01 14.015.1 27.229-3.696 38.341-10.487"/><path fill="#FFBE5C" d="m333.078 301.721-158.867 2.996c-5.606.1-10.211-5.094-10.211-11.386V75.999c0-6.292 4.605-11.286 10.211-10.986l158.867 7.69c5.206.3 9.41 5.394 9.41 11.486v206.545c0 5.893-4.204 10.887-9.41 10.987"/><path fill="#FFD493" d="m330.276 261.271-153.061.299c-1.402 0-2.603-1.298-2.603-2.896V79.594c0-1.597 1.201-2.796 2.603-2.796l153.061 6.992c1.301.1 2.403 1.398 2.403 2.896v171.888c0 1.498-1.102 2.697-2.403 2.697"/><path fill="#DD7E10" fill-opacity=".85" fill-rule="evenodd" d="M301.345 99.968c2.202.1 4.004 2.297 4.004 4.894s-1.802 4.694-4.004 4.495c-2.303-.1-4.105-2.297-4.105-4.894s1.902-4.595 4.105-4.495m13.614.699c2.203 0 4.005 2.198 4.005 4.794 0 2.597-1.802 4.595-4.005 4.495-2.202 0-4.004-2.197-4.004-4.794s1.802-4.595 4.004-4.495" clip-rule="evenodd"/><path fill="#fff" fill-rule="evenodd" d="M273.916 98.97c2.303.1 4.105 2.297 4.105 4.893 0 2.597-1.802 4.595-4.105 4.595-2.302-.1-4.104-2.298-4.104-4.894s1.802-4.694 4.104-4.595m13.715.499c2.302.1 4.104 2.297 4.104 4.894s-1.802 4.694-4.104 4.594-4.104-2.297-4.104-4.894c0-2.697 1.802-4.694 4.104-4.594" clip-rule="evenodd"/><path fill="#DD7E10" fill-opacity=".85" d="M318.964 148.31c0-2.597-1.802-4.694-4.005-4.794s-4.004 1.997-4.004 4.594 1.802 4.694 4.004 4.794c2.203 0 4.005-1.997 4.005-4.594"/><path fill="#fff" fill-rule="evenodd" d="M273.916 142.218c2.303.099 4.104 2.297 4.104 4.893 0 2.697-1.801 4.695-4.104 4.595s-4.104-2.297-4.104-4.894 1.802-4.694 4.104-4.594m17.819 5.293c0-2.597-1.802-4.794-4.104-4.794-2.303-.1-4.105 1.998-4.105 4.594s1.802 4.794 4.105 4.794c2.302.1 4.104-1.997 4.104-4.594m13.615.398c0-2.597-1.802-4.794-4.005-4.794-2.202-.1-4.104 1.997-4.104 4.594s1.802 4.794 4.104 4.794c2.203.1 4.005-1.997 4.005-4.594" clip-rule="evenodd"/><path fill="#DD7E10" fill-opacity=".85" fill-rule="evenodd" d="M287.631 185.964c2.302 0 4.104 2.197 4.104 4.794s-1.802 4.694-4.104 4.694-4.104-2.198-4.104-4.794c0-2.697 1.802-4.694 4.104-4.694m17.719 4.994c0-2.597-1.802-4.695-4.004-4.795-2.203 0-4.105 1.998-4.105 4.595s1.802 4.694 4.105 4.794c2.202.1 4.004-1.998 4.004-4.594m13.614.198c0-2.597-1.802-4.695-4.005-4.795-2.202 0-4.004 1.998-4.004 4.595s1.802 4.694 4.004 4.794c2.203.1 4.005-1.998 4.005-4.594" clip-rule="evenodd"/><path fill="#fff" fill-rule="evenodd" d="M278.02 190.458c0-2.597-1.801-4.794-4.104-4.794s-4.104 1.997-4.104 4.694 1.802 4.794 4.104 4.794 4.104-2.097 4.104-4.694m40.943 43.546c0-2.596-1.802-4.694-4.004-4.694s-4.004 2.098-4.004 4.694 1.802 4.695 4.004 4.695 4.004-2.098 4.004-4.695m-17.618-4.694c2.203 0 4.005 2.098 4.005 4.694s-1.802 4.695-4.005 4.695c-2.302 0-4.104-2.098-4.104-4.695 0-2.596 1.902-4.694 4.104-4.694m-9.61 4.596c0-2.597-1.802-4.694-4.104-4.694s-4.105 2.097-4.105 4.694 1.802 4.694 4.105 4.694c2.302 0 4.104-2.097 4.104-4.694m-17.819-4.897c2.303.1 4.104 2.197 4.104 4.794s-1.801 4.694-4.104 4.694-4.104-2.197-4.104-4.794 1.802-4.694 4.104-4.694" clip-rule="evenodd"/><path fill="#DD7E10" fill-opacity=".85" fill-rule="evenodd" d="M192.129 95.575c2.403.1 4.305 2.297 4.305 4.994s-2.002 4.794-4.305 4.694c-2.402-.1-4.304-2.297-4.304-4.994s1.902-4.794 4.304-4.694m0 44.246c2.403.099 4.305 2.297 4.305 4.993s-2.002 4.794-4.305 4.695c-2.402-.1-4.304-2.298-4.304-4.994 0-2.697 1.902-4.794 4.304-4.694" clip-rule="evenodd"/><path fill="#DD7E10" fill-opacity=".85" d="M196.434 189.06c0-2.697-1.902-4.894-4.305-4.894s-4.304 2.097-4.304 4.794 1.902 4.894 4.304 4.894c2.303 0 4.305-2.098 4.305-4.794m0 44.343c0-2.697-1.902-4.894-4.305-4.894s-4.304 2.098-4.304 4.794c0 2.697 1.902 4.894 4.304 4.894 2.303 0 4.305-2.197 4.305-4.794"/></svg>