<svg xmlns="http://www.w3.org/2000/svg" width="339" height="314" fill="none" viewBox="0 0 339 314"><path fill="#F2F2F2" d="M112.65 4.132v41.19c0 2.002 1.432 3.717 3.435 4.1 27.195 4.861 47.613 29.077 46.56 57.872-1.048 29.461-25.094 53.392-54.483 54.535-28.815 1.05-52.955-19.355-57.919-46.432a4.18 4.18 0 0 0-1.431-2.457 4.2 4.2 0 0 0-2.673-.976H4.924c-2.479 0-4.389 2.099-4.104 4.48 5.633 53.394 51.05 94.869 106.108 94.391 57.441-.475 104.29-47.385 104.768-104.781.476-55.013-41.127-100.395-94.563-106.026-2.385-.285-4.483 1.626-4.483 4.104"/><path fill="#F2F2F2" fill-rule="evenodd" d="M37.94 29.972 67.046 59.05a4.195 4.195 0 0 0 5.44.381c6.774-5.054 14.787-8.484 23.47-10.108 2.005-.379 3.436-2.002 3.436-4.099V4.132c0-2.477-2.1-4.386-4.58-4.1a105.8 105.8 0 0 0-56.583 23.93c-1.907 1.527-2.004 4.294-.287 6.007zM22.58 39.983C10.748 55.24 2.923 73.733.825 93.95c-.29 2.383 1.714 4.48 4.102 4.48h41.125c2.004 0 3.72-1.43 4.104-3.433a55.5 55.5 0 0 1 8.394-20.973 4.31 4.31 0 0 0-.475-5.245L28.78 39.696c-1.717-1.81-4.674-1.621-6.203.287M132.5 196.25h53.911c3.054 0 5.533 2.478 5.63 5.626v106.499a5.64 5.64 0 0 1-5.63 5.625H132.5a5.64 5.64 0 0 1-5.63-5.625V201.876a5.64 5.64 0 0 1 5.63-5.626m127.192 44.242h-53.718a5.74 5.74 0 0 0-5.727 5.719v61.975a5.736 5.736 0 0 0 5.725 5.72h53.72a5.74 5.74 0 0 0 5.724-5.72v-61.975a5.74 5.74 0 0 0-5.724-5.719m19.942 29.844h53.244a5.937 5.937 0 0 1 5.915 5.91v31.656a5.94 5.94 0 0 1-5.915 5.91h-53.244a5.94 5.94 0 0 1-5.915-5.91v-31.656a5.94 5.94 0 0 1 5.915-5.91" clip-rule="evenodd"/><path fill="#8C8C8C" fill-rule="evenodd" d="M35.552 127.696c-8.489 0-15.459 6.965-15.459 15.447v119.562c0 8.482 6.97 15.447 15.457 15.447h184.635c8.498 0 15.446-6.876 15.362-15.428V143.146c0-8.485-6.97-15.45-15.457-15.45H35.55zm184.633 154.267H35.552c-10.599 0-19.276-8.67-19.276-19.258V143.146c0-10.591 8.68-19.261 19.276-19.261H220.09c10.594 0 19.274 8.67 19.274 19.258v119.552c.101 10.704-8.595 19.268-19.179 19.268" clip-rule="evenodd"/><path fill="#8C8C8C" d="M36.126 148.199a4.965 4.965 0 0 0 4.963-4.959 4.965 4.965 0 0 0-8.47-3.507 4.957 4.957 0 0 0 3.507 8.466m16.125 0a4.965 4.965 0 0 0 4.963-4.959 4.965 4.965 0 0 0-8.47-3.507 4.957 4.957 0 0 0 0 7.011 4.97 4.97 0 0 0 3.507 1.455m16.128 0a4.965 4.965 0 0 0 4.962-4.959 4.965 4.965 0 0 0-8.47-3.507 4.957 4.957 0 0 0 0 7.011 4.97 4.97 0 0 0 3.508 1.455"/><path fill="#8C8C8C" fill-rule="evenodd" d="M16.564 160.97a1.904 1.904 0 0 1 1.907-1.906h218.413a1.907 1.907 0 0 1 1.349 3.254 1.9 1.9 0 0 1-1.349.558H18.474a1.9 1.9 0 0 1-1.763-1.176 1.9 1.9 0 0 1-.147-.73" clip-rule="evenodd"/><path fill="#FFD89D" d="M302.341 243.54 95.379 254.983c-6.966.381-12.69-4.958-12.69-11.92V83.457c0-6.96 5.724-12.298 12.69-11.917L302.34 82.982c5.342.284 9.638 5.433 9.638 11.44v137.676c0 6.007-4.296 11.158-9.638 11.442"/><path fill="#D06304" d="M196.253 188.776c-1.354 1.447-3.945 1.515-5.418.14l-25.502-23.842c-1.472-1.375-1.579-3.966-.224-5.416l5.2-5.32c1.345-1.686 3.699-1.746 5.181-.135l17.402 16.043 33.861-36.239c1.342-1.684 3.698-1.745 5.178-.135l5.63 5.037c1.473 1.375 1.579 3.966.225 5.416z"/><path fill="#D06304" fill-rule="evenodd" d="M107.213 88.415c0 3.242-2.578 5.72-5.821 5.529-3.244-.097-5.82-2.859-5.82-6.103a5.48 5.48 0 0 1 3.606-5.205 5.5 5.5 0 0 1 2.212-.322c3.151.096 5.823 2.858 5.823 6.1m18.795.76a5.5 5.5 0 0 1-1.683 3.984 5.52 5.52 0 0 1-4.041 1.547c-3.148-.096-5.724-2.86-5.724-6.007a5.52 5.52 0 0 1 1.684-3.982 5.52 5.52 0 0 1 4.04-1.547c3.148.19 5.724 2.856 5.724 6.005m12.787 6.294c3.054.19 5.535-2.29 5.535-5.436s-2.481-5.814-5.535-5.91c-3.149-.193-5.628 2.287-5.628 5.435 0 3.146 2.576 5.814 5.628 5.91" clip-rule="evenodd"/><path fill="#8C8C8C" fill-rule="evenodd" d="M260.837 22.152a1.905 1.905 0 0 1 1.907 1.906v6.866a1.906 1.906 0 0 1-1.908 1.907 1.91 1.91 0 0 1-1.909-1.907V24.06a1.905 1.905 0 0 1 1.91-1.906zM244.425 38.46a1.895 1.895 0 0 1 1.178-1.764c.232-.095.481-.144.732-.144h6.965a1.905 1.905 0 1 1 0 3.812h-6.965a1.91 1.91 0 0 1-1.91-1.906zm21.946 0a1.907 1.907 0 0 1 1.909-1.908h6.966a1.907 1.907 0 0 1 0 3.812h-6.966a1.905 1.905 0 0 1-1.909-1.906zm-5.534 5.047a1.91 1.91 0 0 1 1.763 1.178c.096.232.145.48.144.73v7.438a1.906 1.906 0 0 1-1.908 1.907 1.91 1.91 0 0 1-1.909-1.907v-7.438a1.905 1.905 0 0 1 1.179-1.761c.232-.096.48-.147.731-.147" clip-rule="evenodd"/></svg>