<svg xmlns="http://www.w3.org/2000/svg" width="400" height="400" fill="none" viewBox="0 0 400 400"><path fill="#433F43" d="M142.858 47.132v41.19c0 2.002 1.432 3.717 3.435 4.1 27.195 4.862 47.613 29.077 46.56 57.872-1.048 29.461-25.094 53.392-54.483 54.535-28.815 1.05-52.955-19.355-57.919-46.432a4.18 4.18 0 0 0-1.431-2.457 4.2 4.2 0 0 0-2.673-.976H35.133c-2.48 0-4.39 2.099-4.105 4.48 5.633 53.394 51.05 94.869 106.108 94.391 57.441-.475 104.29-47.385 104.768-104.781.476-55.013-41.127-100.395-94.563-106.026-2.385-.285-4.483 1.626-4.483 4.104"/><path fill="#433F43" fill-rule="evenodd" d="m68.149 72.971 29.104 29.079a4.196 4.196 0 0 0 5.439.382c6.775-5.054 14.788-8.485 23.472-10.108 2.004-.38 3.435-2.003 3.435-4.1V47.133c0-2.478-2.1-4.386-4.58-4.101a105.8 105.8 0 0 0-56.583 23.93c-1.908 1.528-2.004 4.295-.288 6.008zM52.786 82.983c-11.83 15.256-19.654 33.749-21.752 53.966-.29 2.383 1.714 4.479 4.102 4.479H76.26c2.004 0 3.72-1.43 4.105-3.432a55.5 55.5 0 0 1 8.394-20.974 4.31 4.31 0 0 0-.475-5.245L58.989 82.696c-1.717-1.81-4.674-1.621-6.203.287M162.71 239.25h53.911c3.054 0 5.533 2.477 5.63 5.625v106.499a5.636 5.636 0 0 1-5.63 5.626H162.71a5.64 5.64 0 0 1-5.63-5.626V244.875a5.64 5.64 0 0 1 5.63-5.625m127.192 44.241h-53.718a5.74 5.74 0 0 0-5.727 5.72v61.975a5.736 5.736 0 0 0 5.724 5.72h53.721a5.736 5.736 0 0 0 5.724-5.72v-61.975a5.736 5.736 0 0 0-5.724-5.72m19.942 29.844h53.244a5.945 5.945 0 0 1 5.915 5.911v31.655a5.943 5.943 0 0 1-5.915 5.911h-53.244a5.945 5.945 0 0 1-5.915-5.911v-31.655a5.945 5.945 0 0 1 5.915-5.911" clip-rule="evenodd"/><path fill="#999" fill-rule="evenodd" d="M65.76 170.696c-8.489 0-15.459 6.965-15.459 15.447v119.562c0 8.482 6.97 15.446 15.457 15.446h184.635c8.498 0 15.446-6.875 15.362-15.427V186.145c0-8.484-6.97-15.449-15.457-15.449H65.758zm184.633 154.267H65.76c-10.599 0-19.276-8.67-19.276-19.258v-119.56c0-10.59 8.68-19.261 19.276-19.261h184.538c10.594 0 19.274 8.671 19.274 19.259v119.552c.101 10.704-8.595 19.268-19.179 19.268" clip-rule="evenodd"/><path fill="#999" d="M66.334 191.199a4.964 4.964 0 0 0 4.963-4.959 4.956 4.956 0 0 0-4.963-4.958 4.96 4.96 0 0 0-4.961 4.957c0 1.315.523 2.576 1.453 3.506a4.97 4.97 0 0 0 3.508 1.454m16.125 0a4.964 4.964 0 0 0 4.963-4.959 4.957 4.957 0 0 0-4.963-4.958 4.96 4.96 0 0 0-4.961 4.957c0 1.315.523 2.576 1.453 3.506a4.97 4.97 0 0 0 3.508 1.454m16.128 0a4.96 4.96 0 1 0 0-9.917 4.96 4.96 0 0 0-4.962 4.957 4.97 4.97 0 0 0 4.961 4.96"/><path fill="#999" fill-rule="evenodd" d="M46.772 203.971a1.904 1.904 0 0 1 1.907-1.906h218.413a1.906 1.906 0 1 1 0 3.811H48.682a1.9 1.9 0 0 1-1.763-1.176 1.9 1.9 0 0 1-.147-.729" clip-rule="evenodd"/><path fill="#FFD493" d="m332.548 286.54-206.962 11.443c-6.965.381-12.689-4.958-12.689-11.92V126.457c0-6.96 5.724-12.298 12.689-11.917l206.962 11.442c5.343.284 9.638 5.433 9.638 11.44v137.676c0 6.007-4.295 11.158-9.638 11.442"/><path fill="#DD7E10" d="M226.461 231.776c-1.354 1.447-3.945 1.515-5.418.14l-25.502-23.842c-1.472-1.375-1.579-3.966-.224-5.416l5.2-5.319c1.345-1.687 3.699-1.747 5.181-.135l17.402 16.042 33.861-36.239c1.342-1.684 3.698-1.744 5.178-.135l5.63 5.037c1.473 1.375 1.579 3.966.225 5.416z"/><path fill="#DD7E10" fill-rule="evenodd" d="M137.421 131.414c0 3.243-2.578 5.72-5.821 5.53-3.244-.097-5.82-2.859-5.82-6.104a5.5 5.5 0 0 1 .434-2.191 5.49 5.49 0 0 1 5.384-3.336c3.151.097 5.823 2.859 5.823 6.101m18.795.76a5.5 5.5 0 0 1-1.683 3.985 5.53 5.53 0 0 1-4.041 1.547c-3.148-.096-5.724-2.861-5.724-6.007a5.52 5.52 0 0 1 1.684-3.982 5.5 5.5 0 0 1 4.04-1.547c3.148.19 5.724 2.856 5.724 6.004m12.787 6.294c3.054.191 5.535-2.289 5.535-5.435s-2.481-5.814-5.535-5.91c-3.149-.193-5.628 2.287-5.628 5.435 0 3.146 2.576 5.814 5.628 5.91" clip-rule="evenodd"/><path fill="#999" fill-rule="evenodd" d="M291.045 65.153a1.905 1.905 0 0 1 1.907 1.905v6.866a1.906 1.906 0 0 1-1.908 1.907 1.91 1.91 0 0 1-1.909-1.907v-6.863a1.905 1.905 0 0 1 1.91-1.906zM274.633 81.46a1.9 1.9 0 0 1 1.178-1.764c.232-.096.481-.145.732-.145h6.965a1.905 1.905 0 1 1 0 3.812h-6.965a1.91 1.91 0 0 1-1.765-1.176 1.9 1.9 0 0 1-.145-.73zm21.946 0a1.91 1.91 0 0 1 1.178-1.764 1.9 1.9 0 0 1 .731-.145h6.966a1.907 1.907 0 0 1 0 3.812h-6.966a1.906 1.906 0 0 1-1.909-1.906zm-5.534 5.046a1.91 1.91 0 0 1 1.763 1.178c.096.232.145.48.144.73v7.438a1.906 1.906 0 0 1-1.908 1.907 1.91 1.91 0 0 1-1.909-1.907v-7.437a1.905 1.905 0 0 1 1.179-1.762c.232-.096.48-.147.731-.147" clip-rule="evenodd"/></svg>