<svg xmlns="http://www.w3.org/2000/svg" width="400" height="400" fill="none" viewBox="0 0 400 400"><path fill="#433F43" d="M194.349 31.997A12.974 12.974 0 0 0 181.345 19H43.004A12.974 12.974 0 0 0 30 31.997V241.34a12.974 12.974 0 0 0 13.004 12.996h267.679a12.974 12.974 0 0 0 13.004-12.996V57.99a12.975 12.975 0 0 0-13.004-12.997h-103.23c-7.303 0-13.104-5.799-13.104-12.997"/><path fill="#999" d="M56.208 141.167v-2a2 2 0 0 0-2 2zm17.105 0h2a2 2 0 0 0-2-2zm0 16.495v2a2 2 0 0 0 2-2zm-17.105 0h-2a2 2 0 0 0 2 2zm175.752-16.495v-2a2 2 0 0 0-2 2zm17.105 0h2a2 2 0 0 0-2-2zm0 16.495v2a2 2 0 0 0 2-2zm-17.105 0h-2a2 2 0 0 0 2 2zM56.208 364.504v-2a2 2 0 0 0-2 2zm17.105 0h2a2 2 0 0 0-2-2zm0 16.496v2a2 2 0 0 0 2-2zm-17.105 0h-2a2 2 0 0 0 2 2zm175.752-16.496v-2a2 2 0 0 0-2 2zm17.105 0h2a2 2 0 0 0-2-2zm0 16.496v2a2 2 0 0 0 2-2zm-17.105 0h-2a2 2 0 0 0 2 2zM56.208 143.167h17.105v-4H56.208zm15.105-2v16.495h4v-16.495zm2 14.495H56.208v4h17.105zm-15.105 2v-16.495h-4v16.495zm173.752-14.495h17.105v-4H231.96zm15.105-2v16.495h4v-16.495zm2 14.495H231.96v4h17.105zm-15.105 2v-16.495h-4v16.495zM56.208 366.504h17.105v-4H56.208zm15.105-2V381h4v-16.496zm2 14.496H56.208v4h17.105zm-15.105 2v-16.496h-4V381zm173.752-14.496h17.105v-4H231.96zm15.105-2V381h4v-16.496zm2 14.496H231.96v4h17.105zm-15.105 2v-16.496h-4V381z"/><path stroke="#999" stroke-linecap="round" stroke-linejoin="round" stroke-width="4" d="M80.215 149.363h2"/><path stroke="#999" stroke-dasharray="4.16 10.4" stroke-linecap="round" stroke-linejoin="round" stroke-width="4" d="M92.62 149.363h125.836"/><path stroke="#999" stroke-linecap="round" stroke-linejoin="round" stroke-width="4" d="M223.658 149.363h2"/><g stroke="#999" stroke-linecap="round" stroke-linejoin="round" stroke-width="4"><path d="M80.215 372.704h2"/><path stroke-dasharray="4.16 10.4" d="M92.619 372.704h125.837"/><path d="M223.658 372.704h2"/></g><g stroke="#999" stroke-linecap="round" stroke-linejoin="round" stroke-width="4"><path d="M64.81 163.859v2"/><path stroke-dasharray="3.95 9.87" d="M64.81 175.656v174.752"/><path d="M64.81 355.307v2"/></g><g stroke="#999" stroke-linecap="round" stroke-linejoin="round" stroke-width="4"><path d="M240.562 163.859v2"/><path stroke-dasharray="3.95 9.87" d="M240.562 175.656v174.752"/><path d="M240.562 355.307v2"/></g><path stroke="#999" stroke-linecap="round" stroke-linejoin="round" stroke-width="4" d="M121.527 121.072c0-18.995 15.405-34.39 34.41-34.39"/><path fill="#999" d="m123.027 132.371 8.103-12.297c.8-1.2-.1-2.799-1.501-2.799h-16.204c-1.401 0-2.301 1.599-1.501 2.799l8.103 12.297a1.777 1.777 0 0 0 3 0"/><path fill="#FFD493" d="m346.493 314.619-163.148 10.097c-6.702.4-12.204-4.599-12.204-11.297V78.783c0-6.698 5.502-11.397 12.204-10.597L346.493 87.98c5.202.6 9.403 5.799 9.403 11.597v203.945c0 5.798-4.201 10.797-9.403 11.097"/><path stroke="#DD7E10" stroke-dasharray="4 10" stroke-linecap="round" stroke-linejoin="round" stroke-width="4" d="m331.189 217.146-131.839-2.199c-4.502-.1-8.203-3.799-8.203-8.298V97.979c0-4.9 4.302-8.798 9.203-8.198l131.939 14.196c4.201.5 7.402 3.999 7.402 8.198v96.673c0 4.699-3.801 8.398-8.502 8.298" clip-rule="evenodd"/><path fill="#DD7E10" d="m196.95 304.624-.098-1.998-.027.002zm0-68.881.003-2h-.003zm57.217.1-.004 2h.004zm5.201 60.383h-2l.001.069zm-64.43-59.123a2 2 0 1 0-2.778 2.878zm61.241 64.661a2 2 0 1 0 2.778-2.878zm2.923-63.229a2 2 0 1 0-2.869-2.788zm-67.288 63.494a2 2 0 0 0 2.869 2.788zm92.862-1.702.071 1.998.024-.001zm0-64.483.004-2h-.004zm50.315.1-.004 2h.004zm4.601 56.685h-2l.002.071zm-55.281-55.381a2 2 0 1 0-2.872 2.784zm52.744 60.169a2 2 0 1 0 2.872-2.784zm2.512-59.024a2 2 0 1 0-2.951-2.701zm-59.768 59.382a2 2 0 1 0 2.951 2.701zm-25.73 2.052-57.217 2.799.195 3.996 57.217-2.8zm-57.244 2.801c-2.002.125-3.577-1.409-3.577-3.403h-4c0 4.205 3.427 7.67 7.826 7.395zm-3.577-3.403v-57.784h-4v57.784zm0-57.784a3.697 3.697 0 0 1 3.702-3.698v-4c-4.182 0-7.702 3.371-7.702 7.698zm3.698-3.698 57.217.1.007-4-57.217-.1zm57.221.1c1.724 0 3.201 1.43 3.201 3.398h4c0-4.03-3.124-7.398-7.201-7.398zm3.201 3.398v54.985h4v-54.985zm.001 55.054c.061 1.748-1.439 3.403-3.34 3.534l.275 3.991c3.901-.269 7.203-3.613 7.063-7.663zm-65.209-56.314 64.019 61.783 2.778-2.878-64.019-61.783zm66.797 58.905-64.019-61.783-2.778 2.878 64.019 61.783zm-2.724-63.139-64.419 66.282 2.869 2.788 64.419-66.282zm-61.55 69.07 64.419-66.282-2.869-2.788-64.419 66.282zm140.213-8.887-50.315 2.399.19 3.995 50.315-2.399zm-50.291 2.398c-1.551.055-2.93-1.211-2.93-3.1h-4c0 3.91 3.022 7.242 7.072 7.097zm-2.93-3.1v-54.085h-4v54.085zm0-54.085c0-1.97 1.479-3.299 3.001-3.299v-4c-3.879 0-7.001 3.271-7.001 7.299zm2.997-3.299 50.315.1.008-4-50.315-.1zm50.319.1c1.288 0 2.601 1.184 2.601 3.099h4c0-3.684-2.688-7.099-6.601-7.099zm2.601 3.099v51.586h4v-51.586zm.002 51.657c.065 1.82-1.299 3.176-2.68 3.229l.154 3.997c3.821-.147 6.658-3.59 6.523-7.369zm-56.155-52.668 55.616 57.385 2.872-2.784-55.616-57.385zm58.488 54.601-55.616-57.385-2.872 2.784 55.616 57.385zm-3.311-58.941-56.817 62.083 2.951 2.701 56.817-62.083zm-53.866 64.784 56.817-62.083-2.951-2.701-56.817 62.083z"/><path fill="#999" d="m345.494 203.952-138.141-2.3c-3.101-.1-5.602-2.599-5.602-5.698V80.985c0-3.399 3.001-6.098 6.302-5.698l138.141 14.796c2.901.3 5.101 2.799 5.101 5.698v102.472c0 3.199-2.6 5.799-5.801 5.699" opacity=".2"/><path fill="#FFBE5C" d="m363.798 192.853-144.842-2.4c-2.801 0-5.002-2.299-5.002-5.098V64.388c0-3 2.601-5.399 5.602-4.999l144.943 15.596c2.6.3 4.501 2.4 4.501 4.999v107.77c0 2.899-2.301 5.099-5.202 5.099"/><path fill="#fff" d="M299.579 105.778a2 2 0 0 0-4 0zm-4 43.588a2 2 0 1 0 4 0zm22.587-18.496a2 2 0 1 0 .238-3.992zm-41.674-6.492a2 2 0 1 0-.238 3.992zm19.087-18.6v43.588h4v-43.588zm22.825 21.1-41.912-2.5-.238 3.992 41.912 2.5z"/></svg>