<svg xmlns="http://www.w3.org/2000/svg" width="400" height="400" fill="none" viewBox="0 0 400 400"><path fill="#414141" d="M195.349 30.997A12.974 12.974 0 0 0 182.345 18H44.004A12.974 12.974 0 0 0 31 30.997V240.34a12.974 12.974 0 0 0 13.004 12.996h267.679a12.974 12.974 0 0 0 13.004-12.996V56.99a12.975 12.975 0 0 0-13.004-12.997h-103.23c-7.303 0-13.104-5.799-13.104-12.997"/><path fill="#949494" fill-rule="evenodd" d="M55.208 140.167a2 2 0 0 1 2-2h17.105a2 2 0 0 1 2 2v16.496a2 2 0 0 1-2 2H57.208a2 2 0 0 1-2-2zm4 2v12.496h13.105v-12.496zm171.752-2a2 2 0 0 1 2-2h17.105a2 2 0 0 1 2 2v16.496a2 2 0 0 1-2 2H232.96a2 2 0 0 1-2-2zm4 2v12.496h13.105v-12.496zM55.208 363.505a2 2 0 0 1 2-2h17.105a2 2 0 0 1 2 2V380a2 2 0 0 1-2 2H57.208a2 2 0 0 1-2-2zm4 2V378h13.105v-12.495zm171.752-2a2 2 0 0 1 2-2h17.105a2 2 0 0 1 2 2V380a2 2 0 0 1-2 2H232.96a2 2 0 0 1-2-2zm4 2V378h13.105v-12.495zM79.215 148.363a2 2 0 0 1 2-2h2a2 2 0 0 1 0 4h-2a2 2 0 0 1-2-2m12.405 0a2 2 0 0 1 2-2h1.997a2 2 0 0 1 0 4h-1.998a2 2 0 0 1-2-2m11.984 0a2 2 0 0 1 2-2h3.994a2 2 0 0 1 0 4h-3.994a2 2 0 0 1-2-2m13.982 0a2 2 0 0 1 2-2h3.994a2 2 0 0 1 0 4h-3.994a2 2 0 0 1-2-2m13.981 0a2 2 0 0 1 2-2h3.995a2 2 0 0 1 0 4h-3.995a2 2 0 0 1-2-2m13.982 0a2 2 0 0 1 2-2h3.995a2 2 0 0 1 0 4h-3.995a2 2 0 0 1-2-2m13.982 0a2 2 0 0 1 2-2h3.995a2 2 0 0 1 0 4h-3.995a2 2 0 0 1-2-2m13.982 0a2 2 0 0 1 2-2h3.995a2 2 0 0 1 0 4h-3.995a2 2 0 0 1-2-2m13.982 0a2 2 0 0 1 2-2h3.995a2 2 0 0 1 0 4h-3.995a2 2 0 0 1-2-2m13.982 0a2 2 0 0 1 2-2h3.995a2 2 0 0 1 0 4h-3.995a2 2 0 0 1-2-2m13.982 0a2 2 0 0 1 2-2h1.997a2 2 0 0 1 0 4h-1.997a2 2 0 0 1-2-2m7.2 0a2 2 0 0 1 2-2h2a2 2 0 0 1 0 4h-2a2 2 0 0 1-2-2M79.215 371.704a2 2 0 0 1 2-2h2a2 2 0 0 1 0 4h-2a2 2 0 0 1-2-2m12.404 0a2 2 0 0 1 2-2h1.997a2 2 0 0 1 0 4H93.62a2 2 0 0 1-2-2m11.984 0a2 2 0 0 1 2-2h3.995a2 2 0 0 1 0 4h-3.995a2 2 0 0 1-2-2m13.982 0a2 2 0 0 1 2-2h3.995a2 2 0 0 1 0 4h-3.995a2 2 0 0 1-2-2m13.982 0a2 2 0 0 1 2-2h3.995a2 2 0 0 1 0 4h-3.995a2 2 0 0 1-2-2m13.982 0a2 2 0 0 1 2-2h3.995a2 2 0 0 1 0 4h-3.995a2 2 0 0 1-2-2m13.982 0a2 2 0 0 1 2-2h3.995a2 2 0 0 1 0 4h-3.995a2 2 0 0 1-2-2m13.982 0a2 2 0 0 1 2-2h3.995a2 2 0 0 1 0 4h-3.995a2 2 0 0 1-2-2m13.982 0a2 2 0 0 1 2-2h3.995a2 2 0 0 1 0 4h-3.995a2 2 0 0 1-2-2m13.982 0a2 2 0 0 1 2-2h3.995a2 2 0 0 1 0 4h-3.995a2 2 0 0 1-2-2m13.982 0a2 2 0 0 1 2-2h1.997a2 2 0 0 1 0 4h-1.997a2 2 0 0 1-2-2m7.198 0a2 2 0 0 1 2-2h2a2 2 0 0 1 0 4h-2a2 2 0 0 1-2-2M65.81 160.859a2 2 0 0 1 2 2v2a2 2 0 1 1-4 0v-2a2 2 0 0 1 2-2m0 11.797a2 2 0 0 1 2 2v1.921a2 2 0 0 1-4 0v-1.921a2 2 0 0 1 2-2m0 11.522a2 2 0 0 1 2 2v3.841a2 2 0 1 1-4 0v-3.841a2 2 0 0 1 2-2m0 13.443a2 2 0 0 1 2 2v3.841a2 2 0 0 1-4 0v-3.841a2 2 0 0 1 2-2m0 13.442a2 2 0 0 1 2 2v3.841a2 2 0 1 1-4 0v-3.841a2 2 0 0 1 2-2m0 13.443a2 2 0 0 1 2 2v3.841a2 2 0 0 1-4 0v-3.841a2 2 0 0 1 2-2m0 13.442a2 2 0 0 1 2 2v3.841a2 2 0 1 1-4 0v-3.841a2 2 0 0 1 2-2m0 13.443a2 2 0 0 1 2 2v3.841a2 2 0 0 1-4 0v-3.841a2 2 0 0 1 2-2m0 13.442a2 2 0 0 1 2 2v3.841a2 2 0 1 1-4 0v-3.841a2 2 0 0 1 2-2m0 13.443a2 2 0 0 1 2 2v3.841a2 2 0 0 1-4 0v-3.841a2 2 0 0 1 2-2m0 13.442a2 2 0 0 1 2 2v3.841a2 2 0 1 1-4 0v-3.841a2 2 0 0 1 2-2m0 13.443a2 2 0 0 1 2 2v3.841a2 2 0 0 1-4 0v-3.841a2 2 0 0 1 2-2m0 13.442a2 2 0 0 1 2 2v3.841a2 2 0 1 1-4 0v-3.841a2 2 0 0 1 2-2m0 13.443a2 2 0 0 1 2 2v3.841a2 2 0 0 1-4 0v-3.841a2 2 0 0 1 2-2m0 13.442a2 2 0 0 1 2 2v1.921a2 2 0 0 1-4 0v-1.921a2 2 0 0 1 2-2m0 6.819a2 2 0 0 1 2 2v2a2 2 0 1 1-4 0v-2a2 2 0 0 1 2-2m175.752-191.448a2 2 0 0 1 2 2v2a2 2 0 1 1-4 0v-2a2 2 0 0 1 2-2m0 11.797a2 2 0 0 1 2 2v1.921a2 2 0 0 1-4 0v-1.921a2 2 0 0 1 2-2m0 11.522a2 2 0 0 1 2 2v3.841a2 2 0 1 1-4 0v-3.841a2 2 0 0 1 2-2m0 13.443a2 2 0 0 1 2 2v3.841a2 2 0 0 1-4 0v-3.841a2 2 0 0 1 2-2m0 13.442a2 2 0 0 1 2 2v3.841a2 2 0 1 1-4 0v-3.841a2 2 0 0 1 2-2m0 13.443a2 2 0 0 1 2 2v3.841a2 2 0 0 1-4 0v-3.841a2 2 0 0 1 2-2m0 13.442a2 2 0 0 1 2 2v3.841a2 2 0 1 1-4 0v-3.841a2 2 0 0 1 2-2m0 13.443a2 2 0 0 1 2 2v3.841a2 2 0 0 1-4 0v-3.841a2 2 0 0 1 2-2m0 13.442a2 2 0 0 1 2 2v3.841a2 2 0 1 1-4 0v-3.841a2 2 0 0 1 2-2m0 13.443a2 2 0 0 1 2 2v3.841a2 2 0 0 1-4 0v-3.841a2 2 0 0 1 2-2m0 13.442a2 2 0 0 1 2 2v3.841a2 2 0 1 1-4 0v-3.841a2 2 0 0 1 2-2m0 13.443a2 2 0 0 1 2 2v3.841a2 2 0 0 1-4 0v-3.841a2 2 0 0 1 2-2m0 13.442a2 2 0 0 1 2 2v3.841a2 2 0 1 1-4 0v-3.841a2 2 0 0 1 2-2m0 13.443a2 2 0 0 1 2 2v3.841a2 2 0 0 1-4 0v-3.841a2 2 0 0 1 2-2m0 13.442a2 2 0 0 1 2 2v1.921a2 2 0 0 1-4 0v-1.921a2 2 0 0 1 2-2m0 6.819a2 2 0 0 1 2 2v2a2 2 0 1 1-4 0v-2a2 2 0 0 1 2-2M156.937 87.682c-17.902 0-32.41 14.501-32.41 32.39a2 2 0 1 1-4 0c0-20.1 16.301-36.39 36.41-36.39a2 2 0 1 1 0 4" clip-rule="evenodd"/><path fill="#949494" d="m124.027 131.37 8.103-12.296c.8-1.2-.1-2.8-1.501-2.8h-16.204c-1.401 0-2.301 1.6-1.501 2.8l8.103 12.296c.7 1.1 2.3 1.1 3 0"/><path fill="#FFD28D" d="m347.493 313.619-163.148 10.098c-6.702.399-12.204-4.599-12.204-11.297V77.783c0-6.698 5.502-11.397 12.204-10.597l163.148 19.795c5.202.6 9.403 5.798 9.403 11.597v203.944c0 5.799-4.201 10.797-9.403 11.097"/><path fill="#D3823D" fill-rule="evenodd" d="M201.107 90.766a6 6 0 0 0-1.496 0 2 2 0 1 1-.489-3.97 10 10 0 0 1 2.456-.002l2.08.224a2 2 0 1 1-.428 3.977l-2.094-.226zm10.82-.847a2 2 0 0 1 2.203-1.775l4.188.451a2 2 0 1 1-.428 3.977l-4.188-.45a2 2 0 0 1-1.775-2.203m14.66 1.577a2 2 0 0 1 2.203-1.774l4.188.45a2 2 0 0 1-.428 3.977l-4.188-.45a2 2 0 0 1-1.775-2.203m14.66 1.578a2 2 0 0 1 2.203-1.775l4.188.45a2 2 0 0 1-.428 3.978l-4.188-.451a2 2 0 0 1-1.775-2.203m14.66 1.577a2 2 0 0 1 2.202-1.775l4.189.451a2 2 0 0 1-.428 3.977l-4.188-.45a2 2 0 0 1-1.775-2.203m-63.043-1.584a2 2 0 0 1 1.463 2.42c-.117.476-.18.976-.18 1.492v1.94a2 2 0 1 1-4 0v-1.94c0-.842.103-1.662.296-2.448a2 2 0 0 1 2.421-1.464m77.703 3.161a2 2 0 0 1 2.202-1.774l4.189.45a2 2 0 1 1-.428 3.977l-4.189-.45a2 2 0 0 1-1.774-2.203m14.66 1.578a2 2 0 0 1 2.202-1.775l4.189.45a2 2 0 1 1-.428 3.978l-4.189-.451a2 2 0 0 1-1.774-2.202m14.66 1.577a2 2 0 0 1 2.202-1.775l4.189.451a2 2 0 0 1-.428 3.977l-4.189-.451a2 2 0 0 1-1.774-2.202m14.66 1.577a2 2 0 0 1 2.202-1.774l4.189.45a2 2 0 0 1-.428 3.977l-4.189-.45a2 2 0 0 1-1.774-2.203m14.659 1.578a2 2 0 0 1 2.203-1.775l2.094.225.023.003q1.076.129 2.074.462a2 2 0 1 1-1.258 3.797 6.5 6.5 0 0 0-1.278-.286l-.011-.001-2.072-.223a2 2 0 0 1-1.775-2.202m-137.059 4.084a2 2 0 0 1 2 2v3.881a2 2 0 0 1-4 0v-3.881a2 2 0 0 1 2-2m147.942.884a2 2 0 0 1 2.376 1.535q.225 1.037.226 2.134v1.973a2 2 0 0 1-4 0v-1.973q-.001-.668-.136-1.293a2 2 0 0 1 1.534-2.376m-147.942 12.7a2 2 0 0 1 2 2v3.881a2 2 0 0 1-4 0v-3.881a2 2 0 0 1 2-2m148.544.806a2 2 0 0 1 2 2v3.946a2 2 0 1 1-4 0v-3.946a2 2 0 0 1 2-2m-148.544 12.777a2 2 0 0 1 2 2v3.882a2 2 0 0 1-4 0v-3.882a2 2 0 0 1 2-2m148.544 1.034a2 2 0 0 1 2 2v3.946a2 2 0 0 1-4 0v-3.946a2 2 0 0 1 2-2m-148.544 12.55a2 2 0 0 1 2 2v3.881a2 2 0 1 1-4 0v-3.881a2 2 0 0 1 2-2m148.544 1.26a2 2 0 0 1 2 2v3.946a2 2 0 1 1-4 0v-3.946a2 2 0 0 1 2-2m-148.544 12.324a2 2 0 0 1 2 2v3.881a2 2 0 1 1-4 0v-3.881a2 2 0 0 1 2-2m148.544 1.487a2 2 0 0 1 2 2v3.946a2 2 0 0 1-4 0v-3.946a2 2 0 0 1 2-2M192.147 174.54a2 2 0 0 1 2 2v3.881a2 2 0 1 1-4 0v-3.881a2 2 0 0 1 2-2m148.544 1.713a2 2 0 0 1 2 2v3.946a2 2 0 1 1-4 0v-3.946a2 2 0 0 1 2-2m-148.544 11.871a2 2 0 0 1 2 2v3.881a2 2 0 0 1-4 0v-3.881a2 2 0 0 1 2-2m148.544 1.94a2 2 0 0 1 2 2v3.946a2 2 0 0 1-4 0v-3.946a2 2 0 0 1 2-2m-148.544 11.643a2 2 0 0 1 2 2v1.941q.002.712.157 1.378a2 2 0 0 1-3.897.901c-.17-.735-.26-1.498-.26-2.279v-1.941a2 2 0 0 1 2-2m148.544 2.167a2 2 0 0 1 2 2v1.973c0 .797-.088 1.574-.258 2.322a2 2 0 0 1-3.901-.886q.157-.686.159-1.436v-1.973a2 2 0 0 1 2-2m-144.107 9.347a2 2 0 0 1 2.423-1.46q.668.167 1.382.185h.005l2.082.035a2 2 0 1 1-.067 3.999l-2.092-.035h-.012a10.3 10.3 0 0 1-2.261-.301 2 2 0 0 1-1.46-2.423m14.322.901a2 2 0 0 1 2.033-1.967l4.186.07a2 2 0 0 1-.067 4l-4.185-.07a2 2 0 0 1-1.967-2.033m14.649.244a2 2 0 0 1 2.033-1.966l4.185.07a2 2 0 1 1-.066 3.999l-4.186-.07a2 2 0 0 1-1.966-2.033m14.649.245a2 2 0 0 1 2.033-1.967l4.185.07a2 2 0 0 1-.066 4l-4.186-.07a2 2 0 0 1-1.966-2.033m14.649.244a2 2 0 0 1 2.033-1.966l4.185.069a2 2 0 0 1-.067 4l-4.185-.07a2 2 0 0 1-1.966-2.033m14.648.244a2 2 0 0 1 2.033-1.966l4.186.07a1.999 1.999 0 1 1-.067 3.999l-4.185-.07a2 2 0 0 1-1.967-2.033m14.649.245a2 2 0 0 1 2.033-1.967l4.186.07a2 2 0 0 1-.067 4l-4.185-.07a2 2 0 0 1-1.967-2.033m14.649.244a2 2 0 0 1 2.033-1.966l4.185.07a2 2 0 1 1-.066 3.999l-4.186-.07a2 2 0 0 1-1.966-2.033m14.649.245a2 2 0 0 1 2.033-1.967l4.185.07a2 2 0 1 1-.067 3.999l-4.185-.069a2 2 0 0 1-1.966-2.033m22.584-.253a2 2 0 0 1-1.563 2.358c-.749.152-1.525.223-2.319.207h-.004l-2.083-.035a1.999 1.999 0 1 1 .067-3.999l2.092.034m.009.001q.75.013 1.443-.128a2 2 0 0 1 2.358 1.562" clip-rule="evenodd"/><path fill="#949494" d="m346.494 202.952-138.141-2.299c-3.101-.1-5.602-2.599-5.602-5.698V79.985c0-3.398 3.001-6.097 6.302-5.698l138.141 14.796c2.901.3 5.101 2.8 5.101 5.699v102.472c0 3.199-2.601 5.798-5.801 5.698" opacity=".2"/><path fill="#FFBE5C" d="m364.798 191.853-144.842-2.399c-2.801 0-5.002-2.3-5.002-5.099V63.388c0-3 2.601-5.398 5.602-4.999l144.943 15.596c2.6.3 4.501 2.4 4.501 4.999v107.77c0 2.9-2.301 5.099-5.202 5.099"/><path fill="#FFF" fill-rule="evenodd" d="M298.579 102.778a2 2 0 0 1 2 2v19.977l18.825 1.123a2 2 0 0 1-.238 3.993l-18.587-1.109v19.604a2 2 0 0 1-4 0v-19.843l-19.325-1.152a2.001 2.001 0 0 1 .238-3.993l19.087 1.138v-19.738a2 2 0 0 1 2-2" clip-rule="evenodd"/></svg>