<svg xmlns="http://www.w3.org/2000/svg" width="400" height="400" fill="none" viewBox="0 0 400 400"><path fill="#F2F2F2" d="M202.749 67.049c0-7.789-6.298-14.179-14.196-14.179H38.196C30.398 52.87 24 59.16 24 67.05v227.457c0 7.788 6.298 14.179 14.196 14.179h290.918c7.797 0 14.196-6.291 14.196-14.179v-199.1c0-7.788-6.299-14.179-14.196-14.179H216.845c-7.697 0-14.096-6.29-14.096-14.178"/><path fill="#8C8C8C" fill-rule="evenodd" d="M327.613 52.772c0-11.474 9.312-20.772 20.794-20.772s20.795 9.298 20.795 20.772-9.312 20.771-20.795 20.771c-11.482 0-20.794-9.297-20.794-20.771M348.407 36c-9.277 0-16.794 7.511-16.794 16.772s7.517 16.771 16.794 16.771 16.795-7.51 16.795-16.771c0-9.26-7.517-16.772-16.795-16.772" clip-rule="evenodd"/><path fill="#8C8C8C" fill-rule="evenodd" d="M360.489 65.436a2 2 0 0 1 2.829-.002l15.096 15.077a2 2 0 0 1-2.827 2.83l-15.096-15.077a2 2 0 0 1-.002-2.828m-262.81 59.523a2 2 0 0 1 2 2v8.687a2 2 0 0 1-4 0v-8.687a2 2 0 0 1 2-2m-21.594 21.57a2 2 0 0 1 2-2h8.697a2 2 0 0 1 0 4h-8.697a2 2 0 0 1-2-2m30.391 0a2 2 0 0 1 2-2h8.798a2 2 0 0 1 0 4h-8.798a2 2 0 0 1-2-2m-8.797 6.687a2 2 0 0 1 2 2V166.1a2 2 0 0 1-4 0v-10.884a2 2 0 0 1 2-2m-20.193 53.227c-8.895 0-16.195 7.295-16.195 16.173v125.211c0 8.879 7.3 16.173 16.195 16.173H270.83c8.895 0 16.195-7.294 16.195-16.173V222.616c0-8.878-7.3-16.173-16.195-16.173zM57.29 222.616c0-11.092 9.095-20.173 20.195-20.173H270.83c11.1 0 20.195 9.081 20.195 20.173v125.211c0 11.092-9.095 20.173-20.195 20.173H77.486c-11.1 0-20.195-9.081-20.195-20.173z" clip-rule="evenodd"/><path fill="#8C8C8C" d="M77.986 227.91a5.196 5.196 0 0 0 5.198-5.192 5.196 5.196 0 0 0-5.198-5.193 5.196 5.196 0 0 0-5.199 5.193 5.196 5.196 0 0 0 5.199 5.192m16.894 0a5.196 5.196 0 0 0 5.198-5.192 5.196 5.196 0 0 0-5.199-5.193 5.196 5.196 0 0 0-5.198 5.193 5.196 5.196 0 0 0 5.198 5.192m16.898 0a5.196 5.196 0 0 0 5.199-5.192 5.196 5.196 0 0 0-5.199-5.193 5.195 5.195 0 0 0-5.198 5.193 5.195 5.195 0 0 0 5.198 5.192"/><path fill="#8C8C8C" fill-rule="evenodd" d="M57.49 241.188a2 2 0 0 1 2-2h228.835a2 2 0 1 1 0 4H59.49a2 2 0 0 1-2-2" clip-rule="evenodd"/><path fill="#FFD89D" d="M159.263 130.055v158.462c0 39.939 18.195 43.035 26.392 43.035 8.198 0 161.055-4.194 161.055-4.194s-23.694-15.676-23.694-52.321V103.795l-134.362-4.394z"/><path fill="#FFBE5C" fill-rule="evenodd" d="m186.155 130.656-26.892-.599 29.691-30.554v28.257c0 1.598-1.299 2.896-2.799 2.896m23.992 177.135s.799 19.87-24.493 23.764c13.093 0 51.421-1.17 87.593-2.273 32.321-.987 62.921-1.921 72.261-1.921 19.795 0 23.694-24.063 23.694-24.063z" clip-rule="evenodd"/><path fill="#D36507" d="m270.09 174.893-20.127 21.872-20.443-21.977-19.073 20.407 20.654 21.977-20.654 22.5 19.073 19.988 20.443-22.5 20.127 21.454 18.335-20.407-19.916-21.454 19.916-21.872z"/></svg>