<svg xmlns="http://www.w3.org/2000/svg" width="356" height="336" fill="none" viewBox="0 0 356 336"><path fill="#F2F2F2" d="M179.543 35.049c0-7.788-6.298-14.179-14.196-14.179H14.99C7.192 20.87.794 27.16.794 35.05v227.457c0 7.788 6.298 14.179 14.196 14.179h290.918c7.797 0 14.195-6.291 14.195-14.179v-199.1c0-7.788-6.298-14.179-14.195-14.179H193.639c-7.698 0-14.096-6.29-14.096-14.178"/><path fill="#8C8C8C" fill-rule="evenodd" d="M304.407 20.772C304.407 9.298 313.719 0 325.201 0s20.795 9.298 20.795 20.772-9.312 20.772-20.795 20.772c-11.482 0-20.794-9.298-20.794-20.772M325.201 4c-9.277 0-16.794 7.511-16.794 16.772s7.517 16.772 16.794 16.772 16.795-7.512 16.795-16.772S334.479 4 325.201 4" clip-rule="evenodd"/><path fill="#8C8C8C" fill-rule="evenodd" d="M337.283 33.436a2 2 0 0 1 2.829-.002l15.095 15.077a2 2 0 1 1-2.826 2.83l-15.096-15.077a2 2 0 0 1-.002-2.828M74.473 92.959a2 2 0 0 1 2 2v8.687a2 2 0 0 1-4 0v-8.687a2 2 0 0 1 2-2m-21.595 21.57a2 2 0 0 1 2-2h8.698a2 2 0 0 1 0 4h-8.698a2 2 0 0 1-2-2m30.392 0a2 2 0 0 1 2-2h8.798a2 2 0 0 1 0 4H85.27a2 2 0 0 1-2-2m-8.797 6.687a2 2 0 0 1 2 2V134.1a2 2 0 0 1-4 0v-10.884a2 2 0 0 1 2-2M54.28 174.443c-8.895 0-16.195 7.295-16.195 16.173v125.211c0 8.879 7.3 16.173 16.195 16.173h193.345c8.895 0 16.195-7.294 16.195-16.173V190.616c0-8.878-7.3-16.173-16.195-16.173zm-20.195 16.173c0-11.092 9.095-20.173 20.195-20.173h193.345c11.099 0 20.195 9.081 20.195 20.173v125.211c0 11.092-9.096 20.173-20.195 20.173H54.28c-11.1 0-20.195-9.081-20.195-20.173z" clip-rule="evenodd"/><path fill="#8C8C8C" d="M54.78 195.91a5.196 5.196 0 0 0 5.198-5.192 5.196 5.196 0 0 0-5.198-5.193 5.196 5.196 0 0 0-5.199 5.193 5.196 5.196 0 0 0 5.199 5.192m16.893 0a5.196 5.196 0 0 0 5.199-5.192 5.196 5.196 0 0 0-5.199-5.193 5.196 5.196 0 0 0-5.198 5.193 5.196 5.196 0 0 0 5.198 5.192m16.898 0a5.196 5.196 0 0 0 5.199-5.192 5.196 5.196 0 0 0-5.199-5.193 5.196 5.196 0 0 0-5.198 5.193 5.196 5.196 0 0 0 5.198 5.192"/><path fill="#8C8C8C" fill-rule="evenodd" d="M34.284 209.188a2 2 0 0 1 2-2H265.12a2 2 0 1 1 0 4H36.284a2 2 0 0 1-2-2" clip-rule="evenodd"/><path fill="#FFD89D" d="M136.057 98.055v158.462c0 39.939 18.194 43.035 26.392 43.035s161.055-4.194 161.055-4.194-23.694-15.676-23.694-52.321V71.795L165.448 67.4z"/><path fill="#FFBE5C" fill-rule="evenodd" d="m162.949 98.656-26.892-.6 29.691-30.553V95.76c0 1.598-1.299 2.896-2.799 2.896m23.992 177.135s.799 19.87-24.493 23.764c13.093 0 51.421-1.17 87.593-2.273 32.321-.987 62.921-1.921 72.261-1.921 19.795 0 23.694-24.063 23.694-24.063z" clip-rule="evenodd"/><path fill="#D36507" d="m246.884 142.893-20.127 21.872-20.443-21.977-19.073 20.407 20.654 21.977-20.654 22.5 19.073 19.988 20.443-22.5 20.127 21.454 18.335-20.407-19.916-21.454 19.916-21.872z"/></svg>