<svg xmlns="http://www.w3.org/2000/svg" width="400" height="400" fill="none" viewBox="0 0 400 400"><path fill="#433F43" d="M201.749 67.049c0-7.789-6.298-14.179-14.196-14.179H37.196C29.398 52.87 23 59.16 23 67.05v227.457c0 7.788 6.298 14.179 14.196 14.179h290.918c7.797 0 14.196-6.291 14.196-14.179v-199.1c0-7.788-6.299-14.179-14.196-14.179H215.845c-7.697 0-14.096-6.29-14.096-14.178"/><path stroke="#999" stroke-linecap="round" stroke-linejoin="round" stroke-width="4" d="M347.407 71.544c10.38 0 18.795-8.405 18.795-18.772 0-10.368-8.415-18.772-18.795-18.772s-18.794 8.404-18.794 18.772 8.414 18.771 18.794 18.771" clip-rule="evenodd"/><path fill="#999" d="M362.318 65.434a2 2 0 0 0-2.827 2.83zm12.269 17.907a2 2 0 1 0 2.826-2.83zM98.678 126.958a2 2 0 0 0-4 0zm-4 8.687a2 2 0 1 0 4 0zm4 19.571a2 2 0 1 0-4 0zm-4 10.883a2 2 0 1 0 4 0zm21.596-17.57a2 2 0 0 0 0-4zm-8.798-4a2 2 0 1 0 0 4zm-21.694 4a2 2 0 0 0 0-4zm-8.698-4a2 2 0 1 0 0 4zm282.407-76.265 15.096 15.077 2.826-2.83-15.095-15.077zM94.678 126.958v8.687h4v-8.687zm0 28.258v10.883h4v-10.883zm21.596-10.687h-8.798v4h8.798zm-30.492 0h-8.698v4h8.698z"/><path stroke="#999" stroke-linecap="round" stroke-linejoin="round" stroke-width="4" d="M269.831 366H76.486c-9.998 0-18.195-8.188-18.195-18.173V222.616c0-9.985 8.198-18.173 18.195-18.173H269.83c9.997 0 18.195 8.188 18.195 18.173v125.211c0 9.985-8.198 18.173-18.195 18.173" clip-rule="evenodd"/><path fill="#999" d="M76.985 227.91a5.196 5.196 0 0 0 5.199-5.193 5.196 5.196 0 0 0-5.199-5.192 5.196 5.196 0 0 0-5.198 5.192 5.196 5.196 0 0 0 5.198 5.193m16.895 0a5.196 5.196 0 0 0 5.198-5.193 5.196 5.196 0 0 0-5.199-5.192 5.196 5.196 0 0 0-5.198 5.192 5.196 5.196 0 0 0 5.198 5.193m16.898 0a5.195 5.195 0 0 0 5.198-5.193 5.195 5.195 0 0 0-5.198-5.192 5.196 5.196 0 0 0-5.199 5.192 5.196 5.196 0 0 0 5.199 5.193"/><path stroke="#999" stroke-linecap="round" stroke-linejoin="round" stroke-width="4" d="M58.49 241.188h228.835"/><path fill="#FFD493" d="M158.262 130.055v158.462c0 39.94 18.195 43.035 26.393 43.035s161.054-4.194 161.054-4.194-23.693-15.676-23.693-52.321V103.795l-134.362-4.393z"/><path fill="#FFBE5C" fill-rule="evenodd" d="m185.155 130.656-26.893-.599 29.692-30.554v28.258c0 1.597-1.3 2.895-2.799 2.895m23.991 177.135s.8 19.87-24.493 23.764c13.094 0 51.421-1.17 87.594-2.273 32.32-.987 62.92-1.921 72.261-1.921 19.795 0 23.693-24.063 23.693-24.063z" clip-rule="evenodd"/><path fill="#DD7E10" d="m269.09 174.893-20.127 21.872-20.443-21.977-19.073 20.407 20.654 21.977-20.654 22.5 19.073 19.988 20.443-22.5 20.127 21.454 18.335-20.407-19.916-21.454 19.916-21.872z"/></svg>