<svg width="400" height="400" viewBox="0 0 400 400" fill="none" xmlns="http://www.w3.org/2000/svg">
<g id="virtual-machine">
<g id="virtual-machine_2">
<path id="Path" d="M368.925 338.296H136.963C133.766 338.296 131.169 335.707 131.169 332.519V213.392C131.169 210.205 133.766 207.615 136.963 207.615H368.925C372.122 207.615 374.719 210.205 374.719 213.392V332.519C374.819 335.707 372.222 338.296 368.925 338.296Z" fill="#F0F3F5"/>
<path id="Union" fill-rule="evenodd" clip-rule="evenodd" d="M288.608 333.215V333.216C288.608 336.005 286.31 338.296 283.513 338.296H8.09478C5.29765 338.296 3 336.005 3 333.216V257.716C3 254.927 5.29765 252.636 8.09478 252.636H53.6384C60.2551 252.186 64.3645 252.353 66.8265 252.636H70.1314V67.5692C70.1314 55.7162 78.2231 51.8317 97.6032 51.8317H189.609V167.871H203.295V98.7455H302.593V262.396H346.149V275.245C346.149 275.245 365.429 333.215 341.553 333.215H288.608Z" fill="#F0F3F5"/>
<path id="Shape (Stroke)" fill-rule="evenodd" clip-rule="evenodd" d="M25.1775 84.3043C25.1775 83.2041 26.072 82.3123 27.1754 82.3123H150.749C151.852 82.3123 152.747 83.2041 152.747 84.3043V330.726C152.747 331.827 151.852 332.718 150.749 332.718H27.1754C26.072 332.718 25.1775 331.827 25.1775 330.726V84.3043ZM29.1734 209.507V328.734H148.751V209.507H29.1734ZM148.751 205.523H29.1734V86.2964H148.751V205.523Z" fill="#999999"/>
<path id="Shape (Stroke)_2" fill-rule="evenodd" clip-rule="evenodd" d="M77.4609 98.747C77.4609 97.7223 78.294 96.8917 79.3216 96.8917H135.964C136.991 96.8917 137.824 97.7223 137.824 98.747C137.824 99.7716 136.991 100.602 135.964 100.602H79.3216C78.294 100.602 77.4609 99.7716 77.4609 98.747ZM77.4609 108.508C77.4609 107.484 78.294 106.653 79.3216 106.653H114.586C115.613 106.653 116.446 107.484 116.446 108.508C116.446 109.533 115.613 110.363 114.586 110.363H79.3216C78.294 110.363 77.4609 109.533 77.4609 108.508ZM77.4609 118.369C77.4609 117.344 78.294 116.514 79.3216 116.514H135.964C136.991 116.514 137.824 117.344 137.824 118.369C137.824 119.394 136.991 120.224 135.964 120.224H79.3216C78.294 120.224 77.4609 119.394 77.4609 118.369Z" fill="#999999"/>
<path id="Oval" d="M42.7594 101.238C44.1388 101.238 45.257 100.123 45.257 98.7473C45.257 97.3719 44.1388 96.257 42.7594 96.257C41.38 96.257 40.2617 97.3719 40.2617 98.7473C40.2617 100.123 41.38 101.238 42.7594 101.238Z" fill="#999999"/>
<path id="Oval_2" d="M52.5502 101.238C53.9296 101.238 55.0478 100.123 55.0478 98.7473C55.0478 97.3719 53.9296 96.257 52.5502 96.257C51.1707 96.257 50.0525 97.3719 50.0525 98.7473C50.0525 100.123 51.1707 101.238 52.5502 101.238Z" fill="#999999"/>
<path id="Oval_3" d="M62.4393 101.238C63.8187 101.238 64.937 100.123 64.937 98.7473C64.937 97.3719 63.8187 96.257 62.4393 96.257C61.0599 96.257 59.9417 97.3719 59.9417 98.7473C59.9417 100.123 61.0599 101.238 62.4393 101.238Z" fill="#999999"/>
<path id="Oval_4" d="M42.7594 110.999C44.1388 110.999 45.257 109.884 45.257 108.508C45.257 107.133 44.1388 106.018 42.7594 106.018C41.38 106.018 40.2617 107.133 40.2617 108.508C40.2617 109.884 41.38 110.999 42.7594 110.999Z" fill="#999999"/>
<path id="Oval_5" d="M52.5502 110.999C53.9296 110.999 55.0478 109.884 55.0478 108.508C55.0478 107.133 53.9296 106.018 52.5502 106.018C51.1707 106.018 50.0525 107.133 50.0525 108.508C50.0525 109.884 51.1707 110.999 52.5502 110.999Z" fill="#999999"/>
<path id="Oval_6" d="M62.4393 110.999C63.8187 110.999 64.937 109.884 64.937 108.508C64.937 107.133 63.8187 106.018 62.4393 106.018C61.0599 106.018 59.9417 107.133 59.9417 108.508C59.9417 109.884 61.0599 110.999 62.4393 110.999Z" fill="#999999"/>
<path id="Oval_7" d="M42.7594 120.86C44.1388 120.86 45.257 119.745 45.257 118.369C45.257 116.994 44.1388 115.879 42.7594 115.879C41.38 115.879 40.2617 116.994 40.2617 118.369C40.2617 119.745 41.38 120.86 42.7594 120.86Z" fill="#999999"/>
<path id="Oval_8" d="M52.5502 120.86C53.9296 120.86 55.0478 119.745 55.0478 118.369C55.0478 116.994 53.9296 115.879 52.5502 115.879C51.1707 115.879 50.0525 116.994 50.0525 118.369C50.0525 119.745 51.1707 120.86 52.5502 120.86Z" fill="#999999"/>
<path id="Oval_9" d="M62.4393 120.86C63.8187 120.86 64.937 119.745 64.937 118.369C64.937 116.994 63.8187 115.879 62.4393 115.879C61.0599 115.879 59.9417 116.994 59.9417 118.369C59.9417 119.745 61.0599 120.86 62.4393 120.86Z" fill="#999999"/>
<path id="Shape (Stroke)_3" fill-rule="evenodd" clip-rule="evenodd" d="M77.4609 135.601C77.4609 134.576 78.294 133.745 79.3216 133.745H135.964C136.991 133.745 137.824 134.576 137.824 135.601C137.824 136.625 136.991 137.456 135.964 137.456H79.3216C78.294 137.456 77.4609 136.625 77.4609 135.601ZM77.4609 145.362C77.4609 144.337 78.294 143.507 79.3216 143.507H135.964C136.991 143.507 137.824 144.337 137.824 145.362C137.824 146.387 136.991 147.217 135.964 147.217H79.3216C78.294 147.217 77.4609 146.387 77.4609 145.362ZM77.4609 155.125C77.4609 154.1 78.294 153.27 79.3216 153.27H126.773C127.801 153.27 128.634 154.1 128.634 155.125C128.634 156.149 127.801 156.98 126.773 156.98H79.3216C78.294 156.98 77.4609 156.149 77.4609 155.125Z" fill="#999999"/>
<path id="Oval_10" d="M42.7594 138.091C44.1388 138.091 45.257 136.976 45.257 135.601C45.257 134.226 44.1388 133.111 42.7594 133.111C41.38 133.111 40.2617 134.226 40.2617 135.601C40.2617 136.976 41.38 138.091 42.7594 138.091Z" fill="#999999"/>
<path id="Oval_11" d="M52.5502 138.091C53.9296 138.091 55.0478 136.976 55.0478 135.601C55.0478 134.226 53.9296 133.111 52.5502 133.111C51.1707 133.111 50.0525 134.226 50.0525 135.601C50.0525 136.976 51.1707 138.091 52.5502 138.091Z" fill="#999999"/>
<path id="Oval_12" d="M62.4393 138.091C63.8187 138.091 64.937 136.976 64.937 135.601C64.937 134.226 63.8187 133.111 62.4393 133.111C61.0599 133.111 59.9417 134.226 59.9417 135.601C59.9417 136.976 61.0599 138.091 62.4393 138.091Z" fill="#999999"/>
<path id="Oval_13" d="M42.7594 147.853C44.1388 147.853 45.257 146.738 45.257 145.362C45.257 143.987 44.1388 142.872 42.7594 142.872C41.38 142.872 40.2617 143.987 40.2617 145.362C40.2617 146.738 41.38 147.853 42.7594 147.853Z" fill="#999999"/>
<path id="Oval_14" d="M52.5502 147.853C53.9296 147.853 55.0478 146.738 55.0478 145.362C55.0478 143.987 53.9296 142.872 52.5502 142.872C51.1707 142.872 50.0525 143.987 50.0525 145.362C50.0525 146.738 51.1707 147.853 52.5502 147.853Z" fill="#999999"/>
<path id="Oval_15" d="M62.4393 147.853C63.8187 147.853 64.937 146.738 64.937 145.362C64.937 143.987 63.8187 142.872 62.4393 142.872C61.0599 142.872 59.9417 143.987 59.9417 145.362C59.9417 146.738 61.0599 147.853 62.4393 147.853Z" fill="#999999"/>
<path id="Oval_16" d="M42.7594 157.615C44.1388 157.615 45.257 156.5 45.257 155.125C45.257 153.75 44.1388 152.635 42.7594 152.635C41.38 152.635 40.2617 153.75 40.2617 155.125C40.2617 156.5 41.38 157.615 42.7594 157.615Z" fill="#999999"/>
<path id="Oval_17" d="M52.5492 157.615C53.9286 157.615 55.0468 156.5 55.0468 155.125C55.0468 153.75 53.9286 152.635 52.5492 152.635C51.1698 152.635 50.0515 153.75 50.0515 155.125C50.0515 156.5 51.1698 157.615 52.5492 157.615Z" fill="#999999"/>
<path id="Oval_18" d="M62.4393 157.615C63.8187 157.615 64.937 156.5 64.937 155.125C64.937 153.75 63.8187 152.635 62.4393 152.635C61.0599 152.635 59.9417 153.75 59.9417 155.125C59.9417 156.5 61.0599 157.615 62.4393 157.615Z" fill="#999999"/>
<path id="Shape (Stroke)_4" fill-rule="evenodd" clip-rule="evenodd" d="M77.4609 172.353C77.4609 171.329 78.294 170.498 79.3216 170.498H135.964C136.991 170.498 137.824 171.329 137.824 172.353C137.824 173.378 136.991 174.209 135.964 174.209H79.3216C78.294 174.209 77.4609 173.378 77.4609 172.353ZM77.4609 182.213C77.4609 181.188 78.294 180.357 79.3216 180.357H135.964C136.991 180.357 137.824 181.188 137.824 182.213C137.824 183.237 136.991 184.068 135.964 184.068H79.3216C78.294 184.068 77.4609 183.237 77.4609 182.213ZM77.4609 191.976C77.4609 190.951 78.294 190.12 79.3216 190.12H135.964C136.991 190.12 137.824 190.951 137.824 191.976C137.824 193 136.991 193.831 135.964 193.831H79.3216C78.294 193.831 77.4609 193 77.4609 191.976Z" fill="#999999"/>
<path id="Oval_19" d="M42.7594 174.844C44.1388 174.844 45.257 173.729 45.257 172.353C45.257 170.978 44.1388 169.863 42.7594 169.863C41.38 169.863 40.2617 170.978 40.2617 172.353C40.2617 173.729 41.38 174.844 42.7594 174.844Z" fill="#999999"/>
<path id="Oval_20" d="M52.5492 174.844C53.9286 174.844 55.0468 173.729 55.0468 172.353C55.0468 170.978 53.9286 169.863 52.5492 169.863C51.1698 169.863 50.0515 170.978 50.0515 172.353C50.0515 173.729 51.1698 174.844 52.5492 174.844Z" fill="#999999"/>
<path id="Oval_21" d="M62.4393 174.844C63.8187 174.844 64.937 173.729 64.937 172.353C64.937 170.978 63.8187 169.863 62.4393 169.863C61.0599 169.863 59.9417 170.978 59.9417 172.353C59.9417 173.729 61.0599 174.844 62.4393 174.844Z" fill="#999999"/>
<path id="Oval_22" d="M42.7594 184.706C44.1388 184.706 45.257 183.591 45.257 182.216C45.257 180.841 44.1388 179.726 42.7594 179.726C41.38 179.726 40.2617 180.841 40.2617 182.216C40.2617 183.591 41.38 184.706 42.7594 184.706Z" fill="#999999"/>
<path id="Oval_23" d="M52.5502 184.706C53.9296 184.706 55.0478 183.591 55.0478 182.216C55.0478 180.841 53.9296 179.726 52.5502 179.726C51.1707 179.726 50.0525 180.841 50.0525 182.216C50.0525 183.591 51.1707 184.706 52.5502 184.706Z" fill="#999999"/>
<path id="Oval_24" d="M62.4393 184.706C63.8187 184.706 64.937 183.591 64.937 182.216C64.937 180.841 63.8187 179.726 62.4393 179.726C61.0599 179.726 59.9417 180.841 59.9417 182.216C59.9417 183.591 61.0599 184.706 62.4393 184.706Z" fill="#999999"/>
<path id="Oval_25" d="M42.7594 194.469C44.1388 194.469 45.257 193.354 45.257 191.979C45.257 190.603 44.1388 189.488 42.7594 189.488C41.38 189.488 40.2617 190.603 40.2617 191.979C40.2617 193.354 41.38 194.469 42.7594 194.469Z" fill="#999999"/>
<path id="Oval_26" d="M52.5492 194.469C53.9286 194.469 55.0468 193.354 55.0468 191.979C55.0468 190.603 53.9286 189.488 52.5492 189.488C51.1698 189.488 50.0515 190.603 50.0515 191.979C50.0515 193.354 51.1698 194.469 52.5492 194.469Z" fill="#999999"/>
<path id="Oval_27" d="M62.4393 194.469C63.8187 194.469 64.937 193.354 64.937 191.979C64.937 190.603 63.8187 189.488 62.4393 189.488C61.0599 189.488 59.9417 190.603 59.9417 191.979C59.9417 193.354 61.0599 194.469 62.4393 194.469Z" fill="#999999"/>
<g id="Group">
<path id="Shape (Stroke)_5" fill-rule="evenodd" clip-rule="evenodd" d="M77.4609 222.456C77.4609 221.431 78.294 220.601 79.3216 220.601H135.964C136.991 220.601 137.824 221.431 137.824 222.456C137.824 223.481 136.991 224.311 135.964 224.311H79.3216C78.294 224.311 77.4609 223.481 77.4609 222.456ZM77.4609 232.217C77.4609 231.193 78.294 230.362 79.3216 230.362H114.586C115.613 230.362 116.446 231.193 116.446 232.217C116.446 233.242 115.613 234.072 114.586 234.072H79.3216C78.294 234.072 77.4609 233.242 77.4609 232.217ZM77.4609 242.078C77.4609 241.053 78.294 240.223 79.3216 240.223H135.964C136.991 240.223 137.824 241.053 137.824 242.078C137.824 243.103 136.991 243.933 135.964 243.933H79.3216C78.294 243.933 77.4609 243.103 77.4609 242.078Z" fill="#999999"/>
<path id="Oval_28" d="M42.7594 224.946C44.1388 224.946 45.257 223.832 45.257 222.456C45.257 221.081 44.1388 219.966 42.7594 219.966C41.38 219.966 40.2617 221.081 40.2617 222.456C40.2617 223.832 41.38 224.946 42.7594 224.946Z" fill="#999999"/>
<path id="Oval_29" d="M52.5494 224.946C53.9288 224.946 55.0471 223.832 55.0471 222.456C55.0471 221.081 53.9288 219.966 52.5494 219.966C51.17 219.966 50.0518 221.081 50.0518 222.456C50.0518 223.832 51.17 224.946 52.5494 224.946Z" fill="#999999"/>
<path id="Oval_30" d="M62.4391 224.946C63.8185 224.946 64.9367 223.832 64.9367 222.456C64.9367 221.081 63.8185 219.966 62.4391 219.966C61.0596 219.966 59.9414 221.081 59.9414 222.456C59.9414 223.832 61.0596 224.946 62.4391 224.946Z" fill="#999999"/>
<path id="Oval_31" d="M42.7594 234.708C44.1388 234.708 45.257 233.593 45.257 232.218C45.257 230.842 44.1388 229.727 42.7594 229.727C41.38 229.727 40.2617 230.842 40.2617 232.218C40.2617 233.593 41.38 234.708 42.7594 234.708Z" fill="#999999"/>
<path id="Oval_32" d="M52.5494 234.708C53.9288 234.708 55.0471 233.593 55.0471 232.218C55.0471 230.842 53.9288 229.727 52.5494 229.727C51.17 229.727 50.0518 230.842 50.0518 232.218C50.0518 233.593 51.17 234.708 52.5494 234.708Z" fill="#999999"/>
<path id="Oval_33" d="M62.4391 234.708C63.8185 234.708 64.9367 233.593 64.9367 232.218C64.9367 230.842 63.8185 229.727 62.4391 229.727C61.0596 229.727 59.9414 230.842 59.9414 232.218C59.9414 233.593 61.0596 234.708 62.4391 234.708Z" fill="#999999"/>
<path id="Oval_34" d="M42.7594 244.569C44.1388 244.569 45.257 243.454 45.257 242.078C45.257 240.703 44.1388 239.588 42.7594 239.588C41.38 239.588 40.2617 240.703 40.2617 242.078C40.2617 243.454 41.38 244.569 42.7594 244.569Z" fill="#999999"/>
<path id="Oval_35" d="M52.5494 244.569C53.9288 244.569 55.0471 243.454 55.0471 242.078C55.0471 240.703 53.9288 239.588 52.5494 239.588C51.17 239.588 50.0518 240.703 50.0518 242.078C50.0518 243.454 51.17 244.569 52.5494 244.569Z" fill="#999999"/>
<path id="Oval_36" d="M62.4391 244.569C63.8185 244.569 64.9367 243.454 64.9367 242.078C64.9367 240.703 63.8185 239.588 62.4391 239.588C61.0596 239.588 59.9414 240.703 59.9414 242.078C59.9414 243.454 61.0596 244.569 62.4391 244.569Z" fill="#999999"/>
<path id="Shape (Stroke)_6" fill-rule="evenodd" clip-rule="evenodd" d="M77.4609 259.31C77.4609 258.285 78.294 257.455 79.3216 257.455H135.964C136.991 257.455 137.824 258.285 137.824 259.31C137.824 260.334 136.991 261.165 135.964 261.165H79.3216C78.294 261.165 77.4609 260.334 77.4609 259.31ZM77.4609 269.071C77.4609 268.046 78.294 267.216 79.3216 267.216H135.964C136.991 267.216 137.824 268.046 137.824 269.071C137.824 270.096 136.991 270.926 135.964 270.926H79.3216C78.294 270.926 77.4609 270.096 77.4609 269.071ZM77.4609 278.932C77.4609 277.907 78.294 277.077 79.3216 277.077H126.773C127.801 277.077 128.634 277.907 128.634 278.932C128.634 279.957 127.801 280.787 126.773 280.787H79.3216C78.294 280.787 77.4609 279.957 77.4609 278.932Z" fill="#999999"/>
<path id="Oval_37" d="M42.7594 261.8C44.1388 261.8 45.257 260.685 45.257 259.31C45.257 257.935 44.1388 256.82 42.7594 256.82C41.38 256.82 40.2617 257.935 40.2617 259.31C40.2617 260.685 41.38 261.8 42.7594 261.8Z" fill="#999999"/>
<path id="Oval_38" d="M52.5494 261.8C53.9288 261.8 55.0471 260.685 55.0471 259.31C55.0471 257.935 53.9288 256.82 52.5494 256.82C51.17 256.82 50.0518 257.935 50.0518 259.31C50.0518 260.685 51.17 261.8 52.5494 261.8Z" fill="#999999"/>
<path id="Oval_39" d="M62.4391 261.8C63.8185 261.8 64.9367 260.685 64.9367 259.31C64.9367 257.935 63.8185 256.82 62.4391 256.82C61.0596 256.82 59.9414 257.935 59.9414 259.31C59.9414 260.685 61.0596 261.8 62.4391 261.8Z" fill="#999999"/>
<path id="Oval_40" d="M42.7594 271.562C44.1388 271.562 45.257 270.447 45.257 269.071C45.257 267.696 44.1388 266.581 42.7594 266.581C41.38 266.581 40.2617 267.696 40.2617 269.071C40.2617 270.447 41.38 271.562 42.7594 271.562Z" fill="#999999"/>
<path id="Oval_41" d="M52.5494 271.562C53.9288 271.562 55.0471 270.447 55.0471 269.071C55.0471 267.696 53.9288 266.581 52.5494 266.581C51.17 266.581 50.0518 267.696 50.0518 269.071C50.0518 270.447 51.17 271.562 52.5494 271.562Z" fill="#999999"/>
<path id="Oval_42" d="M62.4391 271.562C63.8185 271.562 64.9367 270.447 64.9367 269.071C64.9367 267.696 63.8185 266.581 62.4391 266.581C61.0596 266.581 59.9414 267.696 59.9414 269.071C59.9414 270.447 61.0596 271.562 62.4391 271.562Z" fill="#999999"/>
<path id="Oval_43" d="M42.7594 281.422C44.1388 281.422 45.257 280.307 45.257 278.932C45.257 277.557 44.1388 276.442 42.7594 276.442C41.38 276.442 40.2617 277.557 40.2617 278.932C40.2617 280.307 41.38 281.422 42.7594 281.422Z" fill="#999999"/>
<path id="Oval_44" d="M52.5494 281.422C53.9288 281.422 55.0471 280.307 55.0471 278.932C55.0471 277.557 53.9288 276.442 52.5494 276.442C51.17 276.442 50.0518 277.557 50.0518 278.932C50.0518 280.307 51.17 281.422 52.5494 281.422Z" fill="#999999"/>
<path id="Oval_45" d="M62.4391 281.422C63.8185 281.422 64.9367 280.307 64.9367 278.932C64.9367 277.557 63.8185 276.442 62.4391 276.442C61.0596 276.442 59.9414 277.557 59.9414 278.932C59.9414 280.307 61.0596 281.422 62.4391 281.422Z" fill="#999999"/>
<path id="Shape (Stroke)_7" fill-rule="evenodd" clip-rule="evenodd" d="M77.4612 296.062C77.4612 295.038 78.2942 294.207 79.3219 294.207H135.964C136.992 294.207 137.825 295.038 137.825 296.062C137.825 297.087 136.992 297.918 135.964 297.918H79.3219C78.2942 297.918 77.4612 297.087 77.4612 296.062ZM77.4612 305.922C77.4612 304.897 78.2942 304.066 79.3219 304.066H135.964C136.992 304.066 137.825 304.897 137.825 305.922C137.825 306.946 136.992 307.777 135.964 307.777H79.3219C78.2942 307.777 77.4612 306.946 77.4612 305.922ZM77.4612 315.684C77.4612 314.66 78.2942 313.829 79.3219 313.829H95.3055C96.3331 313.829 97.1662 314.66 97.1662 315.684C97.1662 316.709 96.3331 317.54 95.3055 317.54H79.3219C78.2942 317.54 77.4612 316.709 77.4612 315.684Z" fill="#999999"/>
<path id="Oval_46" d="M42.7594 298.553C44.1388 298.553 45.257 297.438 45.257 296.063C45.257 294.687 44.1388 293.572 42.7594 293.572C41.38 293.572 40.2617 294.687 40.2617 296.063C40.2617 297.438 41.38 298.553 42.7594 298.553Z" fill="#999999"/>
<path id="Oval_47" d="M52.5492 298.553C53.9286 298.553 55.0468 297.438 55.0468 296.063C55.0468 294.687 53.9286 293.572 52.5492 293.572C51.1698 293.572 50.0515 294.687 50.0515 296.063C50.0515 297.438 51.1698 298.553 52.5492 298.553Z" fill="#999999"/>
<path id="Oval_48" d="M62.4393 298.553C63.8187 298.553 64.937 297.438 64.937 296.063C64.937 294.687 63.8187 293.572 62.4393 293.572C61.0599 293.572 59.9417 294.687 59.9417 296.063C59.9417 297.438 61.0599 298.553 62.4393 298.553Z" fill="#999999"/>
<path id="Oval_49" d="M42.7594 308.415C44.1388 308.415 45.257 307.3 45.257 305.925C45.257 304.55 44.1388 303.435 42.7594 303.435C41.38 303.435 40.2617 304.55 40.2617 305.925C40.2617 307.3 41.38 308.415 42.7594 308.415Z" fill="#999999"/>
<path id="Oval_50" d="M52.5494 308.415C53.9288 308.415 55.0471 307.3 55.0471 305.925C55.0471 304.55 53.9288 303.435 52.5494 303.435C51.17 303.435 50.0518 304.55 50.0518 305.925C50.0518 307.3 51.17 308.415 52.5494 308.415Z" fill="#999999"/>
<path id="Oval_51" d="M62.4391 308.415C63.8185 308.415 64.9367 307.3 64.9367 305.925C64.9367 304.55 63.8185 303.435 62.4391 303.435C61.0596 303.435 59.9414 304.55 59.9414 305.925C59.9414 307.3 61.0596 308.415 62.4391 308.415Z" fill="#999999"/>
<path id="Oval_52" d="M42.7594 318.178C44.1388 318.178 45.257 317.063 45.257 315.688C45.257 314.312 44.1388 313.197 42.7594 313.197C41.38 313.197 40.2617 314.312 40.2617 315.688C40.2617 317.063 41.38 318.178 42.7594 318.178Z" fill="#999999"/>
<path id="Oval_53" d="M52.5492 318.178C53.9286 318.178 55.0468 317.063 55.0468 315.688C55.0468 314.312 53.9286 313.197 52.5492 313.197C51.1698 313.197 50.0515 314.312 50.0515 315.688C50.0515 317.063 51.1698 318.178 52.5492 318.178Z" fill="#999999"/>
<path id="Oval_54" d="M62.4393 318.178C63.8187 318.178 64.937 317.063 64.937 315.688C64.937 314.312 63.8187 313.197 62.4393 313.197C61.0599 313.197 59.9417 314.312 59.9417 315.688C59.9417 317.063 61.0599 318.178 62.4393 318.178Z" fill="#999999"/>
</g>
<path id="Shape (Stroke)_8" fill-rule="evenodd" clip-rule="evenodd" d="M61.7386 35.5681C62.5274 36.3374 62.5413 37.5987 61.7697 38.3852L57.2743 42.967C56.5027 43.7534 55.2377 43.7673 54.4489 42.9979C53.6602 42.2286 53.6463 40.9673 54.4179 40.1809L58.9133 35.599C59.6849 34.8126 60.9499 34.7987 61.7386 35.5681ZM38.4497 35.5835C39.2299 34.8055 40.495 34.8055 41.2752 35.5835L45.8705 40.1653C46.6508 40.9432 46.6508 42.2046 45.8705 42.9825C45.0903 43.7605 43.8252 43.7605 43.045 42.9825L38.4497 38.4007C37.6694 37.6228 37.6694 36.3614 38.4497 35.5835ZM53.2346 50.325C54.0148 49.547 55.2798 49.547 56.0601 50.325L61.7543 56.0024C62.5345 56.7804 62.5345 58.0417 61.7543 58.8197C60.974 59.5976 59.709 59.5976 58.9287 58.8197L53.2346 53.1422C52.4543 52.3643 52.4543 51.1029 53.2346 50.325ZM45.886 51.5358C46.6576 52.3222 46.6437 53.5835 45.8549 54.3529L41.2596 58.8351C40.4708 59.6044 39.2059 59.5906 38.4343 58.8041C37.6626 58.0177 37.6765 56.7564 38.4653 55.987L43.0606 51.5048C43.8494 50.7355 45.1143 50.7493 45.886 51.5358Z" fill="#999999"/>
<path id="Path_2" d="M104.497 354.931L195.304 364.991C197.601 365.191 199.599 361.904 199.599 357.82V160.204C199.599 156.021 197.701 152.833 195.304 153.033L104.497 165.085C102.499 165.284 100.8 168.471 100.8 172.356V347.561C100.8 351.445 102.399 354.732 104.497 354.931Z" fill="#FFBE5C"/>
<path id="Path_3" d="M353.041 358.019L195.503 364.892C191.407 365.091 188.11 361.804 188.11 357.72V160.204C188.11 156.021 191.407 152.833 195.503 153.033L353.041 159.905C356.538 160.105 359.435 163.292 359.435 167.177V350.648C359.435 354.533 356.538 357.82 353.041 358.019Z" fill="#FFD493"/>
<g id="Group_2">
<path id="Shape (Stroke)_9" fill-rule="evenodd" clip-rule="evenodd" d="M145.145 172.764C145.25 173.859 144.444 174.831 143.346 174.936L109.78 178.123C108.682 178.227 107.707 177.424 107.602 176.329C107.497 175.233 108.303 174.261 109.401 174.157L142.967 170.969C144.066 170.865 145.041 171.668 145.145 172.764ZM145.148 185.837C145.239 186.933 144.422 187.896 143.322 187.987L109.757 190.776C108.657 190.868 107.691 190.053 107.6 188.957C107.508 187.86 108.325 186.897 109.425 186.806L142.991 184.017C144.09 183.926 145.056 184.74 145.148 185.837ZM145.15 199.012C145.225 200.11 144.394 201.061 143.293 201.136L109.727 203.427C108.626 203.502 107.673 202.673 107.598 201.575C107.522 200.478 108.354 199.527 109.454 199.452L143.02 197.161C144.121 197.086 145.074 197.915 145.15 199.012ZM145.152 222.263C145.205 223.362 144.354 224.295 143.252 224.348L109.686 225.941C108.584 225.994 107.648 225.145 107.595 224.046C107.543 222.947 108.394 222.014 109.496 221.962L143.061 220.368C144.164 220.316 145.1 221.164 145.152 222.263ZM145.153 235.333C145.193 236.433 144.331 237.356 143.228 237.395L109.662 238.591C108.559 238.63 107.634 237.77 107.594 236.671C107.555 235.571 108.417 234.648 109.52 234.609L143.085 233.414C144.188 233.374 145.114 234.234 145.153 235.333ZM145.154 248.511C145.177 249.611 144.301 250.521 143.198 250.544L109.632 251.241C108.529 251.264 107.616 250.391 107.593 249.291C107.57 248.191 108.446 247.281 109.549 247.258L143.115 246.561C144.218 246.538 145.131 247.411 145.154 248.511Z" fill="#FFBE5C"/>
<path id="Shape (Stroke)_10" fill-rule="evenodd" clip-rule="evenodd" d="M107.593 271.76C107.593 270.66 108.488 269.768 109.591 269.768H143.157C144.26 269.768 145.155 270.66 145.155 271.76C145.155 272.86 144.26 273.752 143.157 273.752H109.591C108.488 273.752 107.593 272.86 107.593 271.76ZM107.593 284.385C107.606 283.285 108.511 282.403 109.615 282.417L143.18 282.815C144.284 282.828 145.168 283.731 145.154 284.831C145.141 285.931 144.236 286.812 143.133 286.799L109.567 286.4C108.464 286.387 107.58 285.485 107.593 284.385ZM107.594 297.111C107.62 296.011 108.535 295.14 109.639 295.166L143.204 295.963C144.307 295.989 145.18 296.902 145.154 298.002C145.128 299.102 144.212 299.972 143.109 299.946L109.543 299.149C108.44 299.123 107.567 298.21 107.594 297.111Z" fill="#FFBE5C"/>
<path id="Shape (Stroke)_11" fill-rule="evenodd" clip-rule="evenodd" d="M107.595 319.476C107.648 318.377 108.584 317.528 109.686 317.581L143.251 319.174C144.354 319.227 145.205 320.16 145.152 321.259C145.1 322.358 144.164 323.206 143.061 323.154L109.496 321.56C108.394 321.508 107.543 320.575 107.595 319.476ZM107.596 332.202C107.662 331.103 108.608 330.266 109.71 330.331L143.275 332.324C144.377 332.389 145.216 333.332 145.151 334.43C145.085 335.529 144.139 336.366 143.038 336.301L109.472 334.309C108.371 334.243 107.531 333.3 107.596 332.202ZM107.598 344.828C107.677 343.73 108.633 342.904 109.733 342.983L143.299 345.373C144.399 345.452 145.228 346.405 145.149 347.502C145.071 348.6 144.115 349.426 143.014 349.347L109.448 346.957C108.348 346.878 107.519 345.925 107.598 344.828Z" fill="#FFBE5C"/>
</g>
<path id="Shape (Stroke)_12" fill-rule="evenodd" clip-rule="evenodd" d="M359.395 229.129L188.071 225.743L188.15 221.759L359.475 225.146L359.395 229.129ZM359.464 296.065L185.142 298.555L185.085 294.572L359.406 292.081L359.464 296.065Z" fill="#FFBE5C"/>
<g id="Group_3">
<path id="Path_4" d="M212.487 176.242C212.487 178.633 210.688 180.525 208.59 180.326C206.392 180.226 204.694 178.135 204.694 175.744C204.694 173.353 206.492 171.46 208.59 171.66C210.788 171.859 212.487 173.851 212.487 176.242Z" fill="#DD7E10"/>
<path id="Shape" fill-rule="evenodd" clip-rule="evenodd" d="M226.572 181.32C228.669 181.42 230.368 179.627 230.368 177.236C230.368 174.846 228.57 172.854 226.572 172.754C224.374 172.654 222.676 174.447 222.676 176.838C222.676 179.228 224.474 181.22 226.572 181.32ZM243.954 182.316C246.052 182.416 247.75 180.623 247.75 178.232C247.75 175.842 246.052 173.85 243.954 173.75C241.856 173.651 240.158 175.443 240.158 177.834C240.158 180.224 241.856 182.217 243.954 182.316Z" fill="white"/>
<path id="Shape_2" fill-rule="evenodd" clip-rule="evenodd" d="M261.136 183.113C263.234 183.213 264.832 181.42 264.832 179.129C264.832 176.838 263.234 174.846 261.136 174.746C259.138 174.647 257.44 176.44 257.44 178.73C257.44 181.021 259.138 183.013 261.136 183.113ZM278.019 184.008C280.017 184.108 281.615 182.315 281.615 180.024C281.615 177.733 279.917 175.84 278.019 175.641C276.021 175.542 274.422 177.334 274.422 179.625C274.422 181.916 276.021 183.908 278.019 184.008ZM297.998 180.92C297.998 183.211 296.4 185.004 294.502 184.904C292.504 184.805 290.905 182.912 290.905 180.621C290.905 178.33 292.504 176.538 294.502 176.637C296.4 176.737 297.998 178.729 297.998 180.92ZM310.585 185.704C312.483 185.803 314.082 184.11 314.082 181.819C314.082 179.628 312.583 177.636 310.585 177.536C308.687 177.437 307.089 179.13 307.089 181.421C307.089 183.712 308.687 185.604 310.585 185.704ZM329.866 182.715C329.866 184.906 328.367 186.699 326.469 186.599C324.571 186.5 323.072 184.607 323.072 182.316C323.072 180.025 324.571 178.332 326.469 178.432C328.367 178.531 329.866 180.523 329.866 182.715ZM342.053 187.395C343.851 187.494 345.35 185.801 345.35 183.61C345.35 181.319 343.851 179.426 342.053 179.426C340.155 179.227 338.657 181.02 338.657 183.211C338.657 185.403 340.155 187.295 342.053 187.395Z" fill="white"/>
<g id="Group_4">
<path id="Shape_3" fill-rule="evenodd" clip-rule="evenodd" d="M208.59 252.24C210.688 252.24 212.486 250.347 212.486 247.957C212.486 245.467 210.788 243.574 208.59 243.574C206.492 243.574 204.694 245.467 204.694 247.857C204.694 250.248 206.392 252.24 208.59 252.24ZM226.571 252.439C228.669 252.439 230.368 250.547 230.368 248.156C230.368 245.766 228.569 243.873 226.571 243.773C224.374 243.773 222.675 245.666 222.675 248.056C222.675 250.447 224.474 252.439 226.571 252.439Z" fill="#DD7E10"/>
<path id="Shape_4" fill-rule="evenodd" clip-rule="evenodd" d="M247.75 248.355C247.75 250.746 246.051 252.539 243.954 252.539C241.856 252.539 240.157 250.547 240.157 248.256C240.157 245.865 241.856 243.973 243.954 244.072C246.051 244.172 247.75 246.064 247.75 248.355ZM264.832 248.654C264.832 250.945 263.234 252.837 261.136 252.837C259.138 252.837 257.44 250.945 257.44 248.554C257.44 246.164 259.138 244.371 261.136 244.371C263.234 244.371 264.832 246.363 264.832 248.654ZM278.019 252.939C280.017 253.038 281.615 251.146 281.615 248.855C281.615 246.564 279.917 244.671 278.019 244.671C276.021 244.572 274.422 246.464 274.422 248.755C274.422 251.046 276.021 252.939 278.019 252.939Z" fill="white"/>
<path id="Shape_5" fill-rule="evenodd" clip-rule="evenodd" d="M294.502 253.234C296.4 253.234 297.998 251.441 297.998 249.151C297.998 246.86 296.4 244.967 294.502 244.967C292.504 244.967 290.906 246.76 290.906 249.051C290.906 251.342 292.504 253.234 294.502 253.234ZM310.585 253.434C312.483 253.434 314.082 251.641 314.082 249.35C314.082 247.059 312.583 245.266 310.585 245.166C308.687 245.166 307.089 246.959 307.089 249.25C307.089 251.541 308.687 253.434 310.585 253.434ZM329.866 249.549C329.866 251.74 328.367 253.533 326.469 253.533C324.571 253.533 323.073 251.641 323.073 249.449C323.073 247.258 324.571 245.366 326.469 245.465C328.367 245.465 329.866 247.358 329.866 249.549ZM342.053 253.732C343.851 253.732 345.35 251.939 345.35 249.748C345.35 247.557 343.851 245.764 342.053 245.664C340.155 245.664 338.657 247.358 338.657 249.649C338.657 251.939 340.155 253.732 342.053 253.732Z" fill="white"/>
</g>
<g id="Group_5">
<path id="Path_5" d="M212.487 319.574C212.487 321.965 210.688 323.957 208.59 324.057C206.392 324.156 204.694 322.264 204.694 319.773C204.694 317.283 206.492 315.39 208.59 315.291C210.788 315.291 212.487 317.183 212.487 319.574Z" fill="#DD7E10"/>
<path id="Shape_6" fill-rule="evenodd" clip-rule="evenodd" d="M261.136 322.462C263.234 322.462 264.832 320.47 264.832 318.179C264.832 315.789 263.234 313.996 261.136 314.096C259.138 314.096 257.44 316.088 257.44 318.379C257.44 320.669 259.138 322.562 261.136 322.462ZM247.75 318.578C247.75 320.968 246.052 322.861 243.954 322.96C241.856 323.06 240.158 321.167 240.158 318.777C240.158 316.386 241.856 314.494 243.954 314.394C246.052 314.394 247.75 316.287 247.75 318.578ZM230.368 319.076C230.368 321.466 228.669 323.458 226.572 323.458C224.474 323.558 222.676 321.665 222.676 319.275C222.676 316.884 224.374 314.892 226.572 314.892C228.57 314.793 230.368 316.685 230.368 319.076Z" fill="white"/>
<path id="Shape_7" fill-rule="evenodd" clip-rule="evenodd" d="M342.053 320.072C343.852 320.072 345.35 318.179 345.35 315.988C345.35 313.797 343.852 312.004 342.053 312.103C340.155 312.103 338.657 313.996 338.657 316.187C338.657 318.379 340.155 320.171 342.053 320.072ZM329.866 316.386C329.866 318.578 328.367 320.47 326.469 320.57C324.571 320.669 323.073 318.877 323.073 316.586C323.073 314.295 324.571 312.502 326.469 312.402C328.367 312.402 329.866 314.195 329.866 316.386ZM310.586 320.968C312.484 320.869 314.082 319.076 314.082 316.785C314.082 314.594 312.584 312.801 310.586 312.801C308.688 312.801 307.089 314.693 307.089 316.984C307.089 319.275 308.688 321.068 310.586 320.968ZM297.998 317.284C297.998 319.575 296.4 321.468 294.502 321.468C292.504 321.567 290.906 319.675 290.906 317.384C290.906 315.093 292.504 313.201 294.502 313.201C296.4 313.201 297.998 314.993 297.998 317.284ZM281.615 317.681C281.615 319.972 280.017 321.865 278.019 321.964C276.021 322.064 274.423 320.171 274.423 317.881C274.423 315.59 276.021 313.697 278.019 313.598C279.917 313.598 281.615 315.39 281.615 317.681Z" fill="white"/>
</g>
</g>
<path id="Path_6" opacity="0.7" d="M353.042 159.906L284.912 157.117V197.556C284.912 200.843 287.609 203.533 290.905 203.533L312.983 203.433C322.373 203.732 323.272 211.601 325.17 216.78C325.57 217.975 327.268 217.876 327.668 216.68C329.066 211.8 330.964 203.732 338.357 203.831L359.535 204.13V167.177C359.435 163.392 356.538 160.105 353.042 159.906Z" fill="#DCA553"/>
<g id="Group_6">
<path id="Path_7" d="M390.003 90.6805L314.98 85.4015C311.684 85.4015 308.986 88.0908 308.986 91.3778V163.093C308.986 166.38 311.684 169.069 314.98 169.069L338.956 169.368C348.846 169.767 349.245 178.432 351.443 183.512C351.842 184.409 353.141 184.309 353.341 183.413C354.739 178.631 356.438 169.667 364.23 169.767L390.003 170.165C393.3 170.165 395.997 167.476 395.997 164.189V96.6568C396.097 93.3699 393.3 90.6805 390.003 90.6805Z" fill="#FFBE5C"/>
<path id="Shape (Stroke)_13" fill-rule="evenodd" clip-rule="evenodd" d="M353.54 107.416C354.644 107.416 355.538 108.308 355.538 109.408V125.459L370.402 126.043C371.505 126.087 372.363 127.013 372.32 128.112C372.276 129.212 371.347 130.068 370.245 130.024L355.538 129.446V146.66C355.538 147.76 354.644 148.652 353.54 148.652C352.437 148.652 351.542 147.76 351.542 146.66V129.289L334.781 128.63C333.678 128.587 332.82 127.66 332.863 126.561C332.907 125.462 333.836 124.605 334.938 124.649L351.542 125.302V109.408C351.542 108.308 352.437 107.416 353.54 107.416Z" fill="white"/>
</g>
</g>
</g>
</svg>
