<svg xmlns="http://www.w3.org/2000/svg" width="393" height="330" fill="none" viewBox="0 0 393 330"><path fill="#F2F2F2" d="M365.926 303.297H133.963c-3.197 0-5.794-2.59-5.794-5.777V178.392c0-3.187 2.597-5.777 5.794-5.777h231.963c3.196 0 5.794 2.59 5.794 5.777V297.52c.099 3.187-2.498 5.777-5.794 5.777"/><path fill="#F2F2F2" fill-rule="evenodd" d="M285.608 298.215v.002c0 2.789-2.298 5.08-5.095 5.08H5.095c-2.797 0-5.095-2.291-5.095-5.08v-75.5c0-2.789 2.298-5.08 5.095-5.08h45.543c6.617-.45 10.727-.283 13.189 0h3.304V32.57c0-11.853 8.092-15.738 27.472-15.738h92.006v116.04h13.686V63.746h99.298v163.65h43.556v12.849s19.28 57.97-4.596 57.97z" clip-rule="evenodd"/><path fill="#8C8C8C" fill-rule="evenodd" d="M22.178 49.305c0-1.1.894-1.992 1.998-1.992h123.573c1.104 0 1.998.891 1.998 1.992v246.422c0 1.1-.894 1.992-1.998 1.992H24.176a1.995 1.995 0 0 1-1.998-1.992zm3.996 125.203v119.226H145.75V174.508zm119.577-3.985H26.174V51.297H145.75z" clip-rule="evenodd"/><path fill="#8C8C8C" fill-rule="evenodd" d="M74.46 63.747c0-1.025.834-1.855 1.862-1.855h56.642c1.027 0 1.86.83 1.86 1.855a1.86 1.86 0 0 1-1.86 1.855H76.322a1.86 1.86 0 0 1-1.861-1.855m0 9.761c0-1.024.834-1.855 1.862-1.855h35.264c1.027 0 1.86.83 1.86 1.855a1.86 1.86 0 0 1-1.86 1.855H76.322a1.86 1.86 0 0 1-1.861-1.855m0 9.861c0-1.025.834-1.855 1.862-1.855h56.642c1.027 0 1.86.83 1.86 1.855a1.86 1.86 0 0 1-1.86 1.855H76.322a1.86 1.86 0 0 1-1.861-1.855" clip-rule="evenodd"/><path fill="#8C8C8C" d="M39.76 66.238a2.494 2.494 0 0 0 2.497-2.49 2.494 2.494 0 0 0-2.498-2.491 2.494 2.494 0 0 0-2.497 2.49 2.494 2.494 0 0 0 2.497 2.49m9.791.001a2.494 2.494 0 0 0 2.498-2.49 2.494 2.494 0 0 0-2.498-2.491 2.494 2.494 0 0 0-2.497 2.49 2.494 2.494 0 0 0 2.497 2.49m9.89.001a2.494 2.494 0 0 0 2.497-2.49 2.494 2.494 0 0 0-2.498-2.491 2.494 2.494 0 0 0-2.498 2.49 2.494 2.494 0 0 0 2.498 2.49M39.76 76a2.494 2.494 0 0 0 2.497-2.491 2.494 2.494 0 0 0-2.498-2.49 2.494 2.494 0 0 0-2.497 2.49 2.494 2.494 0 0 0 2.497 2.49M49.55 76a2.494 2.494 0 0 0 2.498-2.491 2.494 2.494 0 0 0-2.498-2.49 2.494 2.494 0 0 0-2.497 2.49 2.494 2.494 0 0 0 2.497 2.49m9.89.001a2.494 2.494 0 0 0 2.497-2.491 2.494 2.494 0 0 0-2.498-2.49 2.494 2.494 0 0 0-2.498 2.49 2.494 2.494 0 0 0 2.498 2.49M39.76 85.86a2.494 2.494 0 0 0 2.497-2.49 2.494 2.494 0 0 0-2.498-2.491 2.494 2.494 0 0 0-2.497 2.49 2.494 2.494 0 0 0 2.497 2.49m9.791.001a2.494 2.494 0 0 0 2.498-2.49 2.494 2.494 0 0 0-2.498-2.491 2.494 2.494 0 0 0-2.497 2.49 2.494 2.494 0 0 0 2.497 2.49m9.89.001a2.494 2.494 0 0 0 2.497-2.49 2.494 2.494 0 0 0-2.498-2.491 2.494 2.494 0 0 0-2.498 2.49 2.494 2.494 0 0 0 2.498 2.49"/><path fill="#8C8C8C" fill-rule="evenodd" d="M74.46 100.6c0-1.024.834-1.855 1.862-1.855h56.642c1.027 0 1.86.83 1.86 1.855a1.86 1.86 0 0 1-1.86 1.856H76.322a1.86 1.86 0 0 1-1.861-1.856m0 9.762a1.86 1.86 0 0 1 1.862-1.856h56.642c1.027 0 1.86.831 1.86 1.856a1.86 1.86 0 0 1-1.86 1.855H76.322a1.86 1.86 0 0 1-1.861-1.855m0 9.762c0-1.024.834-1.855 1.862-1.855h47.451c1.028 0 1.861.831 1.861 1.855a1.86 1.86 0 0 1-1.861 1.856H76.322a1.86 1.86 0 0 1-1.861-1.856" clip-rule="evenodd"/><path fill="#8C8C8C" d="M39.76 103.091a2.494 2.494 0 0 0 2.497-2.49 2.494 2.494 0 0 0-2.498-2.49 2.494 2.494 0 0 0-2.497 2.49 2.494 2.494 0 0 0 2.497 2.49m9.791 0a2.494 2.494 0 0 0 2.498-2.49 2.494 2.494 0 0 0-2.498-2.49 2.494 2.494 0 0 0-2.497 2.49 2.494 2.494 0 0 0 2.497 2.49m9.89 0a2.494 2.494 0 0 0 2.497-2.49 2.494 2.494 0 0 0-2.498-2.49 2.494 2.494 0 0 0-2.498 2.49 2.494 2.494 0 0 0 2.498 2.49m-19.679 9.762a2.494 2.494 0 0 0 2.497-2.491 2.494 2.494 0 0 0-2.498-2.49 2.494 2.494 0 0 0-2.497 2.49 2.494 2.494 0 0 0 2.497 2.491m9.791 0a2.494 2.494 0 0 0 2.498-2.491 2.494 2.494 0 0 0-2.498-2.49 2.494 2.494 0 0 0-2.497 2.49 2.494 2.494 0 0 0 2.497 2.491m9.89 0a2.494 2.494 0 0 0 2.497-2.491 2.494 2.494 0 0 0-2.498-2.49 2.494 2.494 0 0 0-2.498 2.49 2.494 2.494 0 0 0 2.498 2.491m-19.679 9.762a2.494 2.494 0 0 0 2.497-2.49 2.494 2.494 0 0 0-2.498-2.49 2.494 2.494 0 0 0-2.497 2.49 2.494 2.494 0 0 0 2.497 2.49m9.791 0a2.494 2.494 0 0 0 2.497-2.49 2.494 2.494 0 0 0-2.498-2.49 2.494 2.494 0 0 0-2.497 2.49 2.494 2.494 0 0 0 2.497 2.49m9.891 0a2.494 2.494 0 0 0 2.497-2.49 2.494 2.494 0 0 0-2.498-2.49 2.494 2.494 0 0 0-2.498 2.49 2.494 2.494 0 0 0 2.498 2.49"/><path fill="#8C8C8C" fill-rule="evenodd" d="M74.46 137.353c0-1.024.834-1.855 1.862-1.855h56.642c1.027 0 1.86.831 1.86 1.855a1.86 1.86 0 0 1-1.86 1.856H76.322a1.86 1.86 0 0 1-1.861-1.856m0 9.86a1.86 1.86 0 0 1 1.862-1.856h56.642c1.027 0 1.86.831 1.86 1.856a1.86 1.86 0 0 1-1.86 1.855H76.322a1.86 1.86 0 0 1-1.861-1.855m0 9.762c0-1.024.834-1.855 1.862-1.855h56.642c1.027 0 1.86.831 1.86 1.855a1.86 1.86 0 0 1-1.86 1.856H76.322a1.86 1.86 0 0 1-1.861-1.856" clip-rule="evenodd"/><path fill="#8C8C8C" d="M39.76 139.844a2.494 2.494 0 0 0 2.497-2.49 2.494 2.494 0 0 0-2.498-2.491 2.494 2.494 0 0 0-2.497 2.491 2.494 2.494 0 0 0 2.497 2.49m9.791 0a2.494 2.494 0 0 0 2.497-2.49 2.494 2.494 0 0 0-2.498-2.491 2.494 2.494 0 0 0-2.497 2.491 2.494 2.494 0 0 0 2.497 2.49m9.891 0a2.494 2.494 0 0 0 2.497-2.49 2.494 2.494 0 0 0-2.498-2.491 2.494 2.494 0 0 0-2.498 2.491 2.494 2.494 0 0 0 2.498 2.49m-19.679 9.862a2.494 2.494 0 0 0 2.497-2.49 2.494 2.494 0 0 0-2.498-2.49 2.494 2.494 0 0 0-2.497 2.49 2.494 2.494 0 0 0 2.497 2.49m9.791 0a2.494 2.494 0 0 0 2.498-2.49 2.494 2.494 0 0 0-2.498-2.49 2.494 2.494 0 0 0-2.497 2.49 2.494 2.494 0 0 0 2.497 2.49m9.89 0a2.494 2.494 0 0 0 2.497-2.49 2.494 2.494 0 0 0-2.498-2.49 2.494 2.494 0 0 0-2.498 2.49 2.494 2.494 0 0 0 2.498 2.49m-19.679 9.763a2.494 2.494 0 0 0 2.497-2.49 2.494 2.494 0 0 0-2.498-2.491 2.494 2.494 0 0 0-2.497 2.491 2.494 2.494 0 0 0 2.497 2.49m9.791 0a2.494 2.494 0 0 0 2.497-2.49 2.494 2.494 0 0 0-2.498-2.491 2.494 2.494 0 0 0-2.497 2.491 2.494 2.494 0 0 0 2.497 2.49m9.891 0a2.494 2.494 0 0 0 2.497-2.49 2.494 2.494 0 0 0-2.498-2.491 2.494 2.494 0 0 0-2.498 2.491 2.494 2.494 0 0 0 2.498 2.49"/><path fill="#8C8C8C" fill-rule="evenodd" d="M74.46 187.456c0-1.025.834-1.855 1.862-1.855h56.642c1.027 0 1.86.83 1.86 1.855a1.86 1.86 0 0 1-1.86 1.855H76.322a1.86 1.86 0 0 1-1.861-1.855m0 9.761c0-1.025.834-1.855 1.862-1.855h35.264c1.027 0 1.86.83 1.86 1.855a1.857 1.857 0 0 1-1.86 1.855H76.322a1.86 1.86 0 0 1-1.861-1.855m0 9.861c0-1.025.834-1.855 1.862-1.855h56.642c1.027 0 1.86.83 1.86 1.855a1.857 1.857 0 0 1-1.86 1.855H76.322a1.86 1.86 0 0 1-1.861-1.855" clip-rule="evenodd"/><path fill="#8C8C8C" d="M39.76 189.946a2.493 2.493 0 0 0 2.497-2.49 2.494 2.494 0 0 0-2.498-2.49 2.494 2.494 0 0 0-2.497 2.49 2.493 2.493 0 0 0 2.497 2.49m9.791 0a2.493 2.493 0 0 0 2.497-2.49 2.494 2.494 0 0 0-2.498-2.49 2.494 2.494 0 0 0-2.497 2.49 2.493 2.493 0 0 0 2.497 2.49m9.891 0a2.493 2.493 0 0 0 2.497-2.49 2.494 2.494 0 0 0-2.498-2.49 2.494 2.494 0 0 0-2.498 2.49 2.493 2.493 0 0 0 2.498 2.49m-19.679 9.762a2.494 2.494 0 0 0 2.497-2.49 2.494 2.494 0 0 0-2.498-2.49 2.494 2.494 0 0 0-2.497 2.49 2.494 2.494 0 0 0 2.497 2.49m9.791 0a2.494 2.494 0 0 0 2.497-2.49 2.494 2.494 0 0 0-2.498-2.49 2.494 2.494 0 0 0-2.497 2.49 2.494 2.494 0 0 0 2.497 2.49m9.891 0a2.494 2.494 0 0 0 2.497-2.49 2.494 2.494 0 0 0-2.498-2.49 2.494 2.494 0 0 0-2.498 2.49 2.494 2.494 0 0 0 2.498 2.49m-19.679 9.861a2.494 2.494 0 0 0 2.497-2.491 2.494 2.494 0 0 0-2.498-2.49 2.494 2.494 0 0 0-2.497 2.49 2.494 2.494 0 0 0 2.497 2.491m9.791 0a2.494 2.494 0 0 0 2.497-2.491 2.494 2.494 0 0 0-2.498-2.49 2.494 2.494 0 0 0-2.497 2.49 2.494 2.494 0 0 0 2.497 2.491m9.891 0a2.494 2.494 0 0 0 2.497-2.491 2.494 2.494 0 0 0-2.498-2.49 2.494 2.494 0 0 0-2.498 2.49 2.494 2.494 0 0 0 2.498 2.491"/><path fill="#8C8C8C" fill-rule="evenodd" d="M74.46 224.31c0-1.025.834-1.855 1.862-1.855h56.642c1.027 0 1.86.83 1.86 1.855a1.86 1.86 0 0 1-1.86 1.855H76.322a1.86 1.86 0 0 1-1.861-1.855m0 9.761c0-1.025.834-1.855 1.862-1.855h56.642c1.027 0 1.86.83 1.86 1.855a1.857 1.857 0 0 1-1.86 1.855H76.322a1.86 1.86 0 0 1-1.861-1.855m0 9.861c0-1.025.834-1.855 1.862-1.855h47.451c1.028 0 1.861.83 1.861 1.855a1.86 1.86 0 0 1-1.861 1.855H76.322a1.86 1.86 0 0 1-1.861-1.855" clip-rule="evenodd"/><path fill="#8C8C8C" d="M39.76 226.8a2.493 2.493 0 0 0 2.497-2.49 2.494 2.494 0 0 0-2.498-2.49 2.494 2.494 0 0 0-2.497 2.49 2.493 2.493 0 0 0 2.497 2.49m9.791 0a2.493 2.493 0 0 0 2.497-2.49 2.494 2.494 0 0 0-2.498-2.49 2.494 2.494 0 0 0-2.497 2.49 2.493 2.493 0 0 0 2.497 2.49m9.891 0a2.493 2.493 0 0 0 2.497-2.49 2.494 2.494 0 0 0-2.498-2.49 2.494 2.494 0 0 0-2.498 2.49 2.493 2.493 0 0 0 2.498 2.49m-19.679 9.762a2.494 2.494 0 0 0 2.497-2.491 2.494 2.494 0 0 0-2.498-2.49 2.494 2.494 0 0 0-2.497 2.49 2.494 2.494 0 0 0 2.497 2.491m9.791 0a2.494 2.494 0 0 0 2.497-2.491 2.494 2.494 0 0 0-2.498-2.49 2.494 2.494 0 0 0-2.497 2.49 2.494 2.494 0 0 0 2.497 2.491m9.891 0a2.494 2.494 0 0 0 2.497-2.491 2.494 2.494 0 0 0-2.498-2.49 2.494 2.494 0 0 0-2.498 2.49 2.494 2.494 0 0 0 2.498 2.491m-19.679 9.861a2.494 2.494 0 0 0 2.497-2.491 2.494 2.494 0 0 0-2.498-2.49 2.494 2.494 0 0 0-2.497 2.49 2.494 2.494 0 0 0 2.497 2.491m9.791 0a2.494 2.494 0 0 0 2.497-2.491 2.494 2.494 0 0 0-2.498-2.49 2.494 2.494 0 0 0-2.497 2.49 2.494 2.494 0 0 0 2.497 2.491m9.891 0a2.494 2.494 0 0 0 2.497-2.491 2.494 2.494 0 0 0-2.498-2.49 2.494 2.494 0 0 0-2.498 2.49 2.494 2.494 0 0 0 2.498 2.491"/><path fill="#8C8C8C" fill-rule="evenodd" d="M74.46 261.062c0-1.024.834-1.855 1.862-1.855h56.642c1.027 0 1.86.831 1.86 1.855a1.86 1.86 0 0 1-1.86 1.856H76.322a1.86 1.86 0 0 1-1.861-1.856m0 9.86a1.86 1.86 0 0 1 1.862-1.856h56.642c1.027 0 1.86.831 1.86 1.856a1.86 1.86 0 0 1-1.86 1.855H76.322a1.86 1.86 0 0 1-1.861-1.855m0 9.762c0-1.024.834-1.855 1.862-1.855h15.983c1.028 0 1.861.831 1.861 1.855a1.86 1.86 0 0 1-1.86 1.856H76.321a1.86 1.86 0 0 1-1.861-1.856" clip-rule="evenodd"/><path fill="#8C8C8C" d="M39.76 263.553a2.494 2.494 0 0 0 2.497-2.49 2.494 2.494 0 0 0-2.498-2.491 2.494 2.494 0 0 0-2.497 2.491 2.494 2.494 0 0 0 2.497 2.49m9.791 0a2.494 2.494 0 0 0 2.497-2.49 2.494 2.494 0 0 0-2.498-2.491 2.494 2.494 0 0 0-2.497 2.491 2.494 2.494 0 0 0 2.497 2.49m9.891 0a2.494 2.494 0 0 0 2.497-2.49 2.494 2.494 0 0 0-2.498-2.491 2.494 2.494 0 0 0-2.498 2.491 2.494 2.494 0 0 0 2.498 2.49m-19.679 9.862a2.494 2.494 0 0 0 2.497-2.49 2.494 2.494 0 0 0-2.498-2.49 2.494 2.494 0 0 0-2.497 2.49 2.494 2.494 0 0 0 2.497 2.49m9.791 0a2.494 2.494 0 0 0 2.497-2.49 2.494 2.494 0 0 0-2.498-2.49 2.494 2.494 0 0 0-2.497 2.49 2.494 2.494 0 0 0 2.497 2.49m9.891 0a2.494 2.494 0 0 0 2.497-2.49 2.494 2.494 0 0 0-2.498-2.49 2.494 2.494 0 0 0-2.498 2.49 2.494 2.494 0 0 0 2.498 2.49m-19.679 9.763a2.494 2.494 0 0 0 2.497-2.49 2.494 2.494 0 0 0-2.498-2.491 2.494 2.494 0 0 0-2.497 2.491 2.494 2.494 0 0 0 2.497 2.49m9.791 0a2.494 2.494 0 0 0 2.497-2.49 2.494 2.494 0 0 0-2.498-2.491 2.494 2.494 0 0 0-2.497 2.491 2.494 2.494 0 0 0 2.497 2.49m9.891 0a2.494 2.494 0 0 0 2.497-2.49 2.494 2.494 0 0 0-2.498-2.491 2.494 2.494 0 0 0-2.498 2.491 2.494 2.494 0 0 0 2.498 2.49"/><path fill="#8C8C8C" fill-rule="evenodd" d="M58.739.568c.789.77.803 2.03.03 2.817l-4.494 4.582c-.772.786-2.037.8-2.826.03a1.99 1.99 0 0 1-.03-2.816L55.913.599a2 2 0 0 1 2.825-.03m-23.29.015a2 2 0 0 1 2.827 0l4.595 4.582c.78.778.78 2.04 0 2.818a2 2 0 0 1-2.826 0L35.45 3.4a1.99 1.99 0 0 1 0-2.818m14.786 14.742a2 2 0 0 1 2.825 0l5.694 5.677c.78.778.78 2.04 0 2.818a2 2 0 0 1-2.825 0l-5.694-5.678a1.99 1.99 0 0 1 0-2.817m-7.349 1.21a1.99 1.99 0 0 1-.03 2.818l-4.596 4.482a2 2 0 0 1-2.825-.03 1.99 1.99 0 0 1 .03-2.818l4.596-4.482a2 2 0 0 1 2.825.03" clip-rule="evenodd"/><path fill="#FFBE5C" d="m101.497 319.931 90.807 10.06c2.297.199 4.295-3.088 4.295-7.171V125.204c0-4.184-1.898-7.371-4.295-7.172l-90.807 12.052c-1.998.2-3.697 3.387-3.697 7.272V312.56c0 3.885 1.599 7.172 3.697 7.371"/><path fill="#FFD89D" d="m350.041 323.019-157.538 6.872c-4.096.2-7.393-3.087-7.393-7.171V125.204c0-4.184 3.297-7.371 7.393-7.172l157.538 6.873c3.497.199 6.394 3.387 6.394 7.271v183.472c0 3.885-2.897 7.172-6.394 7.371"/><path fill="#D06304" fill-rule="evenodd" d="M142.145 137.763a1.993 1.993 0 0 1-1.799 2.172l-33.566 3.188a1.997 1.997 0 0 1-2.178-1.795 1.994 1.994 0 0 1 1.799-2.172l33.566-3.187a1.996 1.996 0 0 1 2.178 1.794m.003 13.074a1.994 1.994 0 0 1-1.826 2.15l-33.565 2.789a1.993 1.993 0 1 1-.332-3.97l33.566-2.789a1.996 1.996 0 0 1 2.157 1.82m.002 13.175a1.995 1.995 0 0 1-1.857 2.124l-33.566 2.291a1.995 1.995 0 0 1-2.129-1.852 1.993 1.993 0 0 1 1.856-2.123l33.566-2.291a1.997 1.997 0 0 1 2.13 1.851m.002 23.251a1.994 1.994 0 0 1-1.9 2.085l-33.566 1.593a1.996 1.996 0 0 1-2.091-1.895 1.994 1.994 0 0 1 1.901-2.084l33.565-1.594a1.995 1.995 0 0 1 2.091 1.895m.001 13.07a1.993 1.993 0 0 1-1.925 2.062l-33.566 1.195a1.995 1.995 0 0 1-2.068-1.919 1.995 1.995 0 0 1 1.926-2.062l33.565-1.195a1.994 1.994 0 0 1 2.068 1.919m.001 13.178a1.995 1.995 0 0 1-1.956 2.033l-33.566.697a1.995 1.995 0 0 1-2.039-1.95 1.995 1.995 0 0 1 1.956-2.033l33.566-.698a1.997 1.997 0 0 1 2.039 1.951m-37.561 23.249c0-1.1.894-1.992 1.998-1.992h33.565c1.104 0 1.998.892 1.998 1.992s-.894 1.992-1.998 1.992h-33.565a1.995 1.995 0 0 1-1.998-1.992m0 12.625a1.996 1.996 0 0 1 2.022-1.969l33.565.399a1.994 1.994 0 0 1 1.974 2.016 1.995 1.995 0 0 1-2.021 1.968l-33.566-.399a1.995 1.995 0 0 1-1.974-2.015m0 12.725c.027-1.1.942-1.97 2.045-1.944l33.566.797a1.995 1.995 0 0 1 1.95 2.039 1.996 1.996 0 0 1-2.045 1.944l-33.566-.797a1.995 1.995 0 0 1-1.95-2.039m.002 22.366a1.997 1.997 0 0 1 2.091-1.896l33.565 1.594a1.994 1.994 0 0 1 1.901 2.085 1.995 1.995 0 0 1-2.091 1.895l-33.565-1.594a1.995 1.995 0 0 1-1.901-2.084m.001 12.725a1.997 1.997 0 0 1 2.114-1.87l33.565 1.992a1.995 1.995 0 0 1 1.876 2.107 1.996 1.996 0 0 1-2.113 1.87l-33.566-1.992a1.995 1.995 0 0 1-1.876-2.107m.002 12.627a1.997 1.997 0 0 1 2.135-1.846l33.566 2.391a1.993 1.993 0 0 1 1.85 2.129 1.996 1.996 0 0 1-2.135 1.845l-33.566-2.391a1.993 1.993 0 0 1-1.85-2.128" clip-rule="evenodd"/><path fill="#FFBE5C" fill-rule="evenodd" d="m356.395 194.129-171.324-3.387.079-3.983 171.325 3.386zm.069 66.936-174.322 2.49-.057-3.984 174.321-2.49z" clip-rule="evenodd"/><path fill="#D06304" d="M209.487 141.242c0 2.391-1.799 4.284-3.897 4.084-2.198-.099-3.896-2.191-3.896-4.582s1.798-4.283 3.896-4.084c2.198.199 3.897 2.191 3.897 4.582"/><path fill="#FFF" fill-rule="evenodd" d="M223.572 146.32c2.098.1 3.796-1.693 3.796-4.084s-1.798-4.382-3.796-4.482c-2.198-.1-3.896 1.693-3.896 4.084s1.798 4.382 3.896 4.482m17.382.996c2.098.1 3.796-1.693 3.796-4.084s-1.698-4.382-3.796-4.482-3.796 1.693-3.796 4.084 1.698 4.382 3.796 4.482m17.182.797c2.098.1 3.696-1.693 3.696-3.984s-1.598-4.283-3.696-4.383c-1.998-.099-3.697 1.693-3.697 3.984s1.699 4.283 3.697 4.383m16.882.895c1.998.099 3.597-1.693 3.597-3.984s-1.699-4.184-3.597-4.383c-1.998-.1-3.596 1.693-3.596 3.984s1.598 4.283 3.596 4.383m19.98-3.088c0 2.291-1.598 4.084-3.496 3.984-1.998-.099-3.597-1.992-3.597-4.283s1.599-4.084 3.597-3.984c1.898.1 3.496 2.092 3.496 4.283m12.587 4.784c1.898.099 3.496-1.594 3.496-3.885 0-2.191-1.498-4.183-3.496-4.283-1.898-.1-3.496 1.594-3.496 3.885s1.598 4.183 3.496 4.283m19.28-2.989c0 2.191-1.498 3.984-3.396 3.884s-3.397-1.992-3.397-4.283 1.499-3.984 3.397-3.884c1.898.099 3.396 2.091 3.396 4.283m12.188 4.68c1.798.099 3.296-1.594 3.296-3.785 0-2.291-1.498-4.184-3.296-4.184-1.898-.199-3.397 1.594-3.397 3.785 0 2.192 1.499 4.084 3.397 4.184" clip-rule="evenodd"/><path fill="#D06304" fill-rule="evenodd" d="M205.59 217.24c2.098 0 3.896-1.893 3.896-4.283 0-2.49-1.698-4.383-3.896-4.383-2.098 0-3.896 1.893-3.896 4.283s1.698 4.383 3.896 4.383m17.981.199c2.098 0 3.797-1.892 3.797-4.283 0-2.39-1.799-4.283-3.797-4.383-2.197 0-3.896 1.893-3.896 4.283s1.799 4.383 3.896 4.383" clip-rule="evenodd"/><path fill="#FFF" fill-rule="evenodd" d="M244.749 213.355c0 2.391-1.698 4.184-3.796 4.184s-3.796-1.993-3.796-4.283c0-2.391 1.698-4.283 3.796-4.184s3.796 1.992 3.796 4.283m17.083.299c0 2.291-1.598 4.183-3.696 4.183-1.998 0-3.696-1.892-3.696-4.283 0-2.39 1.698-4.183 3.696-4.183 2.098 0 3.696 1.992 3.696 4.283m13.187 4.284c1.997.1 3.596-1.792 3.596-4.083s-1.698-4.184-3.596-4.184c-1.998-.099-3.597 1.793-3.597 4.084s1.599 4.183 3.597 4.183m16.483.296c1.898 0 3.496-1.793 3.496-4.084s-1.598-4.183-3.496-4.183c-1.998 0-3.597 1.793-3.597 4.084s1.599 4.183 3.597 4.183m16.083.199c1.898 0 3.497-1.793 3.497-4.084s-1.499-4.083-3.497-4.183c-1.898 0-3.496 1.793-3.496 4.084s1.598 4.183 3.496 4.183m19.28-3.884c0 2.191-1.498 3.984-3.396 3.984s-3.397-1.893-3.397-4.084 1.499-4.084 3.397-3.984c1.898 0 3.396 1.892 3.396 4.084m12.188 4.183c1.798 0 3.297-1.793 3.297-3.984s-1.499-3.984-3.297-4.084c-1.898 0-3.397 1.693-3.397 3.984s1.499 4.084 3.397 4.084" clip-rule="evenodd"/><path fill="#D06304" d="M209.487 284.574c0 2.391-1.799 4.383-3.897 4.483-2.198.1-3.896-1.793-3.896-4.283s1.798-4.383 3.896-4.483c2.198 0 3.897 1.893 3.897 4.283"/><path fill="#FFF" fill-rule="evenodd" d="M258.136 287.463c2.098 0 3.697-1.993 3.697-4.283 0-2.391-1.599-4.184-3.697-4.084-1.998 0-3.696 1.992-3.696 4.283s1.698 4.183 3.696 4.084m-13.386-3.885c0 2.39-1.698 4.283-3.796 4.383s-3.796-1.793-3.796-4.184 1.698-4.283 3.796-4.382c2.098 0 3.796 1.892 3.796 4.183m-17.382.498c0 2.39-1.698 4.383-3.796 4.383-2.098.099-3.896-1.793-3.896-4.184s1.698-4.382 3.896-4.382c1.998-.1 3.796 1.792 3.796 4.183m111.686.996c1.798 0 3.296-1.893 3.296-4.084s-1.498-3.984-3.296-3.884c-1.898 0-3.397 1.892-3.397 4.083s1.499 3.985 3.397 3.885m-12.188-3.685c0 2.191-1.498 4.083-3.396 4.183s-3.397-1.693-3.397-3.984 1.499-4.084 3.397-4.184c1.898 0 3.396 1.793 3.396 3.985m-19.28 4.581c1.898-.099 3.496-1.892 3.496-4.183 0-2.191-1.498-3.984-3.496-3.984-1.898 0-3.497 1.892-3.497 4.183s1.599 4.084 3.497 3.984m-12.587-3.683c0 2.29-1.599 4.183-3.497 4.183-1.998.1-3.596-1.793-3.596-4.084s1.598-4.183 3.596-4.183c1.898 0 3.497 1.793 3.497 4.084m-16.384.396c0 2.291-1.598 4.184-3.596 4.283s-3.596-1.792-3.596-4.083 1.598-4.184 3.596-4.283c1.898 0 3.596 1.793 3.596 4.083" clip-rule="evenodd"/><path fill="#D09B4D" d="m350.042 124.906-68.13-2.789v40.44c0 3.287 2.697 5.976 5.993 5.976l22.078-.1c9.39.299 10.289 8.168 12.187 13.347.4 1.196 2.098 1.096 2.498-.099 1.398-4.881 3.296-12.949 10.689-12.849l21.178.299v-36.954c-.1-3.785-2.997-7.072-6.493-7.271" opacity=".7"/><path fill="#FFBE5C" d="m387.003 55.68-75.023-5.279c-3.296 0-5.994 2.69-5.994 5.977v71.715c0 3.287 2.698 5.976 5.994 5.976l23.976.299c9.89.399 10.289 9.064 12.487 14.144.399.896 1.698.797 1.898-.1 1.398-4.781 3.097-13.745 10.889-13.645l25.773.398c3.297 0 5.994-2.689 5.994-5.976V61.657c.1-3.287-2.697-5.977-5.994-5.977"/><path fill="#FFF" fill-rule="evenodd" d="M350.54 72.415c1.104 0 1.998.892 1.998 1.992v16.051l14.864.585a1.994 1.994 0 0 1 1.917 2.069 1.995 1.995 0 0 1-2.075 1.912l-14.706-.579v17.214c0 1.1-.894 1.992-1.998 1.992a1.995 1.995 0 0 1-1.998-1.992v-17.37l-16.761-.66a1.994 1.994 0 0 1-1.918-2.069 1.995 1.995 0 0 1 2.075-1.912l16.604.653V74.407c0-1.1.895-1.992 1.998-1.992" clip-rule="evenodd"/></svg>