<svg xmlns="http://www.w3.org/2000/svg" width="400" height="400" fill="none" viewBox="0 0 400 400"><path fill="#F0F3F5" d="M368.925 338.296H136.963c-3.197 0-5.794-2.589-5.794-5.777V213.392c0-3.187 2.597-5.777 5.794-5.777h231.962c3.197 0 5.794 2.59 5.794 5.777v119.127c.1 3.188-2.497 5.777-5.794 5.777"/><path fill="#F0F3F5" fill-rule="evenodd" d="M288.608 333.215c0 2.789-2.298 5.08-5.095 5.08H8.095c-2.797 0-5.095-2.291-5.095-5.08v-75.5c0-2.789 2.298-5.08 5.095-5.08h45.543c6.617-.45 10.727-.283 13.188 0h3.305V67.569c0-11.853 8.092-15.737 27.472-15.737h92.006V167.87h13.686V98.746h99.298v163.65h43.556v12.849s19.28 57.97-4.596 57.97z" clip-rule="evenodd"/><path fill="#999" fill-rule="evenodd" d="M25.178 84.304c0-1.1.894-1.992 1.997-1.992H150.75c1.103 0 1.998.892 1.998 1.992v246.422a1.995 1.995 0 0 1-1.998 1.992H27.175a1.994 1.994 0 0 1-1.998-1.992zm3.995 125.203v119.227h119.578V209.507zm119.578-3.984H29.173V86.296h119.578z" clip-rule="evenodd"/><path fill="#999" fill-rule="evenodd" d="M77.46 98.747c0-1.025.834-1.855 1.862-1.855h56.642c1.027 0 1.86.83 1.86 1.855a1.86 1.86 0 0 1-1.86 1.855H79.322a1.86 1.86 0 0 1-1.861-1.855m0 9.761c0-1.024.834-1.855 1.862-1.855h35.264c1.027 0 1.86.831 1.86 1.855a1.857 1.857 0 0 1-1.86 1.855H79.322a1.86 1.86 0 0 1-1.861-1.855m0 9.861c0-1.025.834-1.855 1.862-1.855h56.642c1.027 0 1.86.83 1.86 1.855a1.857 1.857 0 0 1-1.86 1.855H79.322a1.86 1.86 0 0 1-1.861-1.855" clip-rule="evenodd"/><path fill="#999" d="M42.76 101.238a2.494 2.494 0 0 0 2.497-2.49 2.494 2.494 0 0 0-2.498-2.491 2.494 2.494 0 0 0-2.497 2.49 2.494 2.494 0 0 0 2.497 2.491m9.791 0a2.494 2.494 0 0 0 2.498-2.49 2.494 2.494 0 0 0-2.498-2.491 2.494 2.494 0 0 0-2.497 2.49 2.494 2.494 0 0 0 2.497 2.491m9.89 0a2.494 2.494 0 0 0 2.497-2.49 2.494 2.494 0 0 0-2.498-2.491 2.494 2.494 0 0 0-2.497 2.49 2.494 2.494 0 0 0 2.497 2.491m-19.679 9.761a2.494 2.494 0 0 0 2.497-2.491 2.494 2.494 0 0 0-2.498-2.49 2.494 2.494 0 0 0-2.497 2.49 2.494 2.494 0 0 0 2.497 2.491m9.791 0a2.494 2.494 0 0 0 2.498-2.491 2.494 2.494 0 0 0-2.498-2.49 2.494 2.494 0 0 0-2.497 2.49 2.494 2.494 0 0 0 2.497 2.491m9.89 0a2.494 2.494 0 0 0 2.497-2.491 2.494 2.494 0 0 0-2.498-2.49 2.494 2.494 0 0 0-2.497 2.49 2.494 2.494 0 0 0 2.497 2.491M42.76 120.86a2.494 2.494 0 0 0 2.497-2.491 2.494 2.494 0 0 0-2.498-2.49 2.494 2.494 0 0 0-2.497 2.49 2.494 2.494 0 0 0 2.497 2.491m9.791 0a2.494 2.494 0 0 0 2.498-2.491 2.494 2.494 0 0 0-2.498-2.49 2.494 2.494 0 0 0-2.497 2.49 2.494 2.494 0 0 0 2.497 2.491m9.89 0a2.494 2.494 0 0 0 2.497-2.491 2.494 2.494 0 0 0-2.498-2.49 2.494 2.494 0 0 0-2.497 2.49 2.494 2.494 0 0 0 2.497 2.491"/><path fill="#999" fill-rule="evenodd" d="M77.46 135.601a1.86 1.86 0 0 1 1.862-1.856h56.642c1.027 0 1.86.831 1.86 1.856a1.86 1.86 0 0 1-1.86 1.855H79.322a1.86 1.86 0 0 1-1.861-1.855m0 9.761c0-1.025.834-1.855 1.862-1.855h56.642c1.027 0 1.86.83 1.86 1.855a1.857 1.857 0 0 1-1.86 1.855H79.322a1.86 1.86 0 0 1-1.861-1.855m0 9.763c0-1.025.834-1.855 1.862-1.855h47.451c1.028 0 1.861.83 1.861 1.855a1.86 1.86 0 0 1-1.861 1.855H79.322a1.86 1.86 0 0 1-1.861-1.855" clip-rule="evenodd"/><path fill="#999" d="M42.76 138.091a2.494 2.494 0 0 0 2.497-2.49 2.494 2.494 0 0 0-2.498-2.49 2.494 2.494 0 0 0-2.497 2.49 2.494 2.494 0 0 0 2.497 2.49m9.791 0a2.494 2.494 0 0 0 2.498-2.49 2.494 2.494 0 0 0-2.498-2.49 2.494 2.494 0 0 0-2.497 2.49 2.494 2.494 0 0 0 2.497 2.49m9.89 0a2.494 2.494 0 0 0 2.497-2.49 2.494 2.494 0 0 0-2.498-2.49 2.494 2.494 0 0 0-2.497 2.49 2.494 2.494 0 0 0 2.497 2.49m-19.679 9.762a2.494 2.494 0 0 0 2.497-2.491 2.494 2.494 0 0 0-2.498-2.49 2.494 2.494 0 0 0-2.497 2.49 2.494 2.494 0 0 0 2.497 2.491m9.791 0a2.494 2.494 0 0 0 2.498-2.491 2.494 2.494 0 0 0-2.498-2.49 2.494 2.494 0 0 0-2.497 2.49 2.494 2.494 0 0 0 2.497 2.491m9.89 0a2.494 2.494 0 0 0 2.497-2.491 2.494 2.494 0 0 0-2.498-2.49 2.494 2.494 0 0 0-2.497 2.49 2.494 2.494 0 0 0 2.497 2.491m-19.679 9.762a2.494 2.494 0 0 0 2.497-2.49 2.494 2.494 0 0 0-2.498-2.49 2.494 2.494 0 0 0-2.497 2.49 2.494 2.494 0 0 0 2.497 2.49m9.791 0a2.494 2.494 0 0 0 2.497-2.49 2.494 2.494 0 0 0-2.498-2.49 2.494 2.494 0 0 0-2.498 2.49 2.494 2.494 0 0 0 2.498 2.49m9.891 0a2.494 2.494 0 0 0 2.497-2.49 2.494 2.494 0 0 0-2.498-2.49 2.494 2.494 0 0 0-2.497 2.49 2.494 2.494 0 0 0 2.497 2.49"/><path fill="#999" fill-rule="evenodd" d="M77.46 172.353c0-1.024.834-1.855 1.862-1.855h56.642c1.027 0 1.86.831 1.86 1.855a1.86 1.86 0 0 1-1.86 1.856H79.322a1.86 1.86 0 0 1-1.861-1.856m0 9.86a1.86 1.86 0 0 1 1.862-1.856h56.642c1.027 0 1.86.831 1.86 1.856a1.86 1.86 0 0 1-1.86 1.855H79.322a1.86 1.86 0 0 1-1.861-1.855m0 9.763a1.86 1.86 0 0 1 1.862-1.856h56.642c1.027 0 1.86.831 1.86 1.856a1.86 1.86 0 0 1-1.86 1.855H79.322a1.86 1.86 0 0 1-1.861-1.855" clip-rule="evenodd"/><path fill="#999" d="M42.76 174.844a2.494 2.494 0 0 0 2.497-2.491 2.494 2.494 0 0 0-2.498-2.49 2.494 2.494 0 0 0-2.497 2.49 2.494 2.494 0 0 0 2.497 2.491m9.791 0a2.494 2.494 0 0 0 2.497-2.491 2.494 2.494 0 0 0-2.498-2.49 2.494 2.494 0 0 0-2.498 2.49 2.494 2.494 0 0 0 2.498 2.491m9.891 0a2.494 2.494 0 0 0 2.497-2.491 2.494 2.494 0 0 0-2.498-2.49 2.494 2.494 0 0 0-2.497 2.49 2.494 2.494 0 0 0 2.497 2.491m-19.679 9.862a2.494 2.494 0 0 0 2.497-2.49 2.494 2.494 0 0 0-2.498-2.49 2.494 2.494 0 0 0-2.497 2.49 2.494 2.494 0 0 0 2.497 2.49m9.791 0a2.494 2.494 0 0 0 2.498-2.49 2.494 2.494 0 0 0-2.498-2.49 2.494 2.494 0 0 0-2.497 2.49 2.494 2.494 0 0 0 2.497 2.49m9.89 0a2.494 2.494 0 0 0 2.497-2.49 2.494 2.494 0 0 0-2.498-2.49 2.494 2.494 0 0 0-2.497 2.49 2.494 2.494 0 0 0 2.497 2.49m-19.679 9.763a2.494 2.494 0 0 0 2.497-2.49 2.494 2.494 0 0 0-2.498-2.491 2.494 2.494 0 0 0-2.497 2.491 2.494 2.494 0 0 0 2.497 2.49m9.791 0a2.494 2.494 0 0 0 2.497-2.49 2.494 2.494 0 0 0-2.498-2.491 2.494 2.494 0 0 0-2.498 2.491 2.494 2.494 0 0 0 2.498 2.49m9.891 0a2.494 2.494 0 0 0 2.497-2.49 2.494 2.494 0 0 0-2.498-2.491 2.494 2.494 0 0 0-2.497 2.491 2.494 2.494 0 0 0 2.497 2.49"/><g fill="#999"><path fill-rule="evenodd" d="M77.46 222.456c0-1.025.834-1.855 1.862-1.855h56.642c1.027 0 1.86.83 1.86 1.855a1.857 1.857 0 0 1-1.86 1.855H79.322a1.86 1.86 0 0 1-1.861-1.855m0 9.761c0-1.024.834-1.855 1.862-1.855h35.264c1.027 0 1.86.831 1.86 1.855a1.857 1.857 0 0 1-1.86 1.855H79.322a1.86 1.86 0 0 1-1.861-1.855m0 9.861c0-1.025.834-1.855 1.862-1.855h56.642c1.027 0 1.86.83 1.86 1.855a1.857 1.857 0 0 1-1.86 1.855H79.322a1.86 1.86 0 0 1-1.861-1.855" clip-rule="evenodd"/><path d="M42.76 224.946a2.493 2.493 0 0 0 2.497-2.49 2.494 2.494 0 0 0-2.498-2.49 2.494 2.494 0 0 0-2.497 2.49 2.493 2.493 0 0 0 2.497 2.49m9.791 0a2.493 2.493 0 0 0 2.497-2.49 2.494 2.494 0 0 0-2.498-2.49 2.494 2.494 0 0 0-2.497 2.49 2.493 2.493 0 0 0 2.497 2.49m9.891 0a2.493 2.493 0 0 0 2.497-2.49 2.494 2.494 0 0 0-2.498-2.49 2.494 2.494 0 0 0-2.498 2.49 2.493 2.493 0 0 0 2.498 2.49m-19.679 9.762a2.494 2.494 0 0 0 2.497-2.49 2.494 2.494 0 0 0-2.498-2.491 2.494 2.494 0 0 0-2.497 2.491 2.494 2.494 0 0 0 2.497 2.49m9.791 0a2.494 2.494 0 0 0 2.497-2.49 2.494 2.494 0 0 0-2.498-2.491 2.494 2.494 0 0 0-2.497 2.491 2.494 2.494 0 0 0 2.497 2.49m9.891 0a2.494 2.494 0 0 0 2.497-2.49 2.494 2.494 0 0 0-2.498-2.491 2.494 2.494 0 0 0-2.498 2.491 2.494 2.494 0 0 0 2.498 2.49m-19.679 9.861a2.494 2.494 0 0 0 2.497-2.491 2.494 2.494 0 0 0-2.498-2.49 2.494 2.494 0 0 0-2.497 2.49 2.494 2.494 0 0 0 2.497 2.491m9.791 0a2.494 2.494 0 0 0 2.497-2.491 2.494 2.494 0 0 0-2.498-2.49 2.494 2.494 0 0 0-2.497 2.49 2.494 2.494 0 0 0 2.497 2.491m9.891 0a2.494 2.494 0 0 0 2.497-2.491 2.494 2.494 0 0 0-2.498-2.49 2.494 2.494 0 0 0-2.498 2.49 2.494 2.494 0 0 0 2.498 2.491"/><path fill-rule="evenodd" d="M77.46 259.31c0-1.025.834-1.855 1.862-1.855h56.642c1.027 0 1.86.83 1.86 1.855a1.86 1.86 0 0 1-1.86 1.855H79.322a1.86 1.86 0 0 1-1.861-1.855m0 9.761c0-1.025.834-1.855 1.862-1.855h56.642c1.027 0 1.86.83 1.86 1.855a1.857 1.857 0 0 1-1.86 1.855H79.322a1.86 1.86 0 0 1-1.861-1.855m0 9.861c0-1.025.834-1.855 1.862-1.855h47.451c1.028 0 1.861.83 1.861 1.855a1.86 1.86 0 0 1-1.861 1.855H79.322a1.86 1.86 0 0 1-1.861-1.855" clip-rule="evenodd"/><path d="M42.76 261.8a2.494 2.494 0 0 0 2.497-2.49 2.494 2.494 0 0 0-2.498-2.49 2.494 2.494 0 0 0-2.497 2.49 2.494 2.494 0 0 0 2.497 2.49m9.791 0a2.494 2.494 0 0 0 2.497-2.49 2.494 2.494 0 0 0-2.498-2.49 2.494 2.494 0 0 0-2.497 2.49 2.494 2.494 0 0 0 2.497 2.49m9.891 0a2.494 2.494 0 0 0 2.497-2.49 2.494 2.494 0 0 0-2.498-2.49 2.494 2.494 0 0 0-2.498 2.49 2.494 2.494 0 0 0 2.498 2.49m-19.679 9.762a2.494 2.494 0 0 0 2.497-2.491 2.494 2.494 0 0 0-2.498-2.49 2.494 2.494 0 0 0-2.497 2.49 2.494 2.494 0 0 0 2.497 2.491m9.791 0a2.494 2.494 0 0 0 2.497-2.491 2.494 2.494 0 0 0-2.498-2.49 2.494 2.494 0 0 0-2.497 2.49 2.494 2.494 0 0 0 2.497 2.491m9.891 0a2.494 2.494 0 0 0 2.497-2.491 2.494 2.494 0 0 0-2.498-2.49 2.494 2.494 0 0 0-2.498 2.49 2.494 2.494 0 0 0 2.498 2.491m-19.679 9.86a2.494 2.494 0 0 0 2.497-2.49 2.494 2.494 0 0 0-2.498-2.49 2.494 2.494 0 0 0-2.497 2.49 2.494 2.494 0 0 0 2.497 2.49m9.791 0a2.494 2.494 0 0 0 2.497-2.49 2.494 2.494 0 0 0-2.498-2.49 2.494 2.494 0 0 0-2.497 2.49 2.494 2.494 0 0 0 2.497 2.49m9.891 0a2.494 2.494 0 0 0 2.497-2.49 2.494 2.494 0 0 0-2.498-2.49 2.494 2.494 0 0 0-2.498 2.49 2.494 2.494 0 0 0 2.498 2.49"/><path fill-rule="evenodd" d="M77.461 296.062c0-1.024.833-1.855 1.86-1.855h56.643c1.028 0 1.861.831 1.861 1.855a1.86 1.86 0 0 1-1.861 1.856H79.322a1.86 1.86 0 0 1-1.86-1.856m0 9.86c0-1.025.833-1.856 1.86-1.856h56.643c1.028 0 1.861.831 1.861 1.856a1.86 1.86 0 0 1-1.861 1.855H79.322a1.86 1.86 0 0 1-1.86-1.855m0 9.762c0-1.024.833-1.855 1.86-1.855h15.984c1.028 0 1.861.831 1.861 1.855a1.86 1.86 0 0 1-1.86 1.856H79.322a1.86 1.86 0 0 1-1.86-1.856" clip-rule="evenodd"/><path d="M42.76 298.553a2.494 2.494 0 0 0 2.497-2.49 2.494 2.494 0 0 0-2.498-2.491 2.494 2.494 0 0 0-2.497 2.491 2.494 2.494 0 0 0 2.497 2.49m9.791 0a2.494 2.494 0 0 0 2.497-2.49 2.494 2.494 0 0 0-2.498-2.491 2.494 2.494 0 0 0-2.498 2.491 2.494 2.494 0 0 0 2.498 2.49m9.891 0a2.494 2.494 0 0 0 2.497-2.49 2.494 2.494 0 0 0-2.498-2.491 2.494 2.494 0 0 0-2.497 2.491 2.494 2.494 0 0 0 2.497 2.49m-19.679 9.862a2.494 2.494 0 0 0 2.497-2.49 2.494 2.494 0 0 0-2.498-2.49 2.494 2.494 0 0 0-2.497 2.49 2.494 2.494 0 0 0 2.497 2.49m9.791 0a2.494 2.494 0 0 0 2.497-2.49 2.494 2.494 0 0 0-2.498-2.49 2.494 2.494 0 0 0-2.497 2.49 2.494 2.494 0 0 0 2.497 2.49m9.891 0a2.494 2.494 0 0 0 2.497-2.49 2.494 2.494 0 0 0-2.498-2.49 2.494 2.494 0 0 0-2.498 2.49 2.494 2.494 0 0 0 2.498 2.49m-19.679 9.763a2.494 2.494 0 0 0 2.497-2.49 2.494 2.494 0 0 0-2.498-2.491 2.494 2.494 0 0 0-2.497 2.491 2.494 2.494 0 0 0 2.497 2.49m9.791 0a2.494 2.494 0 0 0 2.497-2.49 2.494 2.494 0 0 0-2.498-2.491 2.494 2.494 0 0 0-2.498 2.491 2.494 2.494 0 0 0 2.498 2.49m9.891 0a2.494 2.494 0 0 0 2.497-2.49 2.494 2.494 0 0 0-2.498-2.491 2.494 2.494 0 0 0-2.497 2.491 2.494 2.494 0 0 0 2.497 2.49"/></g><path fill="#999" fill-rule="evenodd" d="M61.739 35.568c.788.77.802 2.03.03 2.817l-4.495 4.582c-.771.786-2.036.8-2.825.03a1.99 1.99 0 0 1-.031-2.816l4.495-4.582a2 2 0 0 1 2.826-.03m-23.29.016a2 2 0 0 1 2.826 0l4.596 4.581c.78.778.78 2.04 0 2.818a2 2 0 0 1-2.826 0L38.45 38.4a1.99 1.99 0 0 1 0-2.818m14.786 14.741a2 2 0 0 1 2.825 0L61.755 56c.78.778.78 2.04 0 2.818a2 2 0 0 1-2.825 0l-5.694-5.678a1.99 1.99 0 0 1 0-2.817m-7.349 1.21a1.99 1.99 0 0 1-.031 2.818l-4.595 4.482a2 2 0 0 1-2.826-.03 1.99 1.99 0 0 1 .031-2.818l4.596-4.482a2 2 0 0 1 2.825.03" clip-rule="evenodd"/><path fill="#FFBE5C" d="m104.497 354.931 90.807 10.06c2.297.2 4.295-3.087 4.295-7.171V160.204c0-4.183-1.898-7.371-4.295-7.171l-90.807 12.052c-1.998.199-3.697 3.386-3.697 7.271v175.205c0 3.884 1.599 7.171 3.697 7.37"/><path fill="#FFD493" d="m353.041 358.019-157.538 6.873c-4.096.199-7.393-3.088-7.393-7.172V160.204c0-4.183 3.297-7.371 7.393-7.171l157.538 6.872c3.497.2 6.394 3.387 6.394 7.272v183.471c0 3.885-2.897 7.172-6.394 7.371"/><path fill="#FFBE5C" fill-rule="evenodd" d="M145.145 172.764a1.994 1.994 0 0 1-1.799 2.172l-33.566 3.187a1.997 1.997 0 0 1-2.178-1.794 1.993 1.993 0 0 1 1.799-2.172l33.566-3.188a1.996 1.996 0 0 1 2.178 1.795m.003 13.073a1.994 1.994 0 0 1-1.826 2.15l-33.565 2.789a1.995 1.995 0 0 1-2.157-1.819 1.993 1.993 0 0 1 1.825-2.151l33.566-2.789a1.997 1.997 0 0 1 2.157 1.82m.002 13.175a1.995 1.995 0 0 1-1.857 2.124l-33.566 2.291a1.995 1.995 0 0 1-2.129-1.852 1.993 1.993 0 0 1 1.856-2.123l33.566-2.291a1.997 1.997 0 0 1 2.13 1.851m.002 23.251a1.994 1.994 0 0 1-1.9 2.085l-33.566 1.593a1.996 1.996 0 0 1-2.091-1.895 1.994 1.994 0 0 1 1.901-2.084l33.565-1.594a1.995 1.995 0 0 1 2.091 1.895m.001 13.07a1.993 1.993 0 0 1-1.925 2.062l-33.566 1.196a1.996 1.996 0 0 1-2.068-1.92 1.995 1.995 0 0 1 1.926-2.062l33.565-1.195a1.994 1.994 0 0 1 2.068 1.919m.001 13.178a1.995 1.995 0 0 1-1.956 2.033l-33.566.697a1.995 1.995 0 0 1-2.039-1.95 1.995 1.995 0 0 1 1.956-2.033l33.566-.697a1.995 1.995 0 0 1 2.039 1.95m-37.561 23.249c0-1.1.895-1.992 1.998-1.992h33.566c1.103 0 1.998.892 1.998 1.992s-.895 1.992-1.998 1.992h-33.566a1.995 1.995 0 0 1-1.998-1.992m0 12.625a1.994 1.994 0 0 1 2.022-1.968l33.565.398a1.994 1.994 0 0 1 1.974 2.016 1.995 1.995 0 0 1-2.021 1.968l-33.566-.399a1.995 1.995 0 0 1-1.974-2.015m.001 12.726a1.995 1.995 0 0 1 2.045-1.945l33.565.797a1.995 1.995 0 0 1 1.95 2.039 1.995 1.995 0 0 1-2.045 1.944l-33.566-.797a1.993 1.993 0 0 1-1.949-2.038m.001 22.365a1.996 1.996 0 0 1 2.091-1.895l33.565 1.593a1.994 1.994 0 0 1 1.901 2.085 1.995 1.995 0 0 1-2.091 1.895l-33.565-1.594a1.994 1.994 0 0 1-1.901-2.084m.001 12.726a1.997 1.997 0 0 1 2.114-1.871l33.565 1.993a1.994 1.994 0 0 1 1.876 2.106 1.997 1.997 0 0 1-2.113 1.871l-33.566-1.992a1.996 1.996 0 0 1-1.876-2.107m.002 12.626a1.996 1.996 0 0 1 2.135-1.845l33.566 2.39a1.994 1.994 0 0 1 1.85 2.129 1.994 1.994 0 0 1-2.135 1.845l-33.566-2.39a1.994 1.994 0 0 1-1.85-2.129m251.797-115.699-171.324-3.386.079-3.984 171.325 3.387zm.069 66.936-174.322 2.49-.057-3.983 174.321-2.491z" clip-rule="evenodd"/><path fill="#DD7E10" d="M212.487 176.242c0 2.391-1.799 4.283-3.897 4.084-2.198-.1-3.896-2.191-3.896-4.582s1.798-4.284 3.896-4.084c2.198.199 3.897 2.191 3.897 4.582"/><path fill="#fff" fill-rule="evenodd" d="M226.572 181.32c2.097.1 3.796-1.693 3.796-4.084s-1.798-4.382-3.796-4.482c-2.198-.1-3.896 1.693-3.896 4.084s1.798 4.382 3.896 4.482m17.382.996c2.098.1 3.796-1.693 3.796-4.084s-1.698-4.382-3.796-4.482c-2.098-.099-3.796 1.693-3.796 4.084s1.698 4.383 3.796 4.482m17.182.797c2.098.1 3.696-1.693 3.696-3.984s-1.598-4.283-3.696-4.383c-1.998-.099-3.696 1.694-3.696 3.984s1.698 4.283 3.696 4.383m16.883.895c1.998.1 3.596-1.693 3.596-3.984s-1.698-4.184-3.596-4.383c-1.998-.099-3.597 1.693-3.597 3.984s1.599 4.283 3.597 4.383m19.979-3.088c0 2.291-1.598 4.084-3.496 3.984-1.998-.099-3.597-1.992-3.597-4.283s1.599-4.083 3.597-3.984c1.898.1 3.496 2.092 3.496 4.283m12.587 4.784c1.898.099 3.497-1.594 3.497-3.885 0-2.191-1.499-4.183-3.497-4.283-1.898-.099-3.496 1.594-3.496 3.885s1.598 4.183 3.496 4.283m19.281-2.989c0 2.191-1.499 3.984-3.397 3.884-1.898-.099-3.397-1.992-3.397-4.283s1.499-3.984 3.397-3.884c1.898.099 3.397 2.091 3.397 4.283m12.187 4.68c1.798.099 3.297-1.594 3.297-3.785 0-2.291-1.499-4.184-3.297-4.184-1.898-.199-3.396 1.594-3.396 3.785 0 2.192 1.498 4.084 3.396 4.184" clip-rule="evenodd"/><g fill-rule="evenodd" clip-rule="evenodd"><path fill="#DD7E10" d="M208.59 252.24c2.098 0 3.896-1.893 3.896-4.283 0-2.49-1.698-4.383-3.896-4.383-2.098 0-3.896 1.893-3.896 4.283s1.698 4.383 3.896 4.383m17.981.199c2.098 0 3.797-1.892 3.797-4.283 0-2.39-1.799-4.283-3.797-4.383-2.197 0-3.896 1.893-3.896 4.283s1.799 4.383 3.896 4.383"/><path fill="#fff" d="M247.75 248.355c0 2.391-1.699 4.184-3.796 4.184-2.098 0-3.797-1.992-3.797-4.283 0-2.391 1.699-4.283 3.797-4.184s3.796 1.992 3.796 4.283m17.082.299c0 2.291-1.598 4.183-3.696 4.183-1.998 0-3.696-1.892-3.696-4.283 0-2.39 1.698-4.183 3.696-4.183 2.098 0 3.696 1.992 3.696 4.283m13.187 4.285c1.998.099 3.596-1.793 3.596-4.084s-1.698-4.184-3.596-4.184c-1.998-.099-3.597 1.793-3.597 4.084s1.599 4.184 3.597 4.184m16.483.295c1.898 0 3.496-1.793 3.496-4.083s-1.598-4.184-3.496-4.184c-1.998 0-3.596 1.793-3.596 4.084s1.598 4.183 3.596 4.183m16.083.2c1.898 0 3.497-1.793 3.497-4.084s-1.499-4.084-3.497-4.184c-1.898 0-3.496 1.793-3.496 4.084s1.598 4.184 3.496 4.184m19.281-3.885c0 2.191-1.499 3.984-3.397 3.984s-3.396-1.892-3.396-4.084 1.498-4.083 3.396-3.984c1.898 0 3.397 1.893 3.397 4.084m12.187 4.183c1.798 0 3.297-1.793 3.297-3.984s-1.499-3.984-3.297-4.084c-1.898 0-3.396 1.694-3.396 3.985s1.498 4.083 3.396 4.083"/></g><path fill="#DD7E10" d="M212.487 319.574c0 2.391-1.799 4.383-3.897 4.483-2.198.099-3.896-1.793-3.896-4.284s1.798-4.383 3.896-4.482c2.198 0 3.897 1.892 3.897 4.283"/><path fill="#fff" fill-rule="evenodd" d="M261.136 322.462c2.098 0 3.696-1.992 3.696-4.283 0-2.39-1.598-4.183-3.696-4.083-1.998 0-3.696 1.992-3.696 4.283 0 2.29 1.698 4.183 3.696 4.083m-13.386-3.884c0 2.39-1.698 4.283-3.796 4.382-2.098.1-3.796-1.793-3.796-4.183 0-2.391 1.698-4.283 3.796-4.383 2.098 0 3.796 1.893 3.796 4.184m-17.382.498c0 2.39-1.699 4.382-3.796 4.382-2.098.1-3.896-1.793-3.896-4.183 0-2.391 1.698-4.383 3.896-4.383 1.998-.099 3.796 1.793 3.796 4.184m111.685.996c1.799 0 3.297-1.893 3.297-4.084s-1.498-3.984-3.297-3.885c-1.898 0-3.396 1.893-3.396 4.084 0 2.192 1.498 3.984 3.396 3.885m-12.187-3.686c0 2.192-1.499 4.084-3.397 4.184-1.898.099-3.396-1.693-3.396-3.984s1.498-4.084 3.396-4.184c1.898 0 3.397 1.793 3.397 3.984m-19.28 4.582c1.898-.099 3.496-1.892 3.496-4.183 0-2.191-1.498-3.984-3.496-3.984-1.898 0-3.497 1.892-3.497 4.183s1.599 4.084 3.497 3.984m-12.588-3.684c0 2.291-1.598 4.184-3.496 4.184-1.998.099-3.596-1.793-3.596-4.084s1.598-4.183 3.596-4.183c1.898 0 3.496 1.792 3.496 4.083m-16.383.397c0 2.291-1.598 4.184-3.596 4.283s-3.596-1.793-3.596-4.083 1.598-4.184 3.596-4.283c1.898 0 3.596 1.792 3.596 4.083" clip-rule="evenodd"/><path fill="#DCA553" d="m353.042 159.906-68.13-2.789v40.439c0 3.287 2.697 5.977 5.993 5.977l22.078-.1c9.39.299 10.289 8.168 12.187 13.347.4 1.195 2.098 1.096 2.498-.1 1.398-4.88 3.296-12.948 10.689-12.849l21.178.299v-36.953c-.1-3.785-2.997-7.072-6.493-7.271" opacity=".7"/><path fill="#FFBE5C" d="m390.003 90.68-75.023-5.279c-3.296 0-5.994 2.69-5.994 5.977v71.715c0 3.287 2.698 5.976 5.994 5.976l23.976.299c9.89.399 10.289 9.064 12.487 14.144.399.897 1.698.797 1.898-.099 1.398-4.782 3.097-13.746 10.889-13.646l25.773.398c3.297 0 5.994-2.689 5.994-5.976V96.657c.1-3.287-2.697-5.977-5.994-5.977"/><path fill="#fff" fill-rule="evenodd" d="M353.54 107.416c1.104 0 1.998.892 1.998 1.992v16.051l14.864.584a1.995 1.995 0 0 1 1.918 2.069 1.995 1.995 0 0 1-2.075 1.912l-14.707-.578v17.214c0 1.1-.894 1.992-1.998 1.992a1.995 1.995 0 0 1-1.998-1.992v-17.371l-16.761-.659a1.995 1.995 0 0 1-1.918-2.069 1.996 1.996 0 0 1 2.075-1.912l16.604.653v-15.894c0-1.1.895-1.992 1.998-1.992" clip-rule="evenodd"/></svg>